<svg xmlns="http://www.w3.org/2000/svg" viewBox="0 0 16 16"><defs><style>.cls-1{fill:#0069a5;}</style></defs><title>icon-external-link-sm</title><g id="outline"><path class="cls-1" d="M12.5,9.38a.62.62,0,0,0-.62.62v2.88H3.12V4.12H6A.62.62,0,0,0,6,2.88H2.5a.62.62,0,0,0-.62.62v10a.62.62,0,0,0,.62.62h10a.62.62,0,0,0,.62-.62V10A.62.62,0,0,0,12.5,9.38Z"/><path class="cls-1" d="M14.08,2.26a.72.72,0,0,0-.14-.2h0l0,0a.71.71,0,0,0-.18-.12.67.67,0,0,0-.24,0h-4a.62.62,0,0,0,0,1.24H12L7.6,7.52a.63.63,0,0,0,.45,1.07.59.59,0,0,0,.44-.19L12.88,4V6.5a.62.62,0,0,0,1.24,0v-4h0A.67.67,0,0,0,14.08,2.26Z"/></g></svg>