<svg xmlns="http://www.w3.org/2000/svg" viewBox="0 0 24 24"><defs><style>.cls-1{fill:#0069a5;}.cls-2{fill:#fff;}.cls-3{fill:#c4ebfa;}</style></defs><title>icon-user-md</title><g id="outline"><circle class="cls-1" cx="12" cy="11.99" r="11.04"/><path class="cls-2" d="M5.85,19.91v-2.5A3.41,3.41,0,0,1,9.26,14h5.48a3.41,3.41,0,0,1,3.41,3.41v2.5a9.94,9.94,0,0,1-12.3,0Z"/><circle class="cls-2" cx="12" cy="9" r="4"/><path class="cls-3" d="M19.15,19V17.41A4.41,4.41,0,0,0,14.94,13a5,5,0,1,0-5.88,0,4.41,4.41,0,0,0-4.21,4.39V19a10,10,0,1,1,14.3,0Z"/></g></svg>