<svg width="16" height="16" viewBox="0 0 16 16" fill="none" xmlns="http://www.w3.org/2000/svg">
  <path d="M9.40994 8L12.7099 4.71C12.8032 4.61676 12.8771 4.50607 12.9276 4.38425C12.9781 4.26243 13.004 4.13186 13.004 4C13.004 3.86814 12.9781 3.73758 12.9276 3.61575C12.8771 3.49393 12.8032 3.38324 12.7099 3.29C12.6167 3.19676 12.506 3.1228 12.3842 3.07234C12.2624 3.02188 12.1318 2.99591 11.9999 2.99591C11.7336 2.99591 11.4782 3.1017 11.2899 3.29L7.99994 6.59L4.70994 3.29C4.6167 3.19676 4.50601 3.1228 4.38419 3.07234C4.26237 3.02188 4.1318 2.99591 3.99994 2.99591C3.86808 2.99591 3.73751 3.02188 3.61569 3.07234C3.49387 3.1228 3.38318 3.19676 3.28994 3.29C3.10164 3.47831 2.99585 3.7337 2.99585 4C2.99585 4.2663 3.10164 4.5217 3.28994 4.71L6.58994 8L3.28994 11.29C3.19621 11.383 3.12182 11.4936 3.07105 11.6154C3.02028 11.7373 2.99414 11.868 2.99414 12C2.99414 12.132 3.02028 12.2627 3.07105 12.3846C3.12182 12.5064 3.19621 12.617 3.28994 12.71C3.3829 12.8037 3.4935 12.8781 3.61536 12.9289C3.73722 12.9797 3.86793 13.0058 3.99994 13.0058C4.13195 13.0058 4.26266 12.9797 4.38452 12.9289C4.50638 12.8781 4.61698 12.8037 4.70994 12.71L7.99994 9.41L11.2899 12.71C11.3829 12.8037 11.4935 12.8781 11.6154 12.9289C11.7372 12.9797 11.8679 13.0058 11.9999 13.0058C12.132 13.0058 12.2627 12.9797 12.3845 12.9289C12.5064 12.8781 12.617 12.8037 12.7099 12.71C12.8037 12.617 12.8781 12.5064 12.9288 12.3846C12.9796 12.2627 13.0057 12.132 13.0057 12C13.0057 11.868 12.9796 11.7373 12.9288 11.6154C12.8781 11.4936 12.8037 11.383 12.7099 11.29L9.40994 8Z" fill="#2D3741"/>
</svg>
