<svg xmlns="http://www.w3.org/2000/svg" viewBox="0 0 16 16"><defs><style>.cls-1{fill:#2d3340;}</style></defs><path class="cls-1" d="M13.83,2.17a2.75,2.75,0,0,0-3.89,0L8.53,3.58a2.75,2.75,0,0,0-.45,3.28L6.85,8.09a2.82,2.82,0,0,0-3.27.44L2.17,9.94a2.75,2.75,0,1,0,3.89,3.89l1.41-1.41a2.75,2.75,0,0,0,.45-3.28L9.14,7.92a2.81,2.81,0,0,0,1.33.35,2.73,2.73,0,0,0,1.95-.8l1.41-1.41A2.74,2.74,0,0,0,13.83,2.17ZM6.41,11.36,5,12.77A1.25,1.25,0,1,1,3.23,11L4.64,9.59a1.23,1.23,0,0,1,.89-.36l.15,0-.33.33a.75.75,0,0,0,0,1.06.75.75,0,0,0,1.06,0l.33-.33A1.23,1.23,0,0,1,6.41,11.36ZM12.77,5,11.36,6.41a1.27,1.27,0,0,1-1,.33l.32-.33A.75.75,0,1,0,9.59,5.35l-.33.33a1.23,1.23,0,0,1,.33-1L11,3.23a1.25,1.25,0,0,1,.89-.37,1.21,1.21,0,0,1,.88.37A1.24,1.24,0,0,1,12.77,5Z"/></svg>
