<svg id="outline" xmlns="http://www.w3.org/2000/svg" viewBox="0 0 16 16"><defs><style>.cls-1{fill:#2d3340;}</style></defs><path class="cls-1" d="M5.78,6.25H4.18A.2.2,0,0,1,4,6.12a2.91,2.91,0,0,1-.15-1,2.8,2.8,0,0,1,.48-1.61,3.23,3.23,0,0,1,1.4-1.12A5.23,5.23,0,0,1,8,2a5.52,5.52,0,0,1,1.81.27A3.83,3.83,0,0,1,11.05,3a3.21,3.21,0,0,1,.78,1,2.4,2.4,0,0,1,.29,1,.35.35,0,0,1-.09.22.3.3,0,0,1-.26.11h-.89a.49.49,0,0,1-.24-.07A.39.39,0,0,1,10.45,5a1.69,1.69,0,0,0-.77-1.15A3,3,0,0,0,8,3.42a3.4,3.4,0,0,0-1.76.41,1.42,1.42,0,0,0-.67,1.3,1.34,1.34,0,0,0,.31.94S5.94,6.25,5.78,6.25Z"/><path class="cls-1" d="M14,7.25H2a.75.75,0,0,0,0,1.5H8.24c.42.13.82.26,1.13.38a3.13,3.13,0,0,1,1.09.65,1.25,1.25,0,0,1,.36.94,1.6,1.6,0,0,1-.68,1.35A3.5,3.5,0,0,1,8,12.58a3.67,3.67,0,0,1-1.52-.26,2.2,2.2,0,0,1-.91-.65,2.1,2.1,0,0,1-.42-.79.45.45,0,0,0-.13-.23.4.4,0,0,0-.3-.1H3.9a.36.36,0,0,0-.26.11.34.34,0,0,0-.11.24,2.72,2.72,0,0,0,.56,1.49A3.78,3.78,0,0,0,5.6,13.55,5.86,5.86,0,0,0,8,14a6.37,6.37,0,0,0,2.34-.39,3.44,3.44,0,0,0,1.55-1.13,3,3,0,0,0,.55-1.8,2.78,2.78,0,0,0-.41-1.56,3,3,0,0,0-.35-.37H14a.75.75,0,0,0,0-1.5Z"/></svg>