<svg xmlns="http://www.w3.org/2000/svg" viewBox="0 0 16 16"><defs><style>.cls-1{fill:#2d3340;}</style></defs><path class="cls-1" d="M3.35,14A.39.39,0,0,1,3,13.87a.41.41,0,0,1-.12-.3V2.43A.41.41,0,0,1,3.35,2H8.57A6.16,6.16,0,0,1,11,2.41a2.94,2.94,0,0,1,1.4,1.18,3.46,3.46,0,0,1,.45,1.8,2.34,2.34,0,0,1-.23,1.09,2.44,2.44,0,0,1-.56.78,2.67,2.67,0,0,1-.63.45,3,3,0,0,1,1.16,1,2.8,2.8,0,0,1,.5,1.65,3.66,3.66,0,0,1-.5,1.94,3.27,3.27,0,0,1-1.48,1.25A5.73,5.73,0,0,1,8.73,14ZM6,6.77H8.23A1.44,1.44,0,0,0,9.29,6.4a1.3,1.3,0,0,0,.35-.92,1.22,1.22,0,0,0-.35-.9,1.47,1.47,0,0,0-1.06-.35H6Zm0,5H8.39a1.38,1.38,0,0,0,1.11-.43,1.43,1.43,0,0,0,.38-1A1.38,1.38,0,0,0,8.39,8.94H6Z"/></svg>
