<svg id="outline" xmlns="http://www.w3.org/2000/svg" viewBox="0 0 16 16"><defs><style>.cls-1{fill:#2d3340;}</style></defs><rect class="cls-1" x="1" y="2.5" width="2" height="2" rx="1"/><rect class="cls-1" x="1" y="7" width="2" height="2" rx="1"/><rect class="cls-1" x="1" y="11.5" width="2" height="2" rx="1"/><path class="cls-1" d="M14.25,4.25H5.75a.75.75,0,0,1,0-1.5h8.5a.75.75,0,0,1,0,1.5Z"/><path class="cls-1" d="M14.22,8.75H5.78a.75.75,0,0,1,0-1.5h8.44a.75.75,0,0,1,0,1.5Z"/><path class="cls-1" d="M14.22,13.25H5.78a.75.75,0,0,1,0-1.5h8.44a.75.75,0,0,1,0,1.5Z"/></svg>