<svg xmlns="http://www.w3.org/2000/svg" viewBox="0 0 262.18 38.86"><defs><style>.cls-1{fill:#1e2b3c;}</style></defs><title>Felles datakatalog</title><path class="cls-1" d="M19.73,7.06H7.56a.5.5,0,0,0-.5.5V31.3a.5.5,0,0,0,.5.5H19.73a12.37,12.37,0,0,0,0-24.73m1.19,21a8.8,8.8,0,1,1,7.18-7.18,8.8,8.8,0,0,1-7.18,7.18"/><path class="cls-1" d="M42.42,10.78c0-.08,0-.12.13-.12H53.67a.11.11,0,0,1,.12.12v1.88a.11.11,0,0,1-.12.12H44.92c-.08,0-.12,0-.12.13V18a.12.12,0,0,0,.12.13h7.73a.11.11,0,0,1,.12.12v1.87a.12.12,0,0,1-.12.13H44.92a.11.11,0,0,0-.12.12v7.75a.11.11,0,0,1-.12.12H42.55a.12.12,0,0,1-.13-.12Z"/><path class="cls-1" d="M67.16,21.94q0,.84-.18.84H57.85c-.08,0-.12,0-.12.13a3.43,3.43,0,0,0,3.56,3.47,3.3,3.3,0,0,0,3.18-1.75.16.16,0,0,1,.16-.12h2.06c.09,0,.13,0,.12.12a4.75,4.75,0,0,1-2,2.86,6.13,6.13,0,0,1-3.59,1,5.5,5.5,0,0,1-4.31-1.81,6.94,6.94,0,0,1-1.6-4.78,7,7,0,0,1,1.54-4.76,5.51,5.51,0,0,1,4.41-1.79,5.4,5.4,0,0,1,4.38,1.78A7.2,7.2,0,0,1,67.16,21.94Zm-2.38-1.15a3.4,3.4,0,0,0-.89-2.27,3.72,3.72,0,0,0-5.21.08,3.39,3.39,0,0,0-1,2.19.11.11,0,0,0,.12.12h6.81A.11.11,0,0,0,64.78,20.79Z"/><path class="cls-1" d="M72.81,10.78V28.14a.11.11,0,0,1-.12.12H70.57a.12.12,0,0,1-.13-.12V10.78c0-.08,0-.12.13-.12h2.12A.11.11,0,0,1,72.81,10.78Z"/><path class="cls-1" d="M78.81,10.78V28.14a.11.11,0,0,1-.12.12H76.56a.12.12,0,0,1-.13-.12V10.78c0-.08,0-.12.13-.12h2.12A.11.11,0,0,1,78.81,10.78Z"/><path class="cls-1" d="M93.64,21.94q0,.84-.18.84H84.33c-.08,0-.12,0-.12.13a3.43,3.43,0,0,0,3.56,3.47,3.3,3.3,0,0,0,3.18-1.75.16.16,0,0,1,.16-.12h2.06c.09,0,.13,0,.12.12a4.75,4.75,0,0,1-2,2.86,6.13,6.13,0,0,1-3.59,1,5.5,5.5,0,0,1-4.31-1.81,6.94,6.94,0,0,1-1.6-4.78,7,7,0,0,1,1.54-4.76,5.51,5.51,0,0,1,4.41-1.79,5.4,5.4,0,0,1,4.38,1.78A7.2,7.2,0,0,1,93.64,21.94Zm-2.38-1.15a3.4,3.4,0,0,0-.89-2.27,3.72,3.72,0,0,0-5.21.08,3.39,3.39,0,0,0-1,2.19.11.11,0,0,0,.12.12h6.81A.11.11,0,0,0,91.26,20.79Z"/><path class="cls-1" d="M106.91,19.89h-2.15a.11.11,0,0,1-.12-.12,2,2,0,0,0-.81-1.67,3.66,3.66,0,0,0-2.23-.61,3.71,3.71,0,0,0-2.1.48,1.35,1.35,0,0,0-.68,1.11,1,1,0,0,0,.31.85,4.92,4.92,0,0,0,.56.39,11.12,11.12,0,0,0,2.45.42,12.15,12.15,0,0,1,3.33.76,3,3,0,0,1,1.9,3,3.43,3.43,0,0,1-1.51,3.09,7.42,7.42,0,0,1-4.1,1,6.1,6.1,0,0,1-4.08-1.25,4,4,0,0,1-1.46-3.15.11.11,0,0,1,.12-.12h2.11c.1,0,.15,0,.15.12a1.93,1.93,0,0,0,.9,1.62,4,4,0,0,0,2.37.65q3.12,0,3.13-1.89a1.09,1.09,0,0,0-.31-.81,1.67,1.67,0,0,0-.62-.42l-.45-.16a3.11,3.11,0,0,0-.48-.1l-.63-.11a3.28,3.28,0,0,0-.63-.06A11.38,11.38,0,0,1,98.23,22a3.22,3.22,0,0,1-1.57-1.6,4.08,4.08,0,0,1-.22-1.33,3.23,3.23,0,0,1,1.4-2.65,6,6,0,0,1,3.75-1.07,6.42,6.42,0,0,1,3.89,1.14A3.82,3.82,0,0,1,107,19.77C107,19.85,107,19.89,106.91,19.89Z"/><path class="cls-1" d="M127.35,28.27h-1.88s-.09,0-.12-.12l-.26-1q-.07-.22-.24,0a5.94,5.94,0,0,1-3.58,1.42,5.52,5.52,0,0,1-4.33-1.81,6.89,6.89,0,0,1-1.61-4.77,6.87,6.87,0,0,1,1.61-4.76,5.56,5.56,0,0,1,4.33-1.81,4.89,4.89,0,0,1,2.19.51,4.77,4.77,0,0,1,1.39.91c.06.07.12.08.17.06a.12.12,0,0,0,.07-.11V10.78c0-.08,0-.12.13-.12h2.12a.11.11,0,0,1,.12.12V28.14A.11.11,0,0,1,127.35,28.27Zm-9.64-6.33a4.87,4.87,0,0,0,1,3.21,3.38,3.38,0,0,0,2.74,1.24,3.22,3.22,0,0,0,2.68-1.22,5.06,5.06,0,0,0,.94-3.23,5.16,5.16,0,0,0-.94-3.23,3.17,3.17,0,0,0-2.67-1.22,3.41,3.41,0,0,0-2.75,1.22A4.92,4.92,0,0,0,117.71,21.94Z"/><path class="cls-1" d="M143.69,26.26v1.88a.11.11,0,0,1-.12.12h-.9q-1.93,0-2.46-1.15c0-.13-.13-.15-.23,0a4.65,4.65,0,0,1-1.7,1,7.45,7.45,0,0,1-2.72.43,5.63,5.63,0,0,1-3.73-1.09,3.53,3.53,0,0,1-1.29-2.84,3.32,3.32,0,0,1,1.41-2.81,6.75,6.75,0,0,1,4.08-1h2.81c.47,0,.74-.12.81-.36a5.79,5.79,0,0,0,0-.72,2.5,2.5,0,0,0-.54-1.37q-.54-.77-2.71-.8a3.46,3.46,0,0,0-2.29.63,2.07,2.07,0,0,0-.76,1.67c0,.08,0,.13-.13.13h-2.13c-.08,0-.12,0-.12-.13a3.76,3.76,0,0,1,1.59-3.24,6.84,6.84,0,0,1,4-1.16,6.05,6.05,0,0,1,3.94,1.18A4.15,4.15,0,0,1,142,20V24.9a1.78,1.78,0,0,0,.19,1q.19.29.87.29h.47A.11.11,0,0,1,143.69,26.26Zm-4-3.55c0-.08,0-.12-.13-.12H136a4.4,4.4,0,0,0-2.47.6,1.65,1.65,0,0,0-.64,1.32,1.72,1.72,0,0,0,.62,1.33,3,3,0,0,0,2,.55,4.28,4.28,0,0,0,3.09-1,3.33,3.33,0,0,0,1.05-2.34Z"/><path class="cls-1" d="M152.59,26.26v1.88c0,.08,0,.12-.13.12h-1.92q-3.27.07-3.28-3V17.62a.12.12,0,0,0-.12-.13h-2.22a.11.11,0,0,1-.12-.12V15.74a.11.11,0,0,1,.12-.12h2.22c.08,0,.12,0,.12-.13V12.11c0-.08,0-.12.13-.12h2.12a.11.11,0,0,1,.12.12v3.37a.12.12,0,0,0,.12.13h2.7a.12.12,0,0,1,.13.12v1.62c0,.08,0,.12-.13.12h-2.7c-.08,0-.12,0-.12.13V24.9q0,1.25,1.35,1.25h1.46C152.54,26.14,152.59,26.18,152.59,26.26Z"/><path class="cls-1" d="M167.58,26.26v1.88a.11.11,0,0,1-.12.12h-.9q-1.93,0-2.46-1.15c0-.13-.13-.15-.23,0a4.65,4.65,0,0,1-1.7,1,7.45,7.45,0,0,1-2.72.43,5.63,5.63,0,0,1-3.73-1.09,3.53,3.53,0,0,1-1.29-2.84,3.32,3.32,0,0,1,1.41-2.81,6.75,6.75,0,0,1,4.08-1h2.81c.47,0,.74-.12.81-.36a5.79,5.79,0,0,0,0-.72,2.5,2.5,0,0,0-.54-1.37q-.54-.77-2.71-.8a3.46,3.46,0,0,0-2.29.63,2.07,2.07,0,0,0-.76,1.67c0,.08,0,.13-.13.13H155c-.08,0-.12,0-.12-.13a3.76,3.76,0,0,1,1.59-3.24,6.84,6.84,0,0,1,4-1.16,6.05,6.05,0,0,1,3.94,1.18A4.15,4.15,0,0,1,165.92,20V24.9a1.78,1.78,0,0,0,.19,1q.19.29.87.29h.47A.11.11,0,0,1,167.58,26.26Zm-4-3.55c0-.08,0-.12-.13-.12h-3.5a4.4,4.4,0,0,0-2.47.6,1.65,1.65,0,0,0-.64,1.32,1.72,1.72,0,0,0,.62,1.33,3,3,0,0,0,2,.55,4.28,4.28,0,0,0,3.09-1,3.33,3.33,0,0,0,1.05-2.34Z"/><path class="cls-1" d="M181.85,28.27H179.6a.27.27,0,0,1-.23-.12l-4-6.82q-.07-.1-.18,0l-2.84,2.44a.22.22,0,0,0,0,.16v4.22c0,.08,0,.12-.13.12h-2.12a.11.11,0,0,1-.12-.12V10.78a.11.11,0,0,1,.12-.12h2.12a.12.12,0,0,1,.13.12v9.8s0,.06.06.07a.09.09,0,0,0,.11,0l5.75-4.89a.57.57,0,0,1,.38-.12h3.08a.08.08,0,0,1,.07,0s0,.06,0,.07l-4.65,4s0,.11,0,.2l4.82,8.25C182,28.22,182,28.27,181.85,28.27Z"/><path class="cls-1" d="M196.79,26.26v1.88a.11.11,0,0,1-.12.12h-.9q-1.93,0-2.46-1.15c0-.13-.13-.15-.23,0a4.65,4.65,0,0,1-1.7,1,7.45,7.45,0,0,1-2.72.43,5.63,5.63,0,0,1-3.73-1.09,3.53,3.53,0,0,1-1.29-2.84A3.32,3.32,0,0,1,185,21.77a6.75,6.75,0,0,1,4.08-1h2.81c.47,0,.74-.12.81-.36a5.79,5.79,0,0,0,0-.72,2.5,2.5,0,0,0-.54-1.37q-.54-.77-2.71-.8a3.46,3.46,0,0,0-2.29.63,2.07,2.07,0,0,0-.76,1.67c0,.08,0,.13-.13.13h-2.13c-.08,0-.12,0-.12-.13a3.76,3.76,0,0,1,1.59-3.24,6.84,6.84,0,0,1,4-1.16,6.05,6.05,0,0,1,3.94,1.18A4.15,4.15,0,0,1,195.13,20V24.9a1.78,1.78,0,0,0,.19,1q.19.29.87.29h.47A.11.11,0,0,1,196.79,26.26Zm-4-3.55c0-.08,0-.12-.13-.12h-3.5a4.4,4.4,0,0,0-2.47.6,1.65,1.65,0,0,0-.64,1.32,1.72,1.72,0,0,0,.62,1.33,3,3,0,0,0,2,.55,4.28,4.28,0,0,0,3.09-1,3.33,3.33,0,0,0,1.05-2.34Z"/><path class="cls-1" d="M205.69,26.26v1.88c0,.08,0,.12-.13.12h-1.92q-3.27.07-3.28-3V17.62a.12.12,0,0,0-.12-.13H198a.11.11,0,0,1-.12-.12V15.74a.11.11,0,0,1,.12-.12h2.22c.08,0,.12,0,.12-.13V12.11c0-.08,0-.12.13-.12h2.12a.11.11,0,0,1,.12.12v3.37a.12.12,0,0,0,.12.13h2.7a.12.12,0,0,1,.13.12v1.62c0,.08,0,.12-.13.12h-2.7c-.08,0-.12,0-.12.13V24.9q0,1.25,1.35,1.25h1.46C205.64,26.14,205.69,26.18,205.69,26.26Z"/><path class="cls-1" d="M220.68,26.26v1.88a.11.11,0,0,1-.12.12h-.9q-1.93,0-2.46-1.15c0-.13-.13-.15-.23,0a4.65,4.65,0,0,1-1.7,1,7.45,7.45,0,0,1-2.72.43,5.63,5.63,0,0,1-3.73-1.09,3.53,3.53,0,0,1-1.29-2.84,3.32,3.32,0,0,1,1.41-2.81,6.75,6.75,0,0,1,4.08-1h2.81c.47,0,.74-.12.81-.36a5.79,5.79,0,0,0,0-.72,2.5,2.5,0,0,0-.54-1.37q-.54-.77-2.71-.8a3.46,3.46,0,0,0-2.29.63,2.07,2.07,0,0,0-.76,1.67c0,.08,0,.13-.13.13h-2.13c-.08,0-.12,0-.12-.13a3.76,3.76,0,0,1,1.59-3.24,6.84,6.84,0,0,1,4-1.16,6.05,6.05,0,0,1,3.94,1.18A4.15,4.15,0,0,1,219,20V24.9a1.78,1.78,0,0,0,.19,1q.19.29.87.29h.47A.11.11,0,0,1,220.68,26.26Zm-4-3.55c0-.08,0-.12-.13-.12H213a4.4,4.4,0,0,0-2.47.6,1.65,1.65,0,0,0-.64,1.32,1.72,1.72,0,0,0,.62,1.33,3,3,0,0,0,2,.55,4.28,4.28,0,0,0,3.09-1,3.33,3.33,0,0,0,1.05-2.34Z"/><path class="cls-1" d="M225.5,10.78V28.14a.11.11,0,0,1-.12.12h-2.12a.12.12,0,0,1-.13-.12V10.78c0-.08,0-.12.13-.12h2.12A.11.11,0,0,1,225.5,10.78Z"/><path class="cls-1" d="M240.92,21.94a6.75,6.75,0,0,1-1.66,4.77,6.66,6.66,0,0,1-9.09,0,6.78,6.78,0,0,1-1.65-4.77,6.78,6.78,0,0,1,1.65-4.77,5.86,5.86,0,0,1,4.54-1.79,5.92,5.92,0,0,1,4.55,1.78A6.8,6.8,0,0,1,240.92,21.94Zm-3.41,3.21a4.85,4.85,0,0,0,1-3.21,4.86,4.86,0,0,0-1-3.21,3.43,3.43,0,0,0-2.78-1.23,3.48,3.48,0,0,0-2.8,1.22,4.86,4.86,0,0,0-1,3.22,4.81,4.81,0,0,0,1,3.21,3.46,3.46,0,0,0,2.8,1.23A3.43,3.43,0,0,0,237.51,25.15Z"/><path class="cls-1" d="M249.16,31.34a3.31,3.31,0,0,0,2.69-1,3.75,3.75,0,0,0,.85-2.52v-.67a.12.12,0,0,0-.09-.11c-.06,0-.11,0-.16.06a3.84,3.84,0,0,1-1.37.93,5,5,0,0,1-2.21.51,5.55,5.55,0,0,1-4.26-1.83,6.76,6.76,0,0,1-1.69-4.77,6.83,6.83,0,0,1,1.61-4.73,5.57,5.57,0,0,1,4.33-1.81,5.32,5.32,0,0,1,2,.42,4.82,4.82,0,0,1,1.61,1q.17.17.24,0l.26-1c0-.08.07-.12.12-.12H255a.11.11,0,0,1,.12.12v12a5.44,5.44,0,0,1-1.63,4.1,5.66,5.66,0,0,1-4.08,1.58,7,7,0,0,1-4.05-1.1,3.6,3.6,0,0,1-1.75-2.62.11.11,0,0,1,.12-.12h2.18s.09,0,.12.12a2.25,2.25,0,0,0,1,1.09A4,4,0,0,0,249.16,31.34Zm-3.84-9.41a4.87,4.87,0,0,0,1,3.21,3.38,3.38,0,0,0,2.74,1.24,3.19,3.19,0,0,0,2.67-1.22,5.11,5.11,0,0,0,1-3.23,5.11,5.11,0,0,0-1-3.23,3.19,3.19,0,0,0-2.67-1.22,3.4,3.4,0,0,0-2.74,1.22A4.92,4.92,0,0,0,245.32,21.94Z"/></svg>
