<?xml version="1.0" encoding="utf-8"?>
<svg version="1.1" xmlns="http://www.w3.org/2000/svg" xmlns:xlink="http://www.w3.org/1999/xlink" x="0px" y="0px" viewBox="0 0 358 149" style="enable-background:new 0 0 358 149;" xml:space="preserve">
	<path fill="#6C737A" d="M67.5,23.6L31.8,44.3c-4.2,2.4-7.6,9-7.6,14.6v38.6c0,5.6,3.4,8.2,7.6,5.8l0.8-0.4c0-0.2,0-0.4,0-0.6V63.7
	c0-5.6,3.4-12.2,7.7-14.6l34.9-20.2C74.9,23.6,71.5,21.3,67.5,23.6z" />
	<path fill="#969BA0" d="M80,30.9L44.3,51.5c-4.2,2.4-7.7,9-7.7,14.6v38.6c0,5.6,3.4,8.2,7.7,5.8l0.7-0.4c0-0.2,0-0.4,0-0.6V70.9
	c0-5.6,3.4-12.2,7.7-14.6l34.9-20.2C87.4,30.8,84.1,28.5,80,30.9z" />
	<path fill="#D5D7D9" d="M57.6,78.1c0-5.6,3.4-12.2,7.6-14.6l35-20.2c-0.2-5.2-3.6-7.6-7.6-5.2L56.9,58.7c-4.2,2.4-7.7,9-7.7,14.6v38.6
	c0,5.6,3.4,8.2,7.7,5.8l0.7-0.4c0-0.2,0-0.4,0-0.5L57.6,78.1z" />
	<path fill="#FFFFFF" d="M105.2,104.3l-35.7,20.6c-4.2,2.4-7.6-0.2-7.6-5.8V80.5c0-5.6,3.4-12.2,7.6-14.6l35.7-20.6
	c4.2-2.4,7.7,0.2,7.7,5.8v38.6C112.8,95.3,109.4,101.9,105.2,104.3z" />
	<path fill="#FFFFFF" d="M136,56.4c-0.3,0-0.5-0.2-0.5-0.5l0,0v-25c0-0.3,0.2-0.5,0.5-0.5l0,0h12.7c0.3,0,0.5,0.2,0.5,0.5l0,0v3.5
	c0,0.3-0.2,0.5-0.5,0.5l0,0h-8v7h5.7c0.3,0,0.5,0.2,0.5,0.5v3.5c0,0.3-0.2,0.5-0.5,0.5h-5.7V56c0,0.3-0.2,0.5-0.5,0.5l0,0L136,56.4
	L136,56.4z" />
	<path fill="#FFFFFF" d="M153,56.4c-0.3,0-0.5-0.2-0.5-0.5l0,0v-25c0-0.3,0.2-0.5,0.5-0.5l0,0h13.2c0.3,0,0.5,0.2,0.5,0.5l0,0v3.5
	c0,0.3-0.2,0.5-0.5,0.5h-8.5v6.3h6.6c0.3,0,0.5,0.2,0.5,0.5l0,0V45c0,0.3-0.2,0.5-0.5,0.5l0,0h-6.6v6.3h8.5c0.3,0,0.5,0.2,0.5,0.5
	v3.5c0,0.3-0.2,0.5-0.5,0.5l0,0L153,56.4z" />
	<path fill="#FFFFFF" d="M170.9,56.4c-0.3,0-0.5-0.2-0.5-0.5l0,0v-25c0-0.3,0.2-0.5,0.5-0.5l0,0h4.2c0.3,0,0.5,0.2,0.5,0.5l0,0v21h7.4
	c0.3,0,0.5,0.2,0.5,0.5l0,0v3.5c0,0.3-0.2,0.5-0.5,0.5l0,0H170.9z" />
	<path fill="#FFFFFF" d="M187.4,56.4c-0.3,0-0.5-0.2-0.5-0.5l0,0v-25c0-0.3,0.2-0.5,0.5-0.5l0,0h4.2c0.3,0,0.5,0.2,0.5,0.5v21h7.4
	c0.3,0,0.5,0.2,0.5,0.5v3.5c0,0.3-0.2,0.5-0.5,0.5l0,0H187.4z" />
	<path fill="#FFFFFF" d="M203.9,56.4c-0.3,0-0.5-0.2-0.5-0.5v-25c0-0.3,0.2-0.5,0.5-0.5H217c0.3,0,0.5,0.2,0.5,0.5l0,0v3.5
	c0,0.3-0.2,0.5-0.5,0.5h-8.5v6.3h6.6c0.3,0,0.5,0.2,0.5,0.5l0,0V45c0,0.3-0.2,0.5-0.5,0.5l0,0h-6.6v6.3h8.5c0.3,0,0.5,0.2,0.5,0.5
	v3.5c0,0.3-0.2,0.5-0.5,0.5l0,0L203.9,56.4z" />
	<path fill="#FFFFFF" d="M227.3,56.5c-2,0-4.1-0.4-6-1.1c-0.2-0.1-0.4-0.3-0.3-0.5l0.6-3.3c0-0.1,0.1-0.3,0.2-0.3c0.1,0,0.2-0.1,0.3-0.1
	h0.1c1.5,0.5,3,0.8,4.5,0.8h0.5c0.8,0.1,1.7-0.2,2.3-0.8c0.5-0.6,0.8-1.4,0.7-2.2c0-0.6-0.2-1.2-0.6-1.6c-0.4-0.5-1-0.8-1.5-1.1
	l-1.4-0.8c-1.8-0.8-3.4-2-4.7-3.4c-1-1.4-1.5-3.1-1.4-4.8c0-1.7,0.5-3.4,1.6-4.7c1.5-1.6,3.6-2.4,5.8-2.3h0.3c1.8,0,3.6,0.3,5.2,0.9
	c0.2,0.1,0.4,0.3,0.3,0.5l-0.6,3.2c0,0.1-0.1,0.3-0.2,0.3c-0.1,0.1-0.2,0.1-0.3,0.1h-0.1c-1.4-0.4-2.8-0.6-4.2-0.6
	c-0.8-0.1-1.6,0.2-2.1,0.7c-1.1,1.4-0.8,3.4,0.6,4.5L227,40c0.9,0.6,1.8,1.1,2.8,1.5c0.9,0.4,1.8,0.9,2.6,1.4
	c0.6,0.3,1.1,0.8,1.6,1.3c1,1.3,1.5,2.9,1.4,4.5c0.1,1.8-0.4,3.7-1.4,5.2C232.8,55.5,230.4,56.5,227.3,56.5L227.3,56.5z" />
	<path fill="#FFFFFF" d="M136,91.5c-0.3,0-0.5-0.2-0.5-0.5V66c0-0.3,0.2-0.5,0.5-0.5h6.9c1.1,0,3.9,0.2,5.6,1.7c1.1,1,1.8,2.2,2,3.7
	c0.2,1.3,0.3,2.7,0.3,4.1v7.2c0,1.3,0,2.7-0.3,4c-0.2,1.5-0.9,2.8-2,3.8c-0.8,0.6-1.6,1-2.6,1.3c-1.1,0.2-2.2,0.3-3.4,0.3L136,91.5z
	 M142.6,87.1c0.9,0.2,1.9-0.2,2.5-1c0.4-0.9,0.5-1.9,0.4-2.8v-9.4c0.1-1-0.1-1.9-0.4-2.8c-0.6-0.8-1.5-1.2-2.5-1h-1.9v17L142.6,87.1
	z" />
	<path fill="#FFFFFF" d="M166.4,91.5c-0.2,0-0.4-0.2-0.5-0.4l-0.8-4.3h-5.6l-0.8,4.3c0,0.2-0.2,0.4-0.5,0.4h-4.1c-0.3,0-0.5-0.2-0.5-0.5
	v-0.8v-0.1l5.3-24.2c0-0.2,0.2-0.4,0.5-0.4h5.7c0.2,0,0.4,0.2,0.5,0.4l5.4,24.4v0.1V91c0,0.3-0.2,0.5-0.5,0.5l0,0H166.4z
	 M164.3,82.3l-1.9-10.8h-0.1l-1.9,10.8H164.3z" />
	<path fill="#FFFFFF" d="M177.8,91.5c-0.3,0-0.5-0.2-0.5-0.5l0,0V70h-5.2c-0.3,0-0.5-0.2-0.5-0.5l0,0V66c0-0.3,0.2-0.5,0.5-0.5h15.6
	c0.3,0,0.5,0.2,0.5,0.5v3.5c0,0.3-0.2,0.5-0.5,0.5l0,0h-5.2v21c0,0.3-0.2,0.5-0.5,0.5l0,0H177.8z" />
	<path fill="#FFFFFF" d="M201.4,91.5c-0.2,0-0.5-0.2-0.5-0.4l-0.8-4.3h-5.6l-0.8,4.3c0,0.2-0.2,0.4-0.5,0.4h-4.1c-0.3,0-0.5-0.2-0.5-0.5
	v-0.8v-0.1l5.3-24.2c0-0.2,0.3-0.4,0.5-0.4h5.7c0.2,0,0.4,0.2,0.5,0.4l5.4,24.4v0.1V91c0,0.3-0.2,0.5-0.5,0.5H201.4z M199.3,82.3
	l-1.9-10.8h-0.1l-1.9,10.8H199.3z" />
	<path fill="#FFFFFF" d="M221.1,91.5c-0.2,0-0.4-0.1-0.4-0.3l-5.4-10.4h-0.4V91c0,0.3-0.2,0.5-0.5,0.5h-4.2c-0.3,0-0.5-0.2-0.5-0.5V66
	c0-0.3,0.2-0.5,0.5-0.5h4.2c0.3,0,0.5,0.2,0.5,0.5v9.6h0.3l5.2-9.8c0.1-0.2,0.3-0.3,0.4-0.3h4.2c0.3,0,0.5,0.2,0.5,0.5v0.7
	c0,0.1,0,0.2-0.1,0.2l-6.2,10.6l6.9,12.7c0,0.1,0.1,0.2,0.1,0.2V91c0,0.3-0.2,0.5-0.5,0.5H221.1z" />
	<path fill="#FFFFFF" d="M241.7,91.5c-0.2,0-0.5-0.2-0.5-0.4l-0.8-4.3h-5.6l-0.8,4.3c0,0.2-0.2,0.4-0.5,0.4h-4.1c-0.3,0-0.5-0.2-0.5-0.5
	v-0.8v-0.1l5.3-24.2c0-0.2,0.3-0.4,0.5-0.4h5.7c0.2,0,0.4,0.2,0.5,0.4l5.4,24.4v0.1V91c0,0.3-0.2,0.5-0.5,0.5H241.7z M239.6,82.3
	l-1.9-10.8h-0.1l-1.9,10.8H239.6z" />
	<path fill="#FFFFFF" d="M253.1,91.5c-0.3,0-0.5-0.2-0.5-0.5V70h-5.2c-0.3,0-0.5-0.2-0.5-0.5V66c0-0.3,0.2-0.5,0.5-0.5H263
	c0.3,0,0.5,0.2,0.5,0.5v3.5c0,0.3-0.2,0.5-0.5,0.5h-5.2v21c0,0.3-0.2,0.5-0.5,0.5H253.1z" />
	<path fill="#FFFFFF" d="M276.7,91.5c-0.2,0-0.4-0.2-0.5-0.4l-0.8-4.3h-5.6l-0.8,4.3c0,0.2-0.2,0.4-0.5,0.4h-4.1c-0.3,0-0.5-0.2-0.5-0.5
	l0,0v-0.8v-0.1l5.3-24.2c0.1-0.2,0.3-0.4,0.5-0.4h5.7c0.2,0,0.4,0.2,0.5,0.4l5.4,24.4v0.1V91c0,0.3-0.2,0.5-0.5,0.5l0,0H276.7z
	 M274.6,82.3l-1.9-10.8h-0.1l-1.9,10.8H274.6z" />
	<path fill="#FFFFFF" d="M285.5,91.5c-0.3,0-0.5-0.2-0.5-0.5V66c0-0.3,0.2-0.5,0.5-0.5h4.2c0.3,0,0.5,0.2,0.5,0.5v21h7.4
	c0.3,0,0.5,0.2,0.5,0.5V91c0,0.3-0.2,0.5-0.5,0.5H285.5z" />
	<path fill="#FFFFFF" d="M308.1,91.8c-2.9,0-5.1-0.8-6.3-2.5s-1.5-4.1-1.5-6V74c0-1.7,0.2-4.2,1.5-6s3.4-2.6,6.3-2.6s5.1,0.8,6.3,2.5
	c1.4,1.8,1.5,4.3,1.5,6v9.4c0,1.7-0.2,4.2-1.5,6S311,91.8,308.1,91.8z M307.9,69.8c-0.7,0-1.4,0.3-1.8,0.9c-0.4,0.8-0.6,1.7-0.5,2.6
	v10.6c0,0.9,0.2,1.8,0.6,2.6c0.4,0.6,1.1,0.9,1.8,0.8h0.5c0.7,0,1.4-0.3,1.8-0.8c0.4-0.8,0.6-1.7,0.5-2.6V73.2
	c0.1-0.9-0.1-1.8-0.5-2.6c-0.4-0.6-1.1-0.9-1.9-0.8L307.9,69.8z" />
	<path fill="#FFFFFF" d="M328.1,91.7c-1.4,0-2.7-0.2-4-0.6c-1.1-0.3-2-1-2.7-1.8c-1.3-1.7-1.4-4.3-1.4-6.7v-8.2c-0.1-1.2,0-2.5,0.2-3.7
	c0.2-1.4,0.9-2.6,2-3.6c1.7-1.3,3.8-1.9,5.9-1.8c1.8,0,3.5,0.3,5.2,0.9c0.2,0.1,0.4,0.3,0.3,0.6l-0.7,3.3c-0.1,0.2-0.3,0.4-0.5,0.4
	h-0.1l-0.6-0.1c-0.5-0.1-1-0.2-1.5-0.3c-0.7-0.2-1.4-0.2-2.1-0.3c-1-0.1-1.9,0.4-2.5,1.3c-0.4,0.9-0.6,1.9-0.5,2.9v8.9
	c-0.1,1.1,0.1,2.2,0.6,3.3c0.6,0.8,1.5,1.3,2.5,1.2c0.1,0,0.2,0,0.3,0h0.7v-7.5c0-0.3,0.2-0.5,0.5-0.5l0,0h4.1
	c0.3,0,0.5,0.2,0.5,0.5v10.6c0,0.2-0.1,0.4-0.3,0.4c-0.7,0.3-1.4,0.5-2.1,0.7C330.7,91.6,329.4,91.7,328.1,91.7z" />
	<path fill="#FFFFFF" d="M135.3,100.9h4.9c2,0,3.4,0.6,4.2,1.7c0.9,1.1,1,2.7,1,4.1c0,0.1,0,0.3,0,0.4c0,1.4-0.2,2.9-1,4.1
		c-0.8,1.1-2.2,1.7-4.2,1.7h-1.4v5.6h-3.5V100.9z M140.3,109.8c0.5,0,0.9-0.2,1.2-0.6c0.3-0.5,0.4-1.2,0.4-1.8c0-0.4,0-0.8,0-1.2
		c0-0.6-0.1-1.3-0.4-1.8c-0.2-0.3-0.7-0.6-1.2-0.6h-1.5v5.9H140.3z" />
	<path fill="#FFFFFF" d="M159,100.9v17.5h-3.2l-0.1-1.2c-0.3,0.3-0.8,0.6-1.1,0.8c-0.8,0.5-1.6,0.7-2.6,0.7c-1.1,0-1.9-0.4-2.4-1
		c-0.8-0.9-0.9-2.1-0.9-3.5v-13.2h3.5v13c0,0.6,0.1,1.4,0.9,1.4c0.6,0,1-0.3,1.4-0.6c0.4-0.3,0.7-0.6,1-0.9v-12.9H159z" />
	<path fill="#FFFFFF" d="M162.9,118.5v-17.5h4.9c1.9,0,3.4,0.5,4.3,1.6c0.6,0.7,0.9,1.8,0.9,2.9c0,1.4-0.6,2.8-1.8,3.5
		c0.7,0.2,1.2,0.6,1.5,1c0.7,0.9,0.8,2.1,0.8,3.4c0,1.2-0.2,2.4-1,3.4c-1,1.5-2.7,1.8-4.3,1.8H162.9z M166.3,103.9v4.3h1.5
		c0.6,0,1-0.2,1.2-0.6c0.3-0.4,0.4-1,0.4-1.6c0-0.8-0.1-1.4-0.5-1.7c-0.3-0.2-0.7-0.4-1.4-0.4H166.3z M166.3,111.1v4.4h1.9
		c0.7,0,1.2-0.3,1.4-0.7c0.2-0.4,0.3-1,0.3-1.5c0-0.6-0.1-1.2-0.4-1.6c-0.2-0.3-0.6-0.5-1.1-0.5H166.3z" />
	<path fill="#FFFFFF" d="M176.8,118.5v-17.5h3.5v14.5h5.3v3H176.8z" />
	<path fill="#FFFFFF" d="M192.3,118.5h-3.5v-17.5h3.5V118.5z" />
	<path fill="#FFFFFF" d="M196.7,102.4c0.9-1,2.2-1.5,3.9-1.5c1.4,0,2.7,0.2,4,0.7l-0.5,2.8c-1.1-0.3-2-0.5-3.2-0.5
		c-0.7,0-1.1,0.1-1.4,0.5c-0.3,0.3-0.4,0.8-0.4,1.4c0,0.7,0.4,1.2,0.9,1.7c1.1,0.7,2.5,1.2,3.6,1.9c0.4,0.3,0.8,0.5,1.1,0.9
		c0.6,0.7,0.9,1.6,0.9,3c0,1.2-0.2,2.5-1,3.5c-0.9,1.3-2.7,1.8-4.5,1.8c-1.5,0-3.2-0.4-4.3-0.9l0.5-2.9c1.3,0.4,2.3,0.7,3.4,0.7h0.3
		c0.7,0,1.2-0.2,1.5-0.6c0.3-0.3,0.5-0.9,0.5-1.5c0-0.5-0.2-0.8-0.4-1.1c-0.3-0.3-0.6-0.5-1-0.7c-1.4-0.8-3.1-1.5-4.1-2.8
		c-0.7-0.9-0.9-1.9-0.9-3.3C195.7,104.2,196.1,103.1,196.7,102.4z" />
	<path fill="#FFFFFF" d="M218.5,100.9v3h-6v4.2h4.8v3h-4.8v4.3h6v3H209v-17.5H218.5z" />
	<path fill="#FFFFFF" d="M226.8,100.9c2,0,3.4,0.6,4.2,1.7c0.9,1.1,1,2.6,1,3.9c0,1.5-0.3,2.8-0.9,3.7c-0.5,0.7-1.2,1.2-2.1,1.5l3.4,6
		v0.7h-3.6l-3.2-6.4h-0.3v6.4h-3.5v-17.5H226.8z M226.7,109.1c0.7,0,1.2-0.3,1.4-0.6c0.3-0.5,0.4-1.1,0.4-1.8c0-0.4,0,0,0-0.4
		c0-0.6,0-1.3-0.4-1.8c-0.2-0.3-0.8-0.6-1.3-0.6h-1.5v5.1H226.7z" />
	<path fill="#FFFFFF" d="M239.3,118.5h-3.5v-17.5h3.5V118.5z" />
	<path fill="#FFFFFF" d="M250.8,100.9h3.3v17.5h-2.9l-3.8-7.9c-0.3-0.6-0.7-1.5-1-2.4h-0.1c0.1,0.7,0.1,1.4,0.1,2.2v8h-3.3v-17.5h2.9
		l3.9,8.1c0.3,0.6,0.6,1.4,0.9,2.1h0.1c-0.1-0.7-0.1-1.5-0.1-2.2V100.9z" />
	<path fill="#FFFFFF" d="M257.8,107.2c0-1,0-1.9,0.2-2.8c0.2-0.9,0.6-1.7,1.4-2.4c0.9-0.8,2.4-1.2,3.9-1.2c1.2,0,2.8,0.3,3.7,0.7
		l-0.6,2.8c-0.5-0.1-1.1-0.3-1.7-0.4c-0.4-0.1-0.9-0.2-1.4-0.2c-0.7,0-1.3,0.2-1.6,0.8c-0.3,0.5-0.3,1.2-0.3,1.9v6
		c0,0.9,0.1,1.6,0.4,2.2c0.3,0.5,0.8,0.8,1.7,0.8c0.2,0,0.5,0,0.7,0v-5.4h3.4v7.7c-0.4,0.3-1,0.4-1.6,0.5c-0.9,0.2-1.8,0.2-2.6,0.2
		c-0.9,0-1.8-0.1-2.7-0.4c-0.7-0.3-1.3-0.7-1.8-1.2c-0.9-1.2-1-3-1-4.5V107.2z" />
</svg>
