<?xml version="1.0" encoding="utf-8"?>
<!-- Generator: Adobe Illustrator 24.3.0, SVG Export Plug-In . SVG Version: 6.00 Build 0)  -->
<svg version="1.1" xmlns="http://www.w3.org/2000/svg" xmlns:xlink="http://www.w3.org/1999/xlink" x="0px" y="0px"
	 viewBox="0 0 248.1 56.4" style="enable-background:new 0 0 248.1 56.4;" xml:space="preserve">
<style type="text/css">
	.st0{fill:#FFFFFF;}
	.st1{fill:#AFC2DB;}
	.st2{display:none;}
	.st3{display:inline;fill:none;stroke:#C2132C;stroke-width:4.800000e-02;stroke-miterlimit:10;}
	.st4{display:inline;fill:none;stroke:#C2132C;stroke-width:5.000000e-02;stroke-miterlimit:10;}
	.st5{display:inline;fill:none;stroke:#1EACF5;stroke-width:5.000000e-02;stroke-miterlimit:10;}
	.st6{display:inline;fill:none;stroke:#C2132C;stroke-width:5.200000e-02;stroke-miterlimit:10;}
	.st7{display:inline;fill:#C2132C;}
	.st8{font-family:'NBInternationalPro-Reg';}
	.st9{font-size:4px;}
	.st10{font-size:3px;}
	.st11{display:inline;}
	.st12{fill:none;stroke:#C2132C;stroke-width:4.800000e-02;stroke-miterlimit:10;}
	.st13{fill:none;stroke:#C2132C;stroke-width:5.000000e-02;stroke-miterlimit:10;}
	.st14{fill:none;stroke:#C2132C;stroke-width:5.200000e-02;stroke-miterlimit:10;}
	.st15{fill:none;stroke:#1EACF5;stroke-width:5.000000e-02;stroke-miterlimit:10;}
</style>
<g>
	<path class="st0" d="M35.4,3.7c0-0.1,0-0.1,0.1-0.1h11.1c0.1,0,0.1,0,0.1,0.1v1.9c0,0.1,0,0.1-0.1,0.1h-8.8c-0.1,0-0.1,0-0.1,0.1
		v5.1c0,0.1,0,0.1,0.1,0.1h7.7c0.1,0,0.1,0,0.1,0.1v1.9c0,0.1,0,0.1-0.1,0.1h-7.7c-0.1,0-0.1,0-0.1,0.1v7.8c0,0.1,0,0.1-0.1,0.1
		h-2.1c-0.1,0-0.1,0-0.1-0.1V3.7z"/>
	<path class="st0" d="M60.1,14.9c0,0.6-0.1,0.8-0.2,0.8h-9.1c-0.1,0-0.1,0-0.1,0.1c0,0.9,0.3,1.8,1,2.4c0.7,0.7,1.5,1,2.6,1
		c1.5,0,2.6-0.6,3.2-1.7c0-0.1,0.1-0.1,0.2-0.1h2.1c0.1,0,0.1,0,0.1,0.1c-0.3,1.2-1,2.2-2,2.9c-1,0.7-2.2,1-3.6,1
		c-1.8,0-3.2-0.6-4.3-1.8c-1.1-1.2-1.6-2.8-1.6-4.8c0-2,0.5-3.6,1.5-4.8c1-1.2,2.5-1.8,4.4-1.8c1.9,0,3.4,0.6,4.4,1.8
		C59.7,11.3,60.2,12.9,60.1,14.9z M57.8,13.7c0-0.8-0.3-1.6-0.9-2.3c-0.6-0.7-1.5-1-2.6-1c-1.1,0-2,0.4-2.6,1.1
		c-0.6,0.7-1,1.5-1,2.2c0,0.1,0,0.1,0.1,0.1h6.8C57.7,13.9,57.8,13.8,57.8,13.7z"/>
	<path class="st0" d="M65.8,3.7v17.4c0,0.1,0,0.1-0.1,0.1h-2.1c-0.1,0-0.1,0-0.1-0.1V3.7c0-0.1,0-0.1,0.1-0.1h2.1
		C65.8,3.6,65.8,3.6,65.8,3.7z"/>
	<path class="st0" d="M71.8,3.7v17.4c0,0.1,0,0.1-0.1,0.1h-2.1c-0.1,0-0.1,0-0.1-0.1V3.7c0-0.1,0-0.1,0.1-0.1h2.1
		C71.7,3.6,71.8,3.6,71.8,3.7z"/>
	<path class="st0" d="M86.6,14.9c0,0.6-0.1,0.8-0.2,0.8h-9.1c-0.1,0-0.1,0-0.1,0.1c0,0.9,0.3,1.8,1,2.4c0.7,0.7,1.5,1,2.6,1
		c1.5,0,2.6-0.6,3.2-1.7c0-0.1,0.1-0.1,0.2-0.1h2.1c0.1,0,0.1,0,0.1,0.1c-0.3,1.2-1,2.2-2,2.9c-1,0.7-2.2,1-3.6,1
		c-1.8,0-3.2-0.6-4.3-1.8c-1.1-1.2-1.6-2.8-1.6-4.8c0-2,0.5-3.6,1.5-4.8c1-1.2,2.5-1.8,4.4-1.8c1.9,0,3.4,0.6,4.4,1.8
		C86.1,11.3,86.6,12.9,86.6,14.9z M84.2,13.7c0-0.8-0.3-1.6-0.9-2.3c-0.6-0.7-1.5-1-2.6-1c-1.1,0-2,0.4-2.6,1.1
		c-0.6,0.7-1,1.5-1,2.2c0,0.1,0,0.1,0.1,0.1h6.8C84.2,13.9,84.2,13.8,84.2,13.7z"/>
	<path class="st0" d="M99.9,12.8h-2.1c-0.1,0-0.1,0-0.1-0.1c0-0.7-0.3-1.3-0.8-1.7c-0.5-0.4-1.3-0.6-2.2-0.6c-0.9,0-1.6,0.2-2.1,0.5
		c-0.5,0.3-0.7,0.7-0.7,1.1c0,0.4,0.1,0.7,0.3,0.9c0.2,0.2,0.4,0.3,0.6,0.4c0.2,0.1,1,0.3,2.5,0.4c1.4,0.2,2.5,0.4,3.3,0.8
		c1.3,0.6,1.9,1.6,1.9,3c0,1.4-0.5,2.4-1.5,3.1c-1,0.7-2.4,1-4.1,1c-1.7,0-3.1-0.4-4.1-1.2s-1.5-1.9-1.5-3.1c0-0.1,0-0.1,0.1-0.1
		h2.1c0.1,0,0.1,0,0.1,0.1c0,0.7,0.3,1.2,0.9,1.6c0.6,0.4,1.4,0.6,2.4,0.6c2.1,0,3.1-0.6,3.1-1.9c0-0.3-0.1-0.6-0.3-0.8
		c-0.2-0.2-0.4-0.3-0.6-0.4c-0.2-0.1-0.4-0.1-0.5-0.2c-0.1,0-0.3-0.1-0.5-0.1c-0.2,0-0.4-0.1-0.6-0.1c-0.2,0-0.4-0.1-0.6-0.1
		c-1.9-0.2-3.1-0.5-3.6-0.8c-0.8-0.5-1.4-1-1.6-1.6c-0.1-0.4-0.2-0.8-0.2-1.3c0-1,0.5-1.9,1.4-2.6c0.9-0.7,2.2-1.1,3.7-1.1
		s2.9,0.4,3.9,1.1c1,0.8,1.5,1.8,1.5,3.3C100,12.8,100,12.8,99.9,12.8z"/>
	<path class="st0" d="M120.3,21.2h-1.9c0,0-0.1,0-0.1-0.1l-0.3-1c0-0.1-0.1-0.2-0.2,0c-0.3,0.4-0.9,0.7-1.6,1s-1.4,0.4-2,0.4
		c-1.8,0-3.3-0.6-4.3-1.8c-1.1-1.2-1.6-2.8-1.6-4.8s0.5-3.6,1.6-4.8s2.5-1.8,4.3-1.8c0.8,0,1.5,0.2,2.2,0.5c0.7,0.3,1.2,0.6,1.4,0.9
		c0.1,0.1,0.1,0.1,0.2,0.1c0,0,0.1-0.1,0.1-0.1V3.7c0-0.1,0-0.1,0.1-0.1h2.1c0.1,0,0.1,0,0.1,0.1v17.4
		C120.5,21.2,120.4,21.2,120.3,21.2z M110.7,14.9c0,1.3,0.3,2.4,1,3.2c0.7,0.8,1.6,1.2,2.7,1.2s2-0.4,2.7-1.2
		c0.6-0.8,0.9-1.9,0.9-3.2c0-1.3-0.3-2.4-0.9-3.2s-1.5-1.2-2.7-1.2s-2.1,0.4-2.8,1.2C111,12.5,110.7,13.6,110.7,14.9z"/>
	<path class="st0" d="M136.7,19.2v1.9c0,0.1,0,0.1-0.1,0.1h-0.9c-1.3,0-2.1-0.4-2.5-1.1c0-0.1-0.1-0.1-0.2,0c-0.4,0.4-0.9,0.7-1.7,1
		s-1.7,0.4-2.7,0.4c-1.6,0-2.9-0.4-3.7-1.1c-0.9-0.7-1.3-1.7-1.3-2.8s0.5-2.1,1.4-2.8c0.9-0.7,2.3-1,4.1-1h2.8
		c0.5,0,0.7-0.1,0.8-0.4c0-0.1,0-0.3,0-0.7s-0.2-0.9-0.5-1.4c-0.4-0.5-1.3-0.8-2.7-0.8c-1,0-1.8,0.2-2.3,0.6c-0.5,0.4-0.8,1-0.8,1.7
		c0,0.1,0,0.1-0.1,0.1h-2.1c-0.1,0-0.1,0-0.1-0.1c0-1.4,0.5-2.5,1.6-3.2c1.1-0.8,2.4-1.2,4-1.2c1.6,0,2.9,0.4,3.9,1.2
		c1,0.8,1.5,1.9,1.5,3.4v4.9c0,0.4,0.1,0.8,0.2,1s0.4,0.3,0.9,0.3h0.5C136.6,19.1,136.7,19.1,136.7,19.2z M132.6,15.6
		c0-0.1,0-0.1-0.1-0.1H129c-1.2,0-2,0.2-2.5,0.6c-0.4,0.4-0.6,0.8-0.6,1.3c0,0.5,0.2,1,0.6,1.3s1.1,0.5,2,0.5c1.4,0,2.4-0.3,3.1-1
		c0.7-0.7,1-1.4,1.1-2.3V15.6z"/>
	<path class="st0" d="M145.6,19.2v1.9c0,0.1,0,0.1-0.1,0.1h-1.9c-2.2,0-3.3-0.9-3.3-3v-7.7c0-0.1,0-0.1-0.1-0.1h-2.2
		c-0.1,0-0.1,0-0.1-0.1V8.7c0-0.1,0-0.1,0.1-0.1h2.2c0.1,0,0.1,0,0.1-0.1V5.1c0-0.1,0-0.1,0.1-0.1h2.1c0.1,0,0.1,0,0.1,0.1v3.4
		c0,0.1,0,0.1,0.1,0.1h2.7c0.1,0,0.1,0,0.1,0.1v1.6c0,0.1,0,0.1-0.1,0.1h-2.7c-0.1,0-0.1,0-0.1,0.1v7.3c0,0.8,0.5,1.2,1.4,1.2h1.5
		C145.5,19.1,145.6,19.1,145.6,19.2z"/>
	<path class="st0" d="M160.6,19.2v1.9c0,0.1,0,0.1-0.1,0.1h-0.9c-1.3,0-2.1-0.4-2.5-1.1c0-0.1-0.1-0.1-0.2,0c-0.4,0.4-0.9,0.7-1.7,1
		s-1.7,0.4-2.7,0.4c-1.6,0-2.9-0.4-3.7-1.1c-0.9-0.7-1.3-1.7-1.3-2.8s0.5-2.1,1.4-2.8c0.9-0.7,2.3-1,4.1-1h2.8
		c0.5,0,0.7-0.1,0.8-0.4c0-0.1,0-0.3,0-0.7s-0.2-0.9-0.5-1.4c-0.4-0.5-1.3-0.8-2.7-0.8c-1,0-1.8,0.2-2.3,0.6c-0.5,0.4-0.8,1-0.8,1.7
		c0,0.1,0,0.1-0.1,0.1H148c-0.1,0-0.1,0-0.1-0.1c0-1.4,0.5-2.5,1.6-3.2c1.1-0.8,2.4-1.2,4-1.2c1.6,0,2.9,0.4,3.9,1.2
		c1,0.8,1.5,1.9,1.5,3.4v4.9c0,0.4,0.1,0.8,0.2,1s0.4,0.3,0.9,0.3h0.5C160.5,19.1,160.6,19.1,160.6,19.2z M156.5,15.6
		c0-0.1,0-0.1-0.1-0.1h-3.5c-1.2,0-2,0.2-2.5,0.6c-0.4,0.4-0.6,0.8-0.6,1.3c0,0.5,0.2,1,0.6,1.3s1.1,0.5,2,0.5c1.4,0,2.4-0.3,3.1-1
		c0.7-0.7,1-1.4,1.1-2.3V15.6z"/>
	<path class="st0" d="M174.8,21.2h-2.2c-0.1,0-0.2,0-0.2-0.1l-4-6.8c0-0.1-0.1-0.1-0.2,0l-2.8,2.4c0,0,0,0.1,0,0.2v4.2
		c0,0.1,0,0.1-0.1,0.1h-2.1c-0.1,0-0.1,0-0.1-0.1V3.7c0-0.1,0-0.1,0.1-0.1h2.1c0.1,0,0.1,0,0.1,0.1v9.8c0,0,0,0.1,0.1,0.1
		c0,0,0.1,0,0.1,0l5.7-4.9c0.1-0.1,0.2-0.1,0.4-0.1h3.1c0,0,0.1,0,0.1,0c0,0,0,0.1,0,0.1l-4.7,4c0,0,0,0.1,0,0.2l4.8,8.3
		C175,21.2,174.9,21.2,174.8,21.2z"/>
	<path class="st0" d="M189.8,19.2v1.9c0,0.1,0,0.1-0.1,0.1h-0.9c-1.3,0-2.1-0.4-2.5-1.1c0-0.1-0.1-0.1-0.2,0c-0.4,0.4-0.9,0.7-1.7,1
		s-1.7,0.4-2.7,0.4c-1.6,0-2.9-0.4-3.7-1.1c-0.9-0.7-1.3-1.7-1.3-2.8s0.5-2.1,1.4-2.8c0.9-0.7,2.3-1,4.1-1h2.8
		c0.5,0,0.7-0.1,0.8-0.4c0-0.1,0-0.3,0-0.7s-0.2-0.9-0.5-1.4c-0.4-0.5-1.3-0.8-2.7-0.8c-1,0-1.8,0.2-2.3,0.6c-0.5,0.4-0.8,1-0.8,1.7
		c0,0.1,0,0.1-0.1,0.1h-2.1c-0.1,0-0.1,0-0.1-0.1c0-1.4,0.5-2.5,1.6-3.2c1.1-0.8,2.4-1.2,4-1.2c1.6,0,2.9,0.4,3.9,1.2
		c1,0.8,1.5,1.9,1.5,3.4v4.9c0,0.4,0.1,0.8,0.2,1s0.4,0.3,0.9,0.3h0.5C189.7,19.1,189.8,19.1,189.8,19.2z M185.7,15.6
		c0-0.1,0-0.1-0.1-0.1h-3.5c-1.2,0-2,0.2-2.5,0.6c-0.4,0.4-0.6,0.8-0.6,1.3c0,0.5,0.2,1,0.6,1.3s1.1,0.5,2,0.5c1.4,0,2.4-0.3,3.1-1
		c0.7-0.7,1-1.4,1.1-2.3V15.6z"/>
	<path class="st0" d="M198.7,19.2v1.9c0,0.1,0,0.1-0.1,0.1h-1.9c-2.2,0-3.3-0.9-3.3-3v-7.7c0-0.1,0-0.1-0.1-0.1H191
		c-0.1,0-0.1,0-0.1-0.1V8.7c0-0.1,0-0.1,0.1-0.1h2.2c0.1,0,0.1,0,0.1-0.1V5.1c0-0.1,0-0.1,0.1-0.1h2.1c0.1,0,0.1,0,0.1,0.1v3.4
		c0,0.1,0,0.1,0.1,0.1h2.7c0.1,0,0.1,0,0.1,0.1v1.6c0,0.1,0,0.1-0.1,0.1h-2.7c-0.1,0-0.1,0-0.1,0.1v7.3c0,0.8,0.5,1.2,1.4,1.2h1.5
		C198.6,19.1,198.7,19.1,198.7,19.2z"/>
	<path class="st0" d="M213.7,19.2v1.9c0,0.1,0,0.1-0.1,0.1h-0.9c-1.3,0-2.1-0.4-2.5-1.1c0-0.1-0.1-0.1-0.2,0c-0.4,0.4-0.9,0.7-1.7,1
		s-1.7,0.4-2.7,0.4c-1.6,0-2.9-0.4-3.7-1.1c-0.9-0.7-1.3-1.7-1.3-2.8s0.5-2.1,1.4-2.8c0.9-0.7,2.3-1,4.1-1h2.8
		c0.5,0,0.7-0.1,0.8-0.4c0-0.1,0-0.3,0-0.7s-0.2-0.9-0.5-1.4c-0.4-0.5-1.3-0.8-2.7-0.8c-1,0-1.8,0.2-2.3,0.6c-0.5,0.4-0.8,1-0.8,1.7
		c0,0.1,0,0.1-0.1,0.1h-2.1c-0.1,0-0.1,0-0.1-0.1c0-1.4,0.5-2.5,1.6-3.2c1.1-0.8,2.4-1.2,4-1.2c1.6,0,2.9,0.4,3.9,1.2
		c1,0.8,1.5,1.9,1.5,3.4v4.9c0,0.4,0.1,0.8,0.2,1s0.4,0.3,0.9,0.3h0.5C213.6,19.1,213.7,19.1,213.7,19.2z M209.6,15.6
		c0-0.1,0-0.1-0.1-0.1H206c-1.2,0-2,0.2-2.5,0.6c-0.4,0.4-0.6,0.8-0.6,1.3c0,0.5,0.2,1,0.6,1.3s1.1,0.5,2,0.5c1.4,0,2.4-0.3,3.1-1
		c0.7-0.7,1-1.4,1.1-2.3V15.6z"/>
	<path class="st0" d="M218.5,3.7v17.4c0,0.1,0,0.1-0.1,0.1h-2.1c-0.1,0-0.1,0-0.1-0.1V3.7c0-0.1,0-0.1,0.1-0.1h2.1
		C218.4,3.6,218.5,3.6,218.5,3.7z"/>
	<path class="st0" d="M233.9,14.9c0,2-0.6,3.6-1.7,4.8c-1.1,1.2-2.6,1.8-4.6,1.8s-3.4-0.6-4.5-1.8s-1.6-2.8-1.6-4.8
		c0-2,0.5-3.6,1.6-4.8s2.6-1.8,4.5-1.8s3.4,0.6,4.6,1.8C233.3,11.3,233.9,12.9,233.9,14.9z M230.5,18.1c0.7-0.8,1-1.9,1-3.2
		s-0.3-2.4-1-3.2c-0.7-0.8-1.6-1.2-2.8-1.2s-2.1,0.4-2.8,1.2c-0.7,0.8-1,1.9-1,3.2s0.3,2.4,1,3.2c0.7,0.8,1.6,1.2,2.8,1.2
		S229.8,18.9,230.5,18.1z"/>
	<path class="st0" d="M242.1,24.3c1.2,0,2.1-0.3,2.7-1c0.6-0.7,0.9-1.5,0.9-2.5V20c0,0,0-0.1-0.1-0.1s-0.1,0-0.2,0.1
		c-0.2,0.3-0.7,0.6-1.4,0.9c-0.7,0.3-1.4,0.5-2.2,0.5c-1.7,0-3.1-0.6-4.3-1.8c-1.1-1.2-1.7-2.8-1.7-4.8c0-2,0.5-3.5,1.6-4.7
		s2.5-1.8,4.3-1.8c0.6,0,1.3,0.1,2,0.4c0.7,0.3,1.2,0.6,1.6,1c0.1,0.1,0.2,0.1,0.2,0l0.3-1c0-0.1,0.1-0.1,0.1-0.1h1.9
		c0.1,0,0.1,0,0.1,0.1v12c0,1.7-0.5,3.1-1.6,4.1c-1.1,1-2.5,1.6-4.1,1.6c-1.6,0-3-0.4-4.1-1.1c-1.1-0.7-1.7-1.6-1.7-2.6
		c0-0.1,0-0.1,0.1-0.1h2.2c0,0,0.1,0,0.1,0.1c0.1,0.4,0.5,0.7,1,1.1C240.5,24.1,241.2,24.3,242.1,24.3z M238.3,14.9
		c0,1.3,0.3,2.4,1,3.2c0.7,0.8,1.6,1.2,2.7,1.2s2-0.4,2.7-1.2c0.6-0.8,1-1.9,1-3.2s-0.3-2.4-1-3.2s-1.5-1.2-2.7-1.2
		s-2.1,0.4-2.7,1.2C238.6,12.5,238.3,13.6,238.3,14.9z"/>
	<path class="st0" d="M35.4,38.6h1.9c0,0,0.1,0,0.1,0.1l0.3,1c0,0.1,0.1,0.1,0.1,0.1s0.1,0,0.1-0.1c0.3-0.4,0.9-0.7,1.6-1
		c0.7-0.3,1.4-0.4,2-0.4c1.8,0,3.3,0.6,4.3,1.8s1.6,2.8,1.6,4.8c0,2-0.5,3.6-1.6,4.8s-2.5,1.8-4.3,1.8c-0.8,0-1.5-0.2-2.2-0.5
		c-0.7-0.3-1.2-0.6-1.4-0.9c-0.1-0.1-0.1-0.1-0.2-0.1c0,0-0.1,0.1-0.1,0.1V56c0,0.1,0,0.1-0.1,0.1h-2.1c-0.1,0-0.1,0-0.1-0.1V38.7
		C35.3,38.6,35.3,38.6,35.4,38.6z M45,44.9c0-1.3-0.3-2.4-1-3.2c-0.7-0.8-1.6-1.2-2.8-1.2c-1.2,0-2,0.4-2.7,1.2
		c-0.6,0.8-0.9,1.9-0.9,3.2c0,1.3,0.3,2.4,1,3.2c0.6,0.8,1.5,1.2,2.7,1.2c1.1,0,2.1-0.4,2.8-1.2C44.7,47.3,45,46.2,45,44.9z"/>
	<path class="st0" d="M61.1,51.2h-1.9c0,0-0.1,0-0.1-0.1L58.8,50c0-0.1-0.1-0.1-0.1-0.1c-0.1,0-0.1,0-0.1,0.1
		c-0.3,0.4-0.7,0.7-1.3,1s-1.2,0.5-2,0.5c-1.9,0-3.3-0.5-4.2-1.6c-0.8-1.1-1.3-2.5-1.3-4.3v-6.9c0-0.1,0-0.1,0.1-0.1h2.1
		c0.1,0,0.1,0,0.1,0.1v6.9c0,1.1,0.3,2,0.8,2.7c0.5,0.7,1.3,1.1,2.4,1.1s1.9-0.4,2.5-1.1c0.6-0.7,0.9-1.6,0.9-2.7v-6.9
		c0-0.1,0-0.1,0.1-0.1h2.1c0.1,0,0.1,0,0.1,0.1v12.4C61.2,51.2,61.1,51.2,61.1,51.2z"/>
	<path class="st0" d="M66.4,51.2h-1.9c-0.1,0-0.1,0-0.1-0.1V33.7c0-0.1,0-0.1,0.1-0.1h2.1c0.1,0,0.1,0,0.1,0.1v5.9
		c0,0,0,0.1,0.1,0.1c0,0,0.1,0,0.2-0.1c0.2-0.3,0.7-0.6,1.4-0.9c0.7-0.3,1.4-0.5,2.2-0.5c1.8,0,3.3,0.6,4.3,1.8
		c1.1,1.2,1.6,2.8,1.6,4.8c0,2-0.5,3.6-1.6,4.8s-2.5,1.8-4.3,1.8c-0.6,0-1.2-0.1-2-0.4c-0.7-0.3-1.2-0.6-1.6-1
		c-0.1-0.1-0.2-0.1-0.3,0l-0.3,1C66.5,51.2,66.4,51.2,66.4,51.2z M73.1,48.1c0.7-0.8,1-1.9,1-3.2s-0.3-2.4-1-3.2
		c-0.7-0.8-1.6-1.2-2.7-1.2s-2,0.4-2.7,1.2s-1,1.9-1,3.2c0,1.3,0.3,2.4,1,3.2c0.6,0.8,1.5,1.2,2.7,1.2S72.5,48.9,73.1,48.1z"/>
	<path class="st0" d="M81.8,33.7v17.4c0,0.1,0,0.1-0.1,0.1h-2.1c-0.1,0-0.1,0-0.1-0.1V33.7c0-0.1,0-0.1,0.1-0.1h2.1
		C81.8,33.6,81.8,33.6,81.8,33.7z"/>
	<path class="st0" d="M88.2,33.7v2.6c0,0.1,0,0.1-0.1,0.1h-2.6c-0.1,0-0.1,0-0.1-0.1v-2.6c0-0.1,0-0.1,0.1-0.1h2.6
		C88.2,33.6,88.2,33.6,88.2,33.7z M88,38.7v12.4c0,0.1,0,0.1-0.1,0.1h-2.1c-0.1,0-0.1,0-0.1-0.1V38.7c0-0.1,0-0.1,0.1-0.1h2.1
		C87.9,38.6,88,38.6,88,38.7z"/>
	<path class="st0" d="M101.6,42.8h-2.1c-0.1,0-0.1,0-0.1-0.1c0-0.7-0.3-1.3-0.8-1.7c-0.5-0.4-1.3-0.6-2.2-0.6
		c-0.9,0-1.6,0.2-2.1,0.5c-0.5,0.3-0.7,0.7-0.7,1.1c0,0.4,0.1,0.7,0.3,0.9c0.2,0.2,0.4,0.3,0.6,0.4c0.2,0.1,1,0.3,2.5,0.4
		c1.4,0.2,2.5,0.4,3.3,0.8c1.3,0.6,1.9,1.6,1.9,3c0,1.4-0.5,2.4-1.5,3.1c-1,0.7-2.4,1-4.1,1c-1.7,0-3.1-0.4-4.1-1.2
		s-1.5-1.9-1.5-3.1c0-0.1,0-0.1,0.1-0.1h2.1c0.1,0,0.1,0,0.1,0.1c0,0.7,0.3,1.2,0.9,1.6c0.6,0.4,1.4,0.6,2.4,0.6
		c2.1,0,3.1-0.6,3.1-1.9c0-0.3-0.1-0.6-0.3-0.8c-0.2-0.2-0.4-0.3-0.6-0.4c-0.2-0.1-0.4-0.1-0.5-0.2S98,46,97.8,46s-0.4-0.1-0.6-0.1
		c-0.2,0-0.4-0.1-0.6-0.1c-1.9-0.2-3.1-0.5-3.6-0.8c-0.8-0.5-1.4-1-1.6-1.6c-0.1-0.4-0.2-0.8-0.2-1.3c0-1,0.5-1.9,1.4-2.6
		c0.9-0.7,2.2-1.1,3.7-1.1s2.9,0.4,3.9,1.1c1,0.8,1.5,1.8,1.5,3.3C101.7,42.8,101.7,42.8,101.6,42.8z"/>
	<path class="st0" d="M116.2,44.9c0,0.6-0.1,0.8-0.2,0.8h-9.1c-0.1,0-0.1,0-0.1,0.1c0,0.9,0.3,1.8,1,2.4c0.7,0.7,1.5,1,2.6,1
		c1.5,0,2.6-0.6,3.2-1.7c0-0.1,0.1-0.1,0.2-0.1h2.1c0.1,0,0.1,0,0.1,0.1c-0.3,1.2-1,2.2-2,2.9c-1,0.7-2.2,1-3.6,1
		c-1.8,0-3.2-0.6-4.3-1.8c-1.1-1.2-1.6-2.8-1.6-4.8s0.5-3.6,1.5-4.8c1-1.2,2.5-1.8,4.4-1.8c1.9,0,3.4,0.6,4.4,1.8
		C115.7,41.3,116.2,42.9,116.2,44.9z M113.8,43.7c0-0.8-0.3-1.6-0.9-2.3c-0.6-0.7-1.5-1-2.6-1c-1.1,0-2,0.4-2.6,1.1
		c-0.6,0.7-1,1.5-1,2.2c0,0.1,0,0.1,0.1,0.1h6.8C113.8,43.9,113.8,43.8,113.8,43.7z"/>
	<path class="st0" d="M126.3,40.4H125c-1,0-1.8,0.4-2.4,1.1c-0.6,0.7-0.9,1.6-0.9,2.7v6.9c0,0.1,0,0.1-0.1,0.1h-2.1
		c-0.1,0-0.1,0-0.1-0.1V38.7c0-0.1,0-0.1,0.1-0.1h1.9c0,0,0.1,0,0.1,0.1l0.3,1.1c0,0.1,0.1,0.2,0.3,0c1-1,2-1.5,3-1.5h1.3
		c0.1,0,0.1,0,0.1,0.1v1.9C126.4,40.4,126.4,40.4,126.3,40.4z"/>
	<path class="st0" d="M131.6,33.7v2.6c0,0.1,0,0.1-0.1,0.1h-2.6c-0.1,0-0.1,0-0.1-0.1v-2.6c0-0.1,0-0.1,0.1-0.1h2.6
		C131.5,33.6,131.6,33.6,131.6,33.7z M131.3,38.7v12.4c0,0.1,0,0.1-0.1,0.1h-2.1c-0.1,0-0.1,0-0.1-0.1V38.7c0-0.1,0-0.1,0.1-0.1h2.1
		C131.3,38.6,131.3,38.6,131.3,38.7z"/>
	<path class="st0" d="M134.9,38.6h1.9c0,0,0.1,0,0.1,0.1l0.3,1.1c0,0.1,0.1,0.1,0.1,0.1c0.1,0,0.1,0,0.1-0.1c0.7-1,1.8-1.5,3.3-1.5
		c1.7,0,3.1,0.6,4,1.7c1,1.1,1.4,2.5,1.4,4.2v6.9c0,0.1,0,0.1-0.1,0.1h-2.1c-0.1,0-0.1,0-0.1-0.1v-6.9c0-1.1-0.3-2-0.8-2.7
		c-0.5-0.7-1.3-1.1-2.4-1.1s-1.9,0.4-2.5,1.1c-0.6,0.7-0.9,1.6-0.9,2.7v6.9c0,0.1,0,0.1-0.1,0.1h-2.1c-0.1,0-0.1,0-0.1-0.1V38.7
		C134.8,38.6,134.8,38.6,134.9,38.6z"/>
	<path class="st0" d="M154.6,54.3c1.2,0,2.1-0.3,2.7-1c0.6-0.7,0.9-1.5,0.9-2.5V50c0,0,0-0.1-0.1-0.1s-0.1,0-0.2,0.1
		c-0.2,0.3-0.7,0.6-1.4,0.9c-0.7,0.3-1.4,0.5-2.2,0.5c-1.7,0-3.1-0.6-4.3-1.8c-1.1-1.2-1.7-2.8-1.7-4.8c0-2,0.5-3.5,1.6-4.7
		s2.5-1.8,4.3-1.8c0.6,0,1.3,0.1,2,0.4c0.7,0.3,1.2,0.6,1.6,1c0.1,0.1,0.2,0.1,0.2,0l0.3-1c0-0.1,0.1-0.1,0.1-0.1h1.9
		c0.1,0,0.1,0,0.1,0.1v12c0,1.7-0.5,3.1-1.6,4.1c-1.1,1.1-2.5,1.6-4.1,1.6c-1.6,0-3-0.4-4.1-1.1c-1.1-0.7-1.7-1.6-1.7-2.6
		c0-0.1,0-0.1,0.1-0.1h2.2c0,0,0.1,0,0.1,0.1c0.1,0.4,0.5,0.7,1,1.1C153,54.1,153.7,54.3,154.6,54.3z M150.8,44.9
		c0,1.3,0.3,2.4,1,3.2c0.7,0.8,1.6,1.2,2.7,1.2s2-0.4,2.7-1.2c0.6-0.8,1-1.9,1-3.2c0-1.3-0.3-2.4-1-3.2s-1.5-1.2-2.7-1.2
		s-2.1,0.4-2.7,1.2C151.1,42.5,150.8,43.6,150.8,44.9z"/>
	<path class="st0" d="M12.7,0H0.5C0.2,0,0,0.2,0,0.5v23.7c0,0.3,0.2,0.5,0.5,0.5h12.2c6.7-0.2,12.1-5.6,12.1-12.4
		C24.7,5.6,19.4,0.2,12.7,0 M13.9,21c-6,1-11.1-4.1-10.2-10.2c0.6-3.6,3.5-6.6,7.2-7.2c6-1,11.1,4.1,10.2,10.2
		C20.4,17.5,17.5,20.4,13.9,21"/>
	<g>
		<path class="st1" d="M181.6,51.2h-1.9c0,0-0.1,0-0.1-0.1l-0.3-1c0-0.1-0.1-0.2-0.2,0c-0.3,0.3-0.9,0.7-1.6,1
			c-0.7,0.3-1.4,0.4-2,0.4c-1.8,0-3.3-0.6-4.3-1.8c-1.1-1.2-1.6-2.8-1.6-4.8c0-2,0.5-3.6,1.6-4.8s2.5-1.8,4.3-1.8
			c0.8,0,1.5,0.2,2.2,0.5c0.7,0.3,1.2,0.6,1.4,0.9c0.1,0.1,0.1,0.1,0.2,0.1c0,0,0.1-0.1,0.1-0.1v-5.9c0-0.1,0-0.1,0.1-0.1h2.1
			c0.1,0,0.1,0,0.1,0.1v17.4C181.7,51.2,181.7,51.2,181.6,51.2z M171.9,44.9c0,1.3,0.3,2.4,1,3.2c0.7,0.8,1.6,1.2,2.7,1.2
			s2-0.4,2.7-1.2c0.6-0.8,0.9-1.9,0.9-3.2c0-1.3-0.3-2.4-0.9-3.2s-1.5-1.2-2.7-1.2s-2.1,0.4-2.8,1.2
			C172.3,42.5,171.9,43.6,171.9,44.9z"/>
		<path class="st1" d="M196.6,44.9c0,0.6-0.1,0.8-0.2,0.8h-9.1c-0.1,0-0.1,0-0.1,0.1c0,0.9,0.3,1.8,1,2.4c0.7,0.7,1.5,1,2.6,1
			c1.5,0,2.6-0.6,3.2-1.7c0-0.1,0.1-0.1,0.2-0.1h2.1c0.1,0,0.1,0,0.1,0.1c-0.3,1.2-1,2.2-2,2.9c-1,0.7-2.2,1-3.6,1
			c-1.8,0-3.2-0.6-4.3-1.8c-1.1-1.2-1.6-2.8-1.6-4.8s0.5-3.6,1.5-4.8c1-1.2,2.5-1.8,4.4-1.8c1.9,0,3.4,0.6,4.4,1.8
			C196.1,41.3,196.6,42.9,196.6,44.9z M194.2,43.7c0-0.8-0.3-1.6-0.9-2.3c-0.6-0.7-1.5-1-2.6-1c-1.1,0-2,0.4-2.6,1.1
			c-0.6,0.7-1,1.5-1,2.2c0,0.1,0,0.1,0.1,0.1h6.8C194.1,43.9,194.2,43.8,194.2,43.7z"/>
		<path class="st1" d="M210,51.1c0,0.1,0,0.1-0.1,0.1h-2.2c-0.1,0-0.1,0-0.1-0.1v-6.9c0-1.1-0.2-2.1-0.6-2.7s-1.1-1-2.1-1
			c-1,0-1.8,0.4-2.2,1.1c-0.4,0.7-0.6,1.6-0.6,2.7v6.9c0,0.1,0,0.1-0.1,0.1h-2.1c-0.1,0-0.1,0-0.1-0.1V38.7c0-0.1,0-0.1,0.1-0.1h1.9
			c0,0,0.1,0,0.1,0.1l0.3,1.1c0,0.1,0.1,0.1,0.1,0.1c0.1,0,0.1,0,0.1-0.1c0.2-0.4,0.6-0.8,1.2-1.1c0.6-0.3,1.2-0.4,2-0.4
			c0.7,0,1.3,0.1,1.8,0.3c0.5,0.2,1,0.6,1.6,1.2c0.1,0.1,0.2,0.1,0.3,0c0.9-1,2.1-1.5,3.7-1.5c1.6,0,2.9,0.5,3.7,1.5
			c0.8,1,1.3,2.5,1.3,4.4v6.9c0,0.1,0,0.1-0.1,0.1h-2.1c-0.1,0-0.1,0-0.1-0.1v-6.9c0-1.9-0.4-3-1.3-3.5c-0.4-0.2-0.9-0.3-1.5-0.3
			c-1.1,0-1.8,0.3-2.2,1s-0.6,1.6-0.6,2.8V51.1z"/>
		<path class="st1" d="M233.4,44.9c0,2-0.6,3.6-1.7,4.8c-1.1,1.2-2.6,1.8-4.6,1.8s-3.4-0.6-4.5-1.8c-1.1-1.2-1.6-2.8-1.6-4.8
			s0.5-3.6,1.6-4.8s2.6-1.8,4.5-1.8s3.4,0.6,4.6,1.8C232.9,41.3,233.4,42.9,233.4,44.9z M230,48.1c0.7-0.8,1-1.9,1-3.2
			s-0.3-2.4-1-3.2c-0.7-0.8-1.6-1.2-2.8-1.2s-2.1,0.4-2.8,1.2c-0.7,0.8-1,1.9-1,3.2s0.3,2.4,1,3.2c0.7,0.8,1.6,1.2,2.8,1.2
			S229.3,48.9,230,48.1z"/>
	</g>
</g>
<g id="grid" class="st2">
	<line class="st3" x1="904.8" y1="19.6" x2="904.8" y2="54.9"/>
	<line class="st4" x1="901.2" y1="19.6" x2="901.2" y2="58.4"/>
	<line class="st4" x1="897.7" y1="26.6" x2="897.7" y2="51.4"/>
	<line class="st5" x1="894.2" y1="19.6" x2="894.2" y2="58.4"/>
	<line class="st4" x1="1004.4" y1="26.6" x2="1004.4" y2="51.4"/>
	<line class="st4" x1="1000.9" y1="19.6" x2="1000.9" y2="58.4"/>
	<line class="st4" x1="901.2" y1="37.2" x2="904.8" y2="40.8"/>
	<line class="st4" x1="904.8" y1="37.2" x2="901.2" y2="40.8"/>
	<line class="st4" x1="894.2" y1="26.6" x2="1007.9" y2="26.6"/>
	<line class="st4" x1="901.2" y1="23.1" x2="904.8" y2="23.1"/>
	<line class="st4" x1="897.7" y1="30.2" x2="1007.9" y2="30.2"/>
	<line class="st5" x1="894.2" y1="19.6" x2="1007.9" y2="19.6"/>
	<line class="st4" x1="936.5" y1="19.6" x2="936.5" y2="58.3"/>
	<line class="st3" x1="918.9" y1="51.4" x2="918.9" y2="54.9"/>
	<line class="st3" x1="922.4" y1="51.4" x2="922.4" y2="54.9"/>
	<line class="st6" x1="925.9" y1="19.6" x2="925.9" y2="54.9"/>
	<line class="st3" x1="908.3" y1="51.4" x2="908.3" y2="54.9"/>
	<line class="st4" x1="901.2" y1="19.6" x2="901.2" y2="54.9"/>
	<line class="st5" x1="1007.9" y1="19.6" x2="1007.9" y2="58.4"/>
	<line class="st3" x1="911.8" y1="51.4" x2="911.8" y2="54.9"/>
	<line class="st3" x1="915.4" y1="51.4" x2="915.4" y2="54.9"/>
	<line class="st4" x1="897.7" y1="33.7" x2="901.2" y2="33.7"/>
	<line class="st4" x1="897.7" y1="37.2" x2="904.8" y2="37.2"/>
	<line class="st4" x1="897.7" y1="40.8" x2="904.8" y2="40.8"/>
	<line class="st4" x1="897.7" y1="44.3" x2="936.5" y2="44.3"/>
	<line class="st4" x1="897.7" y1="47.8" x2="926" y2="47.8"/>
	<line class="st4" x1="936.5" y1="47.8" x2="1000.9" y2="47.8"/>
	<line class="st4" x1="936.6" y1="51.4" x2="1007.9" y2="51.4"/>
	<line class="st4" x1="894.2" y1="51.4" x2="926" y2="51.4"/>
	<line class="st4" x1="901.2" y1="54.9" x2="936.5" y2="54.9"/>
	<line class="st5" x1="894.2" y1="58.4" x2="1007.9" y2="58.4"/>
	<line class="st3" x1="3.5" y1="19.6" x2="3.5" y2="54.9"/>
	<line class="st4" x1="0" y1="19.6" x2="0" y2="58.4"/>
	<line class="st4" x1="-3.5" y1="26.6" x2="-3.5" y2="51.4"/>
	<line class="st5" x1="-7.1" y1="19.6" x2="-7.1" y2="58.4"/>
	<line class="st4" x1="104.4" y1="26.6" x2="104.4" y2="51.4"/>
	<line class="st4" x1="100.9" y1="19.6" x2="100.9" y2="58.4"/>
	<line class="st4" x1="0" y1="37.2" x2="3.6" y2="40.8"/>
	<line class="st4" x1="3.6" y1="37.2" x2="0" y2="40.8"/>
	<line class="st4" x1="-7.1" y1="26.6" x2="108" y2="26.6"/>
	<line class="st4" x1="0" y1="23.1" x2="3.6" y2="23.1"/>
	<line class="st4" x1="-3.5" y1="30.2" x2="108" y2="30.2"/>
	<line class="st5" x1="-7.1" y1="19.6" x2="108" y2="19.6"/>
	<line class="st4" x1="35.3" y1="19.6" x2="35.3" y2="58.3"/>
	<line class="st3" x1="17.7" y1="51.4" x2="17.7" y2="54.9"/>
	<line class="st3" x1="21.2" y1="51.4" x2="21.2" y2="54.9"/>
	<line class="st6" x1="24.7" y1="19.6" x2="24.7" y2="54.9"/>
	<line class="st3" x1="7.1" y1="51.4" x2="7.1" y2="54.9"/>
	<line class="st4" x1="0" y1="19.6" x2="0" y2="54.9"/>
	<line class="st5" x1="108" y1="19.6" x2="108" y2="58.4"/>
	<line class="st3" x1="10.6" y1="51.4" x2="10.6" y2="54.9"/>
	<line class="st3" x1="14.1" y1="51.4" x2="14.1" y2="54.9"/>
	<line class="st4" x1="-3.5" y1="33.7" x2="0" y2="33.7"/>
	<line class="st4" x1="-3.5" y1="37.2" x2="3.6" y2="37.2"/>
	<line class="st4" x1="-3.5" y1="40.8" x2="3.6" y2="40.8"/>
	<line class="st4" x1="-3.5" y1="44.3" x2="35.3" y2="44.3"/>
	<line class="st4" x1="-3.5" y1="47.8" x2="24.7" y2="47.8"/>
	<line class="st4" x1="35.3" y1="47.8" x2="100.9" y2="47.8"/>
	<line class="st4" x1="35.3" y1="51.4" x2="108" y2="51.4"/>
	<line class="st4" x1="-7.1" y1="51.4" x2="24.7" y2="51.4"/>
	<line class="st4" x1="0" y1="54.9" x2="35.3" y2="54.9"/>
	<line class="st5" x1="-7.1" y1="58.4" x2="108" y2="58.4"/>
	<line class="st3" x1="904.8" y1="105.2" x2="904.8" y2="140.5"/>
	<line class="st4" x1="901.2" y1="105.2" x2="901.2" y2="144.1"/>
	<line class="st4" x1="897.7" y1="112.3" x2="897.7" y2="137"/>
	<line class="st5" x1="894.2" y1="105.2" x2="894.2" y2="144.1"/>
	<line class="st4" x1="1028" y1="112.3" x2="1028" y2="137"/>
	<line class="st4" x1="1024.5" y1="105.2" x2="1024.5" y2="144.1"/>
	<line class="st4" x1="901.2" y1="122.9" x2="904.8" y2="126.4"/>
	<line class="st4" x1="904.8" y1="122.9" x2="901.2" y2="126.4"/>
	<line class="st4" x1="894.2" y1="112.3" x2="1031.5" y2="112.3"/>
	<line class="st4" x1="901.2" y1="108.7" x2="904.8" y2="108.7"/>
	<line class="st4" x1="897.7" y1="115.8" x2="1031.5" y2="115.8"/>
	<line class="st5" x1="894.2" y1="105.2" x2="1031.5" y2="105.2"/>
	<line class="st4" x1="936.5" y1="105.2" x2="936.5" y2="144"/>
	<line class="st3" x1="918.9" y1="137" x2="918.9" y2="140.5"/>
	<line class="st3" x1="922.4" y1="137" x2="922.4" y2="140.5"/>
	<line class="st6" x1="925.9" y1="105.2" x2="925.9" y2="140.5"/>
	<line class="st3" x1="908.3" y1="137" x2="908.3" y2="140.5"/>
	<line class="st4" x1="901.2" y1="105.2" x2="901.2" y2="140.5"/>
	<line class="st5" x1="1031.5" y1="105.2" x2="1031.5" y2="144.1"/>
	<line class="st3" x1="911.8" y1="137" x2="911.8" y2="140.5"/>
	<line class="st3" x1="915.4" y1="137" x2="915.4" y2="140.5"/>
	<line class="st4" x1="897.7" y1="119.3" x2="901.2" y2="119.3"/>
	<line class="st4" x1="897.7" y1="122.9" x2="904.8" y2="122.9"/>
	<line class="st4" x1="897.7" y1="126.4" x2="904.8" y2="126.4"/>
	<line class="st4" x1="897.7" y1="129.9" x2="936.5" y2="129.9"/>
	<line class="st4" x1="897.7" y1="133.5" x2="926" y2="133.5"/>
	<line class="st4" x1="936.5" y1="133.5" x2="1024.5" y2="133.5"/>
	<line class="st4" x1="936.6" y1="137" x2="1031.5" y2="137"/>
	<line class="st4" x1="894.2" y1="137" x2="926" y2="137"/>
	<line class="st4" x1="901.2" y1="140.5" x2="936.5" y2="140.5"/>
	<line class="st5" x1="894.2" y1="144.1" x2="1031.5" y2="144.1"/>
	<line class="st3" x1="904.8" y1="190.1" x2="904.8" y2="225.4"/>
	<line class="st4" x1="901.2" y1="190.1" x2="901.2" y2="228.9"/>
	<line class="st4" x1="897.7" y1="197.1" x2="897.7" y2="221.9"/>
	<line class="st5" x1="894.2" y1="190.1" x2="894.2" y2="228.9"/>
	<line class="st4" x1="1051.1" y1="197.1" x2="1051.1" y2="221.9"/>
	<line class="st4" x1="1047.6" y1="190.1" x2="1047.6" y2="228.9"/>
	<line class="st4" x1="901.2" y1="207.7" x2="904.8" y2="211.3"/>
	<line class="st4" x1="904.8" y1="207.7" x2="901.2" y2="211.3"/>
	<line class="st4" x1="894.2" y1="197.1" x2="1054.7" y2="197.1"/>
	<line class="st4" x1="901.2" y1="193.6" x2="904.8" y2="193.6"/>
	<line class="st4" x1="897.7" y1="200.7" x2="1054.7" y2="200.7"/>
	<line class="st5" x1="894.2" y1="190.1" x2="1054.7" y2="190.1"/>
	<line class="st4" x1="936.5" y1="190.1" x2="936.5" y2="228.8"/>
	<line class="st3" x1="918.9" y1="221.9" x2="918.9" y2="225.4"/>
	<line class="st3" x1="922.4" y1="221.9" x2="922.4" y2="225.4"/>
	<line class="st6" x1="925.9" y1="190.1" x2="925.9" y2="225.4"/>
	<line class="st3" x1="908.3" y1="221.9" x2="908.3" y2="225.4"/>
	<line class="st4" x1="901.2" y1="190.1" x2="901.2" y2="225.4"/>
	<line class="st5" x1="1054.7" y1="190.1" x2="1054.7" y2="228.9"/>
	<line class="st3" x1="911.8" y1="221.9" x2="911.8" y2="225.4"/>
	<line class="st3" x1="915.4" y1="221.9" x2="915.4" y2="225.4"/>
	<line class="st4" x1="897.7" y1="204.2" x2="901.2" y2="204.2"/>
	<line class="st4" x1="897.7" y1="207.7" x2="904.8" y2="207.7"/>
	<line class="st4" x1="897.7" y1="211.3" x2="904.8" y2="211.3"/>
	<line class="st4" x1="897.7" y1="214.8" x2="936.5" y2="214.8"/>
	<line class="st4" x1="897.7" y1="218.3" x2="926" y2="218.3"/>
	<line class="st4" x1="936.5" y1="218.3" x2="1047.6" y2="218.3"/>
	<line class="st4" x1="936.6" y1="221.9" x2="1054.7" y2="221.9"/>
	<line class="st4" x1="894.2" y1="221.9" x2="926" y2="221.9"/>
	<line class="st4" x1="901.2" y1="225.4" x2="936.5" y2="225.4"/>
	<line class="st5" x1="894.2" y1="228.9" x2="1054.7" y2="228.9"/>
	<line class="st3" x1="904.8" y1="379.9" x2="904.8" y2="415.3"/>
	<line class="st4" x1="901.2" y1="379.9" x2="901.2" y2="418.8"/>
	<line class="st4" x1="897.7" y1="387" x2="897.7" y2="411.7"/>
	<line class="st5" x1="894.2" y1="379.9" x2="894.2" y2="418.8"/>
	<line class="st4" x1="1073.4" y1="387" x2="1073.4" y2="411.7"/>
	<line class="st4" x1="1069.9" y1="379.9" x2="1069.9" y2="418.8"/>
	<line class="st4" x1="901.2" y1="397.6" x2="904.8" y2="401.1"/>
	<line class="st4" x1="904.8" y1="397.6" x2="901.2" y2="401.1"/>
	<line class="st4" x1="894.2" y1="387" x2="1077" y2="387"/>
	<line class="st4" x1="901.2" y1="383.5" x2="904.8" y2="383.5"/>
	<line class="st4" x1="897.7" y1="390.5" x2="1077" y2="390.5"/>
	<line class="st5" x1="894.2" y1="379.9" x2="1077" y2="379.9"/>
	<line class="st4" x1="936.5" y1="379.9" x2="936.5" y2="418.7"/>
	<line class="st3" x1="918.9" y1="411.7" x2="918.9" y2="415.3"/>
	<line class="st3" x1="922.4" y1="411.7" x2="922.4" y2="415.3"/>
	<line class="st6" x1="925.9" y1="379.9" x2="925.9" y2="415.3"/>
	<line class="st3" x1="908.3" y1="411.7" x2="908.3" y2="415.3"/>
	<line class="st4" x1="901.2" y1="379.9" x2="901.2" y2="415.3"/>
	<line class="st5" x1="1077" y1="379.9" x2="1077" y2="418.8"/>
	<line class="st3" x1="911.8" y1="411.7" x2="911.8" y2="415.3"/>
	<line class="st3" x1="915.4" y1="411.7" x2="915.4" y2="415.3"/>
	<line class="st4" x1="897.7" y1="394.1" x2="901.2" y2="394.1"/>
	<line class="st4" x1="897.7" y1="397.6" x2="904.8" y2="397.6"/>
	<line class="st4" x1="897.7" y1="401.1" x2="904.8" y2="401.1"/>
	<line class="st4" x1="897.7" y1="404.7" x2="936.5" y2="404.7"/>
	<line class="st4" x1="897.7" y1="408.2" x2="926" y2="408.2"/>
	<line class="st4" x1="936.5" y1="408.2" x2="1069.9" y2="408.2"/>
	<line class="st4" x1="936.6" y1="411.7" x2="1077" y2="411.7"/>
	<line class="st4" x1="894.2" y1="411.7" x2="926" y2="411.7"/>
	<line class="st4" x1="901.2" y1="415.3" x2="936.5" y2="415.3"/>
	<line class="st5" x1="894.2" y1="418.8" x2="1077" y2="418.8"/>
	<line class="st3" x1="904.8" y1="465.5" x2="904.8" y2="500.8"/>
	<line class="st4" x1="901.2" y1="465.5" x2="901.2" y2="504.3"/>
	<line class="st4" x1="897.7" y1="472.5" x2="897.7" y2="497.3"/>
	<line class="st5" x1="894.2" y1="465.5" x2="894.2" y2="504.3"/>
	<line class="st4" x1="1060.7" y1="472.5" x2="1060.7" y2="497.3"/>
	<line class="st4" x1="1057.2" y1="465.5" x2="1057.2" y2="504.3"/>
	<line class="st4" x1="901.2" y1="483.1" x2="904.8" y2="486.7"/>
	<line class="st4" x1="904.8" y1="483.1" x2="901.2" y2="486.7"/>
	<line class="st4" x1="894.2" y1="472.5" x2="1064.3" y2="472.5"/>
	<line class="st4" x1="901.2" y1="469" x2="904.8" y2="469"/>
	<line class="st4" x1="897.7" y1="476.1" x2="1064.3" y2="476.1"/>
	<line class="st5" x1="894.2" y1="465.5" x2="1064.3" y2="465.5"/>
	<line class="st4" x1="936.5" y1="465.5" x2="936.5" y2="504.2"/>
	<line class="st3" x1="918.9" y1="497.3" x2="918.9" y2="500.8"/>
	<line class="st3" x1="922.4" y1="497.3" x2="922.4" y2="500.8"/>
	<line class="st6" x1="925.9" y1="465.5" x2="925.9" y2="500.8"/>
	<line class="st3" x1="908.3" y1="497.3" x2="908.3" y2="500.8"/>
	<line class="st4" x1="901.2" y1="465.5" x2="901.2" y2="500.8"/>
	<line class="st5" x1="1064.3" y1="465.5" x2="1064.3" y2="504.3"/>
	<line class="st3" x1="911.8" y1="497.3" x2="911.8" y2="500.8"/>
	<line class="st3" x1="915.4" y1="497.3" x2="915.4" y2="500.8"/>
	<line class="st4" x1="897.7" y1="479.6" x2="901.2" y2="479.6"/>
	<line class="st4" x1="897.7" y1="483.1" x2="904.8" y2="483.1"/>
	<line class="st4" x1="897.7" y1="486.7" x2="904.8" y2="486.7"/>
	<line class="st4" x1="897.7" y1="490.2" x2="936.5" y2="490.2"/>
	<line class="st4" x1="897.7" y1="493.7" x2="926" y2="493.7"/>
	<line class="st4" x1="936.5" y1="493.7" x2="1057.2" y2="493.7"/>
	<line class="st4" x1="936.6" y1="497.3" x2="1064.3" y2="497.3"/>
	<line class="st4" x1="894.2" y1="497.3" x2="926" y2="497.3"/>
	<line class="st4" x1="901.2" y1="500.8" x2="936.5" y2="500.8"/>
	<line class="st5" x1="894.2" y1="504.3" x2="1064.3" y2="504.3"/>
	<line class="st3" x1="904.8" y1="550.9" x2="904.8" y2="586.2"/>
	<line class="st4" x1="901.2" y1="550.9" x2="901.2" y2="589.7"/>
	<line class="st4" x1="897.7" y1="557.9" x2="897.7" y2="582.7"/>
	<line class="st5" x1="894.2" y1="550.9" x2="894.2" y2="589.7"/>
	<line class="st4" x1="1098.2" y1="557.9" x2="1098.2" y2="582.7"/>
	<line class="st4" x1="1094.7" y1="550.9" x2="1094.7" y2="589.7"/>
	<line class="st4" x1="901.2" y1="568.5" x2="904.8" y2="572.1"/>
	<line class="st4" x1="904.8" y1="568.5" x2="901.2" y2="572.1"/>
	<line class="st4" x1="894.2" y1="557.9" x2="1101.7" y2="557.9"/>
	<line class="st4" x1="901.2" y1="554.4" x2="904.8" y2="554.4"/>
	<line class="st4" x1="897.7" y1="561.5" x2="1101.7" y2="561.5"/>
	<line class="st5" x1="894.2" y1="550.9" x2="1101.7" y2="550.9"/>
	<line class="st4" x1="936.5" y1="550.9" x2="936.5" y2="589.7"/>
	<line class="st3" x1="918.9" y1="582.7" x2="918.9" y2="586.2"/>
	<line class="st3" x1="922.4" y1="582.7" x2="922.4" y2="586.2"/>
	<line class="st6" x1="925.9" y1="550.9" x2="925.9" y2="586.2"/>
	<line class="st3" x1="908.3" y1="582.7" x2="908.3" y2="586.2"/>
	<line class="st4" x1="901.2" y1="550.9" x2="901.2" y2="586.2"/>
	<line class="st5" x1="1101.7" y1="550.9" x2="1101.7" y2="589.7"/>
	<line class="st3" x1="911.8" y1="582.7" x2="911.8" y2="586.2"/>
	<line class="st3" x1="915.4" y1="582.7" x2="915.4" y2="586.2"/>
	<line class="st4" x1="897.7" y1="565" x2="901.2" y2="565"/>
	<line class="st4" x1="897.7" y1="568.5" x2="904.8" y2="568.5"/>
	<line class="st4" x1="897.7" y1="572.1" x2="904.8" y2="572.1"/>
	<line class="st4" x1="897.7" y1="575.6" x2="936.5" y2="575.6"/>
	<line class="st4" x1="897.7" y1="579.1" x2="926" y2="579.1"/>
	<line class="st4" x1="936.5" y1="579.1" x2="1094.7" y2="579.1"/>
	<line class="st4" x1="936.6" y1="582.7" x2="1101.7" y2="582.7"/>
	<line class="st4" x1="894.2" y1="582.7" x2="926" y2="582.7"/>
	<line class="st4" x1="901.2" y1="586.2" x2="936.5" y2="586.2"/>
	<line class="st5" x1="894.2" y1="589.7" x2="1101.7" y2="589.7"/>
	<line class="st3" x1="904.8" y1="275.1" x2="904.8" y2="310.4"/>
	<line class="st4" x1="901.2" y1="275.1" x2="901.2" y2="314"/>
	<line class="st4" x1="897.7" y1="282.2" x2="897.7" y2="306.9"/>
	<line class="st5" x1="894.2" y1="275.1" x2="894.2" y2="314"/>
	<line class="st4" x1="1059.3" y1="282.2" x2="1059.3" y2="306.9"/>
	<line class="st4" x1="1055.8" y1="275.1" x2="1055.8" y2="314"/>
	<line class="st4" x1="901.2" y1="292.8" x2="904.8" y2="296.3"/>
	<line class="st4" x1="904.8" y1="292.8" x2="901.2" y2="296.3"/>
	<line class="st4" x1="894.2" y1="282.2" x2="1062.8" y2="282.2"/>
	<line class="st4" x1="901.2" y1="278.6" x2="904.8" y2="278.6"/>
	<line class="st4" x1="897.7" y1="285.7" x2="1062.8" y2="285.7"/>
	<line class="st5" x1="894.2" y1="275.1" x2="1062.8" y2="275.1"/>
	<line class="st4" x1="936.5" y1="275.1" x2="936.5" y2="339.6"/>
	<line class="st3" x1="918.9" y1="306.9" x2="918.9" y2="310.4"/>
	<line class="st3" x1="922.4" y1="306.9" x2="922.4" y2="310.4"/>
	<line class="st6" x1="925.9" y1="275.1" x2="925.9" y2="310.4"/>
	<line class="st3" x1="908.3" y1="306.9" x2="908.3" y2="310.4"/>
	<line class="st4" x1="901.2" y1="275.1" x2="901.2" y2="310.4"/>
	<line class="st5" x1="1062.8" y1="275.1" x2="1062.8" y2="314"/>
	<line class="st3" x1="911.8" y1="306.9" x2="911.8" y2="310.4"/>
	<line class="st3" x1="915.4" y1="306.9" x2="915.4" y2="310.4"/>
	<line class="st4" x1="897.7" y1="289.2" x2="901.2" y2="289.2"/>
	<line class="st4" x1="897.7" y1="292.8" x2="904.8" y2="292.8"/>
	<line class="st4" x1="897.7" y1="296.3" x2="904.8" y2="296.3"/>
	<line class="st4" x1="897.7" y1="299.8" x2="936.5" y2="299.8"/>
	<line class="st4" x1="897.7" y1="303.4" x2="926" y2="303.4"/>
	<line class="st4" x1="936.5" y1="303.4" x2="1055.8" y2="303.4"/>
	<line class="st4" x1="936.6" y1="306.9" x2="1062.8" y2="306.9"/>
	<line class="st4" x1="894.2" y1="306.9" x2="926" y2="306.9"/>
	<line class="st4" x1="901.2" y1="310.4" x2="936.5" y2="310.4"/>
	<line class="st3" x1="904.8" y1="636.2" x2="904.8" y2="671.5"/>
	<line class="st4" x1="901.2" y1="636.2" x2="901.2" y2="675"/>
	<line class="st4" x1="897.7" y1="643.2" x2="897.7" y2="668"/>
	<line class="st5" x1="894.2" y1="636.2" x2="894.2" y2="675"/>
	<line class="st4" x1="1204.9" y1="643.2" x2="1204.9" y2="668"/>
	<line class="st4" x1="1201.4" y1="636.2" x2="1201.4" y2="675"/>
	<line class="st4" x1="901.2" y1="653.8" x2="904.8" y2="657.4"/>
	<line class="st4" x1="904.8" y1="653.8" x2="901.2" y2="657.4"/>
	<line class="st4" x1="894.2" y1="643.2" x2="1208.5" y2="643.2"/>
	<line class="st4" x1="901.2" y1="639.7" x2="904.8" y2="639.7"/>
	<line class="st4" x1="897.7" y1="646.8" x2="1208.5" y2="646.8"/>
	<line class="st5" x1="894.2" y1="636.2" x2="1208.5" y2="636.2"/>
	<line class="st4" x1="936.5" y1="636.2" x2="936.5" y2="674.9"/>
	<line class="st3" x1="918.9" y1="667.9" x2="918.9" y2="671.5"/>
	<line class="st3" x1="922.4" y1="667.9" x2="922.4" y2="671.5"/>
	<line class="st6" x1="925.9" y1="636.2" x2="925.9" y2="671.5"/>
	<line class="st3" x1="908.3" y1="667.9" x2="908.3" y2="671.5"/>
	<line class="st4" x1="901.2" y1="636.2" x2="901.2" y2="671.5"/>
	<line class="st5" x1="1208.5" y1="636.2" x2="1208.5" y2="675"/>
	<line class="st3" x1="911.8" y1="667.9" x2="911.8" y2="671.5"/>
	<line class="st3" x1="915.4" y1="667.9" x2="915.4" y2="671.5"/>
	<line class="st4" x1="897.7" y1="650.3" x2="901.2" y2="650.3"/>
	<line class="st4" x1="897.7" y1="653.8" x2="904.8" y2="653.8"/>
	<line class="st4" x1="897.7" y1="657.4" x2="904.8" y2="657.4"/>
	<line class="st4" x1="897.7" y1="660.9" x2="936.5" y2="660.9"/>
	<line class="st4" x1="897.7" y1="664.4" x2="926" y2="664.4"/>
	<line class="st4" x1="936.5" y1="664.4" x2="1201.4" y2="664.4"/>
	<line class="st4" x1="936.6" y1="667.9" x2="1208.5" y2="667.9"/>
	<line class="st4" x1="894.2" y1="667.9" x2="926" y2="667.9"/>
	<line class="st4" x1="901.2" y1="671.5" x2="936.5" y2="671.5"/>
	<line class="st3" x1="358" y1="19.6" x2="358" y2="54.9"/>
	<line class="st4" x1="354.5" y1="19.6" x2="354.5" y2="58.4"/>
	<line class="st4" x1="351" y1="26.6" x2="351" y2="51.4"/>
	<line class="st5" x1="347.4" y1="19.6" x2="347.4" y2="58.4"/>
	<line class="st4" x1="638.2" y1="26.6" x2="638.2" y2="51.4"/>
	<line class="st4" x1="634.7" y1="19.6" x2="634.7" y2="58.4"/>
	<line class="st4" x1="354.5" y1="37.2" x2="358.1" y2="40.8"/>
	<line class="st4" x1="358.1" y1="37.2" x2="354.5" y2="40.8"/>
	<line class="st4" x1="347.4" y1="26.6" x2="641.8" y2="26.6"/>
	<line class="st4" x1="354.5" y1="23.1" x2="358.1" y2="23.1"/>
	<line class="st4" x1="351" y1="30.2" x2="641.8" y2="30.2"/>
	<line class="st5" x1="347.4" y1="19.6" x2="641.8" y2="19.6"/>
	<line class="st4" x1="389.8" y1="19.6" x2="389.8" y2="58.3"/>
	<line class="st3" x1="372.2" y1="51.4" x2="372.2" y2="54.9"/>
	<line class="st3" x1="375.7" y1="51.4" x2="375.7" y2="54.9"/>
	<line class="st6" x1="379.2" y1="19.6" x2="379.2" y2="54.9"/>
	<line class="st3" x1="361.6" y1="51.4" x2="361.6" y2="54.9"/>
	<line class="st4" x1="354.5" y1="19.6" x2="354.5" y2="54.9"/>
	<line class="st5" x1="641.8" y1="19.6" x2="641.8" y2="58.4"/>
	<line class="st3" x1="365.1" y1="51.4" x2="365.1" y2="54.9"/>
	<line class="st3" x1="368.6" y1="51.4" x2="368.6" y2="54.9"/>
	<line class="st4" x1="351" y1="33.7" x2="354.5" y2="33.7"/>
	<line class="st4" x1="351" y1="37.2" x2="358.1" y2="37.2"/>
	<line class="st4" x1="351" y1="40.8" x2="358.1" y2="40.8"/>
	<line class="st4" x1="351" y1="44.3" x2="389.8" y2="44.3"/>
	<line class="st4" x1="351" y1="47.8" x2="379.2" y2="47.8"/>
	<line class="st4" x1="389.8" y1="47.8" x2="634.7" y2="47.8"/>
	<line class="st4" x1="389.8" y1="51.4" x2="641.8" y2="51.4"/>
	<line class="st4" x1="347.4" y1="51.4" x2="379.2" y2="51.4"/>
	<line class="st4" x1="354.5" y1="54.9" x2="389.8" y2="54.9"/>
	<line class="st3" x1="358" y1="137.3" x2="358" y2="172.7"/>
	<line class="st4" x1="354.5" y1="137.3" x2="354.5" y2="176.2"/>
	<line class="st4" x1="351" y1="144.4" x2="351" y2="169.1"/>
	<line class="st5" x1="347.4" y1="137.3" x2="347.4" y2="176.2"/>
	<line class="st4" x1="521.2" y1="144.4" x2="521.2" y2="169.1"/>
	<line class="st4" x1="517.7" y1="137.3" x2="517.7" y2="176.2"/>
	<line class="st4" x1="354.5" y1="155" x2="358.1" y2="158.5"/>
	<line class="st4" x1="358.1" y1="155" x2="354.5" y2="158.5"/>
	<line class="st4" x1="347.4" y1="144.4" x2="524.8" y2="144.4"/>
	<line class="st4" x1="354.5" y1="140.9" x2="358.1" y2="140.9"/>
	<line class="st4" x1="351" y1="147.9" x2="524.8" y2="147.9"/>
	<line class="st5" x1="347.4" y1="137.3" x2="524.8" y2="137.3"/>
	<line class="st4" x1="389.8" y1="137.3" x2="389.8" y2="176.1"/>
	<line class="st3" x1="372.2" y1="169.1" x2="372.2" y2="172.7"/>
	<line class="st3" x1="375.7" y1="169.1" x2="375.7" y2="172.7"/>
	<line class="st6" x1="379.2" y1="137.3" x2="379.2" y2="172.7"/>
	<line class="st3" x1="361.6" y1="169.1" x2="361.6" y2="172.7"/>
	<line class="st4" x1="354.5" y1="137.3" x2="354.5" y2="172.7"/>
	<line class="st5" x1="524.8" y1="137.3" x2="524.8" y2="176.2"/>
	<line class="st3" x1="365.1" y1="169.1" x2="365.1" y2="172.7"/>
	<line class="st3" x1="368.6" y1="169.1" x2="368.6" y2="172.7"/>
	<line class="st4" x1="351" y1="151.5" x2="354.5" y2="151.5"/>
	<line class="st4" x1="351" y1="155" x2="358.1" y2="155"/>
	<line class="st4" x1="351" y1="158.5" x2="358.1" y2="158.5"/>
	<line class="st4" x1="351" y1="162.1" x2="389.8" y2="162.1"/>
	<line class="st4" x1="351" y1="165.6" x2="379.2" y2="165.6"/>
	<line class="st4" x1="389.8" y1="165.6" x2="517.7" y2="165.6"/>
	<line class="st4" x1="389.8" y1="169.1" x2="524.8" y2="169.1"/>
	<line class="st4" x1="347.4" y1="169.1" x2="379.2" y2="169.1"/>
	<line class="st4" x1="354.5" y1="172.7" x2="389.8" y2="172.7"/>
	<text transform="matrix(1 0 0 1 896.0654 56.1853)" class="st7 st8 st10">2x</text>
	<text transform="matrix(1 0 0 1 929.0639 51.0037)" class="st7 st8 st9">3x</text>
	<text transform="matrix(1 0 0 1 1002.7805 24.3445)" class="st7 st8 st10">2x</text>
	<text transform="matrix(1 0 0 1 902.207 22.4333)" class="st7 st8 st10">x</text>
	<text transform="matrix(1 0 0 1 -5.153 56.1853)" class="st7 st8 st10">2x</text>
	<text transform="matrix(1 0 0 1 27.8455 51.0037)" class="st7 st8 st9">3x</text>
	<text transform="matrix(1 0 0 1 102.8205 24.3445)" class="st7 st8 st10">2x</text>
	<text transform="matrix(1 0 0 1 0.9886 22.4333)" class="st7 st8 st10">x</text>
	<text transform="matrix(1 0 0 1 896.0652 141.8226)" class="st7 st8 st10">2x</text>
	<text transform="matrix(1 0 0 1 929.0638 136.641)" class="st7 st8 st9">3x</text>
	<text transform="matrix(1 0 0 1 1026.3666 109.9818)" class="st7 st8 st10">2x</text>
	<text transform="matrix(1 0 0 1 902.2068 108.0707)" class="st7 st8 st10">x</text>
	<text transform="matrix(1 0 0 1 1049.4988 194.8474)" class="st7 st8 st10">2x</text>
	<text transform="matrix(1 0 0 1 896.0652 416.5602)" class="st7 st8 st10">2x</text>
	<text transform="matrix(1 0 0 1 929.0638 411.3786)" class="st7 st8 st9">3x</text>
	<text transform="matrix(1 0 0 1 1071.8262 384.7194)" class="st7 st8 st10">2x</text>
	<text transform="matrix(1 0 0 1 902.2068 382.8083)" class="st7 st8 st10">x</text>
	<text transform="matrix(1 0 0 1 896.0652 502.0836)" class="st7 st8 st10">2x</text>
	<text transform="matrix(1 0 0 1 929.0638 496.902)" class="st7 st8 st9">3x</text>
	<text transform="matrix(1 0 0 1 1059.1124 470.2428)" class="st7 st8 st10">2x</text>
	<text transform="matrix(1 0 0 1 902.2068 468.3317)" class="st7 st8 st10">x</text>
	<text transform="matrix(1 0 0 1 896.0652 587.4966)" class="st7 st8 st10">2x</text>
	<text transform="matrix(1 0 0 1 929.0638 582.3149)" class="st7 st8 st9">3x</text>
	<text transform="matrix(1 0 0 1 1096.5702 555.6558)" class="st7 st8 st10">2x</text>
	<text transform="matrix(1 0 0 1 902.2068 553.7446)" class="st7 st8 st10">x</text>
	<g class="st11">
		<line class="st12" x1="1360.2" y1="19.6" x2="1360.2" y2="54.9"/>
		<line class="st13" x1="1356.7" y1="19.6" x2="1356.7" y2="58.4"/>
		<line class="st13" x1="1353.2" y1="26.6" x2="1353.2" y2="51.4"/>
		<line class="st13" x1="1611" y1="26.6" x2="1611" y2="51.4"/>
		<line class="st13" x1="1607.5" y1="19.6" x2="1607.5" y2="58.4"/>
		<line class="st13" x1="1356.7" y1="37.2" x2="1360.3" y2="40.8"/>
		<line class="st13" x1="1360.3" y1="37.2" x2="1356.7" y2="40.8"/>
		<line class="st13" x1="1349.6" y1="26.6" x2="1614.6" y2="26.6"/>
		<line class="st13" x1="1356.7" y1="23.1" x2="1360.3" y2="23.1"/>
		<line class="st13" x1="1353.2" y1="30.2" x2="1614.6" y2="30.2"/>
		<line class="st13" x1="1392" y1="19.6" x2="1392" y2="58.3"/>
		<line class="st12" x1="1374.4" y1="51.4" x2="1374.4" y2="54.9"/>
		<line class="st12" x1="1377.9" y1="51.4" x2="1377.9" y2="54.9"/>
		<line class="st14" x1="1381.4" y1="19.6" x2="1381.4" y2="54.9"/>
		<line class="st12" x1="1363.8" y1="51.4" x2="1363.8" y2="54.9"/>
		<line class="st13" x1="1356.7" y1="19.6" x2="1356.7" y2="54.9"/>
		<line class="st12" x1="1367.3" y1="51.4" x2="1367.3" y2="54.9"/>
		<line class="st12" x1="1370.8" y1="51.4" x2="1370.8" y2="54.9"/>
		<line class="st13" x1="1353.2" y1="33.7" x2="1356.7" y2="33.7"/>
		<line class="st13" x1="1353.2" y1="37.2" x2="1360.3" y2="37.2"/>
		<line class="st13" x1="1353.2" y1="40.8" x2="1360.3" y2="40.8"/>
		<line class="st13" x1="1353.2" y1="44.3" x2="1392" y2="44.3"/>
		<line class="st13" x1="1353.2" y1="47.8" x2="1381.4" y2="47.8"/>
		<line class="st13" x1="1392" y1="47.8" x2="1607.5" y2="47.8"/>
		<line class="st13" x1="1392" y1="51.4" x2="1614.6" y2="51.4"/>
		<line class="st13" x1="1349.6" y1="51.4" x2="1381.4" y2="51.4"/>
		<line class="st13" x1="1356.7" y1="54.9" x2="1392" y2="54.9"/>
		<text transform="matrix(1 0 0 1 1351.532 56.1851)" class="st8 st10" style="fill:#C2132C;">2x</text>
		<text transform="matrix(1 0 0 1 1384.5305 51.0035)" class="st8 st9" style="fill:#C2132C;">3x</text>
		<text transform="matrix(1 0 0 1 1609.4139 24.3443)" class="st8 st10" style="fill:#C2132C;">2x</text>
		<text transform="matrix(1 0 0 1 1357.6736 22.4331)" class="st8 st10" style="fill:#C2132C;">x</text>
	</g>
	<g class="st11">
		<line class="st12" x1="1360.2" y1="939.3" x2="1360.2" y2="974.6"/>
		<line class="st13" x1="1356.7" y1="939.3" x2="1356.7" y2="978.1"/>
		<line class="st13" x1="1353.2" y1="946.3" x2="1353.2" y2="971.1"/>
		<line class="st13" x1="1599.2" y1="946.3" x2="1599.2" y2="971.1"/>
		<line class="st13" x1="1595.7" y1="939.3" x2="1595.7" y2="978.1"/>
		<line class="st13" x1="1356.7" y1="956.9" x2="1360.3" y2="960.5"/>
		<line class="st13" x1="1360.3" y1="956.9" x2="1356.7" y2="960.5"/>
		<line class="st13" x1="1349.6" y1="946.3" x2="1602.7" y2="946.3"/>
		<line class="st13" x1="1356.7" y1="942.8" x2="1360.3" y2="942.8"/>
		<line class="st13" x1="1353.2" y1="949.9" x2="1602.7" y2="949.9"/>
		<line class="st13" x1="1392" y1="939.3" x2="1392" y2="978.1"/>
		<line class="st12" x1="1374.4" y1="971.1" x2="1374.4" y2="974.6"/>
		<line class="st12" x1="1377.9" y1="971.1" x2="1377.9" y2="974.6"/>
		<line class="st14" x1="1381.4" y1="939.3" x2="1381.4" y2="974.6"/>
		<line class="st12" x1="1363.8" y1="971.1" x2="1363.8" y2="974.6"/>
		<line class="st13" x1="1356.7" y1="939.3" x2="1356.7" y2="974.6"/>
		<line class="st12" x1="1367.3" y1="971.1" x2="1367.3" y2="974.6"/>
		<line class="st12" x1="1370.8" y1="971.1" x2="1370.8" y2="974.6"/>
		<line class="st13" x1="1353.2" y1="953.4" x2="1356.7" y2="953.4"/>
		<line class="st13" x1="1353.2" y1="956.9" x2="1360.3" y2="956.9"/>
		<line class="st13" x1="1353.2" y1="960.5" x2="1360.3" y2="960.5"/>
		<line class="st13" x1="1353.2" y1="964" x2="1392" y2="964"/>
		<line class="st13" x1="1353.2" y1="967.5" x2="1381.4" y2="967.5"/>
		<line class="st13" x1="1392" y1="967.5" x2="1595.7" y2="967.5"/>
		<line class="st13" x1="1392" y1="971.1" x2="1602.7" y2="971.1"/>
		<line class="st13" x1="1349.6" y1="971.1" x2="1381.4" y2="971.1"/>
		<line class="st13" x1="1356.7" y1="974.6" x2="1392" y2="974.6"/>
		<text transform="matrix(1 0 0 1 1351.532 975.8934)" class="st8 st10" style="fill:#C2132C;">2x</text>
		<text transform="matrix(1 0 0 1 1384.5305 970.7118)" class="st8 st9" style="fill:#C2132C;">3x</text>
		<text transform="matrix(1 0 0 1 1597.5782 944.0526)" class="st8 st10" style="fill:#C2132C;">2x</text>
		<text transform="matrix(1 0 0 1 1357.6736 942.1415)" class="st8 st10" style="fill:#C2132C;">x</text>
	</g>
	<g class="st11">
		<line class="st12" x1="1360.2" y1="105.2" x2="1360.2" y2="140.5"/>
		<line class="st13" x1="1356.7" y1="105.2" x2="1356.7" y2="144.1"/>
		<line class="st13" x1="1353.2" y1="112.3" x2="1353.2" y2="137"/>
		<line class="st13" x1="1631.5" y1="112.3" x2="1631.5" y2="137"/>
		<line class="st13" x1="1628" y1="105.2" x2="1628" y2="144.1"/>
		<line class="st13" x1="1356.7" y1="122.9" x2="1360.3" y2="126.4"/>
		<line class="st13" x1="1360.3" y1="122.9" x2="1356.7" y2="126.4"/>
		<line class="st13" x1="1349.6" y1="112.3" x2="1635.1" y2="112.3"/>
		<line class="st13" x1="1356.7" y1="108.7" x2="1360.3" y2="108.7"/>
		<line class="st13" x1="1353.2" y1="115.8" x2="1635.1" y2="115.8"/>
		<line class="st13" x1="1392" y1="105.2" x2="1392" y2="144"/>
		<line class="st12" x1="1374.4" y1="137" x2="1374.4" y2="140.5"/>
		<line class="st12" x1="1377.9" y1="137" x2="1377.9" y2="140.5"/>
		<line class="st14" x1="1381.4" y1="105.2" x2="1381.4" y2="140.5"/>
		<line class="st12" x1="1363.8" y1="137" x2="1363.8" y2="140.5"/>
		<line class="st13" x1="1356.7" y1="105.2" x2="1356.7" y2="140.5"/>
		<line class="st12" x1="1367.3" y1="137" x2="1367.3" y2="140.5"/>
		<line class="st12" x1="1370.8" y1="137" x2="1370.8" y2="140.5"/>
		<line class="st13" x1="1353.2" y1="119.3" x2="1356.7" y2="119.3"/>
		<line class="st13" x1="1353.2" y1="122.9" x2="1360.3" y2="122.9"/>
		<line class="st13" x1="1353.2" y1="126.4" x2="1360.3" y2="126.4"/>
		<line class="st13" x1="1353.2" y1="129.9" x2="1392" y2="129.9"/>
		<line class="st13" x1="1353.2" y1="133.5" x2="1381.4" y2="133.5"/>
		<line class="st13" x1="1392" y1="133.5" x2="1628" y2="133.5"/>
		<line class="st13" x1="1392" y1="137" x2="1635.1" y2="137"/>
		<line class="st13" x1="1349.6" y1="137" x2="1381.4" y2="137"/>
		<line class="st13" x1="1356.7" y1="140.5" x2="1392" y2="140.5"/>
		<text transform="matrix(1 0 0 1 1351.532 141.8227)" class="st8 st10" style="fill:#C2132C;">2x</text>
		<text transform="matrix(1 0 0 1 1384.5305 136.6411)" class="st8 st9" style="fill:#C2132C;">3x</text>
		<text transform="matrix(1 0 0 1 1629.9182 109.9819)" class="st8 st10" style="fill:#C2132C;">2x</text>
		<text transform="matrix(1 0 0 1 1357.6736 108.0708)" class="st8 st10" style="fill:#C2132C;">x</text>
	</g>
	<g class="st11">
		<line class="st12" x1="1360.2" y1="604.4" x2="1360.2" y2="639.7"/>
		<line class="st13" x1="1356.7" y1="604.4" x2="1356.7" y2="643.3"/>
		<line class="st13" x1="1353.2" y1="611.5" x2="1353.2" y2="636.2"/>
		<line class="st13" x1="1709.3" y1="611.5" x2="1709.3" y2="636.2"/>
		<line class="st13" x1="1705.8" y1="604.4" x2="1705.8" y2="643.3"/>
		<line class="st13" x1="1356.7" y1="622.1" x2="1360.3" y2="625.6"/>
		<line class="st13" x1="1360.3" y1="622.1" x2="1356.7" y2="625.6"/>
		<line class="st13" x1="1349.6" y1="611.5" x2="1712.8" y2="611.5"/>
		<line class="st13" x1="1356.7" y1="607.9" x2="1360.3" y2="607.9"/>
		<line class="st13" x1="1353.2" y1="615" x2="1712.8" y2="615"/>
		<line class="st13" x1="1392" y1="604.4" x2="1392" y2="643.2"/>
		<line class="st12" x1="1374.4" y1="636.2" x2="1374.4" y2="639.7"/>
		<line class="st12" x1="1377.9" y1="636.2" x2="1377.9" y2="639.7"/>
		<line class="st14" x1="1381.4" y1="604.4" x2="1381.4" y2="639.7"/>
		<line class="st12" x1="1363.8" y1="636.2" x2="1363.8" y2="639.7"/>
		<line class="st13" x1="1356.7" y1="604.4" x2="1356.7" y2="639.7"/>
		<line class="st12" x1="1367.3" y1="636.2" x2="1367.3" y2="639.7"/>
		<line class="st12" x1="1370.8" y1="636.2" x2="1370.8" y2="639.7"/>
		<line class="st13" x1="1353.2" y1="618.5" x2="1356.7" y2="618.5"/>
		<line class="st13" x1="1353.2" y1="622.1" x2="1360.3" y2="622.1"/>
		<line class="st13" x1="1353.2" y1="625.6" x2="1360.3" y2="625.6"/>
		<line class="st13" x1="1353.2" y1="629.1" x2="1392" y2="629.1"/>
		<line class="st13" x1="1353.2" y1="632.7" x2="1381.4" y2="632.7"/>
		<line class="st13" x1="1392" y1="632.7" x2="1705.8" y2="632.7"/>
		<line class="st13" x1="1392" y1="636.2" x2="1712.8" y2="636.2"/>
		<line class="st13" x1="1353.2" y1="636.2" x2="1381.4" y2="636.2"/>
		<line class="st13" x1="1356.7" y1="639.7" x2="1392" y2="639.7"/>
		<line class="st15" x1="1349.6" y1="637.9" x2="1712.8" y2="637.9"/>
		<text transform="matrix(1 0 0 1 1351.532 641.0259)" class="st8 st10" style="fill:#C2132C;">2x</text>
		<text transform="matrix(1 0 0 1 1384.5305 635.8442)" class="st8 st9" style="fill:#C2132C;">3x</text>
		<text transform="matrix(1 0 0 1 1707.6952 609.1851)" class="st8 st10" style="fill:#C2132C;">2x</text>
		<text transform="matrix(1 0 0 1 1357.6736 607.2739)" class="st8 st10" style="fill:#C2132C;">x</text>
	</g>
	<g class="st11">
		<line class="st12" x1="1360.2" y1="715.4" x2="1360.2" y2="750.7"/>
		<line class="st13" x1="1356.7" y1="715.4" x2="1356.7" y2="754.2"/>
		<line class="st13" x1="1353.2" y1="722.4" x2="1353.2" y2="747.2"/>
		<line class="st13" x1="1620.2" y1="722.4" x2="1620.2" y2="747.2"/>
		<line class="st13" x1="1616.6" y1="715.4" x2="1616.6" y2="754.2"/>
		<line class="st13" x1="1356.7" y1="733" x2="1360.3" y2="736.6"/>
		<line class="st13" x1="1360.3" y1="733" x2="1356.7" y2="736.6"/>
		<line class="st13" x1="1349.6" y1="722.4" x2="1623.7" y2="722.4"/>
		<line class="st13" x1="1356.7" y1="718.9" x2="1360.3" y2="718.9"/>
		<line class="st13" x1="1353.2" y1="726" x2="1623.7" y2="726"/>
		<line class="st13" x1="1392" y1="715.4" x2="1392" y2="754.1"/>
		<line class="st12" x1="1374.4" y1="747.2" x2="1374.4" y2="750.7"/>
		<line class="st12" x1="1377.9" y1="747.2" x2="1377.9" y2="750.7"/>
		<line class="st14" x1="1381.4" y1="715.4" x2="1381.4" y2="750.7"/>
		<line class="st12" x1="1363.8" y1="747.2" x2="1363.8" y2="750.7"/>
		<line class="st13" x1="1356.7" y1="715.4" x2="1356.7" y2="750.7"/>
		<line class="st12" x1="1367.3" y1="747.2" x2="1367.3" y2="750.7"/>
		<line class="st12" x1="1370.8" y1="747.2" x2="1370.8" y2="750.7"/>
		<line class="st13" x1="1353.2" y1="729.5" x2="1356.7" y2="729.5"/>
		<line class="st13" x1="1353.2" y1="733" x2="1360.3" y2="733"/>
		<line class="st13" x1="1353.2" y1="736.6" x2="1360.3" y2="736.6"/>
		<line class="st13" x1="1353.2" y1="740.1" x2="1392" y2="740.1"/>
		<line class="st13" x1="1353.2" y1="743.6" x2="1381.4" y2="743.6"/>
		<line class="st13" x1="1392" y1="743.6" x2="1616.6" y2="743.6"/>
		<line class="st13" x1="1392" y1="747.2" x2="1623.7" y2="747.2"/>
		<line class="st13" x1="1349.6" y1="747.2" x2="1381.4" y2="747.2"/>
		<line class="st13" x1="1356.7" y1="750.7" x2="1392" y2="750.7"/>
		<text transform="matrix(1 0 0 1 1351.532 751.9864)" class="st8 st10" style="fill:#C2132C;">2x</text>
		<text transform="matrix(1 0 0 1 1384.5305 746.8047)" class="st8 st9" style="fill:#C2132C;">3x</text>
		<text transform="matrix(1 0 0 1 1618.5503 720.1456)" class="st8 st10" style="fill:#C2132C;">2x</text>
		<text transform="matrix(1 0 0 1 1357.6736 718.2344)" class="st8 st10" style="fill:#C2132C;">x</text>
	</g>
	<g class="st11">
		<line class="st12" x1="1360.2" y1="822.4" x2="1360.2" y2="857.7"/>
		<line class="st13" x1="1356.7" y1="822.4" x2="1356.7" y2="861.2"/>
		<line class="st13" x1="1353.2" y1="829.4" x2="1353.2" y2="854.2"/>
		<line class="st13" x1="1570.7" y1="829.4" x2="1570.7" y2="854.2"/>
		<line class="st13" x1="1567.2" y1="822.4" x2="1567.2" y2="861.2"/>
		<line class="st13" x1="1356.7" y1="840" x2="1360.3" y2="843.6"/>
		<line class="st13" x1="1360.3" y1="840" x2="1356.7" y2="843.6"/>
		<line class="st13" x1="1349.6" y1="829.4" x2="1574.2" y2="829.4"/>
		<line class="st13" x1="1356.7" y1="825.9" x2="1360.3" y2="825.9"/>
		<line class="st13" x1="1353.2" y1="833" x2="1574.2" y2="833"/>
		<line class="st13" x1="1392" y1="822.4" x2="1392" y2="861.1"/>
		<line class="st12" x1="1374.4" y1="854.2" x2="1374.4" y2="857.7"/>
		<line class="st12" x1="1377.9" y1="854.2" x2="1377.9" y2="857.7"/>
		<line class="st14" x1="1381.4" y1="822.4" x2="1381.4" y2="857.7"/>
		<line class="st12" x1="1363.8" y1="854.2" x2="1363.8" y2="857.7"/>
		<line class="st13" x1="1356.7" y1="822.4" x2="1356.7" y2="857.7"/>
		<line class="st12" x1="1367.3" y1="854.2" x2="1367.3" y2="857.7"/>
		<line class="st12" x1="1370.8" y1="854.2" x2="1370.8" y2="857.7"/>
		<line class="st13" x1="1353.2" y1="836.5" x2="1356.7" y2="836.5"/>
		<line class="st13" x1="1353.2" y1="840" x2="1360.3" y2="840"/>
		<line class="st13" x1="1353.2" y1="843.6" x2="1360.3" y2="843.6"/>
		<line class="st13" x1="1353.2" y1="847.1" x2="1392" y2="847.1"/>
		<line class="st13" x1="1353.2" y1="850.6" x2="1381.4" y2="850.6"/>
		<line class="st13" x1="1392" y1="850.6" x2="1567.2" y2="850.6"/>
		<line class="st13" x1="1392" y1="854.2" x2="1574.2" y2="854.2"/>
		<line class="st13" x1="1349.6" y1="854.2" x2="1381.4" y2="854.2"/>
		<line class="st13" x1="1356.7" y1="857.7" x2="1392" y2="857.7"/>
		<text transform="matrix(1 0 0 1 1351.532 858.9847)" class="st8 st10" style="fill:#C2132C;">2x</text>
		<text transform="matrix(1 0 0 1 1384.5305 853.8031)" class="st8 st9" style="fill:#C2132C;">3x</text>
		<text transform="matrix(1 0 0 1 1569.0938 827.1439)" class="st8 st10" style="fill:#C2132C;">2x</text>
		<text transform="matrix(1 0 0 1 1357.6736 825.2328)" class="st8 st10" style="fill:#C2132C;">x</text>
	</g>
	<g class="st11">
		<line class="st12" x1="1360.2" y1="190.1" x2="1360.2" y2="225.4"/>
		<line class="st13" x1="1356.7" y1="190.1" x2="1356.7" y2="228.9"/>
		<line class="st13" x1="1353.2" y1="197.1" x2="1353.2" y2="221.9"/>
		<line class="st13" x1="1544.3" y1="197.1" x2="1544.3" y2="221.9"/>
		<line class="st13" x1="1540.8" y1="190.1" x2="1540.8" y2="228.9"/>
		<line class="st13" x1="1356.7" y1="207.7" x2="1360.3" y2="211.3"/>
		<line class="st13" x1="1360.3" y1="207.7" x2="1356.7" y2="211.3"/>
		<line class="st13" x1="1349.6" y1="197.1" x2="1547.8" y2="197.1"/>
		<line class="st13" x1="1356.7" y1="193.6" x2="1360.3" y2="193.6"/>
		<line class="st13" x1="1353.2" y1="200.7" x2="1547.8" y2="200.7"/>
		<line class="st13" x1="1392" y1="190.1" x2="1392" y2="228.8"/>
		<line class="st12" x1="1374.4" y1="221.9" x2="1374.4" y2="225.4"/>
		<line class="st12" x1="1377.9" y1="221.9" x2="1377.9" y2="225.4"/>
		<line class="st14" x1="1381.4" y1="190.1" x2="1381.4" y2="225.4"/>
		<line class="st12" x1="1363.8" y1="221.9" x2="1363.8" y2="225.4"/>
		<line class="st13" x1="1356.7" y1="190.1" x2="1356.7" y2="225.4"/>
		<line class="st12" x1="1367.3" y1="221.9" x2="1367.3" y2="225.4"/>
		<line class="st12" x1="1370.8" y1="221.9" x2="1370.8" y2="225.4"/>
		<line class="st13" x1="1353.2" y1="204.2" x2="1356.7" y2="204.2"/>
		<line class="st13" x1="1353.2" y1="207.7" x2="1360.3" y2="207.7"/>
		<line class="st13" x1="1353.2" y1="211.3" x2="1360.3" y2="211.3"/>
		<line class="st13" x1="1353.2" y1="214.8" x2="1392" y2="214.8"/>
		<line class="st13" x1="1353.2" y1="218.3" x2="1381.4" y2="218.3"/>
		<line class="st13" x1="1392" y1="218.3" x2="1540.8" y2="218.3"/>
		<line class="st13" x1="1392" y1="221.9" x2="1547.8" y2="221.9"/>
		<line class="st13" x1="1349.6" y1="221.9" x2="1381.4" y2="221.9"/>
		<line class="st13" x1="1356.7" y1="225.4" x2="1392" y2="225.4"/>
		<text transform="matrix(1 0 0 1 1351.532 226.6883)" class="st8 st10" style="fill:#C2132C;">2x</text>
		<text transform="matrix(1 0 0 1 1384.5305 221.5067)" class="st8 st9" style="fill:#C2132C;">3x</text>
		<text transform="matrix(1 0 0 1 1542.6952 194.8475)" class="st8 st10" style="fill:#C2132C;">2x</text>
		<text transform="matrix(1 0 0 1 1357.6736 192.9363)" class="st8 st10" style="fill:#C2132C;">x</text>
	</g>
	<g class="st11">
		<line class="st12" x1="1360.2" y1="265" x2="1360.2" y2="300.3"/>
		<line class="st13" x1="1356.7" y1="265" x2="1356.7" y2="303.8"/>
		<line class="st13" x1="1353.2" y1="272" x2="1353.2" y2="296.8"/>
		<line class="st13" x1="1608.3" y1="272" x2="1608.3" y2="296.8"/>
		<line class="st13" x1="1604.7" y1="265" x2="1604.7" y2="303.8"/>
		<line class="st13" x1="1356.7" y1="282.6" x2="1360.3" y2="286.2"/>
		<line class="st13" x1="1360.3" y1="282.6" x2="1356.7" y2="286.2"/>
		<line class="st13" x1="1349.6" y1="272" x2="1611.8" y2="272"/>
		<line class="st13" x1="1356.7" y1="268.5" x2="1360.3" y2="268.5"/>
		<line class="st13" x1="1353.2" y1="275.6" x2="1611.8" y2="275.6"/>
		<line class="st13" x1="1392" y1="265" x2="1392" y2="303.8"/>
		<line class="st12" x1="1374.4" y1="296.8" x2="1374.4" y2="300.3"/>
		<line class="st12" x1="1377.9" y1="296.8" x2="1377.9" y2="300.3"/>
		<line class="st14" x1="1381.4" y1="265" x2="1381.4" y2="300.3"/>
		<line class="st12" x1="1363.8" y1="296.8" x2="1363.8" y2="300.3"/>
		<line class="st13" x1="1356.7" y1="265" x2="1356.7" y2="300.3"/>
		<line class="st12" x1="1367.3" y1="296.8" x2="1367.3" y2="300.3"/>
		<line class="st12" x1="1370.8" y1="296.8" x2="1370.8" y2="300.3"/>
		<line class="st13" x1="1353.2" y1="279.1" x2="1356.7" y2="279.1"/>
		<line class="st13" x1="1353.2" y1="282.6" x2="1360.3" y2="282.6"/>
		<line class="st13" x1="1353.2" y1="286.2" x2="1360.3" y2="286.2"/>
		<line class="st13" x1="1353.2" y1="289.7" x2="1392" y2="289.7"/>
		<line class="st13" x1="1353.2" y1="293.2" x2="1381.4" y2="293.2"/>
		<line class="st13" x1="1392" y1="293.2" x2="1604.7" y2="293.2"/>
		<line class="st13" x1="1392" y1="296.8" x2="1611.8" y2="296.8"/>
		<line class="st13" x1="1349.6" y1="296.8" x2="1381.4" y2="296.8"/>
		<line class="st13" x1="1356.7" y1="300.3" x2="1392" y2="300.3"/>
		<text transform="matrix(1 0 0 1 1351.532 301.6009)" class="st8 st10" style="fill:#C2132C;">2x</text>
		<text transform="matrix(1 0 0 1 1384.5305 296.4193)" class="st8 st9" style="fill:#C2132C;">3x</text>
		<text transform="matrix(1 0 0 1 1606.6434 269.7601)" class="st8 st10" style="fill:#C2132C;">2x</text>
		<text transform="matrix(1 0 0 1 1357.6736 267.849)" class="st8 st10" style="fill:#C2132C;">x</text>
	</g>
	<g class="st11">
		<line class="st12" x1="1360.2" y1="379.9" x2="1360.2" y2="415.3"/>
		<line class="st13" x1="1356.7" y1="379.9" x2="1356.7" y2="418.8"/>
		<line class="st13" x1="1353.2" y1="387" x2="1353.2" y2="411.7"/>
		<line class="st13" x1="1503.2" y1="387" x2="1503.2" y2="411.7"/>
		<line class="st13" x1="1499.7" y1="379.9" x2="1499.7" y2="418.8"/>
		<line class="st13" x1="1356.7" y1="397.6" x2="1360.3" y2="401.1"/>
		<line class="st13" x1="1360.3" y1="397.6" x2="1356.7" y2="401.1"/>
		<line class="st13" x1="1349.6" y1="387" x2="1506.8" y2="387"/>
		<line class="st13" x1="1356.7" y1="383.5" x2="1360.3" y2="383.5"/>
		<line class="st13" x1="1353.2" y1="390.5" x2="1506.8" y2="390.5"/>
		<line class="st13" x1="1392" y1="379.9" x2="1392" y2="418.7"/>
		<line class="st12" x1="1374.4" y1="411.7" x2="1374.4" y2="415.3"/>
		<line class="st12" x1="1377.9" y1="411.7" x2="1377.9" y2="415.3"/>
		<line class="st14" x1="1381.4" y1="379.9" x2="1381.4" y2="415.3"/>
		<line class="st12" x1="1363.8" y1="411.7" x2="1363.8" y2="415.3"/>
		<line class="st13" x1="1356.7" y1="379.9" x2="1356.7" y2="415.3"/>
		<line class="st12" x1="1367.3" y1="411.7" x2="1367.3" y2="415.3"/>
		<line class="st12" x1="1370.8" y1="411.7" x2="1370.8" y2="415.3"/>
		<line class="st13" x1="1353.2" y1="394.1" x2="1356.7" y2="394.1"/>
		<line class="st13" x1="1353.2" y1="397.6" x2="1360.3" y2="397.6"/>
		<line class="st13" x1="1353.2" y1="401.1" x2="1360.3" y2="401.1"/>
		<line class="st13" x1="1353.2" y1="404.7" x2="1392" y2="404.7"/>
		<line class="st13" x1="1353.2" y1="408.2" x2="1381.4" y2="408.2"/>
		<line class="st13" x1="1392" y1="408.2" x2="1499.7" y2="408.2"/>
		<line class="st13" x1="1392" y1="411.7" x2="1506.8" y2="411.7"/>
		<line class="st13" x1="1349.6" y1="411.7" x2="1381.4" y2="411.7"/>
		<line class="st13" x1="1356.7" y1="415.3" x2="1392" y2="415.3"/>
		<text transform="matrix(1 0 0 1 1351.532 416.5603)" class="st8 st10" style="fill:#C2132C;">2x</text>
		<text transform="matrix(1 0 0 1 1384.5305 411.3787)" class="st8 st9" style="fill:#C2132C;">3x</text>
		<text transform="matrix(1 0 0 1 1501.6119 384.7195)" class="st8 st10" style="fill:#C2132C;">2x</text>
		<text transform="matrix(1 0 0 1 1357.6736 382.8084)" class="st8 st10" style="fill:#C2132C;">x</text>
	</g>
	<g class="st11">
		<line class="st12" x1="1360.2" y1="501.9" x2="1360.2" y2="537.2"/>
		<line class="st13" x1="1356.7" y1="501.9" x2="1356.7" y2="540.7"/>
		<line class="st13" x1="1353.2" y1="508.9" x2="1353.2" y2="533.6"/>
		<line class="st13" x1="1461" y1="508.9" x2="1461" y2="533.7"/>
		<line class="st13" x1="1457.4" y1="501.9" x2="1457.4" y2="540.7"/>
		<line class="st13" x1="1356.7" y1="519.5" x2="1360.3" y2="523"/>
		<line class="st13" x1="1360.3" y1="519.5" x2="1356.7" y2="523"/>
		<line class="st13" x1="1349.6" y1="508.9" x2="1464.5" y2="508.9"/>
		<line class="st13" x1="1356.7" y1="505.4" x2="1360.3" y2="505.4"/>
		<line class="st13" x1="1353.2" y1="512.5" x2="1464.5" y2="512.5"/>
		<line class="st13" x1="1392" y1="501.9" x2="1392" y2="540.6"/>
		<line class="st12" x1="1374.4" y1="533.6" x2="1374.4" y2="537.2"/>
		<line class="st12" x1="1377.9" y1="533.6" x2="1377.9" y2="537.2"/>
		<line class="st14" x1="1381.4" y1="501.9" x2="1381.4" y2="537.2"/>
		<line class="st12" x1="1363.8" y1="533.6" x2="1363.8" y2="537.2"/>
		<line class="st13" x1="1356.7" y1="501.9" x2="1356.7" y2="537.2"/>
		<line class="st12" x1="1367.3" y1="533.6" x2="1367.3" y2="537.2"/>
		<line class="st12" x1="1370.8" y1="533.6" x2="1370.8" y2="537.2"/>
		<line class="st13" x1="1353.2" y1="516" x2="1356.7" y2="516"/>
		<line class="st13" x1="1353.2" y1="519.5" x2="1360.3" y2="519.5"/>
		<line class="st13" x1="1353.2" y1="523" x2="1360.3" y2="523"/>
		<line class="st13" x1="1353.2" y1="526.6" x2="1392" y2="526.6"/>
		<line class="st13" x1="1353.2" y1="530.1" x2="1381.4" y2="530.1"/>
		<line class="st13" x1="1392" y1="530.1" x2="1457.4" y2="530.1"/>
		<line class="st13" x1="1392" y1="533.6" x2="1464.5" y2="533.6"/>
		<line class="st13" x1="1353.2" y1="533.6" x2="1381.4" y2="533.6"/>
		<line class="st13" x1="1356.7" y1="537.2" x2="1392" y2="537.2"/>
		<line class="st15" x1="1349.6" y1="535.3" x2="1464.5" y2="535.3"/>
		<text transform="matrix(1 0 0 1 1351.532 538.4714)" class="st8 st10" style="fill:#C2132C;">2x</text>
		<text transform="matrix(1 0 0 1 1384.5305 533.2897)" class="st8 st9" style="fill:#C2132C;">3x</text>
		<text transform="matrix(1 0 0 1 1459.3292 506.6306)" class="st8 st10" style="fill:#C2132C;">2x</text>
		<text transform="matrix(1 0 0 1 1357.6736 504.7195)" class="st8 st10" style="fill:#C2132C;">x</text>
	</g>
	<text transform="matrix(1 0 0 1 896.0652 311.7247)" class="st7 st8 st10">2x</text>
	<text transform="matrix(1 0 0 1 929.0638 306.5431)" class="st7 st8 st9">3x</text>
	<text transform="matrix(1 0 0 1 1057.6949 279.8839)" class="st7 st8 st10">2x</text>
	<text transform="matrix(1 0 0 1 902.2068 277.9728)" class="st7 st8 st10">x</text>
	<text transform="matrix(1 0 0 1 896.0652 672.7771)" class="st7 st8 st10">2x</text>
	<text transform="matrix(1 0 0 1 929.0638 667.5955)" class="st7 st8 st9">3x</text>
	<text transform="matrix(1 0 0 1 1203.3042 640.9363)" class="st7 st8 st10">2x</text>
	<text transform="matrix(1 0 0 1 902.2068 639.0251)" class="st7 st8 st10">x</text>
	<text transform="matrix(1 0 0 1 349.3498 56.1852)" class="st7 st8 st10">2x</text>
	<text transform="matrix(1 0 0 1 382.3483 51.0035)" class="st7 st8 st9">3x</text>
	<text transform="matrix(1 0 0 1 636.6181 24.3444)" class="st7 st8 st10">2x</text>
	<text transform="matrix(1 0 0 1 355.4914 22.4332)" class="st7 st8 st10">x</text>
	<text transform="matrix(1 0 0 1 349.3505 173.9555)" class="st7 st8 st10">2x</text>
	<text transform="matrix(1 0 0 1 382.349 168.7739)" class="st7 st8 st9">3x</text>
	<text transform="matrix(1 0 0 1 519.6036 142.1147)" class="st7 st8 st10">2x</text>
	<text transform="matrix(1 0 0 1 355.4921 140.2036)" class="st7 st8 st10">x</text>
	<line class="st3" x1="358" y1="307.4" x2="358" y2="342.7"/>
	<line class="st4" x1="354.5" y1="307.4" x2="354.5" y2="346.2"/>
	<line class="st4" x1="351" y1="314.4" x2="351" y2="339.2"/>
	<line class="st5" x1="347.4" y1="307.4" x2="347.4" y2="346.2"/>
	<line class="st4" x1="521.2" y1="314.4" x2="521.2" y2="339.2"/>
	<line class="st4" x1="517.7" y1="307.4" x2="517.7" y2="346.2"/>
	<line class="st4" x1="354.5" y1="325" x2="358.1" y2="328.6"/>
	<line class="st4" x1="358.1" y1="325" x2="354.5" y2="328.6"/>
	<line class="st4" x1="347.4" y1="314.4" x2="524.8" y2="314.4"/>
	<line class="st4" x1="354.5" y1="310.9" x2="358.1" y2="310.9"/>
	<line class="st4" x1="351" y1="318" x2="524.8" y2="318"/>
	<line class="st5" x1="347.4" y1="307.4" x2="524.8" y2="307.4"/>
	<line class="st4" x1="389.8" y1="307.4" x2="389.8" y2="346.1"/>
	<line class="st3" x1="372.2" y1="339.2" x2="372.2" y2="342.7"/>
	<line class="st3" x1="375.7" y1="339.2" x2="375.7" y2="342.7"/>
	<line class="st6" x1="379.2" y1="307.4" x2="379.2" y2="342.7"/>
	<line class="st3" x1="361.6" y1="339.2" x2="361.6" y2="342.7"/>
	<line class="st4" x1="354.5" y1="307.4" x2="354.5" y2="342.7"/>
	<line class="st5" x1="524.8" y1="307.4" x2="524.8" y2="346.2"/>
	<line class="st3" x1="365.1" y1="339.2" x2="365.1" y2="342.7"/>
	<line class="st3" x1="368.6" y1="339.2" x2="368.6" y2="342.7"/>
	<line class="st4" x1="351" y1="321.5" x2="354.5" y2="321.5"/>
	<line class="st4" x1="351" y1="325" x2="358.1" y2="325"/>
	<line class="st4" x1="351" y1="328.6" x2="358.1" y2="328.6"/>
	<line class="st4" x1="351" y1="332.1" x2="389.8" y2="332.1"/>
	<line class="st4" x1="351" y1="335.6" x2="379.2" y2="335.6"/>
	<line class="st4" x1="389.8" y1="335.6" x2="517.7" y2="335.6"/>
	<line class="st4" x1="389.8" y1="339.2" x2="524.8" y2="339.2"/>
	<line class="st4" x1="347.4" y1="339.2" x2="379.2" y2="339.2"/>
	<line class="st4" x1="354.5" y1="342.7" x2="389.8" y2="342.7"/>
	<text transform="matrix(1 0 0 1 349.3505 343.9893)" class="st7 st8 st10">2x</text>
	<text transform="matrix(1 0 0 1 382.349 338.8077)" class="st7 st8 st9">3x</text>
	<text transform="matrix(1 0 0 1 519.6036 312.1485)" class="st7 st8 st10">2x</text>
	<text transform="matrix(1 0 0 1 355.4921 310.2374)" class="st7 st8 st10">x</text>
	<text transform="matrix(1 0 0 1 896.0652 226.6882)" class="st7 st8 st10">2x</text>
	<text transform="matrix(1 0 0 1 929.0638 221.5066)" class="st7 st8 st9">3x</text>
	<text transform="matrix(1 0 0 1 902.2068 192.9363)" class="st7 st8 st10">x</text>
	<line class="st4" x1="894.2" y1="328.4" x2="1062.8" y2="328.4"/>
</g>
</svg>
