<svg id="logoer" xmlns="http://www.w3.org/2000/svg" viewBox="0 0 248.07 56.4"><defs><style>.cls-1{fill:#fff;}</style></defs><title>Felles datakatalog - publisering (hvit)</title><path class="cls-1" d="M35.4,3.72c0-.08,0-.12.13-.12H46.66a.11.11,0,0,1,.12.12V5.6a.11.11,0,0,1-.12.12H37.9c-.08,0-.12,0-.12.13v5.09a.12.12,0,0,0,.12.13h7.73a.11.11,0,0,1,.12.12v1.87a.12.12,0,0,1-.12.13H37.9a.11.11,0,0,0-.12.12v7.75a.11.11,0,0,1-.12.12H35.54a.12.12,0,0,1-.13-.12Z"/><path class="cls-1" d="M60.15,14.88q0,.84-.18.84H50.83c-.08,0-.12,0-.12.13a3.43,3.43,0,0,0,3.56,3.47,3.3,3.3,0,0,0,3.18-1.75.16.16,0,0,1,.16-.12h2.06c.09,0,.13,0,.12.12a4.75,4.75,0,0,1-2,2.86,6.12,6.12,0,0,1-3.59,1,5.5,5.5,0,0,1-4.31-1.81,6.94,6.94,0,0,1-1.6-4.78,7,7,0,0,1,1.54-4.76,5.51,5.51,0,0,1,4.41-1.79,5.4,5.4,0,0,1,4.38,1.78A7.2,7.2,0,0,1,60.15,14.88Zm-2.38-1.15a3.4,3.4,0,0,0-.89-2.27,3.72,3.72,0,0,0-5.21.08,3.39,3.39,0,0,0-1,2.19.11.11,0,0,0,.12.12h6.81A.11.11,0,0,0,57.76,13.73Z"/><path class="cls-1" d="M65.8,3.72V21.08a.11.11,0,0,1-.12.12H63.55a.12.12,0,0,1-.13-.12V3.72c0-.08,0-.12.13-.12h2.12A.11.11,0,0,1,65.8,3.72Z"/><path class="cls-1" d="M71.79,3.72V21.08a.11.11,0,0,1-.12.12H69.54a.12.12,0,0,1-.13-.12V3.72c0-.08,0-.12.13-.12h2.12A.11.11,0,0,1,71.79,3.72Z"/><path class="cls-1" d="M86.62,14.88q0,.84-.18.84H77.31c-.08,0-.12,0-.12.13a3.43,3.43,0,0,0,3.56,3.47,3.3,3.3,0,0,0,3.18-1.75.16.16,0,0,1,.16-.12h2.06c.09,0,.13,0,.12.12a4.75,4.75,0,0,1-2,2.86,6.12,6.12,0,0,1-3.59,1,5.5,5.5,0,0,1-4.31-1.81,6.94,6.94,0,0,1-1.6-4.78,7,7,0,0,1,1.54-4.76,5.51,5.51,0,0,1,4.41-1.79,5.4,5.4,0,0,1,4.38,1.78A7.2,7.2,0,0,1,86.62,14.88Zm-2.38-1.15a3.4,3.4,0,0,0-.89-2.27,3.72,3.72,0,0,0-5.21.08,3.39,3.39,0,0,0-1,2.19.11.11,0,0,0,.12.12h6.81A.11.11,0,0,0,84.24,13.73Z"/><path class="cls-1" d="M99.89,12.83H97.74a.11.11,0,0,1-.12-.12A2,2,0,0,0,96.81,11a3.66,3.66,0,0,0-2.23-.61,3.71,3.71,0,0,0-2.1.48A1.35,1.35,0,0,0,91.8,12a1,1,0,0,0,.31.85,5,5,0,0,0,.56.39,11.15,11.15,0,0,0,2.45.42,12.15,12.15,0,0,1,3.33.76,3,3,0,0,1,1.9,3,3.43,3.43,0,0,1-1.51,3.09,7.42,7.42,0,0,1-4.1,1,6.1,6.1,0,0,1-4.08-1.25,4,4,0,0,1-1.46-3.15.11.11,0,0,1,.12-.12h2.11c.1,0,.15,0,.15.12a1.93,1.93,0,0,0,.9,1.62,4,4,0,0,0,2.37.65q3.12,0,3.13-1.89a1.09,1.09,0,0,0-.31-.81,1.67,1.67,0,0,0-.62-.42L96.6,16a3.17,3.17,0,0,0-.48-.1l-.63-.11a3.24,3.24,0,0,0-.63-.06A11.37,11.37,0,0,1,91.21,15a3.22,3.22,0,0,1-1.57-1.6A4.08,4.08,0,0,1,89.42,12a3.23,3.23,0,0,1,1.4-2.65A6,6,0,0,1,94.57,8.3a6.42,6.42,0,0,1,3.89,1.14A3.82,3.82,0,0,1,100,12.7C100,12.79,100,12.83,99.89,12.83Z"/><path class="cls-1" d="M120.34,21.2h-1.88s-.09,0-.12-.12l-.26-1q-.07-.22-.24,0a5.94,5.94,0,0,1-3.58,1.42,5.52,5.52,0,0,1-4.33-1.81,6.89,6.89,0,0,1-1.61-4.77,6.87,6.87,0,0,1,1.61-4.76,5.56,5.56,0,0,1,4.33-1.81,4.89,4.89,0,0,1,2.19.51,4.76,4.76,0,0,1,1.39.91q.1.1.17.06a.12.12,0,0,0,.07-.11V3.72c0-.08,0-.12.13-.12h2.12a.11.11,0,0,1,.12.12V21.08A.11.11,0,0,1,120.34,21.2Zm-9.64-6.33a4.87,4.87,0,0,0,1,3.21,3.38,3.38,0,0,0,2.74,1.23,3.22,3.22,0,0,0,2.68-1.22,5.06,5.06,0,0,0,.94-3.23,5.16,5.16,0,0,0-.94-3.23,3.17,3.17,0,0,0-2.67-1.22,3.41,3.41,0,0,0-2.75,1.22A4.92,4.92,0,0,0,110.69,14.87Z"/><path class="cls-1" d="M136.67,19.2v1.88a.11.11,0,0,1-.12.12h-.9q-1.93,0-2.46-1.15c0-.13-.13-.15-.23,0a4.65,4.65,0,0,1-1.7,1,7.45,7.45,0,0,1-2.72.43,5.63,5.63,0,0,1-3.73-1.09,3.53,3.53,0,0,1-1.29-2.84,3.32,3.32,0,0,1,1.41-2.81,6.76,6.76,0,0,1,4.08-1h2.81q.7,0,.81-.36a5.79,5.79,0,0,0,0-.72,2.5,2.5,0,0,0-.54-1.37q-.54-.77-2.71-.8a3.46,3.46,0,0,0-2.29.63,2.07,2.07,0,0,0-.76,1.67c0,.08,0,.13-.13.13h-2.13c-.08,0-.12,0-.12-.13a3.77,3.77,0,0,1,1.59-3.24,6.84,6.84,0,0,1,4-1.16,6.05,6.05,0,0,1,3.94,1.18A4.15,4.15,0,0,1,135,12.92v4.91a1.78,1.78,0,0,0,.19,1q.19.29.87.29h.47A.11.11,0,0,1,136.67,19.2Zm-4-3.55c0-.08,0-.12-.13-.12H129a4.41,4.41,0,0,0-2.47.6,1.65,1.65,0,0,0-.64,1.32,1.72,1.72,0,0,0,.62,1.33,3,3,0,0,0,2,.55,4.28,4.28,0,0,0,3.09-1A3.33,3.33,0,0,0,132.63,16Z"/><path class="cls-1" d="M145.57,19.2v1.88c0,.08,0,.12-.13.12h-1.92q-3.27.07-3.28-3V10.56a.12.12,0,0,0-.12-.13h-2.22a.11.11,0,0,1-.12-.12V8.68a.11.11,0,0,1,.12-.12h2.22c.08,0,.12,0,.12-.13V5.05c0-.08,0-.12.13-.12h2.12a.11.11,0,0,1,.12.12V8.42a.12.12,0,0,0,.12.13h2.7a.12.12,0,0,1,.13.12V10.3c0,.08,0,.12-.13.12h-2.7c-.08,0-.12,0-.12.13v7.28q0,1.25,1.35,1.25h1.46C145.52,19.08,145.57,19.12,145.57,19.2Z"/><path class="cls-1" d="M160.56,19.2v1.88a.11.11,0,0,1-.12.12h-.9q-1.93,0-2.46-1.15c0-.13-.13-.15-.23,0a4.65,4.65,0,0,1-1.7,1,7.45,7.45,0,0,1-2.72.43,5.63,5.63,0,0,1-3.73-1.09,3.53,3.53,0,0,1-1.29-2.84,3.32,3.32,0,0,1,1.41-2.81,6.76,6.76,0,0,1,4.08-1h2.81q.7,0,.81-.36a5.79,5.79,0,0,0,0-.72,2.5,2.5,0,0,0-.54-1.37q-.54-.77-2.71-.8A3.46,3.46,0,0,0,151,11a2.07,2.07,0,0,0-.76,1.67c0,.08,0,.13-.13.13H148c-.08,0-.12,0-.12-.13a3.77,3.77,0,0,1,1.59-3.24,6.84,6.84,0,0,1,4-1.16,6.05,6.05,0,0,1,3.94,1.18,4.15,4.15,0,0,1,1.49,3.44v4.91a1.78,1.78,0,0,0,.19,1q.19.29.87.29h.47A.11.11,0,0,1,160.56,19.2Zm-4-3.55c0-.08,0-.12-.13-.12h-3.5a4.41,4.41,0,0,0-2.47.6,1.65,1.65,0,0,0-.64,1.32,1.72,1.72,0,0,0,.62,1.33,3,3,0,0,0,2,.55,4.28,4.28,0,0,0,3.09-1A3.33,3.33,0,0,0,156.52,16Z"/><path class="cls-1" d="M174.83,21.2h-2.25a.27.27,0,0,1-.23-.12l-4-6.82q-.07-.1-.18,0l-2.84,2.44a.22.22,0,0,0,0,.16v4.22c0,.08,0,.12-.13.12h-2.12a.11.11,0,0,1-.12-.12V3.72a.11.11,0,0,1,.12-.12h2.12a.12.12,0,0,1,.13.12v9.8s0,.06.06.07a.09.09,0,0,0,.11,0l5.75-4.9a.57.57,0,0,1,.38-.12h3.08a.08.08,0,0,1,.07,0s0,.06,0,.07l-4.65,4s0,.11,0,.2l4.82,8.25Q175,21.2,174.83,21.2Z"/><path class="cls-1" d="M189.77,19.2v1.88a.11.11,0,0,1-.12.12h-.9q-1.93,0-2.46-1.15c0-.13-.13-.15-.23,0a4.65,4.65,0,0,1-1.7,1,7.45,7.45,0,0,1-2.72.43,5.63,5.63,0,0,1-3.73-1.09,3.53,3.53,0,0,1-1.29-2.84A3.32,3.32,0,0,1,178,14.71a6.76,6.76,0,0,1,4.08-1h2.81q.7,0,.81-.36a5.79,5.79,0,0,0,0-.72,2.5,2.5,0,0,0-.54-1.37q-.54-.77-2.71-.8a3.46,3.46,0,0,0-2.29.63,2.07,2.07,0,0,0-.76,1.67c0,.08,0,.13-.13.13h-2.13c-.08,0-.12,0-.12-.13a3.77,3.77,0,0,1,1.59-3.24,6.84,6.84,0,0,1,4-1.16,6.05,6.05,0,0,1,3.94,1.18,4.15,4.15,0,0,1,1.49,3.44v4.91a1.78,1.78,0,0,0,.19,1q.19.29.87.29h.47A.11.11,0,0,1,189.77,19.2Zm-4-3.55c0-.08,0-.12-.13-.12h-3.5a4.41,4.41,0,0,0-2.47.6,1.65,1.65,0,0,0-.64,1.32,1.72,1.72,0,0,0,.62,1.33,3,3,0,0,0,2,.55,4.28,4.28,0,0,0,3.09-1A3.33,3.33,0,0,0,185.73,16Z"/><path class="cls-1" d="M198.67,19.2v1.88c0,.08,0,.12-.13.12h-1.92q-3.27.07-3.28-3V10.56a.12.12,0,0,0-.12-.13H191a.11.11,0,0,1-.12-.12V8.68a.11.11,0,0,1,.12-.12h2.22c.08,0,.12,0,.12-.13V5.05c0-.08,0-.12.13-.12h2.12a.11.11,0,0,1,.12.12V8.42a.12.12,0,0,0,.12.13h2.7a.12.12,0,0,1,.13.12V10.3c0,.08,0,.12-.13.12h-2.7c-.08,0-.12,0-.12.13v7.28q0,1.25,1.35,1.25h1.46C198.63,19.08,198.67,19.12,198.67,19.2Z"/><path class="cls-1" d="M213.66,19.2v1.88a.11.11,0,0,1-.12.12h-.9q-1.93,0-2.46-1.15c0-.13-.13-.15-.23,0a4.65,4.65,0,0,1-1.7,1,7.45,7.45,0,0,1-2.72.43,5.63,5.63,0,0,1-3.73-1.09,3.53,3.53,0,0,1-1.29-2.84,3.32,3.32,0,0,1,1.41-2.81,6.76,6.76,0,0,1,4.08-1h2.81q.7,0,.81-.36a5.79,5.79,0,0,0,0-.72,2.5,2.5,0,0,0-.54-1.37q-.54-.77-2.71-.8a3.46,3.46,0,0,0-2.29.63,2.07,2.07,0,0,0-.76,1.67c0,.08,0,.13-.13.13h-2.13c-.08,0-.12,0-.12-.13a3.77,3.77,0,0,1,1.59-3.24,6.84,6.84,0,0,1,4-1.16,6.05,6.05,0,0,1,3.94,1.18A4.15,4.15,0,0,1,212,12.92v4.91a1.78,1.78,0,0,0,.19,1q.19.29.87.29h.47A.11.11,0,0,1,213.66,19.2Zm-4-3.55c0-.08,0-.12-.13-.12H206a4.41,4.41,0,0,0-2.47.6,1.65,1.65,0,0,0-.64,1.32,1.72,1.72,0,0,0,.62,1.33,3,3,0,0,0,2,.55,4.28,4.28,0,0,0,3.09-1A3.33,3.33,0,0,0,209.62,16Z"/><path class="cls-1" d="M218.48,3.72V21.08a.11.11,0,0,1-.12.12h-2.12a.12.12,0,0,1-.13-.12V3.72c0-.08,0-.12.13-.12h2.12A.11.11,0,0,1,218.48,3.72Z"/><path class="cls-1" d="M233.9,14.88a6.75,6.75,0,0,1-1.66,4.77,6.66,6.66,0,0,1-9.09,0,6.78,6.78,0,0,1-1.65-4.77,6.78,6.78,0,0,1,1.65-4.77,5.86,5.86,0,0,1,4.54-1.79,5.92,5.92,0,0,1,4.55,1.78A6.8,6.8,0,0,1,233.9,14.88Zm-3.41,3.21a4.85,4.85,0,0,0,1-3.21,4.86,4.86,0,0,0-1-3.21,3.43,3.43,0,0,0-2.78-1.23,3.48,3.48,0,0,0-2.8,1.22,4.86,4.86,0,0,0-1,3.22,4.82,4.82,0,0,0,1,3.21,3.46,3.46,0,0,0,2.8,1.23A3.43,3.43,0,0,0,230.49,18.09Z"/><path class="cls-1" d="M242.15,24.28a3.31,3.31,0,0,0,2.69-1,3.76,3.76,0,0,0,.85-2.52V20a.12.12,0,0,0-.09-.11c-.06,0-.11,0-.16.06a3.84,3.84,0,0,1-1.37.93,5,5,0,0,1-2.21.51,5.54,5.54,0,0,1-4.26-1.83,6.76,6.76,0,0,1-1.69-4.77,6.83,6.83,0,0,1,1.61-4.73,5.56,5.56,0,0,1,4.33-1.81,5.32,5.32,0,0,1,2,.42,4.81,4.81,0,0,1,1.61,1q.17.17.24,0l.26-1c0-.08.07-.12.12-.12H248a.11.11,0,0,1,.12.12v12a5.44,5.44,0,0,1-1.63,4.1,5.66,5.66,0,0,1-4.08,1.57,7,7,0,0,1-4.05-1.1,3.6,3.6,0,0,1-1.75-2.62.11.11,0,0,1,.12-.12h2.18s.09,0,.12.12a2.25,2.25,0,0,0,1,1.09A4,4,0,0,0,242.15,24.28Zm-3.84-9.41a4.87,4.87,0,0,0,1,3.21,3.38,3.38,0,0,0,2.74,1.23,3.19,3.19,0,0,0,2.67-1.22,5.11,5.11,0,0,0,1-3.23,5.11,5.11,0,0,0-1-3.23,3.19,3.19,0,0,0-2.67-1.22,3.39,3.39,0,0,0-2.74,1.22A4.92,4.92,0,0,0,238.31,14.87Z"/><path class="cls-1" d="M35.38,38.55h1.88s.09,0,.12.12l.26,1c0,.06.07.1.12.1a.14.14,0,0,0,.12-.07,4.34,4.34,0,0,1,1.58-1,5.35,5.35,0,0,1,2-.44,5.57,5.57,0,0,1,4.34,1.81,6.87,6.87,0,0,1,1.61,4.76,6.89,6.89,0,0,1-1.61,4.77,5.53,5.53,0,0,1-4.34,1.81,4.87,4.87,0,0,1-2.19-.51,4.94,4.94,0,0,1-1.39-.9c-.07-.07-.12-.09-.17-.06a.12.12,0,0,0-.07.11V56c0,.08,0,.13-.13.13H35.38c-.08,0-.12,0-.12-.13V38.68A.11.11,0,0,1,35.38,38.55ZM45,44.87a4.86,4.86,0,0,0-1-3.21,3.4,3.4,0,0,0-2.76-1.23,3.17,3.17,0,0,0-2.67,1.22,5.15,5.15,0,0,0-.94,3.23,5.11,5.11,0,0,0,1,3.23,3.18,3.18,0,0,0,2.66,1.22A3.42,3.42,0,0,0,44,48.09,4.87,4.87,0,0,0,45,44.87Z"/><path class="cls-1" d="M61.06,51.2H59.18s-.09,0-.12-.12L58.8,50a.16.16,0,0,0-.15-.1.14.14,0,0,0-.13.07,3.65,3.65,0,0,1-1.28,1,4,4,0,0,1-2,.46,5,5,0,0,1-4.17-1.61,6.78,6.78,0,0,1-1.28-4.29V38.68c0-.08,0-.12.13-.12h2.12a.11.11,0,0,1,.12.12v6.87A4.32,4.32,0,0,0,53,48.23a2.82,2.82,0,0,0,2.42,1.09,3.06,3.06,0,0,0,2.51-1.11,4.09,4.09,0,0,0,.9-2.66V38.68a.11.11,0,0,1,.12-.12h2.14a.11.11,0,0,1,.12.12v12.4A.11.11,0,0,1,61.06,51.2Z"/><path class="cls-1" d="M66.38,51.2H64.52a.11.11,0,0,1-.12-.12V33.72a.11.11,0,0,1,.12-.12h2.14a.11.11,0,0,1,.12.12v5.95a.12.12,0,0,0,.07.11s.11,0,.18-.06a4.76,4.76,0,0,1,1.38-.91,4.83,4.83,0,0,1,2.18-.51,5.54,5.54,0,0,1,4.33,1.82,6.94,6.94,0,0,1,1.62,4.76,6.89,6.89,0,0,1-1.61,4.76,5.52,5.52,0,0,1-4.34,1.81,5.22,5.22,0,0,1-2-.44A4.72,4.72,0,0,1,67,50q-.17-.17-.26,0l-.26,1C66.48,51.16,66.43,51.2,66.38,51.2Zm6.75-3.11a5.56,5.56,0,0,0,0-6.43,3.38,3.38,0,0,0-2.74-1.23,3.19,3.19,0,0,0-2.67,1.22,5.11,5.11,0,0,0-1,3.23,5.11,5.11,0,0,0,1,3.23,3.19,3.19,0,0,0,2.67,1.22A3.38,3.38,0,0,0,73.14,48.09Z"/><path class="cls-1" d="M81.84,33.72V51.08a.11.11,0,0,1-.12.12H79.59a.12.12,0,0,1-.13-.12V33.72c0-.08,0-.12.13-.12h2.12A.11.11,0,0,1,81.84,33.72Z"/><path class="cls-1" d="M88.21,33.72v2.62c0,.08,0,.13-.13.13H85.45c-.08,0-.12,0-.12-.13V33.72a.11.11,0,0,1,.12-.12h2.62C88.16,33.6,88.21,33.64,88.21,33.72Zm-.26,5v12.4a.11.11,0,0,1-.12.12H85.69a.11.11,0,0,1-.12-.12V38.68a.11.11,0,0,1,.12-.12h2.14A.11.11,0,0,1,88,38.68Z"/><path class="cls-1" d="M101.59,42.83H99.44a.11.11,0,0,1-.12-.12A2,2,0,0,0,98.51,41a3.66,3.66,0,0,0-2.23-.61,3.71,3.71,0,0,0-2.1.48A1.35,1.35,0,0,0,93.49,42a1,1,0,0,0,.31.85,5,5,0,0,0,.56.39,11.15,11.15,0,0,0,2.45.42,12.12,12.12,0,0,1,3.33.76,3,3,0,0,1,1.9,3,3.43,3.43,0,0,1-1.51,3.09,7.42,7.42,0,0,1-4.1,1,6.1,6.1,0,0,1-4.08-1.25,4,4,0,0,1-1.46-3.15.11.11,0,0,1,.12-.12h2.11c.1,0,.15,0,.15.12a1.93,1.93,0,0,0,.9,1.62,4,4,0,0,0,2.37.65q3.12,0,3.13-1.89a1.09,1.09,0,0,0-.31-.81,1.66,1.66,0,0,0-.62-.41L98.29,46a3.11,3.11,0,0,0-.48-.1l-.63-.11a3.28,3.28,0,0,0-.63-.06A11.38,11.38,0,0,1,92.91,45a3.22,3.22,0,0,1-1.57-1.6A4.08,4.08,0,0,1,91.11,42a3.23,3.23,0,0,1,1.4-2.65,6,6,0,0,1,3.75-1.07,6.42,6.42,0,0,1,3.89,1.14,3.82,3.82,0,0,1,1.54,3.27C101.69,42.79,101.65,42.83,101.59,42.83Z"/><path class="cls-1" d="M116.2,44.88q0,.84-.18.84h-9.14c-.08,0-.12,0-.12.13a3.43,3.43,0,0,0,3.56,3.47,3.3,3.3,0,0,0,3.18-1.75.16.16,0,0,1,.16-.12h2.06c.09,0,.13,0,.12.12a4.75,4.75,0,0,1-2,2.86,6.13,6.13,0,0,1-3.59,1A5.5,5.5,0,0,1,106,49.64a6.94,6.94,0,0,1-1.6-4.78,7,7,0,0,1,1.54-4.76,5.51,5.51,0,0,1,4.41-1.79,5.4,5.4,0,0,1,4.38,1.78A7.2,7.2,0,0,1,116.2,44.88Zm-2.38-1.15a3.4,3.4,0,0,0-.89-2.27,3.72,3.72,0,0,0-5.21.08,3.38,3.38,0,0,0-1,2.19.11.11,0,0,0,.12.12h6.81A.11.11,0,0,0,113.82,43.73Z"/><path class="cls-1" d="M126.29,40.42H125a2.94,2.94,0,0,0-2.4,1.11,4,4,0,0,0-.89,2.67v6.87c0,.08,0,.12-.13.12h-2.12a.11.11,0,0,1-.12-.12V38.68a.11.11,0,0,1,.12-.12h1.88s.09,0,.12.12l.26,1.12q.07.22.27,0a4.38,4.38,0,0,1,3-1.53h1.27a.12.12,0,0,1,.13.12V40.3A.12.12,0,0,1,126.29,40.42Z"/><path class="cls-1" d="M131.57,33.72v2.62c0,.08,0,.13-.13.13h-2.62c-.08,0-.12,0-.12-.13V33.72a.11.11,0,0,1,.12-.12h2.62C131.52,33.6,131.57,33.64,131.57,33.72Zm-.26,5v12.4a.11.11,0,0,1-.12.12h-2.14a.11.11,0,0,1-.12-.12V38.68a.11.11,0,0,1,.12-.12h2.14A.11.11,0,0,1,131.31,38.68Z"/><path class="cls-1" d="M134.88,38.55h1.88s.09,0,.12.12l.26,1.12a.13.13,0,0,0,.13.1.16.16,0,0,0,.15-.07,3.76,3.76,0,0,1,3.27-1.53,5,5,0,0,1,4,1.66,6.29,6.29,0,0,1,1.43,4.25v6.87c0,.08,0,.12-.13.12h-2.12a.11.11,0,0,1-.12-.12V44.21a4.49,4.49,0,0,0-.79-2.7,2.81,2.81,0,0,0-2.41-1.09A3.06,3.06,0,0,0,138,41.53a4.11,4.11,0,0,0-.9,2.67v6.87a.11.11,0,0,1-.12.12h-2.14a.11.11,0,0,1-.12-.12V38.68A.11.11,0,0,1,134.88,38.55Z"/><path class="cls-1" d="M154.6,54.28a3.31,3.31,0,0,0,2.69-1,3.75,3.75,0,0,0,.85-2.52V50a.12.12,0,0,0-.09-.11c-.06,0-.11,0-.16.06a3.83,3.83,0,0,1-1.37.93,5,5,0,0,1-2.21.51,5.55,5.55,0,0,1-4.26-1.83,6.76,6.76,0,0,1-1.69-4.77A6.83,6.83,0,0,1,150,40.11a5.56,5.56,0,0,1,4.33-1.81,5.32,5.32,0,0,1,2,.42,4.81,4.81,0,0,1,1.61,1q.17.17.24,0l.26-1c0-.08.07-.12.12-.12h1.88a.11.11,0,0,1,.12.12v12a5.44,5.44,0,0,1-1.63,4.1,5.65,5.65,0,0,1-4.08,1.58,7,7,0,0,1-4.05-1.1A3.6,3.6,0,0,1,149,52.68a.11.11,0,0,1,.12-.12h2.18s.09,0,.12.12a2.25,2.25,0,0,0,1,1.09A4,4,0,0,0,154.6,54.28Zm-3.84-9.41a4.87,4.87,0,0,0,1,3.21,3.38,3.38,0,0,0,2.74,1.23,3.19,3.19,0,0,0,2.67-1.22,5.11,5.11,0,0,0,1-3.23,5.11,5.11,0,0,0-1-3.23,3.19,3.19,0,0,0-2.67-1.22,3.39,3.39,0,0,0-2.74,1.22A4.92,4.92,0,0,0,150.76,44.87Z"/><path class="cls-1" d="M12.67,0H.5A.5.5,0,0,0,0,.5V24.23a.5.5,0,0,0,.5.5H12.67A12.37,12.37,0,0,0,12.67,0m1.19,21A8.8,8.8,0,1,1,21,13.85,8.8,8.8,0,0,1,13.85,21"/></svg>