<?xml version="1.0" encoding="utf-8"?>
<svg version="1.1" id="Layer_1" xmlns="http://www.w3.org/2000/svg" xmlns:xlink="http://www.w3.org/1999/xlink" x="0px" y="0px" viewBox="0 0 358 149" style="enable-background:new 0 0 358 149;" xml:space="preserve">
	<path fill="#6C737A" d="M67.5,23.6L31.8,44.3c-4.2,2.4-7.6,9-7.6,14.6v38.6c0,5.6,3.4,8.2,7.6,5.8l0.8-0.4c0-0.2,0-0.4,0-0.6V63.7
	c0-5.6,3.4-12.2,7.7-14.6l34.9-20.2C74.9,23.6,71.5,21.3,67.5,23.6z" />
	<path fill="#969BA0" d="M80,30.9L44.3,51.5c-4.2,2.4-7.7,9-7.7,14.6v38.6c0,5.6,3.4,8.2,7.7,5.8l0.7-0.4c0-0.2,0-0.4,0-0.6V70.9
	c0-5.6,3.4-12.2,7.7-14.6l34.9-20.2C87.4,30.8,84.1,28.5,80,30.9z" />
	<path fill="#D5D7D9" d="M57.6,78.1c0-5.6,3.4-12.2,7.6-14.6l35-20.2c-0.2-5.2-3.6-7.6-7.6-5.2L56.9,58.7c-4.2,2.4-7.7,9-7.7,14.6v38.6
	c0,5.6,3.4,8.2,7.7,5.8l0.7-0.4c0-0.2,0-0.4,0-0.5L57.6,78.1z" />
	<path fill="#FFFFFF" d="M105.2,104.3l-35.7,20.6c-4.2,2.4-7.6-0.2-7.6-5.8V80.5c0-5.6,3.4-12.2,7.6-14.6l35.7-20.6
	c4.2-2.4,7.7,0.2,7.7,5.8v38.6C112.8,95.3,109.4,101.9,105.2,104.3z" />
	<path fill="#FFFFFF" d="M136,56.4c-0.3,0-0.5-0.2-0.5-0.5c0,0,0,0,0,0v-25c0-0.3,0.2-0.5,0.5-0.5c0,0,0,0,0,0h12.7
	c0.3,0,0.5,0.2,0.5,0.5c0,0,0,0,0,0v3.5c0,0.3-0.2,0.5-0.5,0.5c0,0,0,0,0,0h-8v7h5.7c0.3,0,0.5,0.2,0.5,0.5v3.5
	c0,0.3-0.2,0.5-0.5,0.5h-5.7v9.6c0,0.3-0.2,0.5-0.5,0.5c0,0,0,0,0,0H136z" />
	<path fill="#FFFFFF" d="M153,56.4c-0.3,0-0.5-0.2-0.5-0.5c0,0,0,0,0,0v-25c0-0.3,0.2-0.5,0.5-0.5c0,0,0,0,0,0h13.2
	c0.3,0,0.5,0.2,0.5,0.5c0,0,0,0,0,0v3.5c0,0.3-0.2,0.5-0.5,0.5h-8.5v6.3h6.6c0.3,0,0.5,0.2,0.5,0.5c0,0,0,0,0,0V45
	c0,0.3-0.2,0.5-0.5,0.5c0,0,0,0,0,0h-6.6v6.3h8.5c0.3,0,0.5,0.2,0.5,0.5v3.5c0,0.3-0.2,0.5-0.5,0.5c0,0,0,0,0,0L153,56.4z" />
	<path fill="#FFFFFF" d="M170.9,56.4c-0.3,0-0.5-0.2-0.5-0.5c0,0,0,0,0,0v-25c0-0.3,0.2-0.5,0.5-0.5c0,0,0,0,0,0h4.2
	c0.3,0,0.5,0.2,0.5,0.5c0,0,0,0,0,0v21h7.4c0.3,0,0.5,0.2,0.5,0.5c0,0,0,0,0,0v3.5c0,0.3-0.2,0.5-0.5,0.5l0,0L170.9,56.4z" />
	<path fill="#FFFFFF" d="M187.4,56.4c-0.3,0-0.5-0.2-0.5-0.5c0,0,0,0,0,0v-25c0-0.3,0.2-0.5,0.5-0.5l0,0h4.2c0.3,0,0.5,0.2,0.5,0.5v21
	h7.4c0.3,0,0.5,0.2,0.5,0.5v3.5c0,0.3-0.2,0.5-0.5,0.5c0,0,0,0,0,0L187.4,56.4z" />
	<path fill="#FFFFFF" d="M203.9,56.4c-0.3,0-0.5-0.2-0.5-0.5v-25c0-0.3,0.2-0.5,0.5-0.5H217c0.3,0,0.5,0.2,0.5,0.5c0,0,0,0,0,0v3.5
	c0,0.3-0.2,0.5-0.5,0.5h-8.5v6.3h6.6c0.3,0,0.5,0.2,0.5,0.5c0,0,0,0,0,0V45c0,0.3-0.2,0.5-0.5,0.5c0,0,0,0,0,0h-6.6v6.3h8.5
	c0.3,0,0.5,0.2,0.5,0.5v3.5c0,0.3-0.2,0.5-0.5,0.5c0,0,0,0,0,0L203.9,56.4z" />
	<path fill="#FFFFFF" d="M227.3,56.5c-2,0-4.1-0.4-6-1.1c-0.2-0.1-0.4-0.3-0.3-0.5l0.6-3.3c0-0.1,0.1-0.3,0.2-0.3c0.1,0,0.2-0.1,0.3-0.1
	h0.1c1.5,0.5,3,0.8,4.5,0.8h0.5c0.8,0.1,1.7-0.2,2.3-0.8c0.5-0.6,0.8-1.4,0.7-2.2c0-0.6-0.2-1.2-0.6-1.6c-0.4-0.5-1-0.8-1.5-1.1
	l-1.4-0.8c-1.8-0.8-3.4-2-4.7-3.4c-1-1.4-1.5-3.1-1.4-4.8c0-1.7,0.5-3.4,1.6-4.7c1.5-1.6,3.6-2.4,5.8-2.3h0.3c1.8,0,3.6,0.3,5.2,0.9
	c0.2,0.1,0.4,0.3,0.3,0.5l-0.6,3.2c0,0.1-0.1,0.3-0.2,0.3c-0.1,0.1-0.2,0.1-0.3,0.1h-0.1c-1.4-0.4-2.8-0.6-4.2-0.6
	c-0.8-0.1-1.6,0.2-2.1,0.7c-1.1,1.4-0.8,3.4,0.6,4.5c0,0,0.1,0.1,0.1,0.1c0.9,0.6,1.8,1.1,2.8,1.5c0.9,0.4,1.8,0.9,2.6,1.4
	c0.6,0.3,1.1,0.8,1.6,1.3c1,1.3,1.5,2.9,1.4,4.5c0.1,1.8-0.4,3.7-1.4,5.2C232.8,55.5,230.4,56.5,227.3,56.5L227.3,56.5z" />
	<path fill="#FFFFFF" d="M136,91.5c-0.3,0-0.5-0.2-0.5-0.5V66c0-0.3,0.2-0.5,0.5-0.5h6.9c1.1,0,3.9,0.2,5.6,1.7c1.1,1,1.8,2.2,2,3.7
	c0.2,1.3,0.3,2.7,0.3,4.1v7.2c0,1.3,0,2.7-0.3,4c-0.2,1.5-0.9,2.8-2,3.8c-0.8,0.6-1.6,1-2.6,1.3c-1.1,0.2-2.2,0.3-3.4,0.3L136,91.5z
	 M142.6,87.1c0.9,0.2,1.9-0.2,2.5-1c0.4-0.9,0.5-1.9,0.4-2.8v-9.4c0.1-1-0.1-1.9-0.4-2.8c-0.6-0.8-1.5-1.2-2.5-1h-1.9v17L142.6,87.1
	z" />
	<path fill="#FFFFFF" d="M166.4,91.5c-0.2,0-0.4-0.2-0.5-0.4l-0.8-4.3h-5.6l-0.8,4.3c0,0.2-0.2,0.4-0.5,0.4h-4.1c-0.3,0-0.5-0.2-0.5-0.5
	v-0.8c0,0,0-0.1,0-0.1l5.3-24.2c0-0.2,0.2-0.4,0.5-0.4h5.7c0.2,0,0.4,0.2,0.5,0.4l5.4,24.4c0,0,0,0.1,0,0.1V91
	c0,0.3-0.2,0.5-0.5,0.5c0,0,0,0,0,0H166.4z M164.3,82.3l-1.9-10.8h-0.1l-1.9,10.8L164.3,82.3z" />
	<path fill="#FFFFFF" d="M177.8,91.5c-0.3,0-0.5-0.2-0.5-0.5c0,0,0,0,0,0V70h-5.2c-0.3,0-0.5-0.2-0.5-0.5c0,0,0,0,0,0V66
	c0-0.3,0.2-0.5,0.5-0.5h15.6c0.3,0,0.5,0.2,0.5,0.5v3.5c0,0.3-0.2,0.5-0.5,0.5c0,0,0,0,0,0h-5.2v21c0,0.3-0.2,0.5-0.5,0.5
	c0,0,0,0,0,0H177.8z" />
	<path fill="#FFFFFF" d="M201.4,91.5c-0.2,0-0.5-0.2-0.5-0.4l-0.8-4.3h-5.6l-0.8,4.3c0,0.2-0.2,0.4-0.5,0.4h-4.1c-0.3,0-0.5-0.2-0.5-0.5
	v-0.8c0,0,0-0.1,0-0.1l5.3-24.2c0-0.2,0.3-0.4,0.5-0.4h5.7c0.2,0,0.4,0.2,0.5,0.4l5.4,24.4c0,0,0,0.1,0,0.1V91
	c0,0.3-0.2,0.5-0.5,0.5H201.4z M199.3,82.3l-1.9-10.8h-0.1l-1.9,10.8L199.3,82.3z" />
	<path fill="#FFFFFF" d="M221.1,91.5c-0.2,0-0.4-0.1-0.4-0.3l-5.4-10.4h-0.4V91c0,0.3-0.2,0.5-0.5,0.5h-4.2c-0.3,0-0.5-0.2-0.5-0.5V66
	c0-0.3,0.2-0.5,0.5-0.5h4.2c0.3,0,0.5,0.2,0.5,0.5v9.6h0.3l5.2-9.8c0.1-0.2,0.3-0.3,0.4-0.3h4.2c0.3,0,0.5,0.2,0.5,0.5v0.7
	c0,0.1,0,0.2-0.1,0.2l-6.2,10.6l6.9,12.7c0,0.1,0.1,0.2,0.1,0.2V91c0,0.3-0.2,0.5-0.5,0.5H221.1z" />
	<path fill="#FFFFFF" d="M241.7,91.5c-0.2,0-0.5-0.2-0.5-0.4l-0.8-4.3h-5.6l-0.8,4.3c0,0.2-0.2,0.4-0.5,0.4h-4.1c-0.3,0-0.5-0.2-0.5-0.5
	v-0.8c0,0,0-0.1,0-0.1l5.3-24.2c0-0.2,0.3-0.4,0.5-0.4h5.7c0.2,0,0.4,0.2,0.5,0.4l5.4,24.4c0,0,0,0.1,0,0.1V91
	c0,0.3-0.2,0.5-0.5,0.5H241.7z M239.6,82.3l-1.9-10.8h-0.1l-1.9,10.8L239.6,82.3z" />
	<path fill="#FFFFFF" d="M253.1,91.5c-0.3,0-0.5-0.2-0.5-0.5V70h-5.2c-0.3,0-0.5-0.2-0.5-0.5V66c0-0.3,0.2-0.5,0.5-0.5H263
	c0.3,0,0.5,0.2,0.5,0.5v3.5c0,0.3-0.2,0.5-0.5,0.5h-5.2v21c0,0.3-0.2,0.5-0.5,0.5H253.1z" />
	<path fill="#FFFFFF" d="M276.7,91.5c-0.2,0-0.4-0.2-0.5-0.4l-0.8-4.3h-5.6l-0.8,4.3c0,0.2-0.2,0.4-0.5,0.4h-4.1c-0.3,0-0.5-0.2-0.5-0.5
	c0,0,0,0,0,0v-0.8c0,0,0-0.1,0-0.1l5.3-24.2c0.1-0.2,0.3-0.4,0.5-0.4h5.7c0.2,0,0.4,0.2,0.5,0.4l5.4,24.4c0,0,0,0.1,0,0.1V91
	c0,0.3-0.2,0.5-0.5,0.5c0,0,0,0,0,0H276.7z M274.6,82.3l-1.9-10.8h-0.1l-1.9,10.8H274.6z" />
	<path fill="#FFFFFF" d="M285.5,91.5c-0.3,0-0.5-0.2-0.5-0.5V66c0-0.3,0.2-0.5,0.5-0.5h4.2c0.3,0,0.5,0.2,0.5,0.5v21h7.4
	c0.3,0,0.5,0.2,0.5,0.5V91c0,0.3-0.2,0.5-0.5,0.5H285.5z" />
	<path fill="#FFFFFF" d="M308.1,91.8c-2.9,0-5.1-0.8-6.3-2.5s-1.5-4.1-1.5-6v-9.3c0-1.7,0.2-4.2,1.5-6s3.4-2.6,6.3-2.6s5.1,0.8,6.3,2.5
	c1.4,1.8,1.5,4.3,1.5,6v9.4c0,1.7-0.2,4.2-1.5,6S311,91.8,308.1,91.8z M307.9,69.8c-0.7,0-1.4,0.3-1.8,0.9c-0.4,0.8-0.6,1.7-0.5,2.6
	v10.6c0,0.9,0.2,1.8,0.6,2.6c0.4,0.6,1.1,0.9,1.8,0.8h0.5c0.7,0,1.4-0.3,1.8-0.8c0.4-0.8,0.6-1.7,0.5-2.6V73.2
	c0.1-0.9-0.1-1.8-0.5-2.6c-0.4-0.6-1.1-0.9-1.9-0.8L307.9,69.8z" />
	<path fill="#FFFFFF" d="M328.1,91.7c-1.4,0-2.7-0.2-4-0.6c-1.1-0.3-2-1-2.7-1.8c-1.3-1.7-1.4-4.3-1.4-6.7v-8.2c-0.1-1.2,0-2.5,0.2-3.7
	c0.2-1.4,0.9-2.6,2-3.6c1.7-1.3,3.8-1.9,5.9-1.8c1.8,0,3.5,0.3,5.2,0.9c0.2,0.1,0.4,0.3,0.3,0.6l-0.7,3.3c-0.1,0.2-0.3,0.4-0.5,0.4
	h-0.1l-0.6-0.1c-0.5-0.1-1-0.2-1.5-0.3c-0.7-0.2-1.4-0.2-2.1-0.3c-1-0.1-1.9,0.4-2.5,1.3c-0.4,0.9-0.6,1.9-0.5,2.9v8.9
	c-0.1,1.1,0.1,2.2,0.6,3.3c0.6,0.8,1.5,1.3,2.5,1.2c0.1,0,0.2,0,0.3,0h0.7v-7.5c0-0.3,0.2-0.5,0.5-0.5c0,0,0,0,0,0h4.1
	c0.3,0,0.5,0.2,0.5,0.5v10.6c0,0.2-0.1,0.4-0.3,0.4c-0.7,0.3-1.4,0.5-2.1,0.7C330.7,91.6,329.4,91.7,328.1,91.7z" />
	<path fill="#FFFFFF" d="M142.6,118.1c-0.1,0-0.2-0.1-0.3-0.2l-3.1-6.2H139v6.1c0,0.2-0.1,0.3-0.3,0.3h-2.8c-0.2,0-0.3-0.2-0.3-0.3V101
	c0-0.2,0.1-0.3,0.3-0.3l0,0h4.6c1.9,0,3.3,0.6,4.1,1.7c0.8,1.2,1.1,2.5,1,3.9c0.1,1.3-0.2,2.5-0.9,3.6c-0.5,0.7-1.3,1.3-2.1,1.5
	l3.4,5.9c0,0.1,0,0.1,0,0.2v0.3c0,0.2-0.1,0.3-0.3,0.3L142.6,118.1z M139,108.8h1.4c0.5,0,1.1-0.2,1.4-0.6c0.3-0.5,0.4-1.1,0.4-1.8
	V106c0.1-0.6-0.1-1.2-0.4-1.8c-0.3-0.4-0.8-0.6-1.3-0.6H139V108.8z" />
	<path fill="#FFFFFF" d="M149.9,118.1c-0.2,0-0.3-0.2-0.3-0.3V101c0-0.2,0.2-0.3,0.3-0.3h8.8c0.2,0,0.3,0.1,0.3,0.3l0,0v2.3
	c0,0.2-0.1,0.3-0.3,0.3c0,0,0,0,0,0H153v4.2h4.4c0.2,0,0.3,0.1,0.3,0.3l0,0v2.3c0,0.2-0.1,0.3-0.3,0.3l0,0H153v4.3h5.7
	c0.2,0,0.3,0.1,0.3,0.3l0,0v2.3c0,0.2-0.1,0.3-0.3,0.3c0,0,0,0,0,0H149.9z" />
	<path fill="#FFFFFF" d="M167.7,118.3c-0.9,0-1.8-0.1-2.7-0.4c-0.7-0.2-1.3-0.7-1.8-1.2c-0.9-1.1-1-2.8-1-4.5v-5.5c0-0.8,0-1.7,0.2-2.5
	c0.2-0.9,0.6-1.8,1.4-2.4c1.1-0.9,2.5-1.3,3.9-1.2c1.2,0,2.3,0.2,3.4,0.6c0.2,0.1,0.2,0.2,0.2,0.4l-0.5,2.2c0,0.2-0.2,0.3-0.3,0.3
	h-0.1l-0.4-0.1l-1-0.2c-0.5-0.1-0.9-0.2-1.4-0.2c-0.7-0.1-1.3,0.3-1.6,0.8c-0.3,0.6-0.4,1.3-0.3,1.9v6c-0.1,0.8,0.1,1.5,0.4,2.2
	c0.4,0.5,1,0.9,1.7,0.8h0.7v-5c0-0.2,0.1-0.3,0.3-0.3l0,0h2.7c0.2,0,0.3,0.1,0.3,0.3l0,0v7.2c0,0.1-0.1,0.2-0.2,0.3
	c-0.4,0.2-0.9,0.4-1.4,0.4C169.4,118.3,168.5,118.3,167.7,118.3z" />
	<path fill="#FFFFFF" d="M176.1,100.7h2.8c0.2,0,0.3,0.1,0.3,0.3v16.8c0,0.2-0.1,0.3-0.3,0.3h-2.8c-0.2,0-0.3-0.1-0.3-0.3V101
	C175.8,100.8,175.9,100.7,176.1,100.7z" />
	<path fill="#FFFFFF" d="M187.3,118.2c-1.4,0-2.7-0.3-4-0.8c-0.1-0.1-0.2-0.2-0.2-0.4l0.4-2.2c0-0.1,0.1-0.2,0.2-0.2c0.1,0,0.1,0,0.2,0
	h0.1c1,0.3,2,0.5,3,0.5h0.3c0.6,0,1.1-0.2,1.5-0.6c0.4-0.4,0.5-1,0.5-1.5c0-0.4-0.1-0.8-0.4-1.1c-0.3-0.3-0.6-0.6-1-0.7l-0.9-0.5
	c-1.2-0.5-2.3-1.3-3.2-2.3c-0.7-0.9-1-2.1-0.9-3.2c0-1.1,0.4-2.3,1.1-3.1c1-1,2.4-1.6,3.8-1.5h0.2c1.2,0,2.4,0.2,3.5,0.6
	c0.2,0.1,0.2,0.2,0.2,0.4l-0.4,2.2c0,0.1-0.1,0.2-0.1,0.2c-0.1,0-0.1,0-0.2,0.1h-0.1c-0.9-0.3-1.9-0.4-2.8-0.4
	c-0.5-0.1-1,0.1-1.4,0.5c-0.3,0.4-0.5,0.9-0.4,1.4c0,0.7,0.4,1.3,0.9,1.7c0.6,0.4,1.2,0.7,1.9,1c0.6,0.3,1.2,0.6,1.7,0.9
	c0.4,0.2,0.7,0.5,1,0.9c0.7,0.9,1,1.9,0.9,3c0.1,1.2-0.3,2.5-1,3.5C190.9,117.6,189.3,118.2,187.3,118.2L187.3,118.2z" />
	<path fill="#FFFFFF" d="M198.5,118.1c-0.2,0-0.3-0.2-0.3-0.3v-14.1h-3.5c-0.2,0-0.3-0.1-0.3-0.3c0,0,0,0,0,0V101c0-0.2,0.1-0.3,0.3-0.3
	l0,0H205c0.2,0,0.3,0.1,0.3,0.3l0,0v2.3c0,0.2-0.1,0.3-0.3,0.3h-3.5v14.1c0,0.2-0.1,0.3-0.3,0.3H198.5z" />
	<path fill="#FFFFFF" d="M215.6,118.1c-0.1,0-0.2-0.1-0.3-0.2l-3.1-6.2h-0.3v6.1c0,0.2-0.1,0.3-0.3,0.3h-2.8c-0.2,0-0.3-0.2-0.3-0.3V101
	c0-0.2,0.1-0.3,0.3-0.3l0,0h4.6c2,0,3.3,0.6,4.1,1.7c0.8,1.2,1.1,2.5,1,3.9c0.1,1.3-0.2,2.5-0.9,3.6c-0.5,0.7-1.3,1.3-2.1,1.5
	l3.4,5.9c0,0.1,0,0.1,0,0.2v0.3c0,0.2-0.1,0.3-0.3,0.3L215.6,118.1z M211.9,108.8h1.4c0.5,0,1.1-0.2,1.4-0.6
	c0.3-0.5,0.4-1.1,0.4-1.8V106c0.1-0.6-0.1-1.2-0.4-1.8c-0.3-0.4-0.8-0.6-1.3-0.6h-1.5V108.8z" />
	<path fill="#FFFFFF" d="M222.9,118.1c-0.2,0-0.3-0.1-0.3-0.3c0,0,0,0,0,0V101c0-0.2,0.1-0.3,0.3-0.3l0,0h8.8c0.2,0,0.3,0.1,0.3,0.3v2.3
	c0,0.2-0.2,0.3-0.3,0.3H226v4.2h4.4c0.2,0,0.3,0.1,0.3,0.3l0,0v2.3c0,0.2-0.1,0.3-0.3,0.3l0,0H226v4.3h5.7c0.2,0,0.3,0.1,0.3,0.3
	v2.3c0,0.2-0.2,0.3-0.3,0.3H222.9z" />
	<path fill="#FFFFFF" d="M242.8,118.1c-0.1,0-0.2-0.1-0.3-0.2l-3.1-6.2h-0.3v6.1c0,0.2-0.1,0.3-0.3,0.3c0,0,0,0,0,0H236
	c-0.2,0-0.3-0.1-0.3-0.3c0,0,0,0,0,0V101c0-0.2,0.1-0.3,0.3-0.3l0,0h4.6c1.9,0,3.3,0.6,4.2,1.7c1.3,2.3,1.3,5.2,0.1,7.5
	c-0.5,0.7-1.3,1.3-2.1,1.5l3.4,5.9c0,0.1,0,0.1,0,0.2v0.3c0,0.2-0.1,0.3-0.3,0.3L242.8,118.1z M239.1,108.8h1.4
	c0.5,0,1.1-0.2,1.4-0.6c0.3-0.5,0.4-1.1,0.4-1.8V106c0.1-0.6-0.1-1.2-0.4-1.8c-0.3-0.4-0.8-0.6-1.3-0.6h-1.5V108.8z" />
	<path fill="#FFFFFF" d="M250.1,100.7h2.8c0.2,0,0.3,0.1,0.3,0.3v16.8c0,0.2-0.1,0.3-0.3,0.3h-2.8c-0.2,0-0.3-0.1-0.3-0.3V101
	C249.8,100.8,249.9,100.7,250.1,100.7z" />
	<path fill="#FFFFFF" d="M265.6,118.1c-0.1,0-0.2-0.1-0.3-0.2l-3.7-7.6c-0.4-0.8-0.7-1.5-1-2.3h-0.1c0.1,0.8,0.1,1.5,0.1,2.2v7.7
	c0,0.2-0.2,0.3-0.3,0.3h-2.6c-0.2,0-0.3-0.2-0.3-0.3V101c0-0.2,0.1-0.3,0.3-0.3h2.3c0.1,0,0.2,0.1,0.3,0.2l3.8,7.9
	c0.3,0.7,0.6,1.4,0.9,2.1h0.1c-0.1-0.7-0.1-1.5-0.1-2.2V101c0-0.2,0.1-0.3,0.3-0.3h2.6c0.2,0,0.3,0.1,0.3,0.3v16.8
	c0,0.2-0.1,0.3-0.3,0.3H265.6z" />
	<path fill="#FFFFFF" d="M277.6,118.3c-0.9,0-1.8-0.1-2.7-0.4c-0.7-0.2-1.3-0.7-1.8-1.2c-0.9-1.1-1-2.8-1-4.5v-5.5c0-0.8,0-1.7,0.2-2.5
	c0.2-0.9,0.6-1.8,1.4-2.4c1.1-0.9,2.5-1.3,3.9-1.2c1.2,0,2.3,0.2,3.4,0.6c0.2,0.1,0.2,0.2,0.2,0.4l-0.5,2.2c0,0.2-0.2,0.3-0.3,0.3
	h-0.1l-0.4-0.1l-1-0.2c-0.5-0.1-0.9-0.2-1.4-0.2c-0.7-0.1-1.3,0.3-1.6,0.8c-0.3,0.6-0.4,1.3-0.3,1.9v6c-0.1,0.8,0.1,1.5,0.4,2.2
	c0.4,0.5,1,0.9,1.7,0.8h0.7v-5c0-0.2,0.1-0.3,0.3-0.3c0,0,0,0,0,0h2.7c0.2,0,0.3,0.1,0.3,0.3c0,0,0,0,0,0v7.2c0,0.1-0.1,0.2-0.2,0.3
	c-0.4,0.2-0.9,0.4-1.4,0.4C279.3,118.3,278.5,118.3,277.6,118.3z" />
</svg>
