<svg id="outline" xmlns="http://www.w3.org/2000/svg" viewBox="0 0 40 40">
  <path fill="#2d3741" d="M38.27,8.56,31.44,1.73A2.49,2.49,0,0,0,29.67,1H10.5a.5.5,0,0,0-.5.5V16H2.5A1.5,1.5,0,0,0,1,17.5v14A1.5,1.5,0,0,0,2.5,33H10v5.5a.5.5,0,0,0,.5.5h28a.5.5,0,0,0,.5-.5V10.33A2.49,2.49,0,0,0,38.27,8.56ZM35,31.5a.5.5,0,0,1-.5.5H2.5a.5.5,0,0,1-.5-.5v-14a.5.5,0,0,1,.5-.5h32a.5.5,0,0,1,.5.5ZM31,10a1,1,0,0,1-1-1V2a1.51,1.51,0,0,1,.73.4l6.83,6.83A1.51,1.51,0,0,1,38,10Z" />
  <path fill="#2d3741" d="M9.31,20.47v5.88a2.82,2.82,0,0,1-.37,1.47,2.54,2.54,0,0,1-1,1,3.22,3.22,0,0,1-1.47.34,3.77,3.77,0,0,1-1.51-.29,2.24,2.24,0,0,1-1-.89,2.82,2.82,0,0,1-.37-1.48H5.39a1.3,1.3,0,0,0,.26.91,1.05,1.05,0,0,0,.78.26,1,1,0,0,0,.77-.34,1.46,1.46,0,0,0,.28-.94V20.47Z" />
  <path fill="#2d3741" d="M12,24.82A3.12,3.12,0,0,1,11,24a2.15,2.15,0,0,1,0-2.47,2.45,2.45,0,0,1,1.13-.84,4.21,4.21,0,0,1,1.64-.3,3.92,3.92,0,0,1,1.65.33,2.67,2.67,0,0,1,1.11.93A2.48,2.48,0,0,1,17,23H15.16a1.11,1.11,0,0,0-.34-.86,1.43,1.43,0,0,0-1-.32,1.94,1.94,0,0,0-.72.12,1.07,1.07,0,0,0-.45.34.81.81,0,0,0-.15.48.79.79,0,0,0,.41.66,5.28,5.28,0,0,0,1.25.54,5.4,5.4,0,0,1,2.14,1.1,2.24,2.24,0,0,1,.7,1.69A2.2,2.2,0,0,1,16.62,28a2.44,2.44,0,0,1-1.08.82,4.6,4.6,0,0,1-1.65.28,4.74,4.74,0,0,1-1.69-.31,3.06,3.06,0,0,1-1.3-1,2.47,2.47,0,0,1-.49-1.57h1.84a1.24,1.24,0,0,0,.43,1.06,1.94,1.94,0,0,0,1.21.32,1.5,1.5,0,0,0,.95-.25.81.81,0,0,0,.32-.66.92.92,0,0,0-.13-.51,1.16,1.16,0,0,0-.48-.39,6.44,6.44,0,0,0-1-.41A8.17,8.17,0,0,1,12,24.82Z" />
  <path fill="#2d3741" d="M24.73,27.15a3.4,3.4,0,0,1-1.29,1.46,3.81,3.81,0,0,1-3.81,0,3.49,3.49,0,0,1-1.3-1.46,5.16,5.16,0,0,1-.46-2.23v-.37a5.19,5.19,0,0,1,.46-2.23,3.47,3.47,0,0,1,1.29-1.46,3.83,3.83,0,0,1,3.82,0,3.47,3.47,0,0,1,1.29,1.46,5,5,0,0,1,.46,2.23v.37A5,5,0,0,1,24.73,27.15Zm-1.87-4.6a1.63,1.63,0,0,0-2.66,0,3.55,3.55,0,0,0-.46,2v.38a3.55,3.55,0,0,0,.46,2,1.52,1.52,0,0,0,1.34.7,1.48,1.48,0,0,0,1.32-.7,3.55,3.55,0,0,0,.47-2v-.38A3.55,3.55,0,0,0,22.86,22.55Z" />
  <path fill="#2d3741" d="M31.61,29l-3.32-5.5V29H26.46V20.47h1.83L31.61,26v-5.5h1.84V29Z" />
</svg>