<svg xmlns="http://www.w3.org/2000/svg" viewBox="0 0 40 40">
  <path fill="#2d3741" d="M38.27,8.56,31.44,1.73A2.49,2.49,0,0,0,29.67,1H10.5a.5.5,0,0,0-.5.5V17H2.5A1.5,1.5,0,0,0,1,18.5v13A1.5,1.5,0,0,0,2.5,33H10v5.5a.5.5,0,0,0,.5.5h28a.5.5,0,0,0,.5-.5V10.33A2.49,2.49,0,0,0,38.27,8.56ZM30,2a1.51,1.51,0,0,1,.73.4l6.83,6.83A1.51,1.51,0,0,1,38,10H31a1,1,0,0,1-1-1ZM38,31.5a.5.5,0,0,1-.5.5H2.5a.5.5,0,0,1-.5-.5v-13a.5.5,0,0,1,.5-.5h35a.5.5,0,0,1,.5.5Z" />
  <path fill="#2d3741" d="M6.88,22.11V26a1.93,1.93,0,0,1-.25,1,1.7,1.7,0,0,1-.69.64,2.11,2.11,0,0,1-1,.23,2.46,2.46,0,0,1-1-.2,1.38,1.38,0,0,1-.67-.59,1.86,1.86,0,0,1-.25-1H4.26a.84.84,0,0,0,.18.61.7.7,0,0,0,.52.18.65.65,0,0,0,.51-.23A1,1,0,0,0,5.66,26V22.11Z" />
  <path fill="#2d3741" d="M8.84,25a2,2,0,0,1-.67-.57,1.4,1.4,0,0,1-.25-.82,1.3,1.3,0,0,1,.28-.83A1.73,1.73,0,0,1,9,22.23,2.86,2.86,0,0,1,10,22a2.66,2.66,0,0,1,1.1.22,1.7,1.7,0,0,1,.74.63,1.57,1.57,0,0,1,.26.91H10.92a.75.75,0,0,0-.23-.57A.94.94,0,0,0,10,23a1.15,1.15,0,0,0-.48.08.61.61,0,0,0-.29.22.53.53,0,0,0-.1.32.54.54,0,0,0,.27.45,3.06,3.06,0,0,0,.83.35,3.66,3.66,0,0,1,1.43.74,1.6,1.6,0,0,1,.21,2,1.6,1.6,0,0,1-.72.54,2.85,2.85,0,0,1-1.1.19,3,3,0,0,1-1.13-.21A2,2,0,0,1,8.08,27,1.69,1.69,0,0,1,7.75,26H9a.82.82,0,0,0,.28.7,1.28,1.28,0,0,0,.81.22,1,1,0,0,0,.63-.17.54.54,0,0,0,.22-.44.59.59,0,0,0-.09-.34.8.8,0,0,0-.32-.26,4.75,4.75,0,0,0-.68-.27A5.78,5.78,0,0,1,8.84,25Z" />
  <path fill="#2d3741" d="M17.44,26.57a2.3,2.3,0,0,1-.85,1,2.43,2.43,0,0,1-1.27.34A2.47,2.47,0,0,1,14,27.54a2.32,2.32,0,0,1-.86-1,3.33,3.33,0,0,1-.31-1.49v-.25a3.29,3.29,0,0,1,.31-1.48,2.35,2.35,0,0,1,.86-1,2.54,2.54,0,0,1,2.54,0,2.29,2.29,0,0,1,.86,1,3.29,3.29,0,0,1,.31,1.48v.25A3.33,3.33,0,0,1,17.44,26.57ZM16.2,23.5a1,1,0,0,0-.89-.46,1,1,0,0,0-.89.46,2.42,2.42,0,0,0-.31,1.33v.25a2.35,2.35,0,0,0,.32,1.33,1.08,1.08,0,0,0,1.77,0,2.36,2.36,0,0,0,.31-1.33v-.25A2.44,2.44,0,0,0,16.2,23.5Z" />
  <path fill="#2d3741" d="M22.17,27.8,20,24.13V27.8H18.73V22.11H20l2.21,3.67V22.11h1.22V27.8Z" />
  <path fill="#2d3741" d="M24.54,25.83v-.95h2.23v.95Z" />
  <path fill="#2d3741" d="M31.63,26.81v1H27.94V22.11h1.23v4.7Z" />
  <path fill="#2d3741" d="M35.54,22.45a2.33,2.33,0,0,1,.92,1,2.83,2.83,0,0,1,.34,1.41v.25a2.84,2.84,0,0,1-.34,1.42,2.43,2.43,0,0,1-.92,1,2.67,2.67,0,0,1-1.36.34H32.41V22.11h1.78A2.71,2.71,0,0,1,35.54,22.45Zm0,2.37a2,2,0,0,0-.35-1.28,1.22,1.22,0,0,0-1-.44h-.55v3.71h.54a1.25,1.25,0,0,0,1-.44,2.09,2.09,0,0,0,.35-1.29Z" />
</svg>
