<svg id="outline" xmlns="http://www.w3.org/2000/svg" viewBox="0 0 40 40">
  <path fill="#2d3741" d="M38.27,8.56,31.44,1.73A2.49,2.49,0,0,0,29.67,1H10.5a.5.5,0,0,0-.5.5V17H2.5A1.5,1.5,0,0,0,1,18.5v13A1.5,1.5,0,0,0,2.5,33H10v5.5a.5.5,0,0,0,.5.5h28a.5.5,0,0,0,.5-.5V10.33A2.49,2.49,0,0,0,38.27,8.56ZM30,2a1.51,1.51,0,0,1,.73.4l6.83,6.83A1.51,1.51,0,0,1,38,10H31a1,1,0,0,1-1-1ZM38,31.5a.5.5,0,0,1-.5.5H2.5a.5.5,0,0,1-.5-.5v-13a.5.5,0,0,1,.5-.5h35a.5.5,0,0,1,.5.5Z" />
  <path fill="#2d3741" d="M7.4,27.45a2.77,2.77,0,0,1-.73.3,3.58,3.58,0,0,1-1,.13,2.51,2.51,0,0,1-1.3-.33,2.21,2.21,0,0,1-.87-.94,3.38,3.38,0,0,1-.3-1.49v-.33a3.42,3.42,0,0,1,.29-1.49,2.14,2.14,0,0,1,.84-.94A2.37,2.37,0,0,1,5.56,22a2.32,2.32,0,0,1,1.63.51,2.15,2.15,0,0,1,.65,1.4H6.65a1.17,1.17,0,0,0-.31-.69A1.07,1.07,0,0,0,5.6,23a1,1,0,0,0-.89.45,2.37,2.37,0,0,0-.3,1.31v.34a2.17,2.17,0,0,0,.33,1.32,1.13,1.13,0,0,0,1,.45,1.23,1.23,0,0,0,.89-.27v-.94h-1v-.89H7.84v2.29A1.86,1.86,0,0,1,7.4,27.45Z" />
  <path fill="#2d3741" d="M12.31,26.07H9.64a1,1,0,0,0,.33.63,1,1,0,0,0,.67.23,1.39,1.39,0,0,0,.57-.12,1.12,1.12,0,0,0,.44-.34l.56.65a1.7,1.7,0,0,1-.65.54,2.2,2.2,0,0,1-1,.22,2.12,2.12,0,0,1-1.12-.28,1.88,1.88,0,0,1-.74-.74,2.09,2.09,0,0,1-.25-1v-.15a2.57,2.57,0,0,1,.23-1.13,1.87,1.87,0,0,1,.69-.78,2,2,0,0,1,1.06-.27,1.93,1.93,0,0,1,1,.25,1.6,1.6,0,0,1,.64.72,2.51,2.51,0,0,1,.22,1.1Zm-1.15-.88a.87.87,0,0,0-.19-.55.7.7,0,0,0-.54-.2.66.66,0,0,0-.53.23,1.18,1.18,0,0,0-.25.61h1.51Z" />
  <path fill="#2d3741" d="M12.9,24.54a1.84,1.84,0,0,1,.69-.77,2.06,2.06,0,0,1,1.08-.27,2.1,2.1,0,0,1,1.09.27,1.84,1.84,0,0,1,.69.77,2.45,2.45,0,0,1,.24,1.11v.08a2.51,2.51,0,0,1-.24,1.11,1.81,1.81,0,0,1-.69.76,2,2,0,0,1-1.08.28,2,2,0,0,1-1.09-.28,1.81,1.81,0,0,1-.69-.76,2.51,2.51,0,0,1-.24-1.11v-.08A2.45,2.45,0,0,1,12.9,24.54ZM14,26.6a.7.7,0,0,0,.64.33.68.68,0,0,0,.63-.33,1.7,1.7,0,0,0,.2-.87v-.08a1.7,1.7,0,0,0-.2-.87.68.68,0,0,0-.64-.34.71.71,0,0,0-.63.34,1.7,1.7,0,0,0-.2.87v.08A1.7,1.7,0,0,0,14,26.6Z" />
  <path fill="#2d3741" d="M20.9,22.11V26a1.83,1.83,0,0,1-.25,1,1.7,1.7,0,0,1-.69.64,2.11,2.11,0,0,1-1,.23,2.46,2.46,0,0,1-1-.2,1.42,1.42,0,0,1-.67-.59,1.86,1.86,0,0,1-.24-1h1.23a.89.89,0,0,0,.17.61.7.7,0,0,0,.52.18.63.63,0,0,0,.51-.23.93.93,0,0,0,.19-.63V22.11Z" />
  <path fill="#2d3741" d="M22.62,25a1.94,1.94,0,0,1-.66-.57,1.33,1.33,0,0,1-.25-.82,1.35,1.35,0,0,1,.27-.83,1.73,1.73,0,0,1,.75-.56,2.92,2.92,0,0,1,1.1-.2,2.73,2.73,0,0,1,1.1.22,1.73,1.73,0,0,1,.73.63,1.57,1.57,0,0,1,.27.91H24.7a.71.71,0,0,0-.23-.57A.94.94,0,0,0,23.8,23a1.13,1.13,0,0,0-.47.08.64.64,0,0,0-.3.22.53.53,0,0,0-.1.32.54.54,0,0,0,.27.45,3.15,3.15,0,0,0,.84.35,3.61,3.61,0,0,1,1.42.74,1.56,1.56,0,0,1,.21,2,1.6,1.6,0,0,1-.72.54,2.83,2.83,0,0,1-1.09.19,3.08,3.08,0,0,1-1.14-.21,2,2,0,0,1-.86-.63A1.69,1.69,0,0,1,21.53,26h1.23a.85.85,0,0,0,.28.7,1.29,1.29,0,0,0,.82.22,1,1,0,0,0,.63-.17.54.54,0,0,0,.21-.44.59.59,0,0,0-.09-.34.76.76,0,0,0-.31-.26,5.29,5.29,0,0,0-.68-.27A5.57,5.57,0,0,1,22.62,25Z" />
  <path fill="#2d3741" d="M31,26.57a2.32,2.32,0,0,1-.86,1,2.54,2.54,0,0,1-2.54,0,2.35,2.35,0,0,1-.87-1,3.48,3.48,0,0,1-.3-1.49v-.25a3.43,3.43,0,0,1,.3-1.48,2.43,2.43,0,0,1,3.4-1,2.37,2.37,0,0,1,.87,1,3.43,3.43,0,0,1,.3,1.48v.25A3.48,3.48,0,0,1,31,26.57ZM29.74,23.5a1,1,0,0,0-.89-.46,1,1,0,0,0-.88.46,2.34,2.34,0,0,0-.31,1.33v.25A2.36,2.36,0,0,0,28,26.41a1,1,0,0,0,.89.46,1,1,0,0,0,.88-.46,2.36,2.36,0,0,0,.31-1.33v-.25A2.36,2.36,0,0,0,29.74,23.5Z" />
  <path fill="#2d3741" d="M35.47,27.8l-2.21-3.67V27.8H32V22.11h1.23l2.21,3.67V22.11h1.22V27.8Z" />
</svg>