<svg id="outline" xmlns="http://www.w3.org/2000/svg" viewBox="0 0 40 40">
  <path fill="#2d3741" d="M38.27,8.56,31.44,1.73A2.49,2.49,0,0,0,29.67,1H10.5a.5.5,0,0,0-.5.5V17H2.5A1.5,1.5,0,0,0,1,18.5v13A1.5,1.5,0,0,0,2.5,33H10v5.5a.5.5,0,0,0,.5.5h28a.5.5,0,0,0,.5-.5V10.33A2.49,2.49,0,0,0,38.27,8.56ZM30,2a1.51,1.51,0,0,1,.73.4l6.83,6.83A1.51,1.51,0,0,1,38,10H31a1,1,0,0,1-1-1ZM38,31.5a.5.5,0,0,1-.5.5H2.5a.5.5,0,0,1-.5-.5v-13a.5.5,0,0,1,.5-.5h35a.5.5,0,0,1,.5.5Z" />
  <path fill="#2d3741" d="M12.24,21.39V28.5H10.71v-3H8v3H6.41V21.39H8v2.86h2.76V21.39Z" />
  <path fill="#2d3741" d="M19.17,22.63H17V28.5H15.48V22.63H13.34V21.39h5.83Z" />
  <path fill="#2d3741" d="M27.8,28.5H26.26V26.66l.15-3.39L24.55,28.5h-1l-1.86-5.23.15,3.39V28.5H20.27V21.39h2L24,26.46l1.76-5.07h2Z" />
  <path fill="#2d3741" d="M34,27.26V28.5H29.39V21.39h1.53v5.87Z" />
</svg>