<svg xmlns="http://www.w3.org/2000/svg" viewBox="0 0 32 32"><defs><style>.cls-1{fill:#007d69;}.cls-2{fill:#d9ebe8;}</style></defs><title>icon-api-free-md</title><g id="outline"><path class="cls-1" d="M30.78,2.42a1.33,1.33,0,0,0-.4-1c-1-1-3.3.3-5.1,2l-.2.2a9.28,9.28,0,0,0-10.7,1.5l-13,13a.47.47,0,0,0,0,.7l12,12c.09.1.2.1.4.1s.3,0,.39-.1l13-13a9.09,9.09,0,0,0,1.21-11.2C29.78,5.22,30.78,3.52,30.78,2.42Zm-6.5,7.7a1.53,1.53,0,0,1-1.11.4,2.09,2.09,0,0,1-1.09-.4,1.43,1.43,0,0,1,0-2.1,2,2,0,0,1,.8-.4,1.18,1.18,0,0,0,.4.9,1.69,1.69,0,0,0,1,.3h.39A1.36,1.36,0,0,1,24.28,10.12Zm1.8-6c1.7-1.7,3.39-2.3,3.7-2a.35.35,0,0,1,.1.2,6.27,6.27,0,0,1-2,3.4A13.54,13.54,0,0,0,26.08,4.12Z"/><path class="cls-2" d="M27.58,7.32a9.71,9.71,0,0,1-1.8,1.2,2.82,2.82,0,0,1-.7,2.3,2.9,2.9,0,0,1-1.8.7,2.45,2.45,0,0,1-1.81-4.2,2.42,2.42,0,0,1,3.5,0l.31.3c.5-.3,1.1-.6,1.8-1.1l-.61-.6a8,8,0,0,0-11.3,0L2.47,18.52l11.31,11.3,12.6-12.7A7.9,7.9,0,0,0,27.58,7.32ZM13.67,13a.5.5,0,0,1,.71,0l2.09,2.1a.48.48,0,0,1,0,.7.35.35,0,0,1-.3.1.59.59,0,0,1-.39-.1l-2.11-2.1A.48.48,0,0,1,13.67,13Zm-2.89,2.9a.47.47,0,0,1,.69,0L13.58,18a.48.48,0,0,1,0,.7,1,1,0,0,1-.3.1c-.11,0-.31,0-.4-.1l-2.1-2.1A.48.48,0,0,1,10.78,15.92Zm2.3,5.8a.5.5,0,1,1,0-1,5.69,5.69,0,0,0,5.5-5.5.5.5,0,1,1,1,0A6.77,6.77,0,0,1,13.08,21.72Z"/></g></svg>