<svg id="outline" xmlns="http://www.w3.org/2000/svg" viewBox="0 0 24 24"><defs><style>.cls-1{fill:#593380;}</style></defs><title>icon-catalog-infomod-md</title><path class="cls-1" d="M22,16.5H20.5V15A2.5,2.5,0,0,0,18,12.5H12.5v-3H18a2,2,0,0,0,2-2V3a2,2,0,0,0-2-2H6A2,2,0,0,0,4,3V7.5a2,2,0,0,0,2,2h5.5v3H6A2.5,2.5,0,0,0,3.5,15v1.5H2a1,1,0,0,0-1,1V22a1,1,0,0,0,1,1H6a1,1,0,0,0,1-1V17.5a1,1,0,0,0-1-1H4.5V15A1.5,1.5,0,0,1,6,13.5h5.5v3H10a1,1,0,0,0-1,1V22a1,1,0,0,0,1,1h4a1,1,0,0,0,1-1V17.5a1,1,0,0,0-1-1H12.5v-3H18A1.5,1.5,0,0,1,19.5,15v1.5H18a1,1,0,0,0-1,1V22a1,1,0,0,0,1,1h4a1,1,0,0,0,1-1V17.5A1,1,0,0,0,22,16.5Z"/></svg>