<svg xmlns="http://www.w3.org/2000/svg" viewBox="0 0 40 40">
  <path fill="#2d3741" d="M38.27,8.56,31.44,1.73A2.49,2.49,0,0,0,29.67,1H10.5a.5.5,0,0,0-.5.5V17H2.5A1.5,1.5,0,0,0,1,18.5v13A1.5,1.5,0,0,0,2.5,33H10v5.5a.5.5,0,0,0,.5.5h28a.5.5,0,0,0,.5-.5V10.33A2.49,2.49,0,0,0,38.27,8.56ZM30,2a1.51,1.51,0,0,1,.73.4l6.83,6.83A1.51,1.51,0,0,1,38,10H31a1,1,0,0,1-1-1ZM38,31.5a.5.5,0,0,1-.5.5H2.5a.5.5,0,0,1-.5-.5v-13a.5.5,0,0,1,.5-.5h35a.5.5,0,0,1,.5.5Z" />
  <path fill="#2d3741" d="M12,25a2.44,2.44,0,0,1-.83-.72,1.69,1.69,0,0,1-.31-1,1.66,1.66,0,0,1,.34-1,2.12,2.12,0,0,1,.94-.7,3.64,3.64,0,0,1,1.37-.25,3.13,3.13,0,0,1,1.37.28,2.08,2.08,0,0,1,.92.78,2,2,0,0,1,.33,1.14H14.61a.91.91,0,0,0-.28-.71,1.19,1.19,0,0,0-.84-.27,1.51,1.51,0,0,0-.6.1.83.83,0,0,0-.37.28.71.71,0,0,0-.13.4.66.66,0,0,0,.34.55,4,4,0,0,0,1,.45,4.61,4.61,0,0,1,1.78.92,1.83,1.83,0,0,1,.58,1.41,1.8,1.8,0,0,1-.32,1.06,1.9,1.9,0,0,1-.9.68,3.57,3.57,0,0,1-1.37.24,3.88,3.88,0,0,1-1.41-.26,2.48,2.48,0,0,1-1.08-.8,2.09,2.09,0,0,1-.41-1.31h1.53a1,1,0,0,0,.36.89,1.62,1.62,0,0,0,1,.27,1.26,1.26,0,0,0,.79-.21.68.68,0,0,0,.27-.56.79.79,0,0,0-.11-.42,1.08,1.08,0,0,0-.4-.33,5.41,5.41,0,0,0-.85-.33A7.72,7.72,0,0,1,12,25Z" />
  <path fill="#2d3741" d="M17.52,28.5V21.39H19V28.5Z" />
  <path fill="#2d3741" d="M26.27,28.43v.07H24.63l-1.31-2.57H22.21V28.5H20.68V21.39h2.69a3.52,3.52,0,0,1,1.41.25,1.85,1.85,0,0,1,.91.73A2,2,0,0,1,26,23.54a2.16,2.16,0,0,1-.33,1.24,2.21,2.21,0,0,1-.93.76Zm-4.06-3.74h1.16a1.17,1.17,0,0,0,.83-.27,1,1,0,0,0,.28-.75,1.07,1.07,0,0,0-.28-.77,1.17,1.17,0,0,0-.83-.27H22.21Z" />
  <path fill="#2d3741" d="M27.45,28.5V21.39H29V28.5Z" />
</svg>
