<svg xmlns="http://www.w3.org/2000/svg" viewBox="0 0 32 32"><defs><style>.cls-1{fill:#f9dae6;}.cls-2{fill:#d70a5a;}</style></defs><title>icon-api-not-free-md</title><g id="outline"><path class="cls-1" d="M29.32,9.4l-.7-3.7A3.12,3.12,0,0,0,25.52,3h-.6L3.62,6.8A3.2,3.2,0,0,0,1,10.5H1L3,21.6v4.2A3.16,3.16,0,0,0,6.22,29h21.6A3.16,3.16,0,0,0,31,25.8V12.2A3.16,3.16,0,0,0,29.32,9.4Z"/><path class="cls-2" d="M29.32,9.4l-.7-3.7A3.12,3.12,0,0,0,25.52,3h-.6L3.62,6.8A3.2,3.2,0,0,0,1,10.5L3,21.6v4.2A3.16,3.16,0,0,0,6.22,29h21.6A3.16,3.16,0,0,0,31,25.8V12.2A3.16,3.16,0,0,0,29.32,9.4ZM3,12.2v3.7L2,10.3a2.16,2.16,0,0,1,1.8-2.5L25.12,4h.4a2.07,2.07,0,0,1,2.1,1.8l.6,3.2h-22A3.16,3.16,0,0,0,3,12.2ZM30,25.8a2.22,2.22,0,0,1-2.2,2.2H6.22A2.22,2.22,0,0,1,4,25.8V25H30ZM30,21H4V12.2A2.22,2.22,0,0,1,6.22,10h21.6A2.22,2.22,0,0,1,30,12.2Z"/></g></svg>