<svg xmlns="http://www.w3.org/2000/svg" viewBox="0 0 20 20"><defs><style>.cls-1{fill:#805333;}</style></defs><path class="cls-1" d="M19,2.08A1.06,1.06,0,0,0,17.92,1a4.3,4.3,0,0,0-2.64,1.44,6.55,6.55,0,0,0-.65.76,5.49,5.49,0,0,0-6.5.92L1,11.22,8.78,19l7.13-7.13a5.49,5.49,0,0,0,.92-6.5,6.55,6.55,0,0,0,.76-.65A4.3,4.3,0,0,0,19,2.08Zm-3.75,3a.69.69,0,0,1-.42.05.62.62,0,0,1,0-.43A1.15,1.15,0,0,1,15.28,5.1Zm-7.36,2a.5.5,0,0,1,.71,0l1.42,1.41a.51.51,0,0,1,0,.71.54.54,0,0,1-.36.14.52.52,0,0,1-.35-.14L7.92,7.83A.5.5,0,0,1,7.92,7.13ZM5.8,9.25a.5.5,0,0,1,.71,0l1.41,1.41a.5.5,0,0,1,0,.71.46.46,0,0,1-.35.14.47.47,0,0,1-.35-.14L5.8,10A.5.5,0,0,1,5.8,9.25Zm6,3.89A6.42,6.42,0,0,1,7.54,15h0a.5.5,0,0,1-.5-.48A.49.49,0,0,1,7.49,14a5.5,5.5,0,0,0,3.62-1.57,5.49,5.49,0,0,0,1.56-3.62.48.48,0,0,1,.53-.47.49.49,0,0,1,.47.53A6.4,6.4,0,0,1,11.81,13.14ZM14.25,7A1.25,1.25,0,0,1,13,5.75a1.23,1.23,0,0,1,.91-1.18,1.26,1.26,0,0,0,.24,1.28,1.07,1.07,0,0,0,.8.31,2.31,2.31,0,0,0,.48-.07A1.23,1.23,0,0,1,14.25,7Zm2-2.46a5.07,5.07,0,0,0-.36-.45c-.14-.14-.3-.24-.45-.37a6.72,6.72,0,0,1,.53-.6A3.55,3.55,0,0,1,17.92,2L18,2c.1.16-.16,1.06-1.14,2A5.62,5.62,0,0,1,16.27,4.54Z"/></svg>
