<svg id="outline" xmlns="http://www.w3.org/2000/svg" viewBox="0 0 40 40">
  <path fill="#2d3741" d="M38.27,8.56,31.44,1.73A2.49,2.49,0,0,0,29.67,1H10.5a.5.5,0,0,0-.5.5V17H2.5A1.5,1.5,0,0,0,1,18.5v13A1.5,1.5,0,0,0,2.5,33H10v5.5a.5.5,0,0,0,.5.5h28a.5.5,0,0,0,.5-.5V10.33A2.49,2.49,0,0,0,38.27,8.56ZM30,2a1.51,1.51,0,0,1,.73.4l6.83,6.83A1.51,1.51,0,0,1,38,10H31a1,1,0,0,1-1-1ZM38,31.5a.5.5,0,0,1-.5.5H2.5a.5.5,0,0,1-.5-.5v-13a.5.5,0,0,1,.5-.5h35a.5.5,0,0,1,.5.5Z" />
  <path fill="#2d3741" d="M10.17,25a2.35,2.35,0,0,1-.83-.72,1.7,1.7,0,0,1-.32-1,1.73,1.73,0,0,1,.34-1,2.18,2.18,0,0,1,.94-.7,3.68,3.68,0,0,1,1.37-.25,3.18,3.18,0,0,1,1.38.28,2.13,2.13,0,0,1,.92.78,2,2,0,0,1,.33,1.14H12.77a.91.91,0,0,0-.29-.71,1.17,1.17,0,0,0-.83-.27,1.51,1.51,0,0,0-.6.1.78.78,0,0,0-.37.28.64.64,0,0,0,.21.95,3.88,3.88,0,0,0,1,.45,4.53,4.53,0,0,1,1.78.92,1.83,1.83,0,0,1,.59,1.41A1.8,1.8,0,0,1,14,27.68a1.9,1.9,0,0,1-.9.68,3.61,3.61,0,0,1-1.37.24,3.88,3.88,0,0,1-1.41-.26,2.42,2.42,0,0,1-1.08-.8,2,2,0,0,1-.42-1.31h1.54a1,1,0,0,0,.36.89,1.62,1.62,0,0,0,1,.27,1.26,1.26,0,0,0,.79-.21.7.7,0,0,0,.26-.56.79.79,0,0,0-.1-.42,1.27,1.27,0,0,0-.4-.33,5.41,5.41,0,0,0-.85-.33A7.35,7.35,0,0,1,10.17,25Z" />
  <path fill="#2d3741" d="M21,27a3,3,0,0,1-4.25,1.21A2.77,2.77,0,0,1,15.7,27a4.18,4.18,0,0,1-.39-1.86v-.31a4.1,4.1,0,0,1,.39-1.85,2.78,2.78,0,0,1,1.07-1.22,3.15,3.15,0,0,1,3.18,0A2.78,2.78,0,0,1,21,22.94a4.1,4.1,0,0,1,.39,1.85v.31A4.32,4.32,0,0,1,21,27Zm-1.56-3.83a1.25,1.25,0,0,0-1.11-.58,1.27,1.27,0,0,0-1.11.57,3,3,0,0,0-.39,1.66v.32a3,3,0,0,0,.39,1.66,1.28,1.28,0,0,0,1.12.58,1.24,1.24,0,0,0,1.1-.58,3,3,0,0,0,.39-1.66v-.32A2.92,2.92,0,0,0,19.47,23.13Z" />
  <path fill="#2d3741" d="M23.79,25A2.47,2.47,0,0,1,23,24.3a1.76,1.76,0,0,1-.31-1,1.66,1.66,0,0,1,.34-1,2.18,2.18,0,0,1,.94-.7,3.68,3.68,0,0,1,1.37-.25,3.18,3.18,0,0,1,1.38.28,2.13,2.13,0,0,1,.92.78,2,2,0,0,1,.33,1.14H26.39a.91.91,0,0,0-.29-.71,1.18,1.18,0,0,0-.84-.27,1.49,1.49,0,0,0-.59.1.86.86,0,0,0-.38.28.7.7,0,0,0-.12.4.64.64,0,0,0,.34.55,3.88,3.88,0,0,0,1,.45,4.53,4.53,0,0,1,1.78.92,1.83,1.83,0,0,1,.59,1.41,1.8,1.8,0,0,1-.32,1.06,1.9,1.9,0,0,1-.9.68,3.61,3.61,0,0,1-1.37.24,3.93,3.93,0,0,1-1.42-.26,2.39,2.39,0,0,1-1.07-.8,2,2,0,0,1-.42-1.31H24a1.07,1.07,0,0,0,.35.89,1.67,1.67,0,0,0,1,.27,1.26,1.26,0,0,0,.79-.21.7.7,0,0,0,.26-.56.71.71,0,0,0-.11-.42,1.12,1.12,0,0,0-.39-.33,5.85,5.85,0,0,0-.85-.33A7.35,7.35,0,0,1,23.79,25Z" />
  <path fill="#2d3741" d="M29.29,28.5V21.39h1.53V28.5Z" />
</svg>