<svg xmlns="http://www.w3.org/2000/svg" viewBox="0 0 16 16">
    <defs>
        <style>.cls-1{fill:#2d3741;}</style>
    </defs>
    <path class="cls-1" d="M4.75,8.75a.74.74,0,0,0,.53-.22.75.75,0,0,0,0-1.06L3.56,5.75h9.69a.75.75,0,0,0,0-1.5H3.56L5.28,2.53A.75.75,0,0,0,4.22,1.47l-3,3a.75.75,0,0,0,0,1.06l3,3A.74.74,0,0,0,4.75,8.75Z"/>
    <path class="cls-1" d="M14.78,10.47l-3-3a.75.75,0,0,0-1.06,1.06l1.72,1.72H2.75a.75.75,0,0,0,0,1.5h9.69l-1.72,1.72a.75.75,0,0,0,0,1.06.75.75,0,0,0,1.06,0l3-3A.75.75,0,0,0,14.78,10.47Z"/>
</svg>
