<svg id="outline" xmlns="http://www.w3.org/2000/svg" viewBox="0 0 48 48"><defs><style>.cls-1{fill:#593380;}</style></defs><title>icon-catalog-infomod-lg</title><path class="cls-1" d="M45.66,31.88a2.59,2.59,0,0,0-.54-.54A2.05,2.05,0,0,0,44,31H40.5V25.36C40.5,23.47,39.4,22,38,22H24.5V17H32a2.05,2.05,0,0,0,1.12-.34,2.31,2.31,0,0,0,.54-.54A2.05,2.05,0,0,0,34,15V7a2.05,2.05,0,0,0-.34-1.12,2.59,2.59,0,0,0-.54-.54A2.05,2.05,0,0,0,32,5H16a2.05,2.05,0,0,0-1.12.34,2.31,2.31,0,0,0-.54.54A2.05,2.05,0,0,0,14,7v8a2,2,0,0,0,2,2h7.5v5H10c-1.4,0-2.5,1.47-2.5,3.36V31H4a2.05,2.05,0,0,0-1.12.34,2.31,2.31,0,0,0-.54.54A2.05,2.05,0,0,0,2,33v8a2,2,0,0,0,2,2h8a2.05,2.05,0,0,0,1.12-.34,2.31,2.31,0,0,0,.54-.54A2.05,2.05,0,0,0,14,41V33a2.05,2.05,0,0,0-.34-1.12,2.59,2.59,0,0,0-.54-.54A2.05,2.05,0,0,0,12,31H8.5V25.36C8.5,24.08,9.19,23,10,23H23.5v8H20a2.05,2.05,0,0,0-1.12.34,2.31,2.31,0,0,0-.54.54A2.05,2.05,0,0,0,18,33v8a2,2,0,0,0,2,2h8a2.05,2.05,0,0,0,1.12-.34,2.31,2.31,0,0,0,.54-.54A2.05,2.05,0,0,0,30,41V33a2.05,2.05,0,0,0-.34-1.12,2.59,2.59,0,0,0-.54-.54A2.05,2.05,0,0,0,28,31H24.5V23H38c.81,0,1.5,1.08,1.5,2.36V31H36a2.05,2.05,0,0,0-1.12.34,2.31,2.31,0,0,0-.54.54A2.05,2.05,0,0,0,34,33v8a2,2,0,0,0,2,2h8a2.05,2.05,0,0,0,1.12-.34,2.31,2.31,0,0,0,.54-.54A2.05,2.05,0,0,0,46,41V33A2.05,2.05,0,0,0,45.66,31.88Z"/></svg>