<svg id="outline" xmlns="http://www.w3.org/2000/svg" viewBox="0 0 40 40">
  <path fill="#2d3741" d="M38.27,8.56,31.44,1.73A2.49,2.49,0,0,0,29.67,1H10.5a.5.5,0,0,0-.5.5V16H2.5A1.5,1.5,0,0,0,1,17.5v14A1.5,1.5,0,0,0,2.5,33H10v5.5a.5.5,0,0,0,.5.5h28a.5.5,0,0,0,.5-.5V10.33A2.49,2.49,0,0,0,38.27,8.56ZM35,31.5a.5.5,0,0,1-.5.5H2.5a.5.5,0,0,1-.5-.5v-14a.5.5,0,0,1,.5-.5h32a.5.5,0,0,1,.5.5ZM31,10a1,1,0,0,1-1-1V2a1.51,1.51,0,0,1,.73.4l6.83,6.83A1.51,1.51,0,0,1,38,10Z" />
  <path fill="#2d3741" d="M9.54,20.47h2.1L9.19,24.7,11.71,29H9.58L8,26.05,6.4,29H4.28L6.8,24.7,4.34,20.47H6.45L8,23.37Z" />
  <path fill="#2d3741" d="M18.14,27.52V29H12.61V20.47h1.84v7.05Z" />
  <path fill="#2d3741" d="M20.49,24.82a3,3,0,0,1-1-.86,2.17,2.17,0,0,1,0-2.47,2.5,2.5,0,0,1,1.13-.84,4.26,4.26,0,0,1,1.65-.3,3.84,3.84,0,0,1,1.64.33,2.55,2.55,0,0,1,1.11.93A2.48,2.48,0,0,1,25.44,23H23.61a1.11,1.11,0,0,0-.34-.86,1.46,1.46,0,0,0-1-.32,1.94,1.94,0,0,0-.72.12,1.1,1.1,0,0,0-.44.34.81.81,0,0,0-.15.48.78.78,0,0,0,.4.66,5.2,5.2,0,0,0,1.26.54,5.35,5.35,0,0,1,2.13,1.1,2.2,2.2,0,0,1,.7,1.69A2.13,2.13,0,0,1,25.06,28a2.33,2.33,0,0,1-1.08.82,4.54,4.54,0,0,1-1.64.28,4.79,4.79,0,0,1-1.7-.31,3,3,0,0,1-1.29-1,2.48,2.48,0,0,1-.5-1.57H20.7a1.26,1.26,0,0,0,.42,1.06,2,2,0,0,0,1.22.32,1.47,1.47,0,0,0,.94-.25.79.79,0,0,0,.32-.66.92.92,0,0,0-.13-.51,1.12,1.12,0,0,0-.47-.39,6.22,6.22,0,0,0-1-.41A8.06,8.06,0,0,1,20.49,24.82Z" />
  <path fill="#2d3741" d="M31.06,20.47h2.1L30.71,24.7,33.22,29H31.1l-1.59-2.95L27.92,29H25.79l2.52-4.3-2.45-4.23H28l1.54,2.9Z" />
</svg>