<svg xmlns="http://www.w3.org/2000/svg" viewBox="0 0 40 40">
  <path fill="#2d3741" d="M38.27,8.56,31.44,1.73A2.49,2.49,0,0,0,29.67,1H10.5a.5.5,0,0,0-.5.5V16H2.5A1.5,1.5,0,0,0,1,17.5v14A1.5,1.5,0,0,0,2.5,33H10v5.5a.5.5,0,0,0,.5.5h28a.5.5,0,0,0,.5-.5V10.33A2.49,2.49,0,0,0,38.27,8.56ZM35,31.5a.5.5,0,0,1-.5.5H2.5a.5.5,0,0,1-.5-.5v-14a.5.5,0,0,1,.5-.5h32a.5.5,0,0,1,.5.5ZM31,10a1,1,0,0,1-1-1V2a1.51,1.51,0,0,1,.73.4l6.83,6.83A1.51,1.51,0,0,1,38,10Z" />
  <path fill="#2d3741" d="M11.71,20.47h2.1L11.36,24.7,13.88,29H11.75l-1.59-2.95L8.57,29H6.45L9,24.7,6.51,20.47H8.62l1.54,2.9Z" />
  <path fill="#2d3741" d="M23.82,29H22V26.8l.18-4.08L19.92,29H18.67l-2.23-6.28.18,4.08V29H14.78V20.47h2.41l2.1,6.09,2.11-6.09h2.42Z" />
  <path fill="#2d3741" d="M30.92,27.52V29H25.39V20.47h1.84v7.05Z" />
</svg>
