<svg xmlns="http://www.w3.org/2000/svg" viewBox="0 0 32 32"><defs><style>.cls-1{fill:#d70a5a;}.cls-2{fill:#f9dae6;}</style></defs><title>icon-api-not-open-license-md</title><g id="outline"><path class="cls-1" d="M31,8.31a.36.36,0,0,0-.11-.16l-7-7A.36.36,0,0,0,23.69,1a.41.41,0,0,0-.19,0H8.5a.5.5,0,0,0-.5.5V4H1.5a.5.5,0,0,0-.5.5v26a.5.5,0,0,0,.5.5h22a.5.5,0,0,0,.5-.5V28h6.5a.5.5,0,0,0,.5-.5V8.5A.41.41,0,0,0,31,8.31Z"/><polygon class="cls-2" points="24 2.71 29.29 8 24 8 24 2.71"/><path class="cls-2" d="M23,30H2V5H8V9H5.5a.5.5,0,0,0,0,1H8v4H5.5a.5.5,0,0,0,0,1H8v2H5.5a.5.5,0,0,0,0,1H8v2H5.5a.5.5,0,0,0,0,1H8v2H5.5a.5.5,0,0,0,0,1H8v2H5.5a.5.5,0,0,0,0,1H8v.5a.5.5,0,0,0,.5.5H23Z"/><path class="cls-2" d="M23.5,9a.5.5,0,0,1-.5-.5V2H9V27H30V9Zm-11-3h6a.5.5,0,0,1,0,1h-6a.5.5,0,0,1,0-1Zm10,18h-10a.5.5,0,0,1,0-1h10a.5.5,0,0,1,0,1Zm4-3h-14a.5.5,0,0,1,0-1h14a.5.5,0,0,1,0,1Zm0-3h-14a.5.5,0,0,1,0-1h14a.5.5,0,0,1,0,1Zm0-3h-14a.5.5,0,0,1,0-1h14a.5.5,0,0,1,0,1Zm0-3h-14a.5.5,0,0,1,0-1h14a.5.5,0,0,1,0,1Z"/></g></svg>