<svg xmlns="http://www.w3.org/2000/svg" viewBox="0 0 40 40"><path d="M39,29.18l-1.53-7A1.48,1.48,0,0,0,36,21H28.64l-1,1H36a.48.48,0,0,1,.47.39l1.54,7a.51.51,0,0,1-.1.43.49.49,0,0,1-.38.18h-35a.49.49,0,0,1-.38-.18.51.51,0,0,1-.1-.43l1.54-7A.48.48,0,0,1,4,22h8.8l-1-1H4a1.48,1.48,0,0,0-1.45,1.18L1,29.18a1.12,1.12,0,0,0,0,.32V38a1,1,0,0,0,1,1H38a1,1,0,0,0,1-1V29.5A1.12,1.12,0,0,0,39,29.18Z" fill="#2d3741"/><path d="M26,15V2a1,1,0,0,0-1-1H15a1,1,0,0,0-1,1V15H9.48a1,1,0,0,0-.7,1.72l11,10.62a1,1,0,0,0,1.41,0L31.38,16.69A1,1,0,0,0,30.66,15Z" fill="#2d3741"/></svg>
