<svg xmlns="http://www.w3.org/2000/svg" viewBox="0 0 40 40">
  <path fill="#2d3741" d="M38.27,8.56,31.44,1.73A2.49,2.49,0,0,0,29.67,1H10.5a.5.5,0,0,0-.5.5V17H2.5A1.5,1.5,0,0,0,1,18.5v13A1.5,1.5,0,0,0,2.5,33H10v5.5a.5.5,0,0,0,.5.5h28a.5.5,0,0,0,.5-.5V10.33A2.49,2.49,0,0,0,38.27,8.56ZM30,2a1.51,1.51,0,0,1,.73.4l6.83,6.83A1.51,1.51,0,0,1,38,10H31a1,1,0,0,1-1-1ZM38,31.5a.5.5,0,0,1-.5.5H2.5a.5.5,0,0,1-.5-.5v-13a.5.5,0,0,1,.5-.5h35a.5.5,0,0,1,.5.5Z" />
  <path fill="#2d3741" d="M10.8,21.39h1.67l-2.32,4.54V28.5H8.6V25.93L6.27,21.39H7.94l1.43,3.16Z" />
  <path fill="#2d3741" d="M16.7,27.09H14.18l-.46,1.41H12.09l2.63-7.11h1.43L18.8,28.5H17.17Zm-.41-1.24-.85-2.59-.85,2.59Z" />
  <path fill="#2d3741" d="M27.33,28.5H25.79V26.66L26,23.27,24.08,28.5H23l-1.86-5.23.15,3.39V28.5H19.8V21.39h2l1.76,5.07,1.76-5.07h2Z" />
  <path fill="#2d3741" d="M33.53,27.26V28.5H28.92V21.39h1.54v5.87Z" />
</svg>
