<svg xmlns="http://www.w3.org/2000/svg" viewBox="0 0 48 48"><defs><style>.cls-1{fill:#337380;}</style></defs><title>icon-catalog-concept-lg</title><path class="cls-1" d="M42.5,10a3.5,3.5,0,0,1,0-7,.5.5,0,0,0,0-1h-33A4.48,4.48,0,0,0,5,6.53s0,0,0,.06H5V41.47A4.47,4.47,0,0,0,9.43,46H43V10.48h0A.5.5,0,0,0,42.5,10ZM21,28l-4-4-4,4V11h8ZM38.6,10H9.45A3.17,3.17,0,0,1,8.76,10c-.1,0-.19-.06-.29-.09a2.24,2.24,0,0,1-.34-.11,2.48,2.48,0,0,1-.39-.21l-.18-.1a2.86,2.86,0,0,1-.43-.35s0,0-.06,0A3.49,3.49,0,0,1,6,6.69a.88.88,0,0,1,0-.16A3.48,3.48,0,0,1,9.45,3H39.71a4.52,4.52,0,0,0,0,7Z"/></svg>
