<svg xmlns="http://www.w3.org/2000/svg" viewBox="0 0 48 48">
  <path fill="#335380" d="M40.72,37.42,26.49,45.63c-1.68,1-3-.06-3-2.3V27.93a7.33,7.33,0,0,1,3-5.83l14.23-8.21c1.68-1,3.05.06,3.05,2.31V31.59A7.31,7.31,0,0,1,40.72,37.42Z" />
  <path fill="#335380" d="M25.49,20.37l11.87-6.85V12.35c0-2.24-1.36-3.27-3-2.3L20.09,18.26A7.3,7.3,0,0,0,17,24.09v15.4c0,2.24,1.36,3.27,3.05,2.3L21.44,41V27.93A9.24,9.24,0,0,1,25.49,20.37Z" />
  <path fill="#335380" d="M19.09,16.53,31,9.68V8.51c0-2.24-1.36-3.27-3.05-2.3L13.69,14.42a7.28,7.28,0,0,0-3,5.83v15.4c0,2.24,1.36,3.27,3,2.3L15,37.17V24.09A9.23,9.23,0,0,1,19.09,16.53Z" />
  <path fill="#335380" d="M12.69,12.69,24.56,5.83V4.67c0-2.24-1.37-3.28-3-2.3L7.28,10.58a7.31,7.31,0,0,0-3,5.83V31.8c0,2.25,1.37,3.28,3.05,2.31l1.36-.78V20.25A9.23,9.23,0,0,1,12.69,12.69Z" />
</svg>
