<svg xmlns="http://www.w3.org/2000/svg" viewBox="0 0 40 40">
  <path fill="#2d3741" d="M38.27,8.56,31.44,1.73A2.49,2.49,0,0,0,29.67,1H10.5a.5.5,0,0,0-.5.5V17H2.5A1.5,1.5,0,0,0,1,18.5v13A1.5,1.5,0,0,0,2.5,33H10v5.5a.5.5,0,0,0,.5.5h28a.5.5,0,0,0,.5-.5V10.33A2.49,2.49,0,0,0,38.27,8.56ZM30,2a1.51,1.51,0,0,1,.73.4l6.83,6.83A1.51,1.51,0,0,1,38,10H31a1,1,0,0,1-1-1ZM38,31.5a.5.5,0,0,1-.5.5H2.5a.5.5,0,0,1-.5-.5v-13a.5.5,0,0,1,.5-.5h35a.5.5,0,0,1,.5.5Z" />
  <path fill="#2d3741" d="M16.11,22.63H13.94V28.5H12.41V22.63H10.28V21.39h5.83Z" />
  <path fill="#2d3741" d="M21.29,21.39H23l-2,3.53,2.1,3.58H21.32L20,26,18.68,28.5H16.9L19,24.92l-2-3.53h1.76L20,23.81Z" />
  <path fill="#2d3741" d="M29.72,22.63H27.55V28.5H26V22.63H23.89V21.39h5.83Z" />
</svg>
