<svg id="outline" xmlns="http://www.w3.org/2000/svg" viewBox="0 0 40 40">
  <path fill="#2d3741" d="M38.27,8.56,31.44,1.73A2.49,2.49,0,0,0,29.67,1H10.5a.5.5,0,0,0-.5.5V17H2.5A1.5,1.5,0,0,0,1,18.5v13A1.5,1.5,0,0,0,2.5,33H10v5.5a.5.5,0,0,0,.5.5h28a.5.5,0,0,0,.5-.5V10.33A2.49,2.49,0,0,0,38.27,8.56ZM30,2a1.51,1.51,0,0,1,.73.4l6.83,6.83A1.51,1.51,0,0,1,38,10H31a1,1,0,0,1-1-1ZM38,31.5a.5.5,0,0,1-.5.5H2.5a.5.5,0,0,1-.5-.5v-13a.5.5,0,0,1,.5-.5h35a.5.5,0,0,1,.5.5Z" />
  <path fill="#2d3741" d="M7.71,27.74v.06H6.39l-1-2.05H4.46V27.8H3.23V22.11H5.38a3,3,0,0,1,1.14.2,1.57,1.57,0,0,1,.73.58,1.67,1.67,0,0,1,.25.94,1.78,1.78,0,0,1-.26,1,1.82,1.82,0,0,1-.75.61Zm-3.25-3h.92a.92.92,0,0,0,.67-.22.78.78,0,0,0,.22-.6.82.82,0,0,0-.22-.61,1,1,0,0,0-.67-.22H4.46Z" />
  <path fill="#2d3741" d="M11.57,22.45a2.39,2.39,0,0,1,.92,1,2.94,2.94,0,0,1,.33,1.41v.25a3,3,0,0,1-.33,1.42,2.43,2.43,0,0,1-.92,1,2.67,2.67,0,0,1-1.36.34H8.44V22.11h1.77A2.77,2.77,0,0,1,11.57,22.45Zm0,2.37a2,2,0,0,0-.35-1.28,1.23,1.23,0,0,0-1-.44H9.67v3.71h.54a1.25,1.25,0,0,0,1-.44,2.09,2.09,0,0,0,.35-1.29Z" />
  <path fill="#2d3741" d="M14.93,23.1v1.41h2.24v1H14.93v2.3H13.71V22.11h3.73v1Z" />
  <path fill="#2d3741" d="M17.32,28.29l2.06-6.18h.86l-2.06,6.18Z" />
  <path fill="#2d3741" d="M24.18,22.11h1.4l-1.64,2.82,1.68,2.87H24.2l-1.06-2-1.05,2H20.67l1.68-2.87-1.64-2.82h1.41l1,1.94Z" />
  <path fill="#2d3741" d="M32.31,27.8H31.08V26.33l.12-2.72L29.7,27.8h-.83l-1.49-4.19.12,2.72V27.8H26.28V22.11h1.6l1.41,4.06,1.41-4.06h1.61Z" />
  <path fill="#2d3741" d="M37.09,26.81v1H33.41V22.11h1.22v4.7Z" />
</svg>