<svg id="outline" xmlns="http://www.w3.org/2000/svg" viewBox="0 0 40 40">
  <path fill="#2d3741" d="M38.27,8.56,31.44,1.73A2.49,2.49,0,0,0,29.67,1H10.5a.5.5,0,0,0-.5.5V17H2.5A1.5,1.5,0,0,0,1,18.5v13A1.5,1.5,0,0,0,2.5,33H10v5.5a.5.5,0,0,0,.5.5h28a.5.5,0,0,0,.5-.5V10.33A2.49,2.49,0,0,0,38.27,8.56ZM30,2a1.51,1.51,0,0,1,.73.4l6.83,6.83A1.51,1.51,0,0,1,38,10H31a1,1,0,0,1-1-1ZM38,31.5a.5.5,0,0,1-.5.5H2.5a.5.5,0,0,1-.5-.5v-13a.5.5,0,0,1,.5-.5h35a.5.5,0,0,1,.5.5Z" />
  <path fill="#2d3741" d="M15.15,21.39H16.9l-2,3.53L17,28.5H15.18L13.86,26,12.54,28.5H10.77l2.1-3.58-2-3.53h1.76l1.28,2.42Z" />
  <path fill="#2d3741" d="M22.6,27.26V28.5H18V21.39h1.53v5.87Z" />
  <path fill="#2d3741" d="M24.84,25A2.44,2.44,0,0,1,24,24.3a1.69,1.69,0,0,1-.31-1,1.66,1.66,0,0,1,.34-1,2.12,2.12,0,0,1,.94-.7,3.64,3.64,0,0,1,1.37-.25,3.13,3.13,0,0,1,1.37.28,2.08,2.08,0,0,1,.92.78A2,2,0,0,1,29,23.49H27.44a.91.91,0,0,0-.28-.71,1.19,1.19,0,0,0-.84-.27,1.51,1.51,0,0,0-.6.1.83.83,0,0,0-.37.28.71.71,0,0,0-.13.4.66.66,0,0,0,.34.55,4,4,0,0,0,1.05.45,4.61,4.61,0,0,1,1.78.92A1.83,1.83,0,0,1,29,26.62a1.8,1.8,0,0,1-.32,1.06,1.9,1.9,0,0,1-.9.68,3.57,3.57,0,0,1-1.37.24A3.88,3.88,0,0,1,25,28.34a2.48,2.48,0,0,1-1.08-.8,2.09,2.09,0,0,1-.41-1.31H25a1,1,0,0,0,.36.89,1.62,1.62,0,0,0,1,.27,1.26,1.26,0,0,0,.79-.21.68.68,0,0,0,.27-.56.79.79,0,0,0-.11-.42,1.08,1.08,0,0,0-.4-.33,5.41,5.41,0,0,0-.85-.33A7.72,7.72,0,0,1,24.84,25Z" />
</svg>