<svg id="outline" xmlns="http://www.w3.org/2000/svg" viewBox="0 0 24 24"><defs><style>.cls-1{opacity:0.98;}.cls-2{fill:#335380;}</style></defs><title>icon-catalog-dataset-md</title><g class="cls-1"><path class="cls-2" d="M12.75,10.19l5.93-3.43V6.18c0-1.13-.68-1.64-1.52-1.16L10,9.13A3.66,3.66,0,0,0,8.52,12v7.7c0,1.13.68,1.64,1.52,1.16l.68-.39V14A4.59,4.59,0,0,1,12.75,10.19Z"/></g><path class="cls-2" d="M20.36,18.71l-7.11,4.11c-.85.48-1.53,0-1.53-1.16V14a3.64,3.64,0,0,1,1.53-2.91L20.36,7c.84-.49,1.52,0,1.52,1.15v7.7A3.66,3.66,0,0,1,20.36,18.71Z"/><path class="cls-2" d="M9.54,8.27l5.94-3.43V4.26c0-1.13-.68-1.64-1.52-1.16L6.84,7.21a3.66,3.66,0,0,0-1.52,2.91v7.7C5.32,19,6,19.46,6.84,19l.68-.4V12A4.61,4.61,0,0,1,9.54,8.27Z"/><path class="cls-2" d="M6.34,6.34l5.94-3.42V2.34c0-1.13-.68-1.64-1.53-1.16L3.64,5.29A3.66,3.66,0,0,0,2.12,8.2v7.7c0,1.12.68,1.64,1.52,1.15l.68-.39V10.12A4.64,4.64,0,0,1,6.34,6.34Z"/></svg>