<svg xmlns="http://www.w3.org/2000/svg" viewBox="0 0 40 40"><defs><style>.cls-1{fill:#2d3741;}</style></defs><g id="outline"><path class="cls-1" d="M37.75,15.89l-4.28-1.07c-.2-.51-.42-1-.66-1.48l2.11-3.52a1.65,1.65,0,0,0-.25-2l-3-3a1.65,1.65,0,0,0-2-.25L25.86,6.81a13.08,13.08,0,0,0-1.51-.58l-1-4A1.65,1.65,0,0,0,21.75,1H17.49a1.65,1.65,0,0,0-1.6,1.25L14.82,6.53c-.51.2-1,.42-1.48.66L9.82,5.08a1.65,1.65,0,0,0-2,.25l-3,3a1.65,1.65,0,0,0-.25,2l2.27,3.78a13.08,13.08,0,0,0-.58,1.51l-4,1A1.65,1.65,0,0,0,1,18.25V31.5A1.5,1.5,0,0,0,2.5,33H6.13l2.21,2.21a1.65,1.65,0,0,0,2,.25l3.78-2.27a13.08,13.08,0,0,0,1.51.58l1,4A1.65,1.65,0,0,0,18.25,39h4.26a1.65,1.65,0,0,0,1.6-1.25l1.07-4.28c.36-.14.7-.31,1-.47H27l3.2,1.92a1.65,1.65,0,0,0,2-.25L33.87,33H37.5A1.5,1.5,0,0,0,39,31.5v-14A1.65,1.65,0,0,0,37.75,15.89ZM20,13.37A6.61,6.61,0,0,1,25.9,17H14.1A6.61,6.61,0,0,1,20,13.37ZM38,31.5a.5.5,0,0,1-.5.5H2.5a.5.5,0,0,1-.5-.5v-13a.5.5,0,0,1,.5-.5h35a.5.5,0,0,1,.5.5Z"/><path class="cls-1" d="M16.29,27.19H13.77l-.46,1.41H11.68l2.63-7.11h1.43l2.65,7.11H16.75ZM15.88,26,15,23.36,14.18,26Z"/><path class="cls-1" d="M23.62,21.79a2.32,2.32,0,0,1,.93.85,2.28,2.28,0,0,1,.33,1.22,2.16,2.16,0,0,1-.33,1.2,2,2,0,0,1-.93.79,3.4,3.4,0,0,1-1.44.28H20.92V28.6H19.39V21.49h2.79A3.25,3.25,0,0,1,23.62,21.79ZM23,24.62a1,1,0,0,0,.29-.75,1.35,1.35,0,0,0-.12-.57,1,1,0,0,0-.38-.41,1.21,1.21,0,0,0-.65-.16H20.92v2.16h1.26A1.18,1.18,0,0,0,23,24.62Z"/><path class="cls-1" d="M26.11,28.6V21.49h1.53V28.6Z"/></g></svg>