<svg id="outline" xmlns="http://www.w3.org/2000/svg" viewBox="0 0 24 24"><defs><style>.cls-1{fill:#805333;}</style></defs><title>icon-catalog-api-md</title><path class="cls-1" d="M23,13V10.55a1,1,0,0,0-.72-.93L19.8,9a8.19,8.19,0,0,0-.39-.85l1.23-2a1,1,0,0,0-.15-1.17L18.75,3.19a1,1,0,0,0-1.17-.14L15.39,4.36A8.22,8.22,0,0,0,14.52,4l-.58-2.31A1,1,0,0,0,13,1H10.55a1,1,0,0,0-.93.72L9,4.2a8.19,8.19,0,0,0-.85.39l-2-1.23a1,1,0,0,0-1.17.15L3.19,5.25a1,1,0,0,0-.14,1.17L4.36,8.61A8.22,8.22,0,0,0,4,9.48l-2.31.58A1,1,0,0,0,1,11v2.46a1,1,0,0,0,.72.93L4.2,15a8.19,8.19,0,0,0,.39.85l-1.23,2a1,1,0,0,0,.15,1.17l1.74,1.75A1,1,0,0,0,6.42,21l2.19-1.31a8.22,8.22,0,0,0,.87.33l.58,2.31A1,1,0,0,0,11,23h2.46a1,1,0,0,0,.93-.72L15,19.8a8.19,8.19,0,0,0,.85-.39l2,1.23a1,1,0,0,0,1.17-.15l1.75-1.74A1,1,0,0,0,21,17.58l-1.31-2.19a8.22,8.22,0,0,0,.33-.87l2.31-.58A1,1,0,0,0,23,13Zm-7.16-1A3.84,3.84,0,1,1,12,8.16,3.84,3.84,0,0,1,15.84,12Z"/></svg>