<svg id="outline" xmlns="http://www.w3.org/2000/svg" viewBox="0 0 20 20"><defs><style>.cls-1{fill:#2d3741;}</style></defs><title>icon-access-not-open-md</title><path class="cls-1" d="M15,8h-.25V6.5a4.75,4.75,0,0,0-9.5,0V8H5A1,1,0,0,0,4,9v8a1,1,0,0,0,1,1H15a1,1,0,0,0,1-1V9A1,1,0,0,0,15,8Zm-2.23,7.65a.73.73,0,0,1-.53.22.74.74,0,0,1-.53-.22L10.06,14,8.41,15.65a.75.75,0,0,1-1.06,0,.75.75,0,0,1,0-1.06L9,12.94,7.47,11.41a.75.75,0,1,1,1.06-1.06l1.53,1.53,1.53-1.53a.75.75,0,1,1,1.06,1.06l-1.53,1.53,1.65,1.65A.74.74,0,0,1,12.77,15.65ZM13.25,8H6.75V6.5a3.25,3.25,0,0,1,6.5,0Z"/></svg>