<svg xmlns="http://www.w3.org/2000/svg" viewBox="0 0 40 40">
  <path fill="#2d3741" d="M38.27,8.56,31.44,1.73A2.49,2.49,0,0,0,29.67,1H10.5a.5.5,0,0,0-.5.5V17H2.5A1.5,1.5,0,0,0,1,18.5v13A1.5,1.5,0,0,0,2.5,33H10v5.5a.5.5,0,0,0,.5.5h28a.5.5,0,0,0,.5-.5V10.33A2.49,2.49,0,0,0,38.27,8.56ZM30,2a1.51,1.51,0,0,1,.73.4l6.83,6.83A1.51,1.51,0,0,1,38,10H31a1,1,0,0,1-1-1ZM38,31.5a.5.5,0,0,1-.5.5H2.5a.5.5,0,0,1-.5-.5v-13a.5.5,0,0,1,.5-.5h35a.5.5,0,0,1,.5.5Z" />
  <path fill="#2d3741" d="M16.13,28.5l-2.76-4.58V28.5H11.83V21.39h1.54L16.13,26V21.39h1.53V28.5Z" />
  <path fill="#2d3741" d="M18.53,29.11l2.57-7.72h1.08l-2.57,7.72Z" />
  <path fill="#2d3741" d="M26.66,27.09H24.14l-.46,1.41H22.05l2.64-7.11h1.42l2.65,7.11H27.13Zm-.41-1.24-.85-2.59-.85,2.59Z" />
</svg>
