<svg xmlns="http://www.w3.org/2000/svg" viewBox="0 0 48 48"><defs><style>.cls-1{fill:#803353;}</style></defs><rect class="cls-1" x="10" y="20.9" width="28" height="2"/><rect class="cls-1" x="10" y="26.9" width="28" height="2"/><rect class="cls-1" x="10" y="32.9" width="28" height="2"/><path class="cls-1" d="M43.5,6H4.5A2.5,2.5,0,0,0,2,8.5v32A2.5,2.5,0,0,0,4.5,43h39A2.5,2.5,0,0,0,46,40.5V8.5A2.5,2.5,0,0,0,43.5,6ZM45,40.5A1.5,1.5,0,0,1,43.5,42H4.5A1.5,1.5,0,0,1,3,40.5V14H45Zm-3-32.6a2,2,0,1,1-2,2A2,2,0,0,1,42.05,7.9Zm-6,0a2,2,0,1,1-2,2A2,2,0,0,1,36.05,7.9Z"/></svg>
