<svg xmlns="http://www.w3.org/2000/svg" viewBox="0 0 20 20"><defs><style>.cls-1{fill:#805333;}</style></defs><path class="cls-1" d="M19.41,9.68a11.68,11.68,0,0,0-3.73-3.95l2-2a1,1,0,1,0-1.42-1.42L13.82,4.76A10.17,10.17,0,0,0,10,4,11,11,0,0,0,.59,9.68a.61.61,0,0,0,0,.64,11.68,11.68,0,0,0,3.73,3.95l-2,2a1,1,0,0,0,0,1.42,1,1,0,0,0,1.42,0l2.47-2.47A10.17,10.17,0,0,0,10,16a11,11,0,0,0,9.41-5.68A.61.61,0,0,0,19.41,9.68ZM6,10a4,4,0,0,1,4-4,3.86,3.86,0,0,1,2,.57l-1.51,1.5A2.09,2.09,0,0,0,10,8a2,2,0,0,0-2,2,2.09,2.09,0,0,0,.07.51L6.57,12A3.86,3.86,0,0,1,6,10Zm4,4a3.86,3.86,0,0,1-2-.57l1.51-1.5A2.09,2.09,0,0,0,10,12a2,2,0,0,0,2-2,2.09,2.09,0,0,0-.07-.51L13.43,8A3.86,3.86,0,0,1,14,10,4,4,0,0,1,10,14Z"/></svg>
