<svg id="outline" xmlns="http://www.w3.org/2000/svg" viewBox="0 0 24 24"><defs><style>.cls-1{fill:#803353;}</style></defs><path class="cls-1" d="M20.5,2H3.5A2.5,2.5,0,0,0,1,4.5v15A2.5,2.5,0,0,0,3.5,22h17A2.5,2.5,0,0,0,23,19.5V4.5A2.5,2.5,0,0,0,20.5,2ZM20,4a1,1,0,1,1-1,1A1,1,0,0,1,20,4ZM17,4a1,1,0,1,1-1,1A1,1,0,0,1,17,4Zm5,15.5A1.5,1.5,0,0,1,20.5,21H3.5A1.5,1.5,0,0,1,2,19.5V8H22Z"/><rect class="cls-1" x="5" y="11" width="14" height="1"/><rect class="cls-1" x="5" y="14" width="14" height="1"/><rect class="cls-1" x="5" y="17" width="14" height="1"/></svg>