<svg width="16" height="16" viewBox="0 0 16 16" fill="none" xmlns="http://www.w3.org/2000/svg">
<path d="M8.00005 4C6.6894 4.0157 5.40562 4.37369 4.27598 5.03849C3.14635 5.70329 2.21009 6.65181 1.56005 7.79C1.52111 7.85312 1.50049 7.92583 1.50049 8C1.50049 8.07417 1.52111 8.14688 1.56005 8.21C2.21009 9.34819 3.14635 10.2967 4.27598 10.9615C5.40562 11.6263 6.6894 11.9843 8.00005 12C9.31069 11.9843 10.5945 11.6263 11.7241 10.9615C12.8537 10.2967 13.79 9.34819 14.44 8.21C14.479 8.14688 14.4996 8.07417 14.4996 8C14.4996 7.92583 14.479 7.85312 14.44 7.79C13.79 6.65181 12.8537 5.70329 11.7241 5.03849C10.5945 4.37369 9.31069 4.0157 8.00005 4V4Z" stroke="#335380" stroke-width="1.5" stroke-miterlimit="10"/>
<path d="M8 12C10.2091 12 12 10.2091 12 8C12 5.79086 10.2091 4 8 4C5.79086 4 4 5.79086 4 8C4 10.2091 5.79086 12 8 12Z" stroke="#335380" stroke-width="1.5" stroke-miterlimit="10"/>
<path d="M8 8.75C8.41421 8.75 8.75 8.41421 8.75 8C8.75 7.58579 8.41421 7.25 8 7.25C7.58579 7.25 7.25 7.58579 7.25 8C7.25 8.41421 7.58579 8.75 8 8.75Z" stroke="#335380" stroke-width="1.5" stroke-miterlimit="10"/>
</svg>
