<svg id="outline" xmlns="http://www.w3.org/2000/svg" viewBox="0 0 48 48"><defs><style>.cls-1{fill:#805333;}</style></defs><title>icon-catalog-api-lg</title><path class="cls-1" d="M46,26V21.09a1.91,1.91,0,0,0-1.45-1.85l-5-1.24a14.57,14.57,0,0,0-.76-1.71l2.45-4.08A1.91,1.91,0,0,0,41,9.88L37.5,6.39a1.92,1.92,0,0,0-2.34-.29L30.79,8.73A15.61,15.61,0,0,0,29,8.05l-1.15-4.6A1.91,1.91,0,0,0,26,2H21.09a1.91,1.91,0,0,0-1.85,1.45L18,8.41a14.57,14.57,0,0,0-1.71.76L12.21,6.72A1.91,1.91,0,0,0,9.88,7L6.39,10.5a1.92,1.92,0,0,0-.29,2.34l2.63,4.37A15.61,15.61,0,0,0,8.05,19l-4.6,1.15A1.91,1.91,0,0,0,2,22v4.94a1.91,1.91,0,0,0,1.45,1.85l5,1.24a14.57,14.57,0,0,0,.76,1.71L6.72,35.79A1.91,1.91,0,0,0,7,38.12l3.49,3.49a1.92,1.92,0,0,0,2.34.29l4.37-2.63A15.61,15.61,0,0,0,19,40l1.15,4.6A1.91,1.91,0,0,0,22,46h4.94a1.91,1.91,0,0,0,1.85-1.45l1.24-5a14.57,14.57,0,0,0,1.71-.76l4.08,2.45A1.91,1.91,0,0,0,38.12,41l3.49-3.49a1.92,1.92,0,0,0,.29-2.34l-2.63-4.37A15.61,15.61,0,0,0,40,29l4.6-1.15A1.91,1.91,0,0,0,46,26ZM31,24a7,7,0,1,1-7-7A7,7,0,0,1,31,24Z"/></svg>