<svg xmlns="http://www.w3.org/2000/svg" viewBox="0 0 32 32"><defs><style>.cls-1{fill:#007d69;}.cls-2{fill:#d9ebe8;}</style></defs><title>icon-api-public-md</title><g id="outline"><path class="cls-1" d="M31.24,16.3a12.74,12.74,0,0,0-1.3-1.9l.5-.5a.62.62,0,0,0,.1-.7.62.62,0,0,0-.7-.1l-.5.4a22,22,0,0,0-3.1-3l.6-.9A.5.5,0,0,0,26,9l-.6.9A16.88,16.88,0,0,0,21.64,8L22,6.7a.47.47,0,1,0-.9-.3l-.5,1.3A13.53,13.53,0,0,0,17,7V5.5a.5.5,0,0,0-1,0V7a14.87,14.87,0,0,0-4.7.7l-.5-1.3a.45.45,0,0,0-.6-.3c-.2,0-.4.3-.3.6l.5,1.3a16.88,16.88,0,0,0-3.8,1.9L6,9.1a.53.53,0,0,0-.7-.2.49.49,0,0,0-.1.7l.6.9a29.12,29.12,0,0,0-3.1,3l-.5-.4a.49.49,0,0,0-.7.1.43.43,0,0,0,.1.7l.5.5c-.4.6-.9,1.3-1.3,1.9a1.36,1.36,0,0,0,0,1.5c3.4,5.7,9,9.2,15.2,9.2s11.8-3.5,15.2-9.2A2,2,0,0,0,31.24,16.3Z"/><path class="cls-2" d="M30.34,16.8C27.14,11.3,21.84,8,16,8s-11.1,3.3-14.3,8.8a.45.45,0,0,0,0,.5C4.94,22.7,10.24,26,16,26s11.1-3.3,14.3-8.7A.45.45,0,0,0,30.34,16.8ZM16,24a7,7,0,1,1,7-7A7,7,0,0,1,16,24Z"/><path class="cls-2" d="M16,11a6,6,0,1,0,6,6A6,6,0,0,0,16,11Zm0,10a4,4,0,0,1-4-4,2.77,2.77,0,0,1,.1-.9,1.57,1.57,0,0,0,1.4.9,1.5,1.5,0,0,0,0-3h-.1A4,4,0,1,1,16,21Z"/></g></svg>