<svg xmlns="http://www.w3.org/2000/svg" viewBox="0 0 40 40">
  <path fill="#2d3741" d="M38.27,8.56,31.44,1.73A2.49,2.49,0,0,0,29.67,1H10.5a.5.5,0,0,0-.5.5V16H2.5A1.5,1.5,0,0,0,1,17.5v14A1.5,1.5,0,0,0,2.5,33H10v5.5a.5.5,0,0,0,.5.5h28a.5.5,0,0,0,.5-.5V10.33A2.49,2.49,0,0,0,38.27,8.56ZM35,31.5a.5.5,0,0,1-.5.5H2.5a.5.5,0,0,1-.5-.5v-14a.5.5,0,0,1,.5-.5h32a.5.5,0,0,1,.5.5ZM31,10a1,1,0,0,1-1-1V2a1.51,1.51,0,0,1,.73.4l6.83,6.83A1.51,1.51,0,0,1,38,10Z" />
  <path fill="#2d3741" d="M14.16,27.69a2.9,2.9,0,0,1-1.19,1,4,4,0,0,1-1.79.38,3.51,3.51,0,0,1-1.89-.5,3.19,3.19,0,0,1-1.23-1.43A5.13,5.13,0,0,1,7.63,25v-.52a5.12,5.12,0,0,1,.44-2.19,3.25,3.25,0,0,1,3.12-1.94,3.86,3.86,0,0,1,1.8.38,2.86,2.86,0,0,1,1.16,1.07,3.68,3.68,0,0,1,.5,1.58H12.81a1.73,1.73,0,0,0-.42-1.15,1.64,1.64,0,0,0-1.2-.38,1.44,1.44,0,0,0-1.28.63,3.7,3.7,0,0,0-.41,2V25a5.1,5.1,0,0,0,.17,1.48,1.57,1.57,0,0,0,.54.85,1.53,1.53,0,0,0,1,.28,1.68,1.68,0,0,0,1.18-.36,1.63,1.63,0,0,0,.45-1.11h1.83A3.29,3.29,0,0,1,14.16,27.69Z" />
  <path fill="#2d3741" d="M17.15,24.82a3.12,3.12,0,0,1-1-.86,2.15,2.15,0,0,1,0-2.47,2.47,2.47,0,0,1,1.12-.84,4.26,4.26,0,0,1,1.65-.3,3.92,3.92,0,0,1,1.65.33,2.58,2.58,0,0,1,1.1.93,2.4,2.4,0,0,1,.4,1.38H20.27a1.11,1.11,0,0,0-.34-.86,1.43,1.43,0,0,0-1-.32,1.9,1.9,0,0,0-.72.12,1.07,1.07,0,0,0-.45.34.81.81,0,0,0-.15.48.79.79,0,0,0,.41.66,5.28,5.28,0,0,0,1.25.54,5.4,5.4,0,0,1,2.14,1.1,2.24,2.24,0,0,1,.7,1.69A2.2,2.2,0,0,1,21.73,28a2.44,2.44,0,0,1-1.08.82,4.6,4.6,0,0,1-1.65.28,4.7,4.7,0,0,1-1.69-.31,3.06,3.06,0,0,1-1.3-1,2.47,2.47,0,0,1-.49-1.57h1.84a1.24,1.24,0,0,0,.43,1.06,1.92,1.92,0,0,0,1.21.32,1.5,1.5,0,0,0,.95-.25.81.81,0,0,0,.32-.66,1,1,0,0,0-.13-.51,1.23,1.23,0,0,0-.48-.39,6.22,6.22,0,0,0-1-.41A8.36,8.36,0,0,1,17.15,24.82Z" />
  <path fill="#2d3741" d="M30.33,20.47,27.38,29H25.44l-2.93-8.53h2l1.87,6.34,1.87-6.34Z" />
</svg>
