<svg id="outline" xmlns="http://www.w3.org/2000/svg" viewBox="0 0 40 40">
  <path fill="#2d3741" d="M38.27,8.56,31.44,1.73A2.49,2.49,0,0,0,29.67,1H10.5a.5.5,0,0,0-.5.5V17H2.5A1.5,1.5,0,0,0,1,18.5v13A1.5,1.5,0,0,0,2.5,33H10v5.5a.5.5,0,0,0,.5.5h28a.5.5,0,0,0,.5-.5V10.33A2.49,2.49,0,0,0,38.27,8.56ZM30,2a1.51,1.51,0,0,1,.73.4l6.83,6.83A1.51,1.51,0,0,1,38,10H31a1,1,0,0,1-1-1ZM38,31.5a.5.5,0,0,1-.5.5H2.5a.5.5,0,0,1-.5-.5v-13a.5.5,0,0,1,.5-.5h35a.5.5,0,0,1,.5.5Z" />
  <path fill="#2d3741" d="M12.1,22.63H9.93V28.5H8.41V22.63H6.27V21.39H12.1Z" />
  <path fill="#2d3741" d="M16.89,23.22V28.5H15.5l0-.55a1.52,1.52,0,0,1-.61.48,1.94,1.94,0,0,1-.82.17,1.71,1.71,0,0,1-1.29-.48,2.06,2.06,0,0,1-.47-1.49V23.22h1.47v3.42a.79.79,0,0,0,.19.58.77.77,0,0,0,.54.19,1,1,0,0,0,.94-.48V23.22Z" />
  <path fill="#2d3741" d="M21.07,23.14l.2,0,0,1.42a4.92,4.92,0,0,0-.52,0,1,1,0,0,0-1,.53V28.5H18.23V23.22h1.38l.05.64a1.46,1.46,0,0,1,.49-.55,1.22,1.22,0,0,1,.68-.19A1,1,0,0,1,21.07,23.14Z" />
  <path fill="#2d3741" d="M25.1,27.35v1.11a2.54,2.54,0,0,1-.86.14A1.39,1.39,0,0,1,22.68,27V24.29h-.74V23.22h.74V21.91h1.48v1.31h.89v1.07h-.89v2.55a.58.58,0,0,0,.12.43.57.57,0,0,0,.41.12A1.62,1.62,0,0,0,25.1,27.35Z" />
  <path fill="#2d3741" d="M26.18,28.5V21h1.48v7.5Z" />
  <path fill="#2d3741" d="M33.68,26.34H30.34a1.29,1.29,0,0,0,.41.78,1.24,1.24,0,0,0,.84.29,1.78,1.78,0,0,0,.7-.14,1.41,1.41,0,0,0,.56-.44l.71.82a2.14,2.14,0,0,1-.82.67,2.59,2.59,0,0,1-1.25.28,2.88,2.88,0,0,1-1.41-.34,2.32,2.32,0,0,1-.91-.93,2.58,2.58,0,0,1-.32-1.3v-.18a3.32,3.32,0,0,1,.29-1.41,2.26,2.26,0,0,1,.86-1,2.51,2.51,0,0,1,1.33-.35,2.39,2.39,0,0,1,1.28.32,2.07,2.07,0,0,1,.8.9,3.22,3.22,0,0,1,.27,1.37Zm-1.45-1.11a1,1,0,0,0-.23-.68.89.89,0,0,0-.68-.24.84.84,0,0,0-.66.27,1.64,1.64,0,0,0-.31.77h1.88Z" />
</svg>