<svg xmlns="http://www.w3.org/2000/svg" viewBox="0 0 200 140">
  <path fill="#2d3741" d="M198,137h-8.09l.76-8a9,9,0,0,0,1.66-17.65l.29-3.06a3,3,0,0,0-3-3.26H171V20a9,9,0,0,0-9-9H22a9,9,0,0,0-9,9v86a9,9,0,0,0,9,9H78a30.49,30.49,0,0,1-1,7.69A36,36,0,0,1,72.46,133H54a3,3,0,0,0-2.82,4H36a1,1,0,0,0,0,2H198a1,1,0,0,0,0-2Zm-68-4H113.54a36,36,0,0,1-4.5-10.31,30.49,30.49,0,0,1-1-7.69h53.64l2.07,22h-30.9a3,3,0,0,0-2.82-4Zm67-13a7,7,0,0,1-6.14,6.94l1.28-13.6A7,7,0,0,1,197,120Z" />
  <path fill="#2d3741" d="M8,137H2a1,1,0,0,0,0,2H8a1,1,0,0,0,0-2Z" />
  <path fill="#2d3741" d="M30,137H14a1,1,0,0,0,0,2H30a1,1,0,0,0,0-2Z" />
  <path fill="#2d3741" d="M180.44,100.88a1,1,0,0,0,1.42-1.17c-.69-2.29-1.47-4.88-1.27-6.82a5.43,5.43,0,0,1,.68-2.28A15.9,15.9,0,0,1,183,88.34l.17-.2a12,12,0,0,0,2.54-4.62,9.14,9.14,0,0,0-.33-5.65,12.59,12.59,0,0,0-6.74-6.78,1,1,0,0,0-1.09.17,1,1,0,0,0-.27,1.08l.26.7a22.13,22.13,0,0,1,1.65,6.13,4.93,4.93,0,0,1-.41,2.27,10.26,10.26,0,0,1-1.58,2.27l-.09.11a14.34,14.34,0,0,0-2.52,4.11,9.41,9.41,0,0,0-.29,5.58A11.76,11.76,0,0,0,180.44,100.88Z" />
  <path fill="#afc2db" d="M54,135a1,1,0,0,0,0,2h76a1,1,0,0,0,0-2Z" />
  <path fill="#afc2db" d="M74.83,133h36.34a38.93,38.93,0,0,1-4.06-9.79h0A32.81,32.81,0,0,1,106,115H80a32.81,32.81,0,0,1-1.12,8.21A38.93,38.93,0,0,1,74.83,133Z" />
  <path fill="#eeeff0" d="M161.72,106a3,3,0,0,1,2.21-1H169V23H15v83a7,7,0,0,0,7,7H161.39l-.44-4.73A3,3,0,0,1,161.72,106ZM60,31h6a1,1,0,0,1,0,2H60a1,1,0,0,1,0-2ZM34,31H56a1,1,0,0,1,0,2H34a1,1,0,0,1,0-2Zm117,71a1,1,0,0,1-1,1H34a1,1,0,0,1-1-1V80a1,1,0,0,1,1-1H150a1,1,0,0,1,1,1ZM33,76a1,1,0,0,1,1-1H50a1,1,0,0,1,0,2H34A1,1,0,0,1,33,76Zm20,0a1,1,0,0,1,1-1h6a1,1,0,0,1,0,2H54A1,1,0,0,1,53,76Zm98-10a1,1,0,0,1-1,1H34a1,1,0,0,1-1-1V58a1,1,0,0,1,1-1H150a1,1,0,0,1,1,1ZM33,54a1,1,0,0,1,1-1H52a1,1,0,0,1,0,2H34A1,1,0,0,1,33,54Zm22,0a1,1,0,0,1,1-1H68a1,1,0,0,1,0,2H56A1,1,0,0,1,55,54Zm16,0a1,1,0,0,1,1-1H86a1,1,0,0,1,0,2H72A1,1,0,0,1,71,54Zm80-10a1,1,0,0,1-1,1H34a1,1,0,0,1-1-1V36a1,1,0,0,1,1-1H150a1,1,0,0,1,1,1Z" />
  <path fill="#afc2db" d="M162,13H22a7,7,0,0,0-7,7v1H169V20A7,7,0,0,0,162,13ZM23,19a2,2,0,1,1,2-2A2,2,0,0,1,23,19Zm6,0a2,2,0,1,1,2-2A2,2,0,0,1,29,19Zm6,0a2,2,0,1,1,2-2A2,2,0,0,1,35,19Z" />
  <path fill="#fff" d="M180.08,74.24a17.41,17.41,0,0,1,1.1,4.88,6.85,6.85,0,0,1-.6,3.15,11.44,11.44,0,0,1-1.84,2.7l-.08.1a12.57,12.57,0,0,0-2.2,3.54,7.41,7.41,0,0,0-.23,4.39,9.13,9.13,0,0,0,3,4.64,14.66,14.66,0,0,1-.6-4.94,7.41,7.41,0,0,1,.94-3.07,17.33,17.33,0,0,1,1.93-2.58l.16-.18A10.21,10.21,0,0,0,183.76,83a7.13,7.13,0,0,0-.25-4.42A10,10,0,0,0,180.08,74.24Z" />
  <path fill="#6885ad" d="M165.73,137h22.18l2.72-28.92a1,1,0,0,0-1-1.08H164a1,1,0,0,0-.74.33,1,1,0,0,0-.26.76Z" />
  <rect fill="#fff" x="35" y="37" width="114" height="6" />
  <rect fill="#fff" x="35" y="59" width="114" height="6" />
  <rect fill="#fff" x="35" y="81" width="114" height="20" />
</svg>
