<svg id="outline_colors_new" data-name="outline colors new"
  xmlns="http://www.w3.org/2000/svg" viewBox="0 0 200 200">
  <path fill="#2d3741" d="M168.45,65.48A8.14,8.14,0,0,0,166,59.66L142.17,35.78l8.72-8.73A10,10,0,0,1,165,41.2a1,1,0,0,0,0,1.41,1,1,0,0,0,.7.29,1,1,0,0,0,.71-.29,12,12,0,0,0-17-17l-8.73,8.73L116.88,10.49a8.24,8.24,0,0,0-11.65,0l-.39.39A17,17,0,0,0,81.91,33.81l-1.1,1.1a8.23,8.23,0,0,0,0,11.64L99.65,65.39h0l5.75,5.75,2.07,2.07a16.38,16.38,0,0,0-14.19,5.07,14.15,14.15,0,0,0-3.43,7,14,14,0,0,0-6.75,3.2,14.49,14.49,0,0,0-.82,21.26A14.66,14.66,0,0,0,85.21,112H56.29A26.29,26.29,0,0,0,30,138.25V139a1,1,0,0,0,1,1h3v11a1,1,0,0,0,1,1h6v45a1,1,0,0,0,1,1H52a1,1,0,0,0,1-1V152h7v9.28a8.74,8.74,0,0,0,7,8.55V197a1,1,0,0,0,1,1h48a1,1,0,0,0,1-1V169.83a8.73,8.73,0,0,0,7-8.55V152h7v45a1,1,0,0,0,1,1h10a1,1,0,0,0,1-1V152h6a1,1,0,0,0,1-1V140h3a1,1,0,0,0,1-1v-.75A26.28,26.28,0,0,0,127.78,112H92.53a12.41,12.41,0,0,1-8.83-3.66A12.54,12.54,0,0,1,80,99a12.38,12.38,0,0,1,4.36-9,11.9,11.9,0,0,1,5.23-2.63,14.89,14.89,0,0,0,3.25,9.87,11.58,11.58,0,0,0,2.75,2.5,6.1,6.1,0,0,0,8.15-1.25,6.21,6.21,0,0,0-.15-8.38L103.5,90a15.17,15.17,0,0,0-11.57-4.91,12.1,12.1,0,0,1,2.83-5.46c4.63-5.11,11.9-5.37,15.72-3.4l.67.67h0l9.8,9.8h0l9,9a8.23,8.23,0,0,0,11.64,0l1.1-1.09a17,17,0,0,0,22.93-22.94l.39-.39A8.14,8.14,0,0,0,168.45,65.48Zm-66.4,25.88.11.12a4.19,4.19,0,0,1,.09,5.73,4.06,4.06,0,0,1-5.53.87A9.94,9.94,0,0,1,94.44,96a12.93,12.93,0,0,1-2.8-8.91A13.3,13.3,0,0,1,102.05,91.36Z"/>
  <path fill="#2d3741" d="M61,73a1,1,0,0,0,1-1V70a1,1,0,0,0-2,0v2A1,1,0,0,0,61,73Z"/>
  <path fill="#2d3741" d="M68,80h2a1,1,0,0,0,0-2H68a1,1,0,0,0,0,2Z"/>
  <path fill="#2d3741" d="M61,89a1,1,0,0,0,1-1V86a1,1,0,0,0-2,0v2A1,1,0,0,0,61,89Z"/>
  <path fill="#2d3741" d="M52,80h2a1,1,0,0,0,0-2H52a1,1,0,0,0,0,2Z"/>
  <path fill="#2d3741" d="M137.79,5.17a1,1,0,0,0,.71.29,1,1,0,0,0,.71-1.7l-2.47-2.47a1,1,0,0,0-1.42,0,1,1,0,0,0,0,1.41Z"/>
  <path fill="#2d3741" d="M145.57,5.46a1,1,0,0,0,.71-.29l2.47-2.47a1,1,0,0,0,0-1.41,1,1,0,0,0-1.42,0l-2.47,2.47a1,1,0,0,0,0,1.41A1,1,0,0,0,145.57,5.46Z"/>
  <path fill="#2d3741" d="M147.33,14.71A1,1,0,0,0,148,15a1,1,0,0,0,.71-1.7l-2.47-2.47a1,1,0,0,0-1.42,0,1,1,0,0,0,0,1.41Z"/>
  <path fill="#2d3741" d="M136,15a1,1,0,0,0,.71-.29l2.47-2.47a1,1,0,0,0,0-1.41,1,1,0,0,0-1.42,0l-2.47,2.47a1,1,0,0,0,0,1.41A1,1,0,0,0,136,15Z"/>
  <rect fill="#6885ad" x="43.03" y="152" width="8" height="44"/>
  <rect fill="#d5e1f2" x="36.03" y="140" width="24" height="10"/>
  <path fill="#afc2db" d="M56.29,114A24.27,24.27,0,0,0,32,138H60V114ZM48,132a3,3,0,1,1,3-3A3,3,0,0,1,48,132Z"/>
  <rect fill="#d5e1f2" x="124.03" y="140" width="24" height="10"/>
  <path fill="#afc2db" d="M127.78,114H124v24h28A24.27,24.27,0,0,0,127.78,114ZM136,132a3,3,0,1,1,3-3A3,3,0,0,1,136,132Z"/>
  <rect fill="#6885ad" x="133.03" y="152" width="8" height="44"/>
  <path fill="#6885ad" d="M83.39,32.34a15,15,0,0,1,20-20Z"/>
  <path fill="#6885ad" d="M144.2,93.15a15,15,0,0,0,20-20Z"/>
  <path fill="#fff" d="M113.53,24.5a9,9,0,1,0,6.37,2.64A9,9,0,0,0,113.53,24.5Z"/>
  <path fill="#2d3741" d="M113.53,38a4.48,4.48,0,0,1-3.18-1.32,1,1,0,0,1,0-1.41,1,1,0,0,1,1.42,0,2.5,2.5,0,0,0,3.53,0,1,1,0,0,1,1.42,0,1,1,0,0,1,0,1.41A4.49,4.49,0,0,1,113.53,38Z"/>
  <rect fill="#fff" x="94.69" y="49.6" width="10" height="11.87" transform="translate(-10.07 86.76) rotate(-45)"/>
  <path fill="#d5e1f2" d="M164.63,61.07,115.46,11.91a6.23,6.23,0,0,0-8.82,0l-.91.91L83.85,34.7l-1.62,1.62a6.25,6.25,0,0,0,0,8.82l8.32,8.32,7.78-7.78a1,1,0,0,1,1.41,0l31.11,31.11a1,1,0,0,1,0,1.42L123.07,86l8.32,8.32a6.25,6.25,0,0,0,8.82,0l24.42-24.42a6.25,6.25,0,0,0,0-8.82ZM121.31,41.28a11,11,0,1,1,0-15.56A11,11,0,0,1,121.31,41.28Zm28.81,21h-7.84v7.84a1,1,0,0,1-2,0V62.25h-7.83a1,1,0,0,1,0-2h7.83V52.41a1,1,0,0,1,2,0v7.84h7.84a1,1,0,0,1,0,2Z"/>
  <polygon fill="#fff" points="111.85 74.77 118.92 67.69 108.84 57.61 101.77 64.68 106.81 69.72 111.85 74.77"/>
  <rect fill="#fff" x="116" y="70.91" width="10" height="11.87" transform="translate(-18.9 108.07) rotate(-45)"/>
  <path fill="#afc2db" d="M69,170v26h46V170Zm33,18H82a1,1,0,1,1,0-2h20a1,1,0,0,1,0,2Zm0-8H82a1,1,0,1,1,0-2h20a1,1,0,0,1,0,2Z"/>
  <path fill="#d5e1f2" d="M62,114v47.28A6.73,6.73,0,0,0,68.75,168h46.57a6.72,6.72,0,0,0,6.71-6.72V114Zm29,12a1,1,0,0,1,2,0v13a1,1,0,0,1-2,0Zm-10,0a1,1,0,0,1,2,0v13a1,1,0,0,1-2,0Zm-8,13a1,1,0,0,1-2,0V126a1,1,0,0,1,2,0Zm29,11H82a1,1,0,0,1,0-2h20a1,1,0,0,1,0,2Zm1-11a1,1,0,0,1-2,0V126a1,1,0,0,1,2,0Zm10,0a1,1,0,0,1-2,0V126a1,1,0,0,1,2,0Z"/>
</svg>