<svg id="ehzd3rupcve81" xmlns="http://www.w3.org/2000/svg" xmlns:xlink="http://www.w3.org/1999/xlink" viewBox="0 0 400 400" shape-rendering="geometricPrecision" text-rendering="geometricPrecision" width="400" height="400"><style><![CDATA[#ehzd3rupcve819_to {animation: ehzd3rupcve819_to__to 4000ms linear infinite normal forwards}@keyframes ehzd3rupcve819_to__to { 0% {transform: translate(0px,0px)} 12.500000% {transform: translate(0px,0px);animation-timing-function: cubic-bezier(0.420000,0,0.580000,1)} 25% {transform: translate(-6px,2px);animation-timing-function: cubic-bezier(0.420000,0,0.580000,1)} 50% {transform: translate(-6px,2px);animation-timing-function: cubic-bezier(0.420000,0,0.580000,1)} 62.500000% {transform: translate(-1px,-7px);animation-timing-function: cubic-bezier(0.420000,0,0.580000,1)} 75% {transform: translate(-1px,-7px);animation-timing-function: cubic-bezier(0.420000,0,0.580000,1)} 87.500000% {transform: translate(0px,0px)} 100% {transform: translate(0px,0px)} }]]></style><g id="ehzd3rupcve82"><rect id="ehzd3rupcve83" width="300" height="180" rx="2" ry="0" transform="matrix(1 0 0 1 92 124)" fill="rgb(255,255,255)" stroke="none" stroke-width="1"/><path id="ehzd3rupcve84" d="M90,116L364,116L364,100C364,97.790861,362.209139,96,360,96L68,96C65.790861,96,64,97.790861,64,100L64,272C64,274.209139,65.790861,276,68,276L84,276L84,122C84,118.686292,86.686292,116,90,116Z" fill="rgb(255,255,255)" stroke="none" stroke-width="1"/><path id="ehzd3rupcve85" d="M62,88L336,88L336,72C336,69.790861,334.209139,68,332,68L40,68C37.790861,68,36,69.790861,36,72L36,244C36,246.209139,37.790861,248,40,248L56,248L56,94C56,90.686292,58.686292,88,62,88Z" fill="rgb(255,255,255)" stroke="none" stroke-width="1"/><path id="ehzd3rupcve86" d="M34,60L308,60L308,44C308,41.790861,306.209139,40,304,40L12,40C9.790861,40,8,41.790861,8,44L8,216C8,218.209139,9.790861,220,12,220L28,220L28,66C28,62.686292,30.686292,60,34,60Z" fill="rgb(255,255,255)" stroke="none" stroke-width="1"/></g><g id="ehzd3rupcve87"><polyline id="ehzd3rupcve88" points="300.030000,255.300000 342.450000,297.720000 329.720000,310.450000 287.300000,268.030000" fill="rgb(255,255,255)" stroke="rgb(45,55,65)" stroke-width="3" stroke-miterlimit="10"/><circle id="ehzd3rupcve89" r="62" transform="matrix(1 0 0 1 249.81999999999999 217.81999999999999)" fill="rgb(150,155,160)" stroke="rgb(45,55,65)" stroke-width="3" stroke-miterlimit="10"/><circle id="ehzd3rupcve810" r="49" transform="matrix(1 0 0 1 249.81999999999999 217.81999999999999)" fill="rgb(255,255,255)" stroke="none" stroke-width="1"/><path id="ehzd3rupcve811" d="M214.470000,236.210000C207.153386,228.916701,202.291341,219.524671,200.560000,209.340000C197.156307,228.971210,205.732599,248.749589,222.389359,259.682195C239.046119,270.614801,260.603881,270.614801,277.260641,259.682195C293.917401,248.749589,302.493693,228.971210,299.090000,209.340000C295.917139,227.745758,282.750363,242.848646,264.949036,248.501230C247.147708,254.153814,227.680005,249.413588,214.470000,236.210000Z" fill="rgb(213,215,217)" stroke="none" stroke-width="1"/><rect id="ehzd3rupcve812" width="28" height="108" rx="4" ry="0" transform="matrix(0.70710700000000 -0.70710700000000 0.70710700000000 0.70710700000000 296.48501798000007 284.28829600000006)" fill="rgb(150,155,160)" stroke="rgb(45,55,65)" stroke-width="3" stroke-miterlimit="10"/><path id="ehzd3rupcve813" d="M257.790000,242.270000C260.976557,235.612900,266.516374,230.372340,273.340000,227.560000" fill="none" stroke="rgb(45,55,65)" stroke-width="3" stroke-linecap="round" stroke-miterlimit="10"/><line id="ehzd3rupcve814" x1="309.220000" y1="297.020000" x2="329.020000" y2="277.220000" fill="none" stroke="rgb(45,55,65)" stroke-width="3" stroke-miterlimit="10"/><circle id="ehzd3rupcve815" r="48.990000" transform="matrix(1 0 0 1 249.94999999999999 217.77000000000001)" fill="none" stroke="rgb(45,55,65)" stroke-width="3" stroke-miterlimit="10"/></g><g id="ehzd3rupcve816"><circle id="ehzd3rupcve817" r="12" transform="matrix(1 0 0 1 230.50999999999999 218.24000000000001)" fill="none" stroke="rgb(45,55,65)" stroke-width="3" stroke-miterlimit="10"/><circle id="ehzd3rupcve818" r="12" transform="matrix(1 0 0 1 263.76999999999998 204.47000000000000)" fill="none" stroke="rgb(45,55,65)" stroke-width="3" stroke-miterlimit="10"/></g><g id="ehzd3rupcve819_to" transform="translate(0,0)"><g id="ehzd3rupcve819" transform="translate(0,0)"><circle id="ehzd3rupcve820" r="6" transform="matrix(1 0 0 1 230.50999999999999 218.24000000000001)" fill="rgb(45,55,65)" stroke="none" stroke-width="1"/><circle id="ehzd3rupcve821" r="6" transform="matrix(1 0 0 1 263.76999999999998 204.47000000000000)" fill="rgb(45,55,65)" stroke="none" stroke-width="1"/></g></g></svg>