<?xml version="1.0" encoding="utf-8"?>
<svg version="1.1" id="Layer_1" xmlns="http://www.w3.org/2000/svg" xmlns:xlink="http://www.w3.org/1999/xlink" x="0px" y="0px"
	 viewBox="0 0 400 250" style="enable-background:new 0 0 400 250;" xml:space="preserve">
<g>
	<path style="fill:#6C737A;" d="M215.1,55.5c-1.4,0.8-2.7,1.8-3.7,3c-1,1.3-1.8,2.7-2.2,4.2c-0.4,1.5-0.6,3.2-0.4,4.8
		c0.2,1.6,0.7,3.1,1.5,4.5s1.9,2.6,3.2,3.6s2.8,1.7,4.3,2.1c1.6,0.4,3.2,0.5,4.8,0.2c1.6-0.2,3.1-0.8,4.5-1.7L359,0h-47.9
		L215.1,55.5z"/>
	<path style="fill:#D5D7D9;" d="M310.5,55.8c-2.8,1.6-4.8,4.2-5.6,7.3c-0.8,3.1-0.4,6.4,1.2,9.1c1.6,2.8,4.2,4.8,7.3,5.6
		c3.1,0.8,6.4,0.4,9.1-1.2L400,32.2V4.5L310.5,55.8z"/>
	<path style="fill:#D5D7D9;" d="M273.6,132.6c-1.4,0.8-2.7,1.8-3.7,3c-1,1.3-1.8,2.7-2.2,4.2c-0.4,1.5-0.6,3.2-0.4,4.8
		s0.7,3.1,1.5,4.5s1.9,2.6,3.2,3.6c1.3,1,2.8,1.7,4.3,2.1c1.6,0.4,3.2,0.5,4.8,0.2c1.6-0.2,3.1-0.8,4.5-1.7L400,87.2V59.4
		L273.6,132.6z"/>
	<path style="fill:#6C737A;" d="M341,149.6c-1.4,0.8-2.7,1.8-3.7,3c-1,1.3-1.8,2.7-2.2,4.3c-0.4,1.6-0.6,3.2-0.4,4.8
		s0.7,3.2,1.5,4.6c0.8,1.4,1.9,2.6,3.2,3.6c1.3,1,2.8,1.7,4.3,2.1c1.6,0.4,3.2,0.4,4.8,0.2c1.6-0.3,3.1-0.8,4.5-1.7l47-27.2v-27.7
		L341,149.6z"/>
	<path style="fill:#6C737A;" d="M219.6,11c1.1,1.8,2.6,3.3,4.4,4.4c1.8,1.1,3.9,1.6,6,1.6s4.2-0.5,6-1.6L262.9,0h-43.8
		c-0.8,1.7-1.2,3.6-1.1,5.6C218.1,7.5,218.6,9.3,219.6,11z"/>
	<path style="fill:#6C737A;" d="M278.8,74.1l-11.3,6.5c-2.8,1.6-4.8,4.2-5.6,7.3c-0.8,3.1-0.4,6.4,1.2,9.1c1.6,2.8,4.2,4.8,7.3,5.6
		c3.1,0.8,6.4,0.4,9.1-1.2l11.3-6.5c1.4-0.8,2.6-1.8,3.6-3.1c1-1.3,1.7-2.7,2.1-4.2s0.5-3.1,0.3-4.7s-0.7-3.1-1.5-4.5
		s-1.9-2.6-3.1-3.6c-1.3-1-2.7-1.7-4.3-2.1c-1.5-0.4-3.2-0.5-4.7-0.3C281.7,72.8,280.2,73.3,278.8,74.1z"/>
	<path style="fill:#D5D7D9;" d="M109.4,19.5c1.6,2.8,4.2,4.8,7.3,5.6c3.1,0.8,6.3,0.4,9.1-1.2L167.2,0h-48l-5.4,3.1
		c-2.8,1.6-4.8,4.2-5.6,7.3S107.8,16.8,109.4,19.5z"/>
	<path style="fill:#6C737A;" d="M5.5,24.1c1.6,2.8,4.2,4.8,7.3,5.6s6.3,0.4,9.1-1.2L71.2,0h-48L9.9,7.7c-1.4,0.8-2.6,1.8-3.5,3.1
		c-1,1.3-1.7,2.7-2.1,4.2S3.8,18.1,4,19.7C4.2,21.2,4.7,22.7,5.5,24.1z"/>
	<path style="fill:#6C737A;" d="M193,12.6l-66.6,38.7c-1.4,0.7-2.7,1.8-3.8,3c-1,1.3-1.8,2.7-2.3,4.3s-0.6,3.2-0.4,4.8
		s0.7,3.2,1.5,4.6s1.9,2.6,3.2,3.6c1.3,1,2.8,1.7,4.4,2.1c1.6,0.4,3.2,0.4,4.8,0.2c1.6-0.3,3.1-0.9,4.5-1.8L205,33.4
		c1.4-0.8,2.7-1.8,3.7-3c1-1.3,1.8-2.7,2.2-4.3c0.5-1.6,0.6-3.2,0.4-4.8c-0.2-1.6-0.7-3.2-1.5-4.6s-1.9-2.6-3.2-3.6
		s-2.8-1.7-4.3-2.1c-1.6-0.4-3.2-0.4-4.8-0.2C195.9,11.2,194.4,11.8,193,12.6z"/>
	<path style="fill:#D5D7D9;" d="M316.8,218.5c-1.4,0.8-2.7,1.8-3.7,3c-1,1.3-1.8,2.7-2.2,4.3c-0.5,1.6-0.6,3.2-0.4,4.8
		s0.7,3.2,1.5,4.6c0.8,1.4,1.9,2.6,3.2,3.6c1.3,1,2.8,1.7,4.3,2.1s3.2,0.4,4.8,0.2c1.6-0.3,3.1-0.8,4.5-1.7L400,198v-27.8
		L316.8,218.5z"/>
</g>
</svg>
