<svg id="crop" xmlns="http://www.w3.org/2000/svg" viewBox="0 0 165 218">
	<title>
		illustration-grey-lowe-right
	</title>
	<path fill="#d5d7d9" d="M156.14,171.21,107,199.6A10.76,10.76,0,0,1,96.22,181l49.17-28.39a10.75,10.75,0,0,1,10.75,18.63Z" />
	<path fill="#6c737a" d="M78.53,203.55a10.75,10.75,0,0,0-14.69-3.94L32,218H75A10.75,10.75,0,0,0,78.53,203.55Z" />
	<path fill="#d5d7d9" d="M74,106.88A10.76,10.76,0,0,0,59.25,103L0,137.16V162l70-40.42A10.77,10.77,0,0,0,74,106.88Z" />
	<path fill="#6c737a" d="M161.75,205.42a10.75,10.75,0,0,0-14.69-3.94L118.45,218h42A10.74,10.74,0,0,0,161.75,205.42Z" />
	<path fill="#6c737a" d="M20.46,88.09a10.76,10.76,0,0,0-14.7-3.94L0,87.48v24.84l16.52-9.54A10.76,10.76,0,0,0,20.46,88.09Z" />
	<path fill="#d5d7d9" d="M40.94,175.62a10.76,10.76,0,0,0-14.69-3.94L0,186.84v24.84l37-21.37A10.75,10.75,0,0,0,40.94,175.62Z" />
	<path fill="#d5d7d9" d="M36.35,78.91a10.76,10.76,0,0,1,3.94-14.69L61.7,51.86A10.75,10.75,0,1,1,72.45,70.49L51.05,82.85A10.77,10.77,0,0,1,36.35,78.91Z" />
	<path fill="#d5d7d9" d="M75.18,6.81A10.76,10.76,0,0,0,60.49,2.87L0,37.8V62.63L71.24,21.5A10.75,10.75,0,0,0,75.18,6.81Z" />
</svg>
