<svg id="crop" xmlns="http://www.w3.org/2000/svg" viewBox="0 0 369 395">
	<title>
		illustration-grey-upper-right
	</title>
	<path fill="#d5d7d9" d="M216.77,223.29l49.16-28.38a10.76,10.76,0,1,1,10.76,18.63l-49.16,28.38a10.76,10.76,0,1,1-10.76-18.63Z" />
	<path fill="#d5d7d9" d="M307.29,171a10.76,10.76,0,1,0,10.76,18.63L369,160.24V135.4Z" />
	<path fill="#d5d7d9" d="M302.9,272.92a10.76,10.76,0,0,0,10.76,18.63L369,259.6V234.76Z" />
	<path fill="#6c737a" d="M246.27,156.57A10.76,10.76,0,1,0,257,175.21l112-64.65V85.72Z" />
	<path fill="#6c737a" d="M356.4,291.72a10.75,10.75,0,1,0,10.75,18.63l1.85-1.07V284.44Z" />
	<path fill="#d5d7d9" d="M325.25,61.29A10.76,10.76,0,0,0,336,79.92l33-19V36Z" />
	<path fill="#d5d7d9" d="M335.91,204.19a10.75,10.75,0,1,0,10.75,18.63L369,209.92V185.08Z" />
	<path fill="#d5d7d9" d="M294.54,91.45a10.76,10.76,0,0,1-3.94,14.69l-61.69,35.62a10.76,10.76,0,1,1-10.76-18.63l61.69-35.62A10.76,10.76,0,0,1,294.54,91.45Z" />
	<path fill="#6c737a" d="M196.71,147.93a10.76,10.76,0,0,1-3.94,14.69l-13.35,7.71a10.75,10.75,0,1,1-10.75-18.63L182,144A10.77,10.77,0,0,1,196.71,147.93Z" />
	<path fill="#d5d7d9" d="M336.56,315.59a10.77,10.77,0,0,1-3.94,14.7l-21.4,12.35A10.76,10.76,0,1,1,300.46,324l21.41-12.35A10.76,10.76,0,0,1,336.56,315.59Z" />
	<path fill="#6c737a" d="M259.49,0,156.35,59.55A10.75,10.75,0,1,0,167.1,78.18L280.44,12.74A10.75,10.75,0,0,0,285.26,0Z" />
	<path fill="#d5d7d9" d="M120.08,80.49a10.75,10.75,0,0,1,10.75,18.63L91.22,122a10.76,10.76,0,0,1-10.76-18.63Z" />
	<path fill="#6c737a" d="M3.53,0a10.75,10.75,0,0,0,14.4,15.16L44.19,0Z" />
	<path fill="#d5d7d9" d="M89.35,0a10.75,10.75,0,0,0,14.24,15.39L130.24,0Z" />
	<path fill="#d5d7d9" d="M173.27,0,86.57,50.05A10.76,10.76,0,1,0,97.33,68.69l113-65.27A10.68,10.68,0,0,0,214,0Z" />
	<path fill="#d5d7d9" d="M301.67,373a10.76,10.76,0,1,0,10.76,18.63L369,359V334.13Z" />
	<path fill="#d5d7d9" d="M246.06,57.33A10.76,10.76,0,1,1,256.82,76L153.34,135.71a10.76,10.76,0,0,1-10.76-18.63Z" />
	<path fill="#6c737a" d="M345.37,0l-55.3,31.93a10.75,10.75,0,1,0,10.75,18.63L369,11.2V0Z" />
</svg>
