<svg xmlns="http://www.w3.org/2000/svg" viewBox="0 0 200 140">
  <path fill="#2d3741" d="M162,137H131.05a8,8,0,0,0,2.72-6l0-32.3L159.1,48l12.61-9h3.82a3,3,0,0,0,2.22,1h18a3,3,0,0,0,3-3V35a3,3,0,0,0-3-3h-18a3,3,0,0,0-2.22,1h-4.78a3,3,0,0,0-1.74.56l-14,10a2.94,2.94,0,0,0-.94,1.1L150.9,51H145V35a4,4,0,0,0-4-4h-6.56a3.91,3.91,0,0,0,.56-2V5a4,4,0,0,0-4-4H99a4,4,0,0,0-4,4V29a3.91,3.91,0,0,0,.56,2H89.44A3.91,3.91,0,0,0,90,29V5a4,4,0,0,0-4-4H54a4,4,0,0,0-4,4V29a3.91,3.91,0,0,0,.56,2H33a4,4,0,0,0-4,4V51H17a4,4,0,0,0,0,8h.06A58.73,58.73,0,0,0,62.54,96.24a7.81,7.81,0,0,0-1.32,1.05l-6.61,6.1A20,20,0,1,0,33.48,137H2a1,1,0,0,0,0,2H162a1,1,0,0,0,0-2ZM127.94,97a3.11,3.11,0,0,0-.19,1l0,33a2,2,0,0,1-2,2,1.91,1.91,0,0,1-1.37-.55L89.68,97.3l-.34-.3ZM50.8,137a20,20,0,0,0,7.9-29.21l6.63-6.13.08-.08a2,2,0,0,1,1.4-.58H84.07a1.94,1.94,0,0,1,1.37.55l34.73,35.15.34.3Z" />
  <path fill="#2d3741" d="M198,137h-8a1,1,0,0,0,0,2h8a1,1,0,0,0,0-2Z" />
  <path fill="#2d3741" d="M184,137H168a1,1,0,0,0,0,2h16a1,1,0,0,0,0-2Z" />
  <path fill="#afc2db" d="M37,50a1,1,0,0,0-1,1h2A1,1,0,0,0,37,50Z" />
  <path fill="#afc2db" d="M61,50a1,1,0,0,0-1,1h2A1,1,0,0,0,61,50Z" />
  <path fill="#afc2db" d="M65,33H33a2,2,0,0,0-2,2V51h3a3,3,0,0,1,6,0h4V50H43a1,1,0,0,1,0-2h2a1,1,0,0,1,1,1v2h6V50H51a1,1,0,0,1,0-2h2a1,1,0,0,1,1,1v2h4a3,3,0,0,1,6,0h3V35A2,2,0,0,0,65,33ZM39,46H35a1,1,0,0,1,0-2h1V38H35a1,1,0,0,1,0-2h2a1,1,0,0,1,1,1v7h1a1,1,0,0,1,0,2Zm8,0H43a1,1,0,0,1,0-2h1V38H43a1,1,0,0,1,0-2h2a1,1,0,0,1,1,1v7h1a1,1,0,0,1,0,2Zm8,0H51a1,1,0,0,1,0-2h1V38H51a1,1,0,0,1,0-2h2a1,1,0,0,1,1,1v7h1a1,1,0,0,1,0,2Zm8,0H59a1,1,0,0,1,0-2h1V38H59a1,1,0,0,1,0-2h2a1,1,0,0,1,1,1v7h1a1,1,0,0,1,0,2Z" />
  <path fill="#afc2db" d="M113,38a1,1,0,0,0-1,1v4a1,1,0,0,0,2,0V39A1,1,0,0,0,113,38Z" />
  <path fill="#afc2db" d="M137,38a1,1,0,0,0-1,1v4a1,1,0,0,0,2,0V39A1,1,0,0,0,137,38Z" />
  <path fill="#afc2db" d="M141,33H109a2,2,0,0,0-2,2V51h5V50h-1a1,1,0,0,1,0-2h2a1,1,0,0,1,1,1v2h6V50h-1a1,1,0,0,1,0-2h2a1,1,0,0,1,1,1v2h6V50h-1a1,1,0,0,1,0-2h2a1,1,0,0,1,1,1v2h6V50h-1a1,1,0,0,1,0-2h2a1,1,0,0,1,1,1v2h5V35A2,2,0,0,0,141,33ZM116,43a3,3,0,0,1-6,0V39a3,3,0,0,1,6,0Zm7,3h-4a1,1,0,0,1,0-2h1V38h-1a1,1,0,0,1,0-2h2a1,1,0,0,1,1,1v7h1a1,1,0,0,1,0,2Zm8,0h-4a1,1,0,0,1,0-2h1V38h-1a1,1,0,0,1,0-2h2a1,1,0,0,1,1,1v7h1a1,1,0,0,1,0,2Zm9-3a3,3,0,0,1-6,0V39a3,3,0,0,1,6,0Z" />
  <path fill="#afc2db" d="M74,20a1,1,0,0,0-1,1v4a1,1,0,0,0,2,0V21A1,1,0,0,0,74,20Z" />
  <path fill="#afc2db" d="M82,8a1,1,0,0,0-1,1v4a1,1,0,0,0,2,0V9A1,1,0,0,0,82,8Z" />
  <path fill="#afc2db" d="M86,3H54a2,2,0,0,0-2,2V29a2,2,0,0,0,2,2H86a2,2,0,0,0,2-2V5A2,2,0,0,0,86,3ZM60,28H56a1,1,0,0,1,0-2h1V20H56a1,1,0,0,1,0-2h2a1,1,0,0,1,1,1v7h1a1,1,0,0,1,0,2Zm0-12H56a1,1,0,0,1,0-2h1V8H56a1,1,0,0,1,0-2h2a1,1,0,0,1,1,1v7h1a1,1,0,0,1,0,2Zm8,12H64a1,1,0,0,1,0-2h1V20H64a1,1,0,0,1,0-2h2a1,1,0,0,1,1,1v7h1a1,1,0,0,1,0,2Zm0-12H64a1,1,0,0,1,0-2h1V8H64a1,1,0,0,1,0-2h2a1,1,0,0,1,1,1v7h1a1,1,0,0,1,0,2Zm9,9a3,3,0,0,1-6,0V21a3,3,0,0,1,6,0Zm-1-9H72a1,1,0,0,1,0-2h1V8H72a1,1,0,0,1,0-2h2a1,1,0,0,1,1,1v7h1a1,1,0,0,1,0,2Zm8,12H80a1,1,0,0,1,0-2h1V20H80a1,1,0,0,1,0-2h2a1,1,0,0,1,1,1v7h1a1,1,0,0,1,0,2Zm1-15a3,3,0,0,1-6,0V9a3,3,0,0,1,6,0Z" />
  <path fill="#afc2db" d="M83,38a1,1,0,0,0-1,1v4a1,1,0,0,0,2,0V39A1,1,0,0,0,83,38Z" />
  <path fill="#afc2db" d="M75,50a1,1,0,0,0-1,1h2A1,1,0,0,0,75,50Z" />
  <path fill="#afc2db" d="M75,38a1,1,0,0,0-1,1v4a1,1,0,0,0,2,0V39A1,1,0,0,0,75,38Z" />
  <path fill="#afc2db" d="M91,50a1,1,0,0,0-1,1h2A1,1,0,0,0,91,50Z" />
  <path fill="#afc2db" d="M99,38a1,1,0,0,0-1,1v4a1,1,0,0,0,2,0V39A1,1,0,0,0,99,38Z" />
  <path fill="#afc2db" d="M103,33H71a2,2,0,0,0-2,2V51h3a3,3,0,0,1,6,0h4V50H81a1,1,0,0,1,0-2h2a1,1,0,0,1,1,1v2h4a3,3,0,0,1,6,0h4V50H97a1,1,0,0,1,0-2h2a1,1,0,0,1,1,1v2h5V35A2,2,0,0,0,103,33ZM78,43a3,3,0,0,1-6,0V39a3,3,0,0,1,6,0Zm8,0a3,3,0,0,1-6,0V39a3,3,0,0,1,6,0Zm7,3H89a1,1,0,0,1,0-2h1V38H89a1,1,0,0,1,0-2h2a1,1,0,0,1,1,1v7h1a1,1,0,0,1,0,2Zm9-3a3,3,0,0,1-6,0V39a3,3,0,0,1,6,0Z" />
  <path fill="#afc2db" d="M131,3H99a2,2,0,0,0-2,2V29a2,2,0,0,0,2,2h32a2,2,0,0,0,2-2V5A2,2,0,0,0,131,3ZM106,25a3,3,0,0,1-6,0V21a3,3,0,0,1,6,0Zm0-12a3,3,0,0,1-6,0V9a3,3,0,0,1,6,0Zm7,15h-4a1,1,0,0,1,0-2h1V20h-1a1,1,0,0,1,0-2h2a1,1,0,0,1,1,1v7h1a1,1,0,0,1,0,2Zm1-15a3,3,0,0,1-6,0V9a3,3,0,0,1,6,0Zm8,12a3,3,0,0,1-6,0V21a3,3,0,0,1,6,0Zm-1-9h-4a1,1,0,0,1,0-2h1V8h-1a1,1,0,0,1,0-2h2a1,1,0,0,1,1,1v7h1a1,1,0,0,1,0,2Zm8,12h-4a1,1,0,0,1,0-2h1V20h-1a1,1,0,0,1,0-2h2a1,1,0,0,1,1,1v7h1a1,1,0,0,1,0,2Zm1-15a3,3,0,0,1-6,0V9a3,3,0,0,1,6,0Z" />
  <path fill="#afc2db" d="M103,20a1,1,0,0,0-1,1v4a1,1,0,0,0,2,0V21A1,1,0,0,0,103,20Z" />
  <path fill="#afc2db" d="M119,20a1,1,0,0,0-1,1v4a1,1,0,0,0,2,0V21A1,1,0,0,0,119,20Z" />
  <path fill="#afc2db" d="M111,8a1,1,0,0,0-1,1v4a1,1,0,0,0,2,0V9A1,1,0,0,0,111,8Z" />
  <path fill="#afc2db" d="M103,8a1,1,0,0,0-1,1v4a1,1,0,0,0,2,0V9A1,1,0,0,0,103,8Z" />
  <path fill="#afc2db" d="M127,8a1,1,0,0,0-1,1v4a1,1,0,0,0,2,0V9A1,1,0,0,0,127,8Z" />
  <path fill="#eeeff0" d="M15,55a2,2,0,0,1,2-2H149.9l-2,4H17A2,2,0,0,1,15,55Z" />
  <path fill="#eeeff0" d="M19.19,59H146.8l-18,36H71.87A56.7,56.7,0,0,1,19.19,59Z" />
  <path fill="#6885ad" d="M60.14,119a18.07,18.07,0,1,1-7-14.23L46.33,111a9,9,0,1,0,4.08,4.41l6.79-6.28A17.82,17.82,0,0,1,60.14,119Z" />
  <path fill="#fff" d="M49.14,119a7,7,0,1,1-7-7,6.9,6.9,0,0,1,2.61.51l-4.64,4.29a3,3,0,1,0,4.07,4.4l4.64-4.29A6.87,6.87,0,0,1,49.14,119Z" />
  <rect fill="#6885ad" x="176.75" y="34" width="20" height="4" rx="1" />
  <path fill="#fff" d="M170.75,35a1,1,0,0,0-.58.19l-14,10a1,1,0,0,0-.31.36l-26,52a1,1,0,0,0-.11.45l0,33a4,4,0,0,1-6.78,2.84L88.27,98.73A5.91,5.91,0,0,0,84.07,97H66.81a5.9,5.9,0,0,0-4.2,1.73L41.46,118.27a1,1,0,0,0,1.36,1.46L64,100.17A3.92,3.92,0,0,1,66.81,99H84.07a4,4,0,0,1,2.79,1.14l34.72,35.13A6,6,0,0,0,131.77,131l0-32.78,25.78-51.57L171.07,37h3.68V35Z" />
</svg>
