<svg id="outline_colors_new" data-name="outline colors new" xmlns="http://www.w3.org/2000/svg" viewBox="0 0 200 200">
	<path fill="#2d3741" d="M157.08,71.12a17,17,0,1,0-12,5l0,18h-9a1,1,0,0,0-1,1v9.79a25.84,25.84,0,0,0-15-4.81h-.3a8.44,8.44,0,0,1,1.35-2.59l13.77-17.78a1,1,0,0,0-.79-1.61l-17.3,0a29.86,29.86,0,0,0,5.32-17V58.63a4.93,4.93,0,0,0,1.54-1,5,5,0,0,0,1.47-3.53v-6a5,5,0,0,0-1.46-3.54,5.06,5.06,0,0,0-1.53-1V38.06h8a1,1,0,0,0,0-2h-8.2l-2.42-11.22-4.75-22a1,1,0,0,0-1-.79L101.45,2h0a1,1,0,0,0-.71.3l-8.62,8.59L83.53,2.31a1,1,0,0,0-.71-.3H70.51a1,1,0,0,0-1,.79L64.72,24.84,62.29,36H51.09a1,1,0,0,0,0,2h11v9h-3a7,7,0,0,0-7,7,1,1,0,0,0,1,1h0a1,1,0,0,0,1-1,5,5,0,0,1,5-5h3V61a29.84,29.84,0,0,0,5.28,17l-16.3,0h0a1,1,0,0,0-.9.56,1,1,0,0,0,.11,1L64,97.4A8.44,8.44,0,0,1,65.33,100H64a26,26,0,0,0-26,26l-.07,71a1,1,0,0,0,1,1l40,0,26,0,20,0h0a1,1,0,0,0,1-1l0-29h10a21,21,0,0,0,21-21l0-33v-9.78A10.21,10.21,0,0,0,147,94.1l0-18.14A16.91,16.91,0,0,0,157.08,71.12Z" />
	<path fill="#d5e1f2" d="M145.07,44.08a15,15,0,0,0,0,30h0a15,15,0,0,0,0-30Z" />
	<path fill="#fff" d="M153.07,60.09h0a1,1,0,0,1-1-1,7,7,0,0,0-7-7,1,1,0,0,1,0-2h0a9,9,0,0,1,9,9A1,1,0,0,1,153.07,60.09Z" />
	<path fill="#afc2db" d="M84.08,43h0l14,0a4.94,4.94,0,0,1,3.53,1.47,4.32,4.32,0,0,1,.47.57,5,5,0,0,1,4-2h14V38l-56,0v9l15.1,0A5,5,0,0,1,84.08,43Z" />
	<path fill="#afc2db" d="M106.07,59a5,5,0,0,1-4-2,4.25,4.25,0,0,1-.46.57A5,5,0,0,1,98.08,59h0l-14,0a5,5,0,0,1-5-5V49l-15,0V61A28,28,0,0,0,92,89h0a28,28,0,0,0,28-28v-2ZM89,83a4,4,0,1,1,4-4A4,4,0,0,1,89,83Z" />
	<polygon fill="#6885ad" points="64.34 35.99 119.86 36.06 117.7 26.05 66.5 26.05 64.34 35.99" />
	<path fill="#6885ad" d="M66.94,24.05h50.33L113,4.05,101.86,4l-9,9a1,1,0,0,1-1.42,0l-9-9H71.31Z" />
	<path fill="#fff" d="M100.19,56.15a2.93,2.93,0,0,1-2.11.88h0l-14,0a3,3,0,0,1-3-3V48a3,3,0,0,1,3-3h0l14,0a3,3,0,0,1,2.12.88,3,3,0,0,1,.87,2.12v6A3,3,0,0,1,100.19,56.15Z" />
	<path fill="#fff" d="M123.08,54.06a3,3,0,0,1-.89,2.12,3,3,0,0,1-2.11.87h-14a3,3,0,0,1-3-3V48a3,3,0,0,1,3-3h14a3,3,0,0,1,2.12.89,3,3,0,0,1,.87,2.12Z" />
	<path fill="#6885ad" d="M132,80.07,119.49,96.23A10.56,10.56,0,0,0,118,106.38L123.89,122,106,151.52l.07-64a30.24,30.24,0,0,0,9.2-7.5h.81Z" />
	<path fill="#6885ad" d="M53.08,80l15.77,0A30.14,30.14,0,0,0,78,87.52L78,151.27,61.1,121.9l6-15.58a10.58,10.58,0,0,0-1.49-10.15Z" />
	<path fill="#6885ad" d="M59,142h0a1,1,0,0,0-1,1l0,53-18,0L40,126a24,24,0,0,1,24-24h1.71a8.62,8.62,0,0,1-.52,3.61l-6.12,16a1,1,0,0,0,.06.86L78,155.28l0,40.73h0l-18,0,0-53A1,1,0,0,0,59,142Z" />
	<path fill="#6885ad" d="M155,147.09a19,19,0,0,1-19,19h0a.88.88,0,0,0-.28.06v-.06H126l0-29a1,1,0,0,0-1-1h0a1,1,0,0,0-1,1l0,42.24v16.76l-18,0,0-40.66,19.9-32.8a1,1,0,0,0,.07-.87l-6.08-16a8.33,8.33,0,0,1-.51-3.62H120a23.91,23.91,0,0,1,15,5.33v6.69l0,30a3,3,0,0,1-3,3h0a1,1,0,1,0,0,2h0a5,5,0,0,0,5-5l0-29h18Z" />
	<path fill="#afc2db" d="M155,113.09H137l0-17h9.78a8.23,8.23,0,0,1,8.21,8.24Z" />
	<circle fill="#2d3741" cx="96.5" cy="51.5" r="2.5" />
	<circle fill="#2d3741" cx="118.5" cy="51.5" r="2.5" />
</svg>
