<svg id="Layer_1" data-name="Layer 1" xmlns="http://www.w3.org/2000/svg" viewBox="0 0 800 400"><defs><style>.cls-1{fill:#fff;}</style></defs><path class="cls-1" d="M160.39,138.67v27.56h53.3V184.9h-53.3v26.65h60.08v18.67H139.31V120h81.16v18.67Z"/><path class="cls-1" d="M335.24,276.44H139.31V257.76H335.24Z"/><path class="cls-1" d="M333,230.22l-72.44-65.5v65.5H239.47V120h2.26l72.43,66.7V120h21.08V230.22Z"/><path class="cls-1" d="M439.14,184.89H407.67v91.55H386.59V184.89H355V166.22h84.17Z"/><path class="cls-1" d="M502.41,278.4A54.5,54.5,0,0,1,483,275.09a42.61,42.61,0,0,1-14.91-9.34,41.13,41.13,0,0,1-9.56-14.61A51.62,51.62,0,0,1,455.13,232v-65.8h21.08V232q0,8.28,2.71,13.7a25,25,0,0,0,6.7,8.59,23.28,23.28,0,0,0,8.58,4.36,28.46,28.46,0,0,0,16.42,0,23.28,23.28,0,0,0,8.58-4.36,25,25,0,0,0,6.7-8.59q2.72-5.41,2.71-13.7v-65.8h21.08V232a52.87,52.87,0,0,1-3.31,19.12,40.45,40.45,0,0,1-9.49,14.61A42.79,42.79,0,0,1,522,275.09,55,55,0,0,1,502.41,278.4Z"/><path class="cls-1" d="M590.5,241.36v35.08H569.42V166.22H619.5A41.49,41.49,0,0,1,635,169a34.5,34.5,0,0,1,12,7.83,35.69,35.69,0,0,1,7.77,12,41,41,0,0,1,2.79,15.29,43.57,43.57,0,0,1-1.66,12,40.48,40.48,0,0,1-4.6,10.46,32,32,0,0,1-7.24,8.06,25.67,25.67,0,0,1-9.43,4.74l27.44,37H636.88l-25.52-35.08Zm0-18.37h24a30.27,30.27,0,0,0,10.87-1.66,17.41,17.41,0,0,0,6.76-4.37,14.44,14.44,0,0,0,3.38-6.09,26.64,26.64,0,0,0,.9-6.86,21.59,21.59,0,0,0-1.28-7.52,16.1,16.1,0,0,0-3.9-6,18.67,18.67,0,0,0-6.76-4.06,29.26,29.26,0,0,0-10-1.51h-24Z"/></svg>