<svg
    xmlns="http://www.w3.org/2000/svg" viewBox="0 0 115.04 38.86">
    <defs>
        <style>.cls-1{fill:#fff;}</style>
    </defs>
    <title>Digdir_negativ</title>
    <path class="cls-1" d="M42.34,10.78a.11.11,0,0,1,.12-.12h6.4a7.07,7.07,0,0,1,5.77,2.47,10,10,0,0,1,2,6.52,9.37,9.37,0,0,1-2,6.35,7.25,7.25,0,0,1-5.79,2.27h-6.4a.11.11,0,0,1-.12-.12Zm6.58,2H44.85c-.08,0-.12,0-.12.13V26a.11.11,0,0,0,.12.12h4.08a4.83,4.83,0,0,0,3.93-1.67,7.36,7.36,0,0,0,1.39-4.82,8.05,8.05,0,0,0-1.42-5A4.64,4.64,0,0,0,48.92,12.79Z"/>
    <path class="cls-1" d="M62.4,10.78v2.62c0,.08,0,.13-.13.13H59.64c-.08,0-.12,0-.12-.13V10.78a.11.11,0,0,1,.12-.12h2.62C62.36,10.66,62.4,10.7,62.4,10.78Zm-.26,5v12.4a.11.11,0,0,1-.12.12H59.89a.11.11,0,0,1-.12-.12V15.74a.11.11,0,0,1,.12-.12H62A.11.11,0,0,1,62.14,15.74Z"/>
    <path class="cls-1" d="M71.11,31.34a3.31,3.31,0,0,0,2.69-1,3.76,3.76,0,0,0,.85-2.52v-.67a.12.12,0,0,0-.09-.11c-.06,0-.11,0-.16.06A3.84,3.84,0,0,1,73,28a5,5,0,0,1-2.21.51,5.54,5.54,0,0,1-4.26-1.83,6.76,6.76,0,0,1-1.69-4.77,6.83,6.83,0,0,1,1.61-4.73,5.56,5.56,0,0,1,4.33-1.81,5.32,5.32,0,0,1,2,.42,4.81,4.81,0,0,1,1.61,1q.17.17.24,0l.26-1c0-.08.07-.12.12-.12h1.88a.11.11,0,0,1,.12.12v12a5.44,5.44,0,0,1-1.63,4.1,5.66,5.66,0,0,1-4.08,1.57,7,7,0,0,1-4.05-1.1,3.6,3.6,0,0,1-1.75-2.62.11.11,0,0,1,.12-.12h2.18s.09,0,.12.12a2.25,2.25,0,0,0,1,1.09A4,4,0,0,0,71.11,31.34Zm-3.84-9.41a4.87,4.87,0,0,0,1,3.21A3.38,3.38,0,0,0,71,26.39a3.19,3.19,0,0,0,2.67-1.22,5.11,5.11,0,0,0,1-3.23,5.11,5.11,0,0,0-1-3.23A3.19,3.19,0,0,0,71,17.49a3.39,3.39,0,0,0-2.74,1.22A4.92,4.92,0,0,0,67.27,21.94Z"/>
    <path class="cls-1" d="M91.14,28.26H89.26s-.09,0-.12-.12l-.26-1q-.07-.22-.24,0a5.94,5.94,0,0,1-3.58,1.42,5.52,5.52,0,0,1-4.33-1.81,6.89,6.89,0,0,1-1.61-4.77,6.87,6.87,0,0,1,1.61-4.76,5.56,5.56,0,0,1,4.33-1.81,4.89,4.89,0,0,1,2.19.51,4.76,4.76,0,0,1,1.39.91q.1.1.17.06a.12.12,0,0,0,.07-.11V10.78c0-.08,0-.12.13-.12h2.12a.11.11,0,0,1,.12.12V28.14A.11.11,0,0,1,91.14,28.26Zm-9.64-6.33a4.87,4.87,0,0,0,1,3.21,3.38,3.38,0,0,0,2.74,1.23,3.22,3.22,0,0,0,2.68-1.22,5.06,5.06,0,0,0,.94-3.23,5.16,5.16,0,0,0-.94-3.23,3.17,3.17,0,0,0-2.67-1.22,3.41,3.41,0,0,0-2.75,1.22A4.92,4.92,0,0,0,81.49,21.94Z"/>
    <path class="cls-1" d="M97.65,10.78v2.62c0,.08,0,.13-.13.13H94.9c-.08,0-.12,0-.12-.13V10.78a.11.11,0,0,1,.12-.12h2.62C97.61,10.66,97.65,10.7,97.65,10.78Zm-.26,5v12.4a.11.11,0,0,1-.12.12H95.14a.11.11,0,0,1-.12-.12V15.74a.11.11,0,0,1,.12-.12h2.14A.11.11,0,0,1,97.4,15.74Z"/>
    <path class="cls-1" d="M107.86,17.49h-1.27a2.94,2.94,0,0,0-2.4,1.11,4,4,0,0,0-.89,2.67v6.87c0,.08,0,.12-.13.12H101a.11.11,0,0,1-.12-.12V15.74a.11.11,0,0,1,.12-.12h1.88s.09,0,.12.12l.26,1.12q.07.22.27,0a4.38,4.38,0,0,1,3-1.53h1.27a.12.12,0,0,1,.13.12v1.88A.12.12,0,0,1,107.86,17.49Z"/>
    <path class="cls-1" d="M19.73,7.06H7.56a.5.5,0,0,0-.5.5V31.3a.5.5,0,0,0,.5.5H19.73a12.37,12.37,0,0,0,0-24.73m1.19,21a8.8,8.8,0,1,1,7.18-7.18,8.8,8.8,0,0,1-7.18,7.18"/>
</svg>
