<?xml version="1.0" encoding="utf-8"?>
<!-- Generator: Adobe Illustrator 24.3.0, SVG Export Plug-In . SVG Version: 6.00 Build 0)  -->
<svg version="1.1" xmlns="http://www.w3.org/2000/svg" xmlns:xlink="http://www.w3.org/1999/xlink" x="0px" y="0px"
	 viewBox="0 0 200 104.7" style="enable-background:new 0 0 200 104.7;" xml:space="preserve">
<style type="text/css">
	.st0{clip-path:url(#logo-statens-vegvesen-negativ-clippath);fill:#FFFFFF;}
</style>
<g>
	<defs>
		<rect id="logo-statens-vegvesen-negativ-rect" width="200" height="104.7"/>
	</defs>
	<clipPath id="logo-statens-vegvesen-negativ-clippath">
		<use xlink:href="#logo-statens-vegvesen-negativ-rect"  style="overflow:visible;"/>
	</clipPath>
	<path class="st0" d="M0.5,95.9c1.1,0.6,2.6,1,4.3,1c1.3,0,2.6-0.3,2.6-1.5c0-2.9-7.3-1.1-7.3-6.7C0,85,3.7,84,6.8,84
		c1.5,0,3,0.2,4,0.6l-0.3,3.2C9.4,87.2,8.2,87,7,87c-1,0-2.8,0.1-2.8,1.5c0,2.5,7.4,0.8,7.4,6.4c0,4-3.4,5.1-6.8,5.1
		c-1.4,0-3.2-0.2-4.6-0.7L0.5,95.9"/>
	<path class="st0" d="M12.8,88.2h2.4v-2.6l3.9-1.2v3.8H22V91h-2.8v4.3c0,1.4,0.3,2.1,1.6,2.1c0.4,0,0.8-0.1,1.2-0.2l0.1,2.6
		c-0.8,0.1-1.5,0.2-2.5,0.2c-3.6,0-4.4-1.6-4.4-4.3V91h-2.3V88.2"/>
	<path class="st0" d="M31.3,99.8c0-0.6-0.1-1.2-0.1-1.8h0c-0.9,1.4-2,2.1-3.7,2.1c-2.3,0-4.3-1.1-4.3-3.6c0-3.5,3.9-4,6-4
		c0.6,0,1.4,0.1,1.9,0.2c0-1.6-1.2-2-2.7-2c-1.3,0-2.6,0.3-3.7,0.9l-0.1-2.7c1.4-0.6,2.9-0.8,4.6-0.8c3,0,5.5,1.3,5.5,4.8V97
		c0,0.9,0.1,1.8,0.2,2.7H31.3 M28.6,97.4c1.5,0,2.5-1.4,2.5-2.7c-0.5,0-1.1-0.1-1.7-0.1c-1.4,0-2.4,0.4-2.4,1.5
		C26.9,96.9,27.7,97.4,28.6,97.4"/>
	<path class="st0" d="M36.3,88.2h2.4v-2.6l4-1.2v3.8h2.8V91h-2.8v4.3c0,1.4,0.3,2.1,1.6,2.1c0.4,0,0.8-0.1,1.2-0.2l0.1,2.6
		c-0.7,0.1-1.5,0.2-2.5,0.2c-3.6,0-4.5-1.6-4.5-4.3V91h-2.3V88.2"/>
	<path class="st0" d="M50.7,95.1c0.2,1.6,1.4,2.2,3.4,2.2c1.1,0,2.3-0.2,3.5-0.9v2.8c-1.3,0.5-2.8,0.7-4.3,0.7
		c-3.8,0-6.7-2.3-6.7-6.1c0-3.8,2.6-6,6.2-6c4.3,0,5.9,3.1,5.9,6.5v0.7H50.7 M55.1,92.9c0-1.3-0.6-2.4-2.2-2.4
		c-1.4,0-2.1,1.1-2.2,2.4H55.1z"/>
	<path class="st0" d="M60.8,88.2h3.7v2.1h0c0.8-1.7,2.4-2.4,4.2-2.4c3.2,0,4.4,2.2,4.4,4.6v7.2h-4v-5.6c0-2.2-0.8-2.9-1.8-2.9
		c-1.6,0-2.5,1.1-2.5,3.6v4.9h-4V88.2"/>
	<path class="st0" d="M75.5,96.6c0.9,0.4,2.3,0.8,3.8,0.8c0.8,0,1.6-0.1,1.6-0.9c0-2-5.7-0.6-5.7-4.8c0-2.7,2.6-3.8,4.9-3.8
		c1.4,0,2.8,0.2,4.1,0.7l-0.3,2.8c-0.8-0.5-2.1-0.8-3.1-0.8c-0.9,0-1.8,0.2-1.8,0.8c0,1.8,6,0.4,6,4.8c0,3.1-2.8,3.9-5.4,3.9
		c-1.8,0-3-0.2-4.2-0.6L75.5,96.6"/>
	<polygon class="st0" points="92.6,88.2 96.9,88.2 99.3,96.4 99.4,96.4 101.8,88.2 105.8,88.2 101.5,99.8 96.9,99.8 	"/>
	<path class="st0" d="M110.7,95.1c0.2,1.6,1.5,2.2,3.4,2.2c1.1,0,2.3-0.2,3.5-0.9v2.8c-1.3,0.5-2.8,0.7-4.2,0.7
		c-3.8,0-6.7-2.3-6.7-6.1c0-3.8,2.6-6,6.2-6c4.3,0,5.9,3.1,5.9,6.5v0.7H110.7 M115.1,92.9c0-1.3-0.6-2.4-2.2-2.4
		c-1.4,0-2.1,1.1-2.2,2.4H115.1z"/>
	<path class="st0" d="M133.1,98.4c0,4.8-2.3,6.3-7,6.3c-1.9,0-3.5-0.4-4.4-0.7l0.2-3.2c1.2,0.6,2.2,1,3.9,1c2.3,0,3.6-1.1,3.6-3.4
		v-0.6h0c-1,1.4-2.3,2-3.9,2c-3.2,0-5.2-2.4-5.2-5.8c0-3.5,1.6-6,5.2-6c1.7,0,3.1,0.9,3.9,2.4h0v-2.1h3.6V98.4 M126.7,96.7
		c1.4,0,2.6-1.2,2.6-3c0-1.3-0.8-2.7-2.6-2.7c-1.5,0-2.3,1.3-2.3,2.9C124.4,95.7,125.5,96.7,126.7,96.7"/>
	<polygon class="st0" points="134.7,88.2 139,88.2 141.4,96.4 141.4,96.4 143.9,88.2 147.8,88.2 143.6,99.8 139,99.8 	"/>
	<path class="st0" d="M152.8,95.1c0.2,1.6,1.5,2.2,3.4,2.2c1.1,0,2.3-0.2,3.5-0.9v2.8c-1.3,0.5-2.8,0.7-4.2,0.7
		c-3.8,0-6.8-2.3-6.8-6.1c0-3.8,2.6-6,6.2-6c4.3,0,5.9,3.1,5.9,6.5v0.7H152.8 M157.2,92.9c0-1.3-0.6-2.4-2.2-2.4
		c-1.5,0-2.1,1.1-2.2,2.4H157.2z"/>
	<path class="st0" d="M162.7,96.6c0.9,0.4,2.3,0.8,3.8,0.8c0.8,0,1.6-0.1,1.6-0.9c0-2-5.7-0.6-5.7-4.8c0-2.7,2.6-3.8,4.9-3.8
		c1.4,0,2.8,0.2,4.1,0.7l-0.3,2.8c-0.8-0.5-2.1-0.8-3.1-0.8c-0.9,0-1.9,0.2-1.9,0.8c0,1.8,6,0.4,6,4.8c0,3.1-2.8,3.9-5.4,3.9
		c-1.8,0-3-0.2-4.2-0.6L162.7,96.6"/>
	<path class="st0" d="M177.5,95.1c0.2,1.6,1.4,2.2,3.4,2.2c1.1,0,2.3-0.2,3.5-0.9v2.8c-1.3,0.5-2.7,0.7-4.2,0.7
		c-3.8,0-6.7-2.3-6.7-6.1c0-3.8,2.6-6,6.2-6c4.3,0,5.9,3.1,5.9,6.5v0.7H177.5 M181.9,92.9c0-1.3-0.6-2.4-2.2-2.4
		c-1.5,0-2.2,1.1-2.2,2.4H181.9z"/>
	<path class="st0" d="M187.6,88.2h3.7v2.1h0c0.8-1.7,2.4-2.4,4.2-2.4c3.2,0,4.4,2.2,4.4,4.6v7.2h-4v-5.6c0-2.2-0.8-2.9-1.8-2.9
		c-1.7,0-2.5,1.1-2.5,3.6v4.9h-4V88.2"/>
	<path class="st0" d="M115.3,28.5l2.8-11.4c0-0.9-0.3-2-0.9-2.8c-2.4-3.1-6.6-2-9.2-1.3c-1.1-0.7-2.4-1-4-0.8c0,0,0,0,0,0
		c0,0-0.4,0.1-0.8,0.1c0.2-0.4,0.3-0.9,0.3-1.4c0-1.4-0.8-2.6-2-3.1V7.2h1.6V4.3h-1.6V2.8h-2.9v1.5H97v2.9h1.6V8
		c-1.2,0.5-2,1.7-2,3.1c0,0.5,0.1,0.9,0.3,1.4c-0.1,0-0.6-0.1-0.8-0.1c-1.6-0.3-2.9,0.1-4,0.8c-2.5-0.7-6.8-1.8-9.2,1.3
		c-0.6,0.8-0.9,1.9-0.9,2.8l2.8,11.4H115.3z M83.8,14.9c2-2.5,5.9-1.5,8.5-0.8c1.6-1.4,4.1-0.9,6-0.4c0.2,0.1,0.4,0,0.5-0.2
		c0-0.1,0-0.3-0.1-0.4c-0.6-0.5-1-1.2-1-2c0-1.1,0.8-2.1,1.8-2.4V6.4h-1.6V5.1h1.6V3.6h1.3v1.5h1.6v1.3h-1.6v2.3
		c1,0.3,1.8,1.2,1.8,2.4c0,0.8-0.4,1.5-1,2c-0.1,0.1-0.2,0.2-0.1,0.4c0.1,0.2,0.3,0.2,0.5,0.2c1.9-0.5,4.3-0.9,5.9,0.5
		c2.6-0.7,6.5-1.8,8.5,0.8c0.4,0.6,0.7,1.4,0.7,2.2l-2.5,10.5h-29L83,17C83.1,16.2,83.3,15.5,83.8,14.9 M101.3,16.9
		c0.2,0.4,0,0.7-0.2,1.1c-0.2,0.3-0.5,0.6-0.4,0.8c0,0.1,0.2,0.2,0.3,0.2c0.2,0,0.4-0.1,0.7-0.3c0.1-0.1,0.3-0.2,0.4-0.3
		c0.2-0.1,0.5,0,0.7,0.2c0.2,0.4,0.3,1.1,0.1,1.5c-0.3,0.5-0.7,0.3-1.1,0c-0.2-0.1-0.4-0.3-0.6-0.3c-0.3,0-0.4,0.5-0.4,0.8
		c0,1,0.6,1.9,1.6,2.3c0.6,0.3,1.3,0.4,2,0.4c0.7,0,1.4-0.1,2-0.4c1-0.4,1.6-1.4,1.6-2.3c0-0.3-0.1-0.8-0.4-0.8
		c-0.2,0-0.4,0.1-0.6,0.3c-0.5,0.3-0.9,0.4-1.1,0c-0.2-0.4-0.1-1.1,0.1-1.5c0.1-0.2,0.4-0.3,0.7-0.2c0.1,0,0.3,0.2,0.4,0.3
		c0.2,0.2,0.5,0.4,0.7,0.3c0.1,0,0.2-0.1,0.3-0.2c0.1-0.3-0.2-0.6-0.4-0.8c-0.2-0.4-0.4-0.7-0.2-1.1c0.1-0.2,0.4-0.3,0.6-0.3l0.1,0
		c-0.1-0.7-0.3-1.6-1.8-1.9c-0.4-0.1-1-0.2-1.8-0.2c-0.8,0-1.4,0.1-1.8,0.2c-1.5,0.3-1.7,1.2-1.8,1.9l0.1,0
		C100.9,16.6,101.1,16.7,101.3,16.9 M102,15.6c0.6-0.2,1.3-0.4,2.1-0.4c0.7,0,1.5,0.1,2.1,0.4c0.2,0.1,0.4,0.3,0.5,0.4
		c-0.2,0.1-0.4,0.2-0.5,0.4c-0.1,0.2-0.2,0.4-0.2,0.6c0,0.2,0.1,0.4,0.1,0.6c-0.3-0.1-0.7-0.1-1,0.1c-0.2,0.2-0.5,0.5-0.6,1
		c-0.1,0.8-0.1,2,0.7,2.5c0.5,0.3,1.1,0,1.5-0.2c0,0.3-0.4,0.8-0.7,1c-0.6,0.4-1.3,0.5-2,0.5c-0.7,0-1.4-0.2-2-0.5
		c-0.3-0.2-0.6-0.7-0.7-1c0.4,0.2,0.9,0.5,1.5,0.2c0.8-0.5,0.9-1.7,0.7-2.5c-0.1-0.5-0.3-0.8-0.6-1c-0.3-0.2-0.7-0.2-1-0.1
		c0.1-0.2,0.1-0.4,0.1-0.6c0-0.2-0.1-0.4-0.2-0.6c-0.1-0.1-0.3-0.3-0.5-0.4C101.6,15.9,101.8,15.7,102,15.6 M116.5,32.1L116.5,32.1
		l0-0.1c-0.3-0.6-1-1.2-1.9-1.2h-29c-0.9,0-1.6,0.6-1.9,1.2l0,0.1l0,0.1c-0.2,0.5-0.2,1.4,0.4,2.4l13.6,24.7c0.4,0.7,1,1.8,2.4,1.8
		h0h0c1.4,0,2-1.1,2.4-1.8l13.6-24.7C116.8,33.4,116.7,32.6,116.5,32.1 M115.2,33.9L101.9,58c-0.4,0.7-1,1.8-1.9,1.8
		c-0.9,0-1.4-1.1-1.9-1.8L84.9,33.9c-0.3-0.5-0.5-1-0.3-1.5c0.1-0.2,0.5-0.6,0.9-0.6h29c0.5,0,0.8,0.3,0.9,0.6
		C115.7,32.9,115.5,33.5,115.2,33.9 M107.5,37.5L107.5,37.5c-0.2-0.5-0.7-0.9-1.4-0.9H94c-0.6,0-1.1,0.4-1.3,0.8l-0.1,0.1l0,0.1
		c-0.1,0.5-0.1,1,0.2,1.5l5.7,10.3c0.2,0.3,0.6,1.1,1.6,1.1c1,0,1.4-0.7,1.6-1.1l5.7-10.3C107.6,38.6,107.7,38,107.5,37.5
		L107.5,37.5z M106.4,38.5l-5.6,10.1c-0.2,0.3-0.4,0.8-0.8,0.8c-0.4,0-0.6-0.5-0.8-0.8l-5.6-10.1c-0.1-0.2-0.2-0.4-0.1-0.6
		c0.1-0.1,0.2-0.3,0.4-0.3h12.2c0.2,0,0.3,0.2,0.4,0.3C106.6,38.1,106.5,38.3,106.4,38.5 M147.2,34.4c-0.2-0.5-0.7-0.8-1.3-0.8
		h-12.2V0H66.5v33.6H54.2c-0.6,0-1.1,0.3-1.3,0.8c-0.1,0.2-0.1,0.3-0.1,0.5c0,0.4,0.1,0.7,0.4,1l8.2,9.2c0.2,0.2,0.8,0.8,1.8,0.8
		h3.3v21.3h67.2V46h3.2c1,0,1.6-0.6,1.8-0.8l8.2-9.2c0.3-0.3,0.4-0.7,0.4-1C147.3,34.7,147.3,34.6,147.2,34.4 M63.2,44.9
		c-0.6,0-1-0.5-1-0.5L60,42h13.7c0.5,0,0.6-1,0-1H59.1l-2.2-2.5h18.7c0.6-0.1,0.7-0.9,0-1H56l-2-2.3c-0.3-0.3-0.2-0.6,0.2-0.6h25
		c0.5,0,0.6,0.1,0.9,0.8c0.4,0.6,1.3,2.3,1.6,2.8c0.3,0.5,0.4,0.9-0.1,1.8c-0.5,0.9-2.6,4.6-3,5.2c-0.4,0.6-0.9,2.1,0.8,2.1h7.7
		c0.7,0,1,0.1,1.3,0.7c0.3,0.6,3.4,6,3.4,6c1.3,1.9,0.5,3.5-1.7,3.4c-2.8-0.1-2.4-2.8-2.4-3.5c0,0-0.8-1.3-1.7-2.4H75.6
		c-4.1,0-2.7-2.5-2-4.2c0.4-0.9-0.2-2.5-2.8-2.5H63.2z M132.6,66.2H67.5V46h3.2c1.2,0,1.6,0.3,1.7,0.6c0.1,0.2,0.1,0.5,0,0.7
		c-0.3,0.8-0.7,1.7-0.7,2.6c0,0.5,0.1,0.9,0.4,1.4c0.6,0.9,1.7,1.3,3.5,1.3h9.8c0.4,0.5,0.9,1.4,1.2,1.7c0,0,0,0,0,0.1
		c0,2.7,1.2,4,3.4,4.1c1.4,0.1,2.6-0.5,3.1-1.5c0.6-1,0.4-2.3-0.5-3.6l-3.3-5.9c-0.5-1.1-1.3-1.3-2.2-1.3l-7.8,0
		c0-0.1,0.1-0.3,0.2-0.5l2-3.4l1-1.8c0.4-0.6,0.5-1.1,0.5-1.6c0-0.5-0.2-0.9-0.4-1.2c-0.3-0.6-1.2-2.3-1.6-2.9l0,0
		c-0.4-0.7-0.9-1.2-1.7-1.3H67.5V1h65.1v32.6h-11.9c-0.8,0-1.3,0.5-1.7,1.3l0,0c-0.4,0.6-1.3,2.3-1.6,2.9c-0.2,0.4-0.4,0.8-0.4,1.2
		c0,0.4,0.1,0.9,0.5,1.6l1,1.8l2,3.4c0.1,0.2,0.2,0.4,0.2,0.5l-7.8,0c-0.9,0-1.7,0.2-2.2,1.3l-3.3,5.9c-0.9,1.3-1.1,2.6-0.5,3.6
		c0.5,1,1.7,1.5,3.1,1.5c2.3-0.1,3.4-1.5,3.4-4.1c0,0,0,0,0-0.1c0.2-0.3,0.8-1.2,1.2-1.7h9.8c1.8,0,2.9-0.4,3.5-1.3
		c0.3-0.4,0.4-0.9,0.4-1.4c0-0.9-0.4-1.9-0.7-2.6c-0.1-0.3-0.1-0.5,0-0.7c0.1-0.2,0.5-0.6,1.7-0.6h3.3V66.2z M146.1,35.2l-2,2.3
		h-19.6c-0.7,0.1-0.6,0.9,0,1h18.7L141,41h-14.6c-0.6,0-0.6,1,0,1h13.7l-2.2,2.4c0,0-0.4,0.5-1,0.5h-7.6c-2.6,0-3.2,1.6-2.8,2.5
		c0.7,1.7,2.1,4.2-2,4.2h-10.4c-0.8,1.2-1.6,2.4-1.6,2.4c0,0.7,0.4,3.4-2.4,3.5c-2.2,0.1-3-1.5-1.7-3.4c0,0,3.1-5.5,3.4-6
		c0.3-0.6,0.6-0.7,1.3-0.7h7.7c1.6,0,1.1-1.4,0.8-2.1c-0.4-0.6-2.5-4.3-3-5.2c-0.5-0.9-0.4-1.3-0.1-1.8c0.3-0.5,1.2-2.2,1.6-2.8
		c0.4-0.6,0.5-0.7,0.9-0.8h25C146.3,34.7,146.4,34.9,146.1,35.2 M93.2,16.9c0.2,0.4,0,0.7-0.2,1.1c-0.2,0.3-0.5,0.6-0.4,0.9
		c0,0.1,0.2,0.2,0.3,0.2c0.2,0,0.4-0.1,0.7-0.3c0.1-0.1,0.3-0.2,0.4-0.3c0.2-0.1,0.5,0,0.7,0.2c0.2,0.4,0.3,1.1,0.1,1.5
		c-0.3,0.5-0.7,0.3-1.1,0c-0.2-0.1-0.4-0.3-0.6-0.3c-0.3,0-0.4,0.5-0.4,0.8c0,0.9,0.6,1.9,1.6,2.3c0.6,0.3,1.3,0.4,2,0.4
		c0.7,0,1.4-0.1,2-0.4c1-0.5,1.6-1.4,1.6-2.3c0-0.3-0.1-0.8-0.4-0.8c-0.2,0-0.4,0.1-0.6,0.3c-0.5,0.3-0.9,0.4-1.1,0
		c-0.2-0.4-0.1-1.1,0.1-1.5c0.1-0.2,0.4-0.3,0.7-0.2c0.1,0,0.3,0.2,0.4,0.3c0.2,0.2,0.5,0.4,0.7,0.3c0.1,0,0.2-0.1,0.3-0.2
		c0.1-0.3-0.2-0.6-0.4-0.9c-0.2-0.4-0.4-0.7-0.2-1.1c0.1-0.2,0.4-0.3,0.6-0.3l0.1,0c-0.1-0.7-0.3-1.6-1.8-1.9
		c-0.4-0.1-1-0.2-1.8-0.2c-0.8,0-1.4,0.1-1.8,0.2c-1.5,0.3-1.7,1.2-1.8,1.9l0.1,0C92.8,16.6,93.1,16.7,93.2,16.9 M93.9,15.6
		c0.6-0.2,1.3-0.4,2.1-0.4c0.7,0,1.5,0.1,2.1,0.4c0.2,0.1,0.4,0.3,0.5,0.4c-0.2,0.1-0.4,0.2-0.5,0.4c-0.1,0.2-0.2,0.4-0.2,0.6
		c0,0.2,0.1,0.4,0.1,0.6c-0.3-0.1-0.7-0.1-1,0.1c-0.2,0.2-0.5,0.5-0.6,1c-0.1,0.8-0.1,2,0.7,2.5c0.5,0.3,1.1,0,1.5-0.2
		c0,0.4-0.4,0.8-0.7,1c-0.6,0.4-1.3,0.5-2,0.5c-0.7,0-1.4-0.2-2-0.5c-0.3-0.2-0.6-0.7-0.7-1c0.4,0.2,0.9,0.5,1.5,0.2
		c0.8-0.5,0.9-1.7,0.7-2.5c-0.1-0.5-0.3-0.8-0.6-1c-0.3-0.2-0.7-0.2-1-0.1c0.1-0.2,0.1-0.4,0.1-0.6c0-0.2-0.1-0.4-0.2-0.6
		c-0.1-0.1-0.3-0.3-0.5-0.4C93.5,15.9,93.7,15.7,93.9,15.6 M90.8,22.4c0.5-0.6,0.7-1.4,0.6-2.1c-0.1-0.5-0.7-0.3-1-0.1
		c-0.2,0.1-0.5,0.3-0.7,0.2c-0.2,0-0.3-0.3-0.3-0.4c-0.2-0.5-0.1-1.2,0.2-1.6c0.1-0.1,0.3-0.1,0.4-0.1c0.2,0,0.4,0.2,0.6,0.3
		c0.3,0.2,0.6,0.5,0.9,0.2c0.2-0.3-0.1-0.6-0.2-0.9c-0.2-0.2-0.4-0.5-0.3-0.8c0-0.2,0.1-0.4,0.3-0.5c0.2-0.2,0.4-0.2,0.4-0.2l0.1,0
		l0-0.1c0-0.4,0.1-0.7,0.2-1.2c-1.5-0.5-3-0.7-4.7-0.6c-1.7,0.2-2.7,0.8-3.1,1.9c0,0,0.5,0.1,0.8,0.2c0.1,0.1,0.5,0.3,0.5,0.7
		c0,0.2-0.2,0.4-0.3,0.7c-0.1,0.2-0.4,0.6-0.3,0.8c0.2,0.4,0.6,0.1,0.9-0.1c0.2-0.1,0.3-0.2,0.5-0.3c0.2,0,0.5-0.1,0.6,0.2
		c0.2,0.4,0.4,1.3,0,1.8c-0.3,0.3-0.6,0.1-0.9-0.1c-0.3-0.1-0.5-0.2-0.7-0.3c-0.1,0-0.4,0-0.4,0.4c0,1.2,0.5,2.1,1.6,2.6
		C87.6,23.7,89.7,23.6,90.8,22.4 M85.5,21.1c0.4,0.2,0.8,0.4,1.2,0.3c0.4-0.2,0.8-0.6,0.9-1.2c0.1-1-0.1-1.9-0.7-2.3
		c-0.3-0.2-0.6-0.2-1-0.2c0.1-0.2,0.1-0.3,0.1-0.5c0-0.1,0-0.2,0-0.3c-0.1-0.4-0.4-0.6-0.8-0.8c1.4-0.9,3.5-0.6,5.2-0.3
		c0,0,0.1,0,0.2,0v0.2c-0.4,0.1-0.7,0.5-0.8,0.9c0,0.1,0,0.1,0,0.2c0,0.2,0,0.4,0.1,0.5c-0.4-0.1-0.7-0.1-1.1,0.2
		c-0.5,0.5-0.7,1.4-0.5,2.4c0.1,0.5,0.4,0.8,0.7,1c0.5,0.2,1,0.1,1.4-0.2c-0.1,0.7-0.8,1.1-1.1,1.3c-0.7,0.3-1.7,0.4-2.6,0.1
		C86.3,22.2,85.7,21.7,85.5,21.1 M108.6,16.5L108.6,16.5c0.1,0,0.3,0,0.5,0.2c0.2,0.1,0.2,0.3,0.3,0.5c0,0.3-0.2,0.5-0.3,0.8
		c-0.2,0.3-0.5,0.6-0.2,0.9c0.2,0.3,0.6,0.1,0.9-0.2c0.2-0.2,0.4-0.3,0.6-0.3c0.1,0,0.3,0,0.4,0.1c0.3,0.4,0.3,1,0.2,1.6
		c0,0.1-0.2,0.3-0.3,0.4c-0.3,0.1-0.5-0.1-0.7-0.2c-0.3-0.2-0.9-0.4-1,0.1c-0.2,0.7,0,1.5,0.6,2.1c1.2,1.2,3.2,1.3,4.6,0.7
		c1.1-0.5,1.5-1.4,1.6-2.6c0-0.4-0.3-0.5-0.4-0.4c-0.2,0-0.4,0.2-0.7,0.3c-0.3,0.1-0.6,0.4-0.9,0.1c-0.3-0.5-0.2-1.4,0-1.8
		c0.1-0.2,0.5-0.2,0.6-0.2c0.1,0.1,0.3,0.2,0.5,0.3c0.3,0.2,0.6,0.5,0.9,0.1c0.1-0.2-0.1-0.6-0.3-0.8c-0.1-0.2-0.3-0.4-0.3-0.7
		c0-0.4,0.4-0.7,0.5-0.7c0.3-0.1,0.8-0.2,0.8-0.2c-0.4-1-1.4-1.7-3.1-1.9c-1.7-0.1-3.2,0.1-4.7,0.6C108.5,15.7,108.6,16,108.6,16.5
		L108.6,16.5z M109.4,15.7c0.1,0,0.2,0,0.2,0c1.7-0.2,3.7-0.6,5.2,0.3c-0.3,0.1-0.6,0.4-0.8,0.8c0,0.1,0,0.2,0,0.3
		c0,0.2,0,0.3,0.1,0.5c-0.4-0.1-0.7,0-1,0.2c-0.5,0.4-0.8,1.3-0.7,2.3c0.2,0.7,0.5,1.1,0.9,1.2c0.5,0.1,0.9-0.1,1.2-0.3
		c-0.2,0.6-0.8,1.1-1.4,1.3c-0.9,0.3-1.9,0.2-2.6-0.1c-0.3-0.1-1-0.6-1.1-1.3c0.4,0.3,0.9,0.4,1.4,0.2c0.3-0.2,0.6-0.5,0.7-1
		c0.2-1,0-1.8-0.5-2.4c-0.3-0.3-0.7-0.3-1.1-0.2c0.1-0.2,0.1-0.3,0.1-0.5c0-0.1,0-0.1,0-0.2c-0.1-0.5-0.4-0.9-0.8-0.9V15.7z"/>
</g>
</svg>
