<?xml version="1.0" encoding="utf-8"?>
<!-- Generator: Adobe Illustrator 24.3.0, SVG Export Plug-In . SVG Version: 6.00 Build 0)  -->
<svg version="1.1"
	 inkscape:version="0.92.0 r15299" sodipodi:docname="Jernbanedirektoratet.svg" xmlns:cc="http://creativecommons.org/ns#" xmlns:dc="http://purl.org/dc/elements/1.1/" xmlns:inkscape="http://www.inkscape.org/namespaces/inkscape" xmlns:rdf="http://www.w3.org/1999/02/22-rdf-syntax-ns#" xmlns:sodipodi="http://sodipodi.sourceforge.net/DTD/sodipodi-0.dtd" xmlns:svg="http://www.w3.org/2000/svg"
	 xmlns="http://www.w3.org/2000/svg" xmlns:xlink="http://www.w3.org/1999/xlink" x="0px" y="0px" viewBox="0 0 141.3 51.2"
	 style="enable-background:new 0 0 141.3 51.2;" xml:space="preserve">
<style type="text/css">
	.st0{fill:#FFFFFF;}
</style>
<sodipodi:namedview  bordercolor="#666666" borderopacity="1.0" fit-margin-bottom="0" fit-margin-left="0" fit-margin-right="0" fit-margin-top="0" id="base" inkscape:current-layer="layer1" inkscape:cx="64.186917" inkscape:cy="19.172" inkscape:document-units="mm" inkscape:pageopacity="0.0" inkscape:pageshadow="2" inkscape:window-height="744" inkscape:window-maximized="1" inkscape:window-width="1280" inkscape:window-x="-4" inkscape:window-y="-4" inkscape:zoom="6.2473791" pagecolor="#ffffff" showgrid="false" units="px">
	</sodipodi:namedview>
<g>
	<g transform="translate(123.3197,740.2899)">
		<path inkscape:connector-curvature="0" class="st0" d="M-11.1-723.3h2.6c0.1,0,0.1-0.1,0.1-0.1
			c0-1.3-0.4-2.1-1.3-2.1c-0.9,0-1.4,0.9-1.6,2.1C-11.2-723.4-11.2-723.3-11.1-723.3 M-6.8-722.8h-4.5c-0.1,2,1,3.2,2.4,3.2
			c0.9,0,1.6-0.4,2-1c0,0,0.1-0.1,0.2,0h0c0.1,0,0.1,0.1,0.1,0.2c-0.4,1.3-1.4,2.3-3,2.3c-2.1,0-3.5-1.5-3.5-3.7
			c0-2.4,1.6-4.1,3.5-4.1c1.9,0,2.9,1.3,2.9,3v0.2c0,0,0,0.1,0,0.1C-6.7-722.8-6.8-722.8-6.8-722.8"/>
	</g>
	<g transform="translate(127.8967,739.7217)">
		<path inkscape:connector-curvature="0" class="st0" d="M-9.6-721.9v-0.4c0-0.1,0.1-0.3,0.3-0.3h3.2
			c0.1,0,0.3,0.1,0.3,0.3v0.4c0,0.1-0.1,0.3-0.3,0.3h-3.2C-9.5-721.7-9.6-721.8-9.6-721.9"/>
	</g>
	<g transform="translate(87.0912,740.2899)">
		<path inkscape:connector-curvature="0" class="st0" d="M-23.2-723.3h2.6c0.1,0,0.1-0.1,0.1-0.1
			c0-1.3-0.4-2.1-1.3-2.1c-0.9,0-1.4,0.9-1.6,2.1C-23.3-723.4-23.3-723.3-23.2-723.3 M-18.8-722.8h-4.5c-0.1,2,1,3.2,2.4,3.2
			c0.9,0,1.6-0.4,2-1c0,0,0.1-0.1,0.2,0h0c0.1,0,0.1,0.1,0.1,0.2c-0.4,1.3-1.4,2.3-3,2.3c-2.1,0-3.5-1.5-3.5-3.7
			c0-2.4,1.6-4.1,3.5-4.1c1.9,0,2.9,1.3,2.9,3v0.2c0,0,0,0.1,0,0.1C-18.8-722.8-18.8-722.8-18.8-722.8"/>
	</g>
	<g transform="translate(93.2666,737.5335)">
		<path inkscape:connector-curvature="0" class="st0" d="M-21.1-716.8c0,0.3,0.4,0.4,1.1,0.7c0.1,0,0.1,0.1,0.1,0.1
			v0.2c0,0.1-0.1,0.1-0.1,0.1h-3.8c-0.1,0-0.1-0.1-0.1-0.1v-0.2c0-0.1,0-0.1,0.1-0.1c0.4-0.1,0.8-0.3,0.8-0.6v-4.8
			c0,0,0-0.1-0.1-0.1l-0.7-0.4c0,0-0.1-0.1-0.1-0.1v-0.1c0-0.1,0-0.1,0.1-0.1l2.4-1h0h0.2c0.1,0,0.1,0.1,0.1,0.1l0,2
			c0.7-1.6,1.1-2.1,1.9-2.1c0.3,0,0.5,0.1,0.6,0.2c0,0,0,0.1,0,0.1v1.3c0,0.1-0.1,0.1-0.1,0.1h-0.1c-0.9,0-1.6,0-2.3,0.8
			L-21.1-716.8L-21.1-716.8z"/>
	</g>
	<g transform="translate(79.6146,738.2269)">
		<path inkscape:connector-curvature="0" class="st0" d="M-25.7-718.5L-25.7-718.5L-25.7-718.5l1.7-0.7
			c0.1,0,0.2,0,0.2,0.1c0,0.2,0,0.4,0,0.7c0,1,0.4,1.7,1.2,1.7c0.8,0,1.2-0.6,1.2-2v-6.1c0-0.8,0.1-0.6-1.1-1.1c0,0-0.1,0-0.1-0.1
			c0,0,0-0.1,0-0.2s0.1-0.1,0.1-0.1h4.1c0.1,0,0.1,0.1,0.1,0.1v0.2c0,0-0.1,0.1-0.1,0.1c-1,0.4-1.1,0.3-1.1,1.1v5.5
			c0,2.2-1.2,3.2-3.4,3.2c-1.8,0-3-0.7-3-2c0-0.1,0-0.2,0-0.3C-25.7-718.4-25.7-718.4-25.7-718.5C-25.7-718.4-25.7-718.5-25.7-718.5
			"/>
	</g>
	<g transform="translate(99.8839,740.5726)">
		<path inkscape:connector-curvature="0" class="st0" d="M-18.9-723.9c0-0.8-0.3-1.2-1.1-1.2c-0.6,0-1.1,0.2-1.6,0.5
			c0,0-0.1,0.1-0.1,0.1v4.8c0,0.4,0.2,0.4,0.8,0.6c0,0,0.1,0.1,0.1,0.1v0.2c0,0.1-0.1,0.1-0.1,0.1h-3.4c-0.1,0-0.1-0.1-0.1-0.1v-0.2
			c0-0.1,0-0.1,0.1-0.1c0.6-0.2,0.8-0.3,0.8-0.6v-4.9l-0.7-0.5c0,0-0.1-0.1-0.1-0.1v-0.1c0-0.1,0-0.1,0.1-0.1l2.4-0.9h0h0.2
			c0.1,0,0.1,0.1,0.1,0.1l0,1.1c0,0.1,0.1,0.1,0.1,0c0.6-0.7,1.4-1.3,2.5-1.3c1.3,0,2,0.8,2,2.3v4.3c0,0.4,0.2,0.4,0.8,0.6
			c0,0,0.1,0.1,0.1,0.1v0.2c0,0.1-0.1,0.1-0.1,0.1h-3.5c-0.1,0-0.1-0.1-0.1-0.1v-0.2c0-0.1,0-0.1,0.1-0.1c0.6-0.2,0.8-0.2,0.8-0.6
			L-18.9-723.9L-18.9-723.9z"/>
	</g>
	<g transform="translate(119.1064,740.5726)">
		<path inkscape:connector-curvature="0" class="st0" d="M-12.5-723.9c0-0.8-0.3-1.2-1.1-1.2c-0.6,0-1.1,0.2-1.6,0.5
			c0,0-0.1,0.1-0.1,0.1v4.8c0,0.4,0.2,0.4,0.8,0.6c0,0,0.1,0.1,0.1,0.1v0.2c0,0.1-0.1,0.1-0.1,0.1H-18c-0.1,0-0.1-0.1-0.1-0.1v-0.2
			c0-0.1,0-0.1,0.1-0.1c0.6-0.2,0.8-0.3,0.8-0.6v-4.9l-0.8-0.5c0,0-0.1-0.1-0.1-0.1v-0.1c0-0.1,0-0.1,0.1-0.1l2.4-0.9h0h0.2
			c0.1,0,0.1,0.1,0.1,0.1l0,1.1c0,0.1,0.1,0.1,0.1,0c0.6-0.7,1.4-1.3,2.5-1.3c1.3,0,2,0.8,2,2.3v4.3c0,0.4,0.2,0.4,0.8,0.6
			c0,0,0.1,0.1,0.1,0.1v0.2c0,0.1-0.1,0.1-0.1,0.1h-3.5c-0.1,0-0.1-0.1-0.1-0.1v-0.2c0-0.1,0-0.1,0.1-0.1c0.6-0.2,0.8-0.2,0.8-0.6
			v-4.1H-12.5z"/>
	</g>
	<g transform="translate(112.2083,737.7406)">
		<path inkscape:connector-curvature="0" class="st0" d="M-14.8-717.3v-2.4c0-0.1-0.1-0.2-0.2-0.1l-1.1,0.4
			c-0.6,0.2-1,0.6-1,1.3c0,0.7,0.4,1.3,1.1,1.3C-15.5-716.8-15.3-717-14.8-717.3C-14.8-717.3-14.8-717.3-14.8-717.3 M-16.8-721.2
			l-1,0.4c0,0-0.1,0-0.1,0c-0.4-0.1-0.6-0.4-0.6-0.9c0-1.2,1.2-1.8,2.8-1.8c1.8,0,2.8,0.7,2.8,2.3v3.8c0,0.5,0.1,0.8,0.5,0.8
			c0.1,0,0.3,0,0.4-0.1c0.1,0,0.1,0,0.2,0.1l0,0.1c0,0,0,0.1,0,0.1c-0.4,0.5-0.9,0.7-1.6,0.7c-0.7,0-1.2-0.4-1.4-1.1
			c0-0.1-0.1-0.1-0.1,0c-0.5,0.6-1.2,1.1-2.2,1.1c-1.2,0-1.9-0.7-1.9-1.8c0-1.2,0.9-1.7,1.9-2.1l2.1-0.7c0.1,0,0.1-0.1,0.1-0.1v-1.1
			c0-0.8-0.3-1.4-1-1.4c-0.5,0-0.9,0.4-1,0.8c0,0.3,0,0.6,0,0.8C-16.7-721.3-16.8-721.2-16.8-721.2"/>
	</g>
	<g transform="translate(114.4354,727.8373)">
		<path inkscape:connector-curvature="0" class="st0" d="M-14.1-694.2c0-2.1-0.5-3.7-1.6-3.7c-1.1,0-1.6,1.2-1.6,3.1
			c0,2.1,0.5,3.7,1.6,3.7C-14.6-691.2-14.1-692.4-14.1-694.2 M-19.3-694.4c0-2.4,1.6-4.1,3.7-4.1c2.2,0,3.7,1.5,3.7,3.8
			c0,2.4-1.6,4.1-3.7,4.1C-17.9-690.6-19.3-692.1-19.3-694.4"/>
	</g>
	<g transform="translate(81.414,728.3295)">
		<path inkscape:connector-curvature="0" class="st0" d="M-25.1-695.4c0,1.7,0.7,3,2,3c0.5,0,0.8-0.1,1.2-0.4
			c0,0,0-0.1,0-0.1v-3.7c0-1.1-0.5-1.8-1.3-1.8C-24.4-698.3-25.1-697.2-25.1-695.4 M-22.7-701.5v-0.1c0-0.1,0-0.1,0.1-0.1l2.4-1h0
			h0.1c0.1,0,0.1,0.1,0.1,0.1v9.4c0,0.2,0,0.4,0.1,0.4l0.6,0.3c0.1,0,0.1,0.1,0.1,0.1v0.1c0,0,0,0.1-0.1,0.1l-1.7,0.7l-0.8,0.3h-0.1
			c-0.1,0-0.1-0.1-0.1-0.1v-1c0-0.1-0.1-0.1-0.1,0c-0.6,0.7-1.2,1.2-2.2,1.2c-1.7,0-2.9-1.4-2.9-3.6c0-2.7,1.6-4.3,3.6-4.3
			c0.6,0,1.1,0.1,1.4,0.4c0,0,0.1,0,0.1-0.1v-2.3c0,0,0-0.1-0.1-0.1l-0.7-0.4C-22.7-701.5-22.7-701.5-22.7-701.5"/>
	</g>
	<g transform="translate(92.0924,726.147)">
		<path inkscape:connector-curvature="0" class="st0" d="M-21.5-690.3c0,0.3,0.4,0.4,1.1,0.7c0.1,0,0.1,0.1,0.1,0.1
			v0.2c0,0.1-0.1,0.1-0.1,0.1h-3.8c-0.1,0-0.1-0.1-0.1-0.1v-0.2c0-0.1,0-0.1,0.1-0.1c0.4-0.1,0.8-0.3,0.8-0.6v-4.8
			c0,0,0-0.1-0.1-0.1l-0.7-0.4c0,0-0.1-0.1-0.1-0.1v-0.1c0-0.1,0-0.1,0.1-0.1l2.4-1h0h0.2c0.1,0,0.1,0.1,0.1,0.1l0,2
			c0.7-1.6,1.1-2.1,1.9-2.1c0.3,0,0.5,0.1,0.6,0.2c0,0,0,0.1,0,0.1v1.3c0,0.1-0.1,0.1-0.1,0.1h-0.1c-0.9,0-1.6,0-2.3,0.8
			L-21.5-690.3L-21.5-690.3z"/>
	</g>
	<g transform="translate(95.9864,728.9395)">
		<path inkscape:connector-curvature="0" class="st0" d="M-20.2-696.8h2.6c0.1,0,0.1-0.1,0.1-0.1
			c0-1.3-0.4-2.1-1.3-2.1c-0.9,0-1.4,0.9-1.6,2.1C-20.4-696.9-20.3-696.8-20.2-696.8 M-15.9-696.3h-4.5c-0.1,2,1,3.2,2.4,3.2
			c0.9,0,1.6-0.4,2-1c0,0,0.1-0.1,0.2,0h0c0.1,0,0.1,0.1,0.1,0.2c-0.4,1.3-1.4,2.3-3,2.3c-2.1,0-3.5-1.5-3.5-3.7
			c0-2.4,1.6-4.1,3.5-4.1c1.9,0,2.9,1.3,2.9,3v0.2c0,0,0,0.1,0,0.1C-15.8-696.3-15.9-696.3-15.9-696.3"/>
	</g>
	<g transform="translate(132.5764,728.9395)">
		<path inkscape:connector-curvature="0" class="st0" d="M-8-696.8h2.6c0.1,0,0.1-0.1,0.1-0.1c0-1.3-0.4-2.1-1.3-2.1
			c-0.9,0-1.4,0.9-1.6,2.1C-8.2-696.9-8.1-696.8-8-696.8 M-3.7-696.3h-4.5c-0.1,2,1,3.2,2.4,3.2c0.9,0,1.6-0.4,2-1
			c0,0,0.1-0.1,0.2,0h0c0.1,0,0.1,0.1,0.1,0.2c-0.4,1.3-1.4,2.3-3,2.3c-2.1,0-3.5-1.5-3.5-3.7c0-2.4,1.6-4.1,3.5-4.1
			c1.9,0,2.9,1.3,2.9,3v0.2c0,0,0,0.1,0,0.1S-3.7-696.3-3.7-696.3"/>
	</g>
	<g transform="translate(118.8474,726.147)">
		<path inkscape:connector-curvature="0" class="st0" d="M-12.6-690.3c0,0.3,0.4,0.4,1.1,0.7c0.1,0,0.1,0.1,0.1,0.1
			v0.2c0,0.1-0.1,0.1-0.1,0.1h-3.8c-0.1,0-0.1-0.1-0.1-0.1v-0.2c0-0.1,0-0.1,0.1-0.1c0.4-0.1,0.8-0.3,0.8-0.6v-4.8
			c0,0,0-0.1-0.1-0.1l-0.7-0.4c0,0-0.1-0.1-0.1-0.1v-0.1c0-0.1,0-0.1,0.1-0.1l2.4-1h0h0.2c0.1,0,0.1,0.1,0.1,0.1l0,2
			c0.7-1.6,1.1-2.1,1.9-2.1c0.3,0,0.5,0.1,0.6,0.2c0,0,0,0.1,0,0.1v1.3c0,0.1-0.1,0.1-0.1,0.1h-0.1c-0.9,0-1.6,0-2.3,0.8
			L-12.6-690.3L-12.6-690.3z"/>
	</g>
	<g transform="translate(124.3697,726.3901)">
		<path inkscape:connector-curvature="0" class="st0" d="M-10.8-690.9v-2.4c0-0.1-0.1-0.2-0.2-0.1L-12-693
			c-0.6,0.2-1,0.6-1,1.3c0,0.7,0.4,1.3,1.1,1.3C-11.5-690.4-11.2-690.5-10.8-690.9C-10.8-690.8-10.8-690.8-10.8-690.9 M-12.8-694.7
			l-1,0.4c0,0-0.1,0-0.1,0c-0.4-0.1-0.6-0.4-0.6-0.9c0-1.2,1.2-1.8,2.8-1.8c1.8,0,2.8,0.7,2.8,2.3v3.8c0,0.5,0.1,0.8,0.5,0.8
			c0.1,0,0.3,0,0.4-0.1c0.1,0,0.1,0,0.2,0.1l0,0.1c0,0,0,0.1,0,0.1c-0.4,0.5-0.9,0.7-1.6,0.7c-0.7,0-1.2-0.4-1.4-1.1
			c0-0.1-0.1-0.1-0.1,0c-0.5,0.6-1.2,1.1-2.2,1.1c-1.2,0-1.9-0.7-1.9-1.8c0-1.2,0.9-1.7,1.9-2.1l2.1-0.7c0.1,0,0.1-0.1,0.1-0.1v-1.1
			c0-0.8-0.3-1.4-1-1.4c-0.5,0-0.9,0.4-1,0.8c0,0.3,0,0.6,0,0.8C-12.7-694.8-12.7-694.8-12.8-694.7"/>
	</g>
	<g transform="translate(87.0383,732.5033)">
		<path inkscape:connector-curvature="0" class="st0" d="M-23.2-705.1c0-0.6,0.5-1.1,1.2-1.1c0.7,0,1.2,0.5,1.2,1.1
			c0,0.6-0.5,1.1-1.2,1.1C-22.7-704-23.2-704.5-23.2-705.1 M-21-696.5c0,0.3,0.2,0.4,0.8,0.6c0,0,0.1,0.1,0.1,0.1v0.2
			c0,0.1-0.1,0.1-0.1,0.1h-3.5c-0.1,0-0.1-0.1-0.1-0.1v-0.2c0-0.1,0-0.1,0.1-0.1c0.6-0.2,0.8-0.3,0.8-0.6v-5c0,0,0-0.1-0.1-0.1
			l-0.7-0.4c0,0-0.1-0.1-0.1-0.1v-0.1c0-0.1,0-0.1,0.1-0.1l2.4-1h0h0.1c0.1,0,0.1,0.1,0.1,0.1L-21-696.5L-21-696.5z"/>
	</g>
	<g transform="translate(103.8889,729.8067)">
		<path inkscape:connector-curvature="0" class="st0" d="M-17.6-698.8c0.3-0.2,0.4-0.4,0.4-0.6c0-0.2-0.2-0.3-0.8-0.4
			c-0.1,0-0.1-0.1-0.1-0.1v-0.2c0-0.1,0.1-0.1,0.1-0.1h2.8c0.1,0,0.1,0.1,0.1,0.1v0.2c0,0.1,0,0.1-0.1,0.1c-0.5,0.1-0.7,0.2-1.1,0.5
			l-1.8,1.7c0,0-0.1,0.1,0,0.2l3.3,4.3c0,0,0,0,0,0.1v0.1c0,0.1-0.1,0.1-0.1,0.1h-1.9c0,0-0.1,0-0.1-0.1l-2.9-3.9c0-0.1,0-0.1,0-0.2
			L-17.6-698.8z M-21.9-702.5l-0.8-0.4c0,0-0.1-0.1-0.1-0.1v-0.1c0-0.1,0-0.1,0.1-0.1l2.4-1h0h0.1c0.1,0,0.1,0.1,0.1,0.1v10.2
			c0,0.3,0.2,0.4,0.8,0.6c0,0,0.1,0.1,0.1,0.1v0.2c0,0.1-0.1,0.1-0.1,0.1h-3.5c-0.1,0-0.1-0.1-0.1-0.1v-0.2c0-0.1,0-0.1,0.1-0.1
			c0.6-0.2,0.8-0.3,0.8-0.6L-21.9-702.5L-21.9-702.5z"/>
	</g>
	<g transform="translate(106.93,739.2519)">
		<path inkscape:connector-curvature="0" class="st0" d="M-16.6-720.9c0-1.8-0.6-3-2-3c-0.5,0-0.9,0.2-1.3,0.5v4
			c0,1.1,0.4,1.7,1.3,1.7C-17.3-717.7-16.6-719.1-16.6-720.9 M-22.6-727.5v-0.3l2.5-1h0.3v5.1c0.5-0.7,1.3-1.3,2.4-1.3
			c1.7,0,2.8,1.3,2.8,3.5c0,2.8-1.7,4.4-3.9,4.4c-1.3,0-2.5-0.3-3.3-1v-8.9L-22.6-727.5z"/>
	</g>
	<g transform="translate(108.0826,732.3102)">
		<path inkscape:connector-curvature="0" class="st0" d="M-16.2-704.7h0.3c0.1,0,0.1,0.1,0.1,0.1v1.6
			c0,0.1,0.1,0.1,0.1,0.1h1.6c0.1,0,0.1,0.1,0.1,0.1v0.4c0,0.1-0.1,0.1-0.1,0.1h-1.6c-0.1,0-0.1,0.1-0.1,0.1v4.6
			c0,0.9,0.3,1.2,1,1.2c0.4,0,0.6-0.1,1-0.3c0.1,0,0.1,0,0.2,0l0,0.1c0,0,0,0.1,0,0.1c-0.5,0.7-1.2,1.2-2.2,1.2c-1.2,0-2-0.6-2-2.2
			v-4.7c0-0.1-0.1-0.1-0.1-0.1h-0.6c-0.1,0-0.1-0.1-0.1-0.1v-0.2c0-0.1,0-0.1,0.1-0.1c0.2-0.1,0.5-0.3,0.7-0.4c0,0,0.1-0.1,0.1-0.1
			v-0.8c0-0.1,0-0.1,0.1-0.1L-16.2-704.7"/>
	</g>
	<g transform="translate(128.7012,732.3102)">
		<path inkscape:connector-curvature="0" class="st0" d="M-9.3-704.7H-9c0.1,0,0.1,0.1,0.1,0.1v1.6
			c0,0.1,0.1,0.1,0.1,0.1h1.6c0.1,0,0.1,0.1,0.1,0.1v0.4c0,0.1-0.1,0.1-0.1,0.1h-1.6c-0.1,0-0.1,0.1-0.1,0.1v4.6
			c0,0.9,0.3,1.2,1,1.2c0.4,0,0.6-0.1,1-0.3c0.1,0,0.1,0,0.2,0l0,0.1c0,0,0,0.1,0,0.1c-0.5,0.7-1.2,1.2-2.2,1.2c-1.2,0-2-0.6-2-2.2
			v-4.7c0-0.1-0.1-0.1-0.1-0.1h-0.6c-0.1,0-0.1-0.1-0.1-0.1v-0.2c0-0.1,0-0.1,0.1-0.1c0.2-0.1,0.5-0.3,0.7-0.4c0,0,0.1-0.1,0.1-0.1
			v-0.8c0-0.1,0-0.1,0.1-0.1L-9.3-704.7"/>
	</g>
	<g transform="translate(138.2825,732.3102)">
		<path inkscape:connector-curvature="0" class="st0" d="M-6.1-704.7h0.3c0.1,0,0.1,0.1,0.1,0.1v1.6
			c0,0.1,0.1,0.1,0.1,0.1H-4c0.1,0,0.1,0.1,0.1,0.1v0.4c0,0.1-0.1,0.1-0.1,0.1h-1.6c-0.1,0-0.1,0.1-0.1,0.1v4.6c0,0.9,0.3,1.2,1,1.2
			c0.4,0,0.6-0.1,1-0.3c0.1,0,0.1,0,0.2,0l0,0.1c0,0,0,0.1,0,0.1c-0.5,0.7-1.2,1.2-2.2,1.2c-1.2,0-2-0.6-2-2.2v-4.7
			c0-0.1-0.1-0.1-0.1-0.1h-0.6c-0.1,0-0.1-0.1-0.1-0.1v-0.2c0-0.1,0-0.1,0.1-0.1c0.2-0.1,0.5-0.3,0.7-0.4c0,0,0.1-0.1,0.1-0.1v-0.8
			c0-0.1,0-0.1,0.1-0.1L-6.1-704.7"/>
	</g>
	<g transform="translate(67.254,727.87)">
		<path inkscape:connector-curvature="0" class="st0" d="M-29.8-694.3c-1.7-1-3.4-1.8-5.2-2.4
			c-0.4-1.4-0.6-2.8-0.7-4.3c1.4,0.3,2.8,0.7,4.1,1.3C-31.3-697.8-30.7-696-29.8-694.3 M-33.7-690.4c-1.7-0.9-3.5-1.5-5.4-1.8
			c-0.5-1.3-1-2.7-1.3-4.1c1.4,0.1,2.9,0.3,4.3,0.7C-35.5-693.9-34.7-692.1-33.7-690.4 M-41.7-692.5c-0.4,0-0.8,0-1.2,0
			c0.5-1.3,0.9-2.6,1.2-4c0.3,1.3,0.7,2.7,1.2,4C-40.9-692.4-41.3-692.5-41.7-692.5 M-44.2-692.3c-1.9,0.3-3.7,0.9-5.4,1.8
			c1-1.7,1.8-3.4,2.4-5.2c1.4-0.4,2.9-0.6,4.3-0.7C-43.3-695-43.7-693.6-44.2-692.3 M-53.5-694.3c0.9-1.7,1.5-3.5,1.8-5.4
			c1.3-0.5,2.7-1,4.1-1.3c-0.1,1.4-0.3,2.9-0.7,4.3C-50.1-696.1-51.9-695.3-53.5-694.3 M-51.5-703.4c1.3,0.5,2.6,0.9,4,1.2
			c-1.3,0.3-2.7,0.7-4,1.2c0-0.4,0-0.8,0-1.2S-51.5-703.1-51.5-703.4 M-53.5-710.2c1.7,1,3.4,1.8,5.2,2.4c0.4,1.4,0.6,2.8,0.7,4.3
			c-1.4-0.3-2.8-0.7-4.1-1.3C-52-706.8-52.6-708.6-53.5-710.2 M-49.6-714.1c1.7,0.9,3.5,1.5,5.4,1.8c0.5,1.3,1,2.7,1.3,4.1
			c-1.4-0.1-2.9-0.3-4.3-0.7C-47.8-710.7-48.6-712.4-49.6-714.1 M-42.3-701.6c0,1.3-0.2,2.6-0.4,4c-1.4,0.1-2.8,0.2-4.2,0.6
			c0.3-1.4,0.5-2.8,0.6-4.2C-45-701.4-43.7-701.6-42.3-701.6 M-46.3-703.3c-0.1-1.4-0.2-2.8-0.6-4.1c1.4,0.3,2.8,0.5,4.2,0.6
			c0.2,1.3,0.4,2.6,0.4,4C-43.7-703-45-703.1-46.3-703.3 M-41.7-712.1c0.4,0,0.8,0,1.2,0c-0.5,1.3-0.9,2.6-1.2,4
			c-0.3-1.3-0.7-2.7-1.2-4C-42.4-712.1-42-712.1-41.7-712.1 M-36.4-697.1c-1.4-0.3-2.8-0.5-4.2-0.6c-0.2-1.3-0.4-2.6-0.4-4
			c1.3,0,2.7,0.2,4,0.4C-36.9-699.8-36.8-698.4-36.4-697.1 M-37-703.3c-1.3,0.2-2.6,0.4-4,0.4c0-1.3,0.2-2.6,0.4-4
			c1.4-0.1,2.8-0.2,4.2-0.6C-36.8-706.1-36.9-704.7-37-703.3 M-39.1-712.3c1.9-0.3,3.7-0.9,5.4-1.8c-1,1.7-1.8,3.4-2.4,5.2
			c-1.4,0.4-2.9,0.6-4.3,0.7C-40-709.6-39.6-710.9-39.1-712.3 M-31.7-701.1c-1.3-0.5-2.6-0.8-4-1.2c1.3-0.3,2.7-0.7,4-1.2
			c0,0.4-0.1,0.8-0.1,1.2S-31.8-701.5-31.7-701.1 M-29.8-710.2c-0.9,1.7-1.5,3.5-1.8,5.4c-1.3,0.5-2.7,1-4.1,1.3
			c0.1-1.4,0.3-2.9,0.7-4.3C-33.2-708.4-31.4-709.2-29.8-710.2 M-30.4-700.6c-0.1-0.6-0.1-1.1-0.1-1.7c0-0.6,0-1.1,0.1-1.7
			c2.9-1.3,5.6-3,8-5.3l-0.9-0.9c-2,1.9-4.3,3.5-6.8,4.7c0.6-2.8,1.9-5.4,4-7.5l0,0l0,0l-0.9-0.9c-2.2,2.1-4.7,3.6-7.4,4.6
			c1-2.7,2.5-5.2,4.5-7.4l-0.9-0.9l0,0c-2.2,2.1-4.8,3.4-7.5,4c1.2-2.5,2.7-4.8,4.7-6.8l-0.9-0.9c-2.3,2.4-4,5.1-5.3,8
			c-1.1,0.1-2.3,0.1-3.4,0c-1.2-2.9-3-5.6-5.3-8l-0.9,0.9c1.9,2.1,3.5,4.4,4.7,6.8c-2.7-0.6-5.3-1.9-7.5-4l-0.9,0.9
			c2,2.2,3.6,4.7,4.5,7.4c-2.7-1-5.2-2.5-7.4-4.6l-0.9,0.9c2,2.1,3.4,4.7,4,7.5c-2.5-1.2-4.8-2.7-6.8-4.7l-0.9,0.9
			c2.4,2.2,5,4,8,5.3c0.1,0.6,0.1,1.1,0.1,1.7c0,0.6,0,1.1-0.1,1.7c-2.9,1.3-5.6,3-7.9,5.3l0.9,0.9c2-1.9,4.3-3.5,6.8-4.7
			c-0.6,2.8-2,5.4-4,7.4l0.9,0.9c2.2-2.1,4.7-3.6,7.4-4.5c-1,2.7-2.5,5.2-4.5,7.4l0.9,0.9c2.2-2.1,4.8-3.4,7.5-4
			c-1.2,2.5-2.7,4.8-4.7,6.8l0.9,0.9c2.3-2.4,4-5.1,5.3-8c1.1-0.1,2.3-0.1,3.4,0c1.2,2.9,3,5.6,5.3,8l0.9-0.9
			c-1.9-2.1-3.5-4.4-4.7-6.8c2.7,0.6,5.3,1.9,7.5,4l0.9-0.9c-2-2.2-3.6-4.7-4.5-7.4c2.7,1,5.2,2.5,7.4,4.5l0.9-0.9
			c-2-2.1-3.4-4.7-4-7.5c2.5,1.2,4.8,2.7,6.8,4.6l0.9-0.9C-24.8-697.6-27.5-699.3-30.4-700.6"/>
	</g>
</g>
</svg>
