
<svg id="e8V3OKZsUb61" xmlns="http://www.w3.org/2000/svg" xmlns:xlink="http://www.w3.org/1999/xlink" viewBox="0 0 16 16" shape-rendering="geometricPrecision" text-rendering="geometricPrecision">
<style>
<![CDATA[#e8V3OKZsUb61{pointer-events: all}#e8V3OKZsUb61 * {animation-play-state: paused}#e8V3OKZsUb61:hover * {animation-play-state: running}
]]>
</style>
<g transform="translate(0 0.515754)">
<polygon points="6.5,5.5 6.5,10.5 11,8 6.5,5.5" fill="none" stroke="#2d3340" stroke-width="1.4" stroke-linecap="round" stroke-linejoin="round"/>
<g id="e8V3OKZsUb618_tr" transform="translate(8,8) rotate(0)">
<path id="e8V3OKZsUb618" d="M8,1.5c3.589851,0,6.5,2.910149,6.5,6.5s-2.910149,6.5-6.5,6.5-6.5-2.910149-6.5-6.5s2.910149-6.5,6.5-6.5c.378752.002707.756659.03615,1.13.1" transform="scale(-1,1) translate(-8,-8)" fill="none" stroke="#2d3340" stroke-width="1.4" stroke-linecap="round" stroke-linejoin="round" stroke-dasharray="41,98"/>
</g>
<g id="e8V3OKZsUb619_tr" transform="translate(8,8) rotate(0)">
<path id="e8V3OKZsUb619" d="M8,1.5c3.589851,0,6.5,2.910149,6.5,6.5s-2.910149,6.5-6.5,6.5-6.5-2.910149-6.5-6.5s2.910149-6.5,6.5-6.5" transform="translate(-8,-8)" fill="none" stroke="#2d3340" stroke-width="1.4" stroke-linecap="round" stroke-linejoin="round" stroke-dashoffset="41" stroke-dasharray="41"/>
</g>
</g>
</svg>
