<?xml version="1.0" encoding="utf-8"?>
<!-- Generator: Adobe Illustrator 24.1.0, SVG Export Plug-In . SVG Version: 6.00 Build 0)  -->
<svg version="1.1" id="Layer_1" xmlns="http://www.w3.org/2000/svg" xmlns:xlink="http://www.w3.org/1999/xlink" x="0px" y="0px"
	 viewBox="0 0 358 149" style="enable-background:new 0 0 358 149;" xml:space="preserve">
<style type="text/css">
	.st0{fill:#156D8C;}
	.st1{fill:#0E8AB2;}
	.st2{fill:#07A6D9;}
	.st3{fill:#00C3FF;}
	.st4{fill:#233741;}
</style>
<g>
	<g>
		<path class="st0" d="M67.5,23.7L31.8,44.3c-4.2,2.4-7.6,9-7.6,14.6v38.6c0,5.6,3.4,8.2,7.6,5.8l0.7-0.4c0-0.2,0-0.4,0-0.6V63.7
			c0-5.6,3.4-12.2,7.6-14.6l34.9-20.2C74.9,23.6,71.5,21.3,67.5,23.7z"/>
		<path class="st1" d="M80,30.9L44.3,51.5c-4.2,2.4-7.6,9-7.6,14.6v38.6c0,5.6,3.4,8.2,7.6,5.8l0.7-0.4c0-0.2,0-0.4,0-0.6V70.9
			c0-5.6,3.4-12.2,7.6-14.6l34.9-20.2C87.4,30.8,84.1,28.5,80,30.9z"/>
		<path class="st2" d="M57.6,78.1c0-5.6,3.4-12.2,7.6-14.6l34.9-20.2c-0.2-5.3-3.6-7.6-7.6-5.2L56.9,58.7c-4.2,2.4-7.6,9-7.6,14.6
			v38.6c0,5.6,3.4,8.2,7.6,5.8l0.7-0.4c0-0.2,0-0.4,0-0.5V78.1z"/>
		<path class="st3" d="M105.2,104.3l-35.7,20.6c-4.2,2.4-7.6-0.1-7.6-5.8V80.5c0-5.6,3.4-12.2,7.6-14.6l35.7-20.6
			c4.2-2.4,7.6,0.1,7.6,5.8v38.6C112.8,95.3,109.4,101.9,105.2,104.3z"/>
	</g>
	<g>
		<path class="st4" d="M136,56.4c-0.3,0-0.5-0.2-0.5-0.5v-25c0-0.3,0.2-0.5,0.5-0.5h12.7c0.3,0,0.5,0.2,0.5,0.5v3.5
			c0,0.3-0.2,0.5-0.5,0.5h-8v7h5.7c0.3,0,0.5,0.2,0.5,0.5v3.5c0,0.3-0.2,0.5-0.5,0.5h-5.7v9.6c0,0.3-0.2,0.5-0.5,0.5H136z"/>
		<g>
			<path class="st4" d="M153,56.4c-0.3,0-0.5-0.2-0.5-0.5v-25c0-0.3,0.2-0.5,0.5-0.5h13.2c0.3,0,0.5,0.2,0.5,0.5v3.5
				c0,0.3-0.2,0.5-0.5,0.5h-8.5v6.3h6.6c0.3,0,0.5,0.2,0.5,0.5v3.5c0,0.3-0.2,0.5-0.5,0.5h-6.6v6.3h8.5c0.3,0,0.5,0.2,0.5,0.5v3.5
				c0,0.3-0.2,0.5-0.5,0.5H153z"/>
		</g>
		<path class="st4" d="M170.9,56.4c-0.3,0-0.5-0.2-0.5-0.5v-25c0-0.3,0.2-0.5,0.5-0.5h4.2c0.3,0,0.5,0.2,0.5,0.5v21h7.4
			c0.3,0,0.5,0.2,0.5,0.5v3.5c0,0.3-0.2,0.5-0.5,0.5H170.9z"/>
		<path class="st4" d="M187.4,56.4c-0.3,0-0.5-0.2-0.5-0.5v-25c0-0.3,0.2-0.5,0.5-0.5h4.2c0.3,0,0.5,0.2,0.5,0.5v21h7.4
			c0.3,0,0.5,0.2,0.5,0.5v3.5c0,0.3-0.2,0.5-0.5,0.5H187.4z"/>
		<path class="st4" d="M203.8,56.4c-0.3,0-0.5-0.2-0.5-0.5v-25c0-0.3,0.2-0.5,0.5-0.5H217c0.3,0,0.5,0.2,0.5,0.5v3.5
			c0,0.3-0.2,0.5-0.5,0.5h-8.5v6.3h6.6c0.3,0,0.5,0.2,0.5,0.5v3.5c0,0.3-0.2,0.5-0.5,0.5h-6.6v6.3h8.5c0.3,0,0.5,0.2,0.5,0.5v3.5
			c0,0.3-0.2,0.5-0.5,0.5H203.8z"/>
		<path class="st4" d="M227.3,56.5c-2.2,0-4.5-0.6-6-1.1c-0.2-0.1-0.4-0.3-0.3-0.6l0.6-3.3c0-0.1,0.1-0.3,0.2-0.3
			c0.1,0,0.2-0.1,0.3-0.1c0,0,0.1,0,0.1,0c1.6,0.5,3,0.8,4.5,0.8h0.5c1,0,1.8-0.3,2.3-0.8c0.5-0.5,0.8-1.3,0.7-2.2
			c0-0.7-0.3-1.2-0.6-1.6c-0.3-0.4-0.8-0.7-1.5-1.1c-0.4-0.3-0.9-0.5-1.4-0.8c-1.8-0.9-3.6-1.9-4.7-3.4c-1-1.3-1.4-2.8-1.4-4.8
			c0-1.8,0.6-3.5,1.6-4.7c1.2-1.4,3.2-2.2,5.8-2.3l0.3,0c1.7,0,3.5,0.3,5.2,0.9c0.2,0.1,0.4,0.3,0.3,0.6l-0.6,3.2
			c0,0.1-0.1,0.3-0.2,0.3c-0.1,0.1-0.2,0.1-0.3,0.1c0,0-0.1,0-0.1,0c-1.5-0.4-2.8-0.6-4.2-0.6c-1,0-1.7,0.2-2.1,0.7
			c-0.4,0.5-0.6,1.2-0.6,2.1c0,1,0.4,1.8,1.4,2.5c0.8,0.6,1.8,1,2.8,1.5c0.9,0.4,1.8,0.8,2.6,1.4c0.6,0.4,1.1,0.8,1.6,1.3
			c1,1.1,1.4,2.6,1.4,4.5c0,2.2-0.5,3.9-1.4,5.2C232.9,55.5,230.5,56.5,227.3,56.5C227.3,56.5,227.3,56.5,227.3,56.5z"/>
		<path class="st4" d="M136,91.5c-0.3,0-0.5-0.2-0.5-0.5V66c0-0.3,0.2-0.5,0.5-0.5l6.9,0c1.1,0,3.9,0.2,5.6,1.7c1,0.9,1.7,2.1,2,3.7
			c0.3,1.3,0.3,2.7,0.3,4.1v7.2c0,1.4,0,2.8-0.3,4c-0.3,1.6-1,3-2,3.8c-0.7,0.6-1.6,1-2.6,1.3c-1,0.3-2.2,0.3-3.4,0.3H136z
			 M142.6,87c1,0,2-0.1,2.5-1c0.4-0.6,0.4-1.8,0.4-2.8v-9.4c0-1,0-2.1-0.4-2.8c-0.5-0.9-1.5-1-2.5-1h-1.9V87H142.6z"/>
		<path class="st4" d="M166.4,91.5c-0.2,0-0.4-0.2-0.5-0.4l-0.8-4.3h-5.6l-0.8,4.3c0,0.2-0.2,0.4-0.5,0.4h-4.1
			c-0.3,0-0.5-0.2-0.5-0.5v-0.8c0,0,0-0.1,0-0.1l5.3-24.2c0-0.2,0.3-0.4,0.5-0.4h5.7c0.2,0,0.4,0.2,0.5,0.4l5.4,24.4
			c0,0,0,0.1,0,0.1V91c0,0.3-0.2,0.5-0.5,0.5H166.4z M164.3,82.3l-1.9-10.8h-0.1l-1.9,10.8H164.3z"/>
		<path class="st4" d="M177.8,91.5c-0.3,0-0.5-0.2-0.5-0.5V70h-5.2c-0.3,0-0.5-0.2-0.5-0.5V66c0-0.3,0.2-0.5,0.5-0.5h15.6
			c0.3,0,0.5,0.2,0.5,0.5v3.5c0,0.3-0.2,0.5-0.5,0.5h-5.2v21c0,0.3-0.2,0.5-0.5,0.5H177.8z"/>
		<path class="st4" d="M201.4,91.5c-0.2,0-0.4-0.2-0.5-0.4l-0.8-4.3h-5.6l-0.8,4.3c0,0.2-0.2,0.4-0.5,0.4h-4.1
			c-0.3,0-0.5-0.2-0.5-0.5v-0.8c0,0,0-0.1,0-0.1l5.3-24.2c0-0.2,0.3-0.4,0.5-0.4h5.7c0.2,0,0.4,0.2,0.5,0.4l5.4,24.4
			c0,0,0,0.1,0,0.1V91c0,0.3-0.2,0.5-0.5,0.5H201.4z M199.3,82.3l-1.9-10.8h-0.1l-1.9,10.8H199.3z"/>
		<path class="st4" d="M221.1,91.5c-0.2,0-0.4-0.1-0.4-0.3l-5.4-10.4h-0.4V91c0,0.3-0.2,0.5-0.5,0.5h-4.2c-0.3,0-0.5-0.2-0.5-0.5V66
			c0-0.3,0.2-0.5,0.5-0.5h4.2c0.3,0,0.5,0.2,0.5,0.5v9.6h0.3l5.2-9.8c0.1-0.2,0.3-0.3,0.4-0.3h4.3c0.3,0,0.5,0.2,0.5,0.5v0.7
			c0,0.1,0,0.2-0.1,0.3l-6.2,10.6l6.9,12.7c0,0.1,0.1,0.2,0.1,0.2V91c0,0.3-0.2,0.5-0.5,0.5H221.1z"/>
		<path class="st4" d="M241.7,91.5c-0.2,0-0.4-0.2-0.5-0.4l-0.8-4.3h-5.6l-0.8,4.3c0,0.2-0.2,0.4-0.5,0.4h-4.1
			c-0.3,0-0.5-0.2-0.5-0.5v-0.8c0,0,0-0.1,0-0.1l5.3-24.2c0-0.2,0.3-0.4,0.5-0.4h5.7c0.2,0,0.4,0.2,0.5,0.4l5.4,24.4
			c0,0,0,0.1,0,0.1V91c0,0.3-0.2,0.5-0.5,0.5H241.7z M239.6,82.3l-1.9-10.8h-0.1l-1.9,10.8H239.6z"/>
		<path class="st4" d="M253.1,91.5c-0.3,0-0.5-0.2-0.5-0.5V70h-5.2c-0.3,0-0.5-0.2-0.5-0.5V66c0-0.3,0.2-0.5,0.5-0.5H263
			c0.3,0,0.5,0.2,0.5,0.5v3.5c0,0.3-0.2,0.5-0.5,0.5h-5.2v21c0,0.3-0.2,0.5-0.5,0.5H253.1z"/>
		<path class="st4" d="M276.7,91.5c-0.2,0-0.4-0.2-0.5-0.4l-0.8-4.3h-5.6l-0.8,4.3c0,0.2-0.2,0.4-0.5,0.4h-4.1
			c-0.3,0-0.5-0.2-0.5-0.5v-0.8c0,0,0-0.1,0-0.1l5.3-24.2c0.1-0.2,0.3-0.4,0.5-0.4h5.7c0.2,0,0.4,0.2,0.5,0.4l5.4,24.4
			c0,0,0,0.1,0,0.1V91c0,0.3-0.2,0.5-0.5,0.5H276.7z M274.6,82.3l-1.9-10.8h-0.1l-1.9,10.8H274.6z"/>
		<path class="st4" d="M285.4,91.5c-0.3,0-0.5-0.2-0.5-0.5V66c0-0.3,0.2-0.5,0.5-0.5h4.2c0.3,0,0.5,0.2,0.5,0.5v21h7.4
			c0.3,0,0.5,0.2,0.5,0.5V91c0,0.3-0.2,0.5-0.5,0.5H285.4z"/>
		<path class="st4" d="M308.1,91.8c-2.9,0-5.1-0.8-6.3-2.5c-1.3-1.7-1.5-4.1-1.5-6v-9.3c0-1.7,0.2-4.2,1.5-6
			c1.3-1.7,3.4-2.6,6.3-2.6c3,0,5.1,0.8,6.3,2.5c1.4,1.8,1.5,4.3,1.5,6v9.4c0,1.7-0.2,4.2-1.5,6C313.2,90.9,311,91.8,308.1,91.8z
			 M307.9,69.7c-0.8,0-1.5,0.3-1.8,0.9c-0.5,0.7-0.6,1.8-0.6,2.6v10.6c0,0.8,0.1,1.9,0.6,2.6c0.4,0.5,1,0.8,1.8,0.8h0.5
			c0.8,0,1.5-0.3,1.8-0.8c0.5-0.7,0.6-1.8,0.6-2.6V73.2c0-0.9,0-1.9-0.5-2.6c-0.4-0.5-1.1-0.8-1.9-0.8H307.9z"/>
		<path class="st4" d="M328.1,91.7c-1.6,0-2.9-0.2-4-0.6c-1.2-0.4-2.1-1.1-2.7-1.8c-1.3-1.7-1.5-4.2-1.5-6.7l0-8.2
			c0-1.3,0-2.5,0.3-3.7c0.3-1.4,0.9-2.6,2-3.6c1.3-1.2,3.4-1.8,5.9-1.8c1.7,0,3.7,0.4,5.2,0.9c0.2,0.1,0.4,0.3,0.3,0.6l-0.7,3.3
			c-0.1,0.2-0.3,0.4-0.5,0.4c0,0-0.1,0-0.1,0l-0.6-0.1c-0.5-0.1-1-0.2-1.5-0.3c-0.5-0.1-1.4-0.3-2.1-0.3c-1.2,0-2,0.4-2.5,1.2
			c-0.4,0.8-0.5,1.9-0.5,2.9v8.9c0,1.2,0.1,2.4,0.6,3.3c0.4,0.7,1.2,1.1,2.5,1.2c0.1,0,0.2,0,0.3,0c0.1,0,0.3,0,0.4,0
			c0.1,0,0.2,0,0.3,0v-7.5c0-0.3,0.2-0.5,0.5-0.5h4.1c0.3,0,0.5,0.2,0.5,0.5v10.6c0,0.2-0.1,0.4-0.3,0.4c-0.5,0.3-1.2,0.5-2.1,0.6
			C330.6,91.7,329.1,91.7,328.1,91.7z"/>
	</g>
</g>
<g>
	<path class="st2" d="M135.8,118.2c-0.2,0-0.3-0.1-0.3-0.3v-17c0-0.2,0.1-0.3,0.3-0.3h4.7c0.8,0,2.6,0.1,3.8,1.1
		c0.7,0.6,1.1,1.4,1.3,2.5c0.2,0.9,0.2,1.8,0.2,2.8v4.9c0,0.9,0,1.9-0.2,2.7c-0.2,1.1-0.7,2-1.4,2.6c-0.5,0.4-1.1,0.7-1.7,0.9
		c-0.7,0.2-1.5,0.2-2.3,0.2H135.8z M139,115.1h1.3c0.7,0,1.3-0.1,1.7-0.7c0.3-0.4,0.3-1.2,0.3-1.9v-6.4c0-0.7,0-1.4-0.3-1.9
		c-0.3-0.6-1-0.7-1.7-0.7H139V115.1z"/>
	<path class="st2" d="M157.2,118.2c-0.1,0-0.3-0.1-0.3-0.2l-0.5-2.9h-3.8l-0.5,2.9c0,0.1-0.1,0.2-0.3,0.2H149
		c-0.2,0-0.3-0.1-0.3-0.3v-0.6l3.6-16.5c0-0.1,0.2-0.2,0.3-0.2h3.9c0.1,0,0.3,0.1,0.3,0.2l3.6,16.6l0,0.4c0,0.2-0.1,0.3-0.3,0.3
		H157.2z M154.5,104.4l-1.3,7.6h2.7L154.5,104.4v-0.3V104.4z"/>
	<path class="st2" d="M165.8,118.2c-0.2,0-0.3-0.1-0.3-0.3v-14.3H162c-0.2,0-0.3-0.1-0.3-0.3v-2.4c0-0.2,0.1-0.3,0.3-0.3h10.6
		c0.2,0,0.3,0.1,0.3,0.3v2.4c0,0.2-0.1,0.3-0.3,0.3H169v14.3c0,0.2-0.1,0.3-0.3,0.3H165.8z"/>
	<path class="st2" d="M182.7,118.2c-0.1,0-0.3-0.1-0.3-0.2l-0.5-2.9h-3.8l-0.5,2.9c0,0.1-0.1,0.2-0.3,0.2h-2.8
		c-0.2,0-0.3-0.1-0.3-0.3v-0.6l3.6-16.5c0-0.1,0.2-0.2,0.3-0.2h3.9c0.1,0,0.3,0.1,0.3,0.2l3.6,16.6l0,0.4c0,0.2-0.1,0.3-0.3,0.3
		H182.7z M180,104.4l-1.3,7.6h2.7L180,104.4v-0.3V104.4z"/>
	<path class="st2" d="M189.7,118.2c-0.2,0-0.3-0.1-0.3-0.3V115c0-0.2,0.1-0.3,0.3-0.3h2.7c0.2,0,0.3,0.1,0.3,0.3v2.9
		c0,0.2-0.1,0.3-0.3,0.3H189.7z"/>
	<path class="st2" d="M205,118.2c-0.1,0-0.2-0.1-0.3-0.2l-3.7-7.7c-0.3-0.6-0.7-1.5-1-2.4c0,0.8,0,1.5,0,2.2v7.8
		c0,0.2-0.1,0.3-0.3,0.3H197c-0.2,0-0.3-0.1-0.3-0.3v-17c0-0.2,0.1-0.3,0.3-0.3h2.4c0.1,0,0.2,0.1,0.3,0.2l3.8,8
		c0.3,0.5,0.6,1.4,0.9,2.1c0-0.7,0-1.5,0-2.3v-7.7c0-0.2,0.1-0.3,0.3-0.3h2.7c0.2,0,0.3,0.1,0.3,0.3v17c0,0.2-0.1,0.3-0.3,0.3H205z"
		/>
	<path class="st2" d="M216.7,118.3c-2,0-3.4-0.6-4.2-1.7c-0.9-1.2-1-2.8-1-4.1v-6.3c0-1.2,0.1-2.8,1-4c0.9-1.2,2.3-1.8,4.2-1.8
		c2,0,3.4,0.5,4.2,1.7c0.9,1.2,1,2.9,1,4.1v6.4c0,1.2-0.1,2.8-1,4C220.1,117.7,218.7,118.3,216.7,118.3z M216.5,103.4
		c-0.5,0-1,0.2-1.2,0.6c-0.3,0.5-0.4,1.2-0.4,1.8v7.2c0,0.5,0.1,1.3,0.4,1.8c0.2,0.4,0.7,0.6,1.2,0.6h0.3c0.5,0,1-0.2,1.2-0.6
		c0.3-0.5,0.4-1.2,0.4-1.8v-7.2c0-0.6,0-1.3-0.3-1.8c-0.2-0.4-0.7-0.6-1.3-0.6H216.5z"/>
	<path class="st2" d="M232.9,118.2c-0.1,0-0.2-0.1-0.3-0.2l-3.1-6.3h-0.3v6.2c0,0.2-0.1,0.3-0.3,0.3h-2.9c-0.2,0-0.3-0.1-0.3-0.3
		v-17c0-0.2,0.1-0.3,0.3-0.3h4.7c2,0,3.3,0.6,4.2,1.7c0.9,1.2,1,2.6,1,3.9c0,1.6-0.3,2.8-0.9,3.7c-0.5,0.7-1.2,1.2-2.1,1.5l3.4,6
		c0,0,0,0.1,0,0.1v0.4c0,0.2-0.1,0.3-0.3,0.3H232.9z M229.3,108.7h1.4c0.8,0,1.2-0.3,1.4-0.6c0.3-0.5,0.4-1.2,0.4-1.8v-0.4
		c0-0.6,0-1.3-0.4-1.8c-0.2-0.3-0.8-0.6-1.3-0.6h-1.5V108.7z"/>
	<path class="st2" d="M245,118.3c-1.1,0-2-0.1-2.7-0.4c-0.8-0.3-1.4-0.7-1.8-1.3c-0.9-1.2-1-2.9-1-4.6l0-5.5c0-0.9,0-1.7,0.2-2.5
		c0.2-1,0.6-1.8,1.4-2.4c0.9-0.8,2.3-1.2,4-1.2c1.1,0,2.5,0.2,3.5,0.6c0.1,0.1,0.2,0.2,0.2,0.3l-0.5,2.3c0,0.1-0.2,0.2-0.3,0.2
		c0,0,0,0-0.1,0l-0.4-0.1c-0.4-0.1-0.7-0.2-1-0.2c-0.4-0.1-0.9-0.2-1.4-0.2c-0.8,0-1.3,0.3-1.7,0.8c-0.3,0.5-0.3,1.3-0.3,1.9v6
		c0,0.8,0,1.6,0.4,2.2c0.3,0.5,0.8,0.8,1.7,0.8c0.1,0,0.1,0,0.2,0c0.1,0,0.5,0,0.5,0l0-5.1c0-0.2,0.1-0.3,0.3-0.3h2.8
		c0.2,0,0.3,0.1,0.3,0.3v7.3c0,0.1-0.1,0.2-0.2,0.3c-0.4,0.2-0.8,0.3-1.4,0.5C246.6,118.3,245.6,118.3,245,118.3z"/>
	<path class="st2" d="M253.1,118.2c-0.2,0-0.3-0.1-0.3-0.3v-17c0-0.2,0.1-0.3,0.3-0.3h8.9c0.2,0,0.3,0.1,0.3,0.3v2.4
		c0,0.2-0.1,0.3-0.3,0.3h-5.7v4.2h4.5c0.2,0,0.3,0.1,0.3,0.3v2.4c0,0.2-0.1,0.3-0.3,0.3h-4.5v4.3h5.7c0.2,0,0.3,0.1,0.3,0.3v2.4
		c0,0.2-0.1,0.3-0.3,0.3H253.1z"/>
	<path class="st2" d="M266.4,118.2c-0.2,0-0.3-0.1-0.3-0.3V115c0-0.2,0.1-0.3,0.3-0.3h2.7c0.2,0,0.3,0.1,0.3,0.3v2.9
		c0,0.2-0.1,0.3-0.3,0.3H266.4z"/>
	<path class="st2" d="M281.6,118.2c-0.1,0-0.2-0.1-0.3-0.2l-3.7-7.7c-0.3-0.6-0.7-1.5-1-2.4c0,0.8,0,1.5,0,2.2v7.8
		c0,0.2-0.1,0.3-0.3,0.3h-2.7c-0.2,0-0.3-0.1-0.3-0.3v-17c0-0.2,0.1-0.3,0.3-0.3h2.4c0.1,0,0.2,0.1,0.3,0.2l3.8,8
		c0.3,0.5,0.6,1.4,0.9,2.1c0-0.7,0-1.5,0-2.3v-7.7c0-0.2,0.1-0.3,0.3-0.3h2.7c0.2,0,0.3,0.1,0.3,0.3v17c0,0.2-0.1,0.3-0.3,0.3H281.6
		z"/>
	<path class="st2" d="M293.4,118.3c-2,0-3.4-0.6-4.2-1.7c-0.9-1.2-1-2.8-1-4.1v-6.3c0-1.2,0.1-2.8,1-4c0.9-1.2,2.3-1.8,4.2-1.8
		c2,0,3.4,0.5,4.2,1.7c0.9,1.2,1,2.9,1,4.1v6.4c0,1.2-0.1,2.8-1,4C296.8,117.7,295.3,118.3,293.4,118.3z M293.2,103.4
		c-0.5,0-1,0.2-1.2,0.6c-0.3,0.5-0.4,1.2-0.4,1.8v7.2c0,0.5,0.1,1.3,0.4,1.8c0.2,0.4,0.7,0.6,1.2,0.6h0.3c0.5,0,1-0.2,1.2-0.6
		c0.3-0.5,0.4-1.2,0.4-1.8v-7.2c0-0.6,0-1.3-0.3-1.8c-0.2-0.4-0.7-0.6-1.3-0.6H293.2z"/>
</g>
</svg>
