<svg xmlns="http://www.w3.org/2000/svg" viewBox="0 0 360 275">
    <defs>
        <style>.cls-1{fill:#6c737a;}.cls-2{fill:#fff;}</style>
    </defs>
    <path class="cls-1" d="M212.12,55.49a12,12,0,1,0,12,20.77L356,0H308.07Z"/>
    <path class="cls-2" d="M307.52,55.83a12,12,0,0,0,12,20.82L360,53.39V25.72Z"/>
    <path class="cls-2" d="M270.59,132.58a12,12,0,1,0,12,20.77L360,108.57V80.84Z"/>
    <path class="cls-1" d="M338,149.62a12,12,0,1,0,12,20.76l10-5.78V136.87Z"/>
    <path class="cls-1" d="M216.59,11A12,12,0,0,0,227,17a11.91,11.91,0,0,0,6-1.59L259.88,0H216.1A12,12,0,0,0,216.59,11Z"/>
    <path class="cls-1" d="M275.84,74.13l-11.27,6.5a12,12,0,1,0,12,20.79l11.27-6.51a12,12,0,1,0-12-20.78Z"/>
    <path class="cls-2" d="M106.43,19.51a12,12,0,0,0,16.39,4.4L164.23,0h-48l-5.41,3.12A12,12,0,0,0,106.43,19.51Z"/>
    <path class="cls-1" d="M2.53,24.08a12,12,0,0,0,16.39,4.39L68.23,0h-48L6.92,7.68A12,12,0,0,0,2.53,24.08Z"/>
    <path class="cls-1" d="M190,12.62,123.43,51.27a12,12,0,1,0,12,20.75L202,33.38A12,12,0,1,0,190,12.62Z"/>
    <path class="cls-1" d="M313.84,218.46a12,12,0,1,0,12,20.76L360,219.44V191.69Z"/>
    <path class="cls-1" d="M307,166.6l-66,38a12,12,0,0,0,12,20.8l66-38a12,12,0,0,0-12-20.8Z"/>
</svg>
