<svg id="outline_layer_1_" data-name="outline (layer 1)" xmlns="http://www.w3.org/2000/svg" viewBox="0 0 350 200"><defs><style>.cls-1{fill:#2d3741;}.cls-2{fill:#6c737a;}</style></defs><rect class="cls-1" width="350" height="200"/><path class="cls-2" d="M174,49.38,138.31,70c-4.23,2.44-7.65,9-7.65,14.61v38.63c0,5.63,3.42,8.22,7.65,5.78l.74-.42c0-.18,0-.37,0-.55V89.4c0-5.63,3.42-12.18,7.64-14.62l34.95-20.17C181.41,49.36,178.08,47,174,49.38Z"/><path class="cls-2" d="M186.56,56.58,150.87,77.19c-4.22,2.43-7.65,9-7.65,14.61v38.63c0,5.63,3.43,8.22,7.65,5.78l.74-.43c0-.18,0-.36,0-.55V96.6C151.6,91,155,84.43,159.25,82L194.2,61.81C194,56.56,190.64,54.22,186.56,56.58Z"/><path class="cls-2" d="M164.17,103.81c0-5.63,3.42-12.17,7.65-14.61L206.76,69c-.21-5.25-3.55-7.59-7.63-5.24L163.44,84.39c-4.22,2.44-7.65,9-7.65,14.61v38.63c0,5.63,3.43,8.22,7.65,5.78l.74-.43c0-.17,0-.35,0-.54Z"/><path class="cls-2" d="M211.69,130,176,150.62c-4.23,2.44-7.65-.15-7.65-5.78V106.21c0-5.63,3.42-12.17,7.65-14.61L211.69,71c4.23-2.44,7.65.15,7.65,5.78v38.63C219.34,121,215.92,127.58,211.69,130Z"/></svg>