<svg xmlns="http://www.w3.org/2000/svg" viewBox="0 0 600 233"><defs><style>.cls-1{fill:#fff;}.cls-2{fill:#6c737a;}.cls-3{fill:#dfe1e2;}</style></defs><g id="original"><path class="cls-1" d="M335.14,190.72a12,12,0,0,0-16.39-4.37L238.13,233h47.92l44.72-25.88A12,12,0,0,0,335.14,190.72Z"/><path class="cls-2" d="M593.43,206.93a12,12,0,0,0-16.4-4.35L524.65,233h47.79l16.64-9.67A12,12,0,0,0,593.43,206.93Z"/><path class="cls-3" d="M139.47,192.9a12,12,0,0,0-16.4-4.36L46.4,233H94.24l40.87-23.7A12,12,0,0,0,139.47,192.9Z"/><path class="cls-2" d="M28.12,144.51a12,12,0,0,0-16.4-4.37L0,146.94v27.75l23.76-13.78A12,12,0,0,0,28.12,144.51Z"/><path class="cls-3" d="M22.84,91.09a12,12,0,0,0-16.4-4.36L0,90.46V118.2l18.48-10.71A12,12,0,0,0,22.84,91.09Z"/><path class="cls-2" d="M204.21,211.93a12,12,0,0,0-16.39-4.41L143.56,233h48.1l8.14-4.68A12,12,0,0,0,204.21,211.93Z"/><path class="cls-2" d="M388,216a12,12,0,0,0-16.4-4.39l-37,21.38h48l1-.6A12,12,0,0,0,388,216Z"/><path class="cls-3" d="M519.46,194.55a12,12,0,0,0-16.41-4.35L429.37,233h47.78l38-22.05A12,12,0,0,0,519.46,194.55Z"/><path class="cls-3" d="M414.62,186.78l-11.15,6.43a12,12,0,1,0,12,20.79l11.15-6.44a12,12,0,1,0-12-20.78Z"/><path class="cls-2" d="M47.27,191a12,12,0,0,0-16.39-4.4L0,204.39V232.1l42.88-24.75A12,12,0,0,0,47.27,191Z"/><path class="cls-1" d="M53.19,116.1l-12.42,7.2a12,12,0,1,0,12,20.76l12.42-7.2a12,12,0,0,0-12-20.76Z"/><path class="cls-2" d="M43.58,22.58a12,12,0,0,0-16.4-4.36L0,34V61.72L39.22,39A12,12,0,0,0,43.58,22.58Z"/><path class="cls-3" d="M100.88,146.15,59.7,169.92a12,12,0,1,0,12,20.79l41.18-23.78a12,12,0,1,0-12-20.78Z"/><path class="cls-2" d="M253.37,169.78,218.27,190a12,12,0,1,0,12,20.8l35.11-20.21a12,12,0,0,0-12-20.8Z"/><path class="cls-2" d="M162.18,165.86l-9.36,5.42a12,12,0,1,0,12,20.76l9.36-5.42a12,12,0,0,0-12-20.76Z"/></g></svg>